<svg xmlns="http://www.w3.org/2000/svg" width="30" height="24" viewBox="0 0 30 24">
  <defs>
    <style>
      .cls-1 {
        fill: #979797;
        fill-rule: evenodd;
      }
    </style>
  </defs>
  <path class="cls-1" d="M344,653.344v13.047A3.637,3.637,0,0,0,347.661,670h22.678A3.637,3.637,0,0,0,374,666.391V653.344a3.461,3.461,0,0,0-3.484-3.434h-4.873l-0.117-.5a4.437,4.437,0,0,0-4.359-3.41h-4.341a4.448,4.448,0,0,0-4.359,3.41l-0.116.5h-4.867A3.465,3.465,0,0,0,344,653.344Zm8.951-1.955a0.744,0.744,0,0,0,.729-0.573l0.251-1.075a2.953,2.953,0,0,1,2.9-2.263h4.341a2.953,2.953,0,0,1,2.9,2.263l0.251,1.075a0.751,0.751,0,0,0,.729.573h5.467a1.969,1.969,0,0,1,1.984,1.955v13.047a2.145,2.145,0,0,1-2.161,2.13H347.661a2.145,2.145,0,0,1-2.161-2.13V653.344a1.969,1.969,0,0,1,1.984-1.955h5.467Zm-3.875,2.166a0.99,0.99,0,1,1-1,.99A1,1,0,0,1,349.076,653.555ZM359,666.2a6.21,6.21,0,1,0-6.3-6.21A6.266,6.266,0,0,0,359,666.2Zm0-10.941a4.732,4.732,0,1,1-4.8,4.731A4.773,4.773,0,0,1,359,655.263Z" transform="translate(-344 -646)"/>
</svg>
