<?xml version="1.0" encoding="utf-8"?>
<!-- Generator: Adobe Illustrator 21.0.0, SVG Export Plug-In . SVG Version: 6.00 Build 0)  -->
<svg version="1.1" id="Layer_1" xmlns="http://www.w3.org/2000/svg" xmlns:xlink="http://www.w3.org/1999/xlink" x="0px" y="0px"
	 viewBox="0 0 512 512" style="enable-background:new 0 0 512 512;" xml:space="preserve">
<style type="text/css">
	.st0{fill:#FFFFFF;}
	.st1{fill:#FFBE00;}
	.st2{fill:#212121;}
</style>
<path class="st0" d="M502,136v346c0,11.1-8.9,20-20,20H30c-11.1,0-20-8.9-20-20V136H502z"/>
<path class="st1" d="M482,50c11.1,0,20,8.9,20,20v66H10V70c0-11.1,8.9-20,20-20H482z"/>
<g>
	<path class="st1" d="M356,236h80v80h-80V236z"/>
	<path class="st1" d="M356,356h80v80h-80V356z"/>
	<path class="st1" d="M216,356h80v80h-80V356z"/>
	<path class="st1" d="M216,236h80v80h-80V236z"/>
	<path class="st1" d="M76,236h80v80H76V236z"/>
	<path class="st1" d="M76,356h80v80H76V356z"/>
</g>
<path class="st2" d="M116,186c5.5,0,10-4.5,10-10s-4.5-10-10-10s-10,4.5-10,10S110.5,186,116,186z"/>
<path class="st2" d="M30,512h452c16.5,0,30-13.5,30-30V70c0-16.5-13.5-30-30-30h-16V30c0-16.5-13.5-30-30-30s-30,13.5-30,30v10h-60
	V30c0-16.5-13.5-30-30-30s-30,13.5-30,30v10h-60V30c0-16.5-13.5-30-30-30s-30,13.5-30,30v10h-60V30c0-16.5-13.5-30-30-30
	S46,13.5,46,30v10H30C13.5,40,0,53.5,0,70v412C0,498.5,13.5,512,30,512z M482,492H30c-5.5,0-10-4.5-10-10V146h472v336
	C492,487.5,487.5,492,482,492z M426,30c0-5.5,4.5-10,10-10s10,4.5,10,10v10h-20V30z M306,30c0-5.5,4.5-10,10-10s10,4.5,10,10v10h-20
	V30z M186,30c0-5.5,4.5-10,10-10s10,4.5,10,10v10h-20V30z M66,30c0-5.5,4.5-10,10-10s10,4.5,10,10v10H66V30z M30,60h16v13
	c0,16.5,13.5,30,30,30c5.5,0,10-4.5,10-10s-4.5-10-10-10c-5.5,0-10-4.5-10-10V60h100v13c0,16.5,13.5,30,30,30c5.5,0,10-4.5,10-10
	s-4.5-10-10-10c-5.5,0-10-4.5-10-10V60h100v13c0,16.5,13.5,30,30,30c5.5,0,10-4.5,10-10s-4.5-10-10-10c-5.5,0-10-4.5-10-10V60h100
	v13c0,16.5,13.5,30,30,30c5.5,0,10-4.5,10-10s-4.5-10-10-10c-5.5,0-10-4.5-10-10V60h56c5.5,0,10,4.5,10,10v56H20V70
	C20,64.5,24.5,60,30,60z"/>
<path class="st2" d="M156,186h240c5.5,0,10-4.5,10-10s-4.5-10-10-10H156c-5.5,0-10,4.5-10,10S150.5,186,156,186z"/>
<path class="st2" d="M436,346h-80c-5.5,0-10,4.5-10,10v80c0,5.5,4.5,10,10,10h80c5.5,0,10-4.5,10-10v-80
	C446,350.5,441.5,346,436,346z M426,426h-60v-60h60V426z"/>
<path class="st2" d="M296,346h-80c-5.5,0-10,4.5-10,10v80c0,5.5,4.5,10,10,10h80c5.5,0,10-4.5,10-10v-80
	C306,350.5,301.5,346,296,346z M286,426h-60v-60h60V426z"/>
<path class="st2" d="M156,346H76c-5.5,0-10,4.5-10,10v80c0,5.5,4.5,10,10,10h80c5.5,0,10-4.5,10-10v-80C166,350.5,161.5,346,156,346
	z M146,426H86v-60h60V426z"/>
<path class="st2" d="M156,226H76c-5.5,0-10,4.5-10,10v80c0,5.5,4.5,10,10,10h80c5.5,0,10-4.5,10-10v-80C166,230.5,161.5,226,156,226
	z M146,306H86v-60h60V306z"/>
<path class="st2" d="M296,226h-80c-5.5,0-10,4.5-10,10v80c0,5.5,4.5,10,10,10h80c5.5,0,10-4.5,10-10v-80
	C306,230.5,301.5,226,296,226z M286,306h-60v-60h60V306z"/>
<path class="st2" d="M436,226h-80c-5.5,0-10,4.5-10,10v80c0,5.5,4.5,10,10,10h80c5.5,0,10-4.5,10-10v-80
	C446,230.5,441.5,226,436,226z M426,306h-60v-60h60V306z"/>
</svg>
