<svg height="512pt" viewBox="-43 0 512 512.001" width="512pt" xmlns="http://www.w3.org/2000/svg"><path d="m150.449219 20h.269531c5.523438 0 10-4.476562 10-10s-4.476562-10-10-10h-.269531c-5.519531 0-10 4.476562-10 10s4.480469 10 10 10zm0 0"/><path d="m396.4375 0h-205.75c-5.523438 0-10 4.476562-10 10s4.476562 10 10 10h205.75c5.515625 0 10 4.484375 10 10v366.4375c0 5.511719-4.484375 10-10 10h-40.683594v-222.515625c0-.113281-.011718-.21875-.015625-.328125-.003906-.121094-.011719-.242188-.019531-.359375-.027344-.414063-.074219-.820313-.148438-1.21875-.003906-.015625-.007812-.039063-.011718-.058594-.085938-.4375-.207032-.863281-.351563-1.28125-.027343-.078125-.058593-.160156-.085937-.238281-.148438-.390625-.3125-.773438-.503906-1.136719-.015626-.03125-.023438-.058593-.039063-.085937-.207031-.386719-.445313-.757813-.699219-1.113282-.058594-.082031-.121094-.160156-.183594-.242187-.265624-.347656-.550781-.6875-.859374-1-.003907-.003906-.007813-.007813-.011719-.011719l-88.355469-88.355468c-.003906-.003907-.007812-.007813-.011719-.011719-.3125-.308594-.648437-.589844-.996093-.855469-.082032-.066406-.164063-.128906-.25-.1875-.355469-.253906-.71875-.488281-1.105469-.695312-.03125-.015626-.066407-.03125-.101563-.046876-.359375-.1875-.734375-.351562-1.117187-.492187-.082031-.03125-.167969-.0625-.25-.09375-.414063-.140625-.839844-.261719-1.277344-.351563-.019531-.003906-.042969-.003906-.066406-.007812-.394531-.078125-.800781-.121094-1.207031-.152344-.121094-.007812-.238282-.011718-.359376-.015625-.109374-.003906-.21875-.019531-.328124-.019531h-166.714844v-55.5625c0-5.515625 4.488281-10 10-10h21.035156c5.523438 0 10-4.476562 10-10s-4.476562-10-10-10h-21.035156c-16.539063 0-30 13.457031-30 30v55.5625h-40.683594c-16.542969 0-30 13.460938-30 30v366.4375c0 16.542969 13.457031 30 30 30h295.753906c16.542969 0 30-13.457031 30-30v-55.5625h40.683594c16.542969 0 30-13.457031 30-30v-366.4375c0-16.542969-13.457031-30-30-30zm-129.039062 119.707031 54.214843 54.214844h-44.214843c-5.515626 0-10-4.488281-10-10zm68.355468 362.292969c0 5.515625-4.484375 10-10 10h-295.753906c-5.511719 0-10-4.484375-10-10v-366.4375c0-5.511719 4.488281-10 10-10h217.398438v58.359375c0 16.542969 13.457031 30 30 30h58.355468zm0 0"/><path d="m110.707031 236.027344-19.597656 19.59375-6.261719-6.261719c-3.902344-3.90625-10.234375-3.90625-14.140625 0s-3.90625 10.238281 0 14.140625l13.332031 13.335938c1.875 1.875 4.417969 2.925781 7.070313 2.925781s5.195313-1.050781 7.070313-2.925781l26.667968-26.667969c3.90625-3.90625 3.90625-10.238281 0-14.144531-3.902344-3.902344-10.234375-3.902344-14.140625.003906zm0 0"/><path d="m110.707031 316.027344-19.597656 19.597656-6.261719-6.261719c-3.902344-3.90625-10.234375-3.90625-14.140625 0-3.90625 3.902344-3.90625 10.234375 0 14.140625l13.332031 13.332032c1.875 1.875 4.417969 2.929687 7.070313 2.929687s5.195313-1.054687 7.070313-2.929687l26.667968-26.667969c3.90625-3.902344 3.90625-10.234375 0-14.140625-3.902344-3.90625-10.234375-3.90625-14.140625 0zm0 0"/><path d="m110.707031 396.03125-19.597656 19.59375-6.261719-6.261719c-3.90625-3.902343-10.234375-3.902343-14.140625 0-3.90625 3.90625-3.90625 10.238281 0 14.144531l13.332031 13.332032c1.953126 1.953125 4.511719 2.929687 7.070313 2.929687s5.117187-.976562 7.070313-2.929687l26.667968-26.667969c3.90625-3.902344 3.90625-10.234375 0-14.140625-3.902344-3.90625-10.234375-3.90625-14.140625 0zm0 0"/><path d="m163.824219 266.429688h114.152343c5.523438 0 10-4.476563 10-10 0-5.523438-4.476562-10-10-10h-114.152343c-5.519531 0-10 4.476562-10 10 0 5.523437 4.480469 10 10 10zm0 0"/><path d="m163.824219 346.433594h114.152343c5.523438 0 10-4.476563 10-10 0-5.523438-4.476562-10-10-10h-114.152343c-5.519531 0-10 4.476562-10 10 0 5.523437 4.480469 10 10 10zm0 0"/><path d="m287.976562 416.4375c0-5.523438-4.476562-10-10-10h-114.152343c-5.519531 0-10 4.476562-10 10 0 5.519531 4.480469 10 10 10h114.152343c5.523438 0 10-4.480469 10-10zm0 0"/><path d="m77.777344 193.921875h40c5.523437 0 10-4.476563 10-10s-4.476563-10-10-10h-40c-5.519532 0-10 4.476563-10 10s4.476562 10 10 10zm0 0"/><path d="m163.824219 193.921875h40c5.523437 0 10-4.476563 10-10s-4.476563-10-10-10h-40c-5.519531 0-10 4.476563-10 10s4.480469 10 10 10zm0 0"/><path d="m245.988281 462h-.234375c-5.523437 0-10 4.476562-10 10s4.476563 10 10 10h.234375c5.523438 0 10-4.476562 10-10s-4.476562-10-10-10zm0 0"/><path d="m315.753906 461.996094h-41.035156c-5.523438 0-10 4.476562-10 10 0 5.523437 4.476562 10 10 10h41.035156c5.523438 0 10-4.476563 10-10 0-5.523438-4.476562-10-10-10zm0 0"/></svg>