<?xml version="1.0" encoding="utf-8"?>
<!-- Generator: Adobe Illustrator 21.0.0, SVG Export Plug-In . SVG Version: 6.00 Build 0)  -->
<svg version="1.1" id="Layer_1" xmlns="http://www.w3.org/2000/svg" xmlns:xlink="http://www.w3.org/1999/xlink" x="0px" y="0px"
	 viewBox="0 0 512 512" style="enable-background:new 0 0 512 512;" xml:space="preserve">
<path d="M230.4,220.1c-4.3-3.5-10.6-2.8-14.1,1.5l-69.2,86.3c-3.5,4.3-2.8,10.6,1.6,14.1c1.8,1.5,4.1,2.2,6.3,2.2
	c2.9,0,5.8-1.3,7.8-3.8l69.2-86.3C235.5,229.8,234.8,223.5,230.4,220.1z"/>
<path d="M222.6,317.8l44.3-55.7c3.4-4.3,2.7-10.6-1.6-14.1c-4.3-3.4-10.6-2.7-14.1,1.6L207,305.4c-3.4,4.3-2.7,10.6,1.6,14.1
	c1.8,1.5,4,2.2,6.2,2.2C217.8,321.6,220.7,320.3,222.6,317.8z"/>
<path d="M300.2,276.1c-4.3-3.5-10.6-2.8-14.1,1.6L217,363.9c-3.5,4.3-2.8,10.6,1.5,14.1c1.8,1.5,4.1,2.2,6.3,2.2
	c2.9,0,5.8-1.3,7.8-3.7l69.2-86.3C305.3,285.8,304.6,279.5,300.2,276.1z"/>
<path d="M194.8,333.6l-0.7-0.4c-5-2.4-11-0.3-13.3,4.7c-2.4,5-0.3,11,4.7,13.3l0.8,0.4c1.4,0.7,2.9,1,4.3,1c3.7,0,7.3-2.1,9-5.7
	C201.9,341.9,199.8,336,194.8,333.6z"/>
<path d="M460.9,72.3l0.1,0.1c1.4,0.7,2.9,1,4.3,1c3.7,0,7.3-2.1,9-5.7c2.4-5,0.3-11-4.7-13.4l-0.1-0.1c-5-2.4-11-0.3-13.4,4.7
	C453.9,63.9,456,69.9,460.9,72.3z"/>
<path d="M488.6,95.8c-0.7-5.5-5.7-9.4-11.2-8.6c-5.5,0.7-9.3,5.7-8.6,11.2c3.2,24.5-3.6,48.6-19,67.9
	c-12.6,15.7-29.4,26.1-47.5,30.7l-7.6-80.5c-0.7-7-4.1-13.3-9.6-17.7c-5.5-4.4-12.4-6.4-19.4-5.5l-75.7,9.5c0-0.1,0-0.1,0-0.2
	c1.5-17.9,8.2-34.8,19.5-48.8c15-18.7,36.5-30.5,60.4-33.1s47.4,4.2,66.1,19.2c4.3,3.5,10.6,2.8,14.1-1.5s2.8-10.6-1.5-14.1
	C425.4,5.8,396.7-2.5,367.5,0.7s-55.4,17.6-73.8,40.5c-13.8,17.2-22,37.8-23.8,59.7c-0.1,1.4-0.2,2.8-0.3,4.4l-33,4.1
	c-6.7,0.8-12.7,4.2-17,9.5L24.2,362.7c-3.5,4.3-2.8,10.6,1.5,14.1l165.9,133c0.2,0.2,0.5,0.4,0.7,0.5c1.7,1.1,3.6,1.7,5.5,1.7l0,0
	c0.3,0,0.7,0,1-0.1c0.1,0,0.2,0,0.3,0c0.2,0,0.5-0.1,0.7-0.1c0.1,0,0.3-0.1,0.4-0.1c0.2-0.1,0.4-0.1,0.6-0.2c0.1,0,0.3-0.1,0.4-0.1
	c0.2-0.1,0.4-0.1,0.6-0.2c0.1-0.1,0.3-0.1,0.4-0.2c0.2-0.1,0.4-0.2,0.5-0.3c0.1-0.1,0.3-0.2,0.4-0.2c0.2-0.1,0.3-0.2,0.5-0.3
	c0.1-0.1,0.2-0.2,0.4-0.3c0.2-0.1,0.4-0.3,0.5-0.5c0.1-0.1,0.2-0.2,0.3-0.3l0,0c0.2-0.2,0.5-0.5,0.7-0.8l0,0L401,264.5
	c4.2-5.3,6.2-11.9,5.6-18.6l-2.7-28.7c23.3-5.3,45.1-18.3,61.2-38.3C484.2,155.2,492.5,125.8,488.6,95.8z M102.9,413
	c18.7,5.6,40.9,10.5,66.6,13.5c-2.8,9.3-4.8,22.8-1.2,38.9l-37-29.7L102.9,413z M386.9,247.7c0.1,1.5-0.3,3-1.3,4.2L198.3,485.5
	c-22.2-35.2-6.6-60.9-5.9-62c1.9-2.9,2.2-6.7,0.6-9.9c-1.5-3.2-4.6-5.3-8.1-5.6c-74.3-6.3-120.5-30.2-138.3-41.2l188.7-235.4
	c1-1.2,2.3-2,3.8-2.1L281,124l0,0l87.1-10.9c1.6-0.2,3.1,0.2,4.4,1.2c1.2,1,2,2.4,2.2,4l7.7,81.4c-7.2,0.2-14.4-0.4-21.6-1.9
	c1.4-5.3,1.8-10.8,1.2-16.4c-1.3-12.1-7.3-22.9-16.7-30.5c-19.5-15.7-48.2-12.5-63.9,7c-15.7,19.6-12.5,48.2,7,63.9
	c8.4,6.7,18.4,10,28.4,10c12.8,0,25.5-5.4,34.4-15.7c9.3,2.5,18.8,3.7,28.3,3.7c1.6,0,3.2,0,4.8-0.1L386.9,247.7z M323.2,180.2
	c-4.3-3.5-10.6-2.8-14.1,1.5s-2.8,10.6,1.5,14.1c6.1,4.9,12.6,9,19.3,12.4c-8.9,5.4-20.6,5-29.2-1.9c-10.9-8.8-12.7-24.8-3.9-35.7
	c5-6.3,12.4-9.5,19.9-9.5c5.6,0,11.2,1.8,15.9,5.6c5.3,4.2,8.6,10.3,9.4,17.1c0.3,2.7,0.2,5.3-0.4,7.9
	C335.2,188.6,329,184.8,323.2,180.2z"/>
</svg>
