<?xml version="1.0" encoding="utf-8"?>
<!-- Generator: Adobe Illustrator 21.0.0, SVG Export Plug-In . SVG Version: 6.00 Build 0)  -->
<svg version="1.1" id="Capa_1" xmlns="http://www.w3.org/2000/svg" xmlns:xlink="http://www.w3.org/1999/xlink" x="0px" y="0px"
	 viewBox="0 0 512 512" style="enable-background:new 0 0 512 512;" xml:space="preserve">
<style type="text/css">
	.st0{fill:#FFBE00;}
	.st1{fill:#212121;}
</style>
<circle class="st0" cx="255.8" cy="184.2" r="174.2"/>
<circle class="st0" cx="255.8" cy="184.2" r="130.6"/>
<path class="st1" d="M478,427.7l-72.7-136.2c21.8-30.2,34.6-67.3,34.6-107.3C439.9,82.6,357.3,0,255.7,0S71.6,82.6,71.6,184.2
	c0,41.3,13.7,79.5,36.7,110.3L34.1,427.5c-1.8,3.3-1.7,7.3,0.4,10.4c2.1,3.1,5.8,4.8,9.5,4.4l78.9-9.5l31.2,73.1
	c1.5,3.5,4.9,5.9,8.8,6.1c0.1,0,0.3,0,0.4,0c3.7,0,7.1-2,8.8-5.3l73.4-138.6c3.4,0.2,6.8,0.3,10.2,0.3c2.4,0,4.7-0.1,7.1-0.1
	l77.1,138.6c1.8,3.2,5.1,5.1,8.7,5.1c0.2,0,0.3,0,0.5,0c3.8-0.2,7.2-2.5,8.7-6.1l31.2-73.1l78.9,9.5c3.7,0.4,7.3-1.2,9.4-4.3
	C479.5,435,479.8,431,478,427.7z M164.3,478.8l-25.9-60.7c-1.7-4.1-6-6.5-10.4-6l-66.9,8.1l61-109.4c26.7,28.2,62.3,48,102.2,54.9
	L164.3,478.8z M91.6,184.2C91.6,93.7,165.2,20,255.7,20s164.2,73.7,164.2,164.2s-73.7,164.2-164.2,164.2S91.6,274.7,91.6,184.2z
	 M384,412.1c-4.4-0.5-8.6,1.9-10.4,6l-26.2,61.2l-62.9-113.2c42.1-6.6,79.5-27.6,107.1-57.7l59.7,111.8L384,412.1z"/>
<path class="st1" d="M348.2,101.9c2.5,0,5-0.9,7-2.8c4-3.8,4.1-10.2,0.2-14.1l-0.2-0.2c-3.9-3.9-10.2-3.9-14.1,0
	c-3.9,3.9-3.9,10.2,0,14.1C343,100.9,345.6,101.9,348.2,101.9z"/>
<path class="st1" d="M170.4,269.4c-3.8-3.9-10.1-4-14.1-0.2c-4,3.8-4.1,10.2-0.2,14.1c0,0,0.2,0.2,0.2,0.2c2,2,4.5,2.9,7.1,2.9
	s5.1-1,7.1-2.9C174.3,279.7,174.3,273.4,170.4,269.4C170.4,269.5,170.4,269.4,170.4,269.4z"/>
<path class="st1" d="M135.1,184.2c0-66.5,54.1-120.6,120.6-120.6c5.5,0,10-4.5,10-10s-4.5-10-10-10c-77.5,0-140.6,63.1-140.6,140.6
	c0,20.3,4.2,39.9,12.6,58.2c1.7,3.7,5.3,5.9,9.1,5.9c1.4,0,2.8-0.3,4.1-0.9c5-2.3,7.2-8.2,5-13.2
	C138.7,218.4,135.1,201.6,135.1,184.2z"/>
<path class="st1" d="M380.5,119.3c-2.6-4.9-8.6-6.8-13.5-4.2c-4.9,2.6-6.8,8.6-4.2,13.5c9,17.3,13.6,36,13.6,55.7
	c0,66.5-54.1,120.6-120.6,120.6c-5.5,0-10,4.5-10,10s4.5,10,10,10c77.5,0,140.6-63.1,140.6-140.6
	C396.4,161.6,390.9,139.1,380.5,119.3z"/>
<path class="st1" d="M287.7,253.4c5.5,0,10-4.5,10-10s-4.5-10-10-10h-21.2V127c0-4-2.4-7.7-6.2-9.2c-3.7-1.5-8-0.7-10.9,2.2
	l-34.9,34.9c-3.9,3.9-3.9,10.2,0,14.1c3.9,3.9,10.2,3.9,14.1,0l17.8-17.8v82.2h-21.2c-5.5,0-10,4.5-10,10s4.5,10,10,10L287.7,253.4
	L287.7,253.4z"/>
</svg>
