<?xml version="1.0" encoding="utf-8"?>
<!-- Generator: Adobe Illustrator 21.0.0, SVG Export Plug-In . SVG Version: 6.00 Build 0)  -->
<svg version="1.1" id="Layer_1" xmlns="http://www.w3.org/2000/svg" xmlns:xlink="http://www.w3.org/1999/xlink" x="0px" y="0px"
	 viewBox="0 0 512 512" style="enable-background:new 0 0 512 512;" xml:space="preserve">
<style type="text/css">
	.st0{fill:#FFBE00;}
	.st1{fill:#212121;}
</style>
<path class="st0" d="M90.6,299.2h86.6v135.4H90.6V299.2z"/>
<path class="st0" d="M177.2,254.2h86.6v180.4h-86.6V254.2z"/>
<path class="st0" d="M263.8,209.2h86.6v225.4h-86.6V209.2z"/>
<path class="st0" d="M391.1,21.7l-68.5,113.5h27.7v299.4h81.4V135.2h27.7L391.1,21.7z"/>
<path class="st1" d="M468.1,130L399.6,16.6c-1.8-3-5.1-4.8-8.6-4.8s-6.8,1.8-8.6,4.8L314.1,130c-1.9,3.1-1.9,6.9-0.1,10.1
	c1.8,3.1,5.1,5.1,8.7,5.1h17.7v54h-76.6c-5.5,0-10,4.5-10,10v35h-76.6c-5.5,0-10,4.5-10,10v35H90.6c-5.5,0-10,4.5-10,10v135.4
	c0,5.5,4.5,10,10,10h341.2c5.5,0,10-4.5,10-10V145.2h17.7c3.6,0,6.9-1.9,8.7-5.1S470,133.1,468.1,130z M100.6,309.2h66.6v115.4
	h-66.6V309.2z M187.2,264.2h66.6v160.4h-66.6V264.2z M273.8,219.2h66.6v205.4h-66.6V219.2z M431.8,125.2c-5.5,0-10,4.5-10,10v289.4
	h-61.4V145.2h18c5.5,0,10-4.5,10-10c0-5.5-4.5-10-10-10h-38.1l50.7-84.1l50.7,84.1H431.8z"/>
<path class="st1" d="M268,468.8H43.2V39.9l5.2,7c2,2.6,5,4,8,4c2.1,0,4.2-0.7,6-2c4.4-3.3,5.3-9.6,2-14L41.2,4c-1.9-2.5-4.8-4-8-4
	c-3.1,0-6.1,1.5-8,4L2,34.8c-3.3,4.4-2.4,10.7,2,14s10.7,2.4,14-2l5.2-7v428.9H11.6c-5.5,0-10,4.5-10,10s4.5,10,10,10h11.6v11.6
	c0,5.5,4.5,10,10,10s10-4.5,10-10v-11.6H268c5.5,0,10-4.5,10-10S273.5,468.8,268,468.8z"/>
<path class="st1" d="M316.3,474.9c-0.2-0.6-0.6-1.2-0.9-1.7c-0.4-0.6-0.8-1.1-1.2-1.5c-0.5-0.5-1-0.9-1.5-1.2
	c-0.5-0.4-1.1-0.7-1.7-0.9c-0.6-0.2-1.2-0.4-1.9-0.6c-1.3-0.3-2.6-0.3-3.9,0c-0.6,0.1-1.3,0.3-1.9,0.6c-0.6,0.2-1.2,0.6-1.7,0.9
	c-0.6,0.4-1.1,0.8-1.5,1.2c-0.5,0.5-0.9,1-1.2,1.5c-0.4,0.5-0.7,1.1-0.9,1.7c-0.2,0.6-0.4,1.2-0.6,1.9s-0.2,1.3-0.2,1.9
	c0,0.6,0.1,1.3,0.2,2c0.1,0.6,0.3,1.3,0.6,1.9c0.2,0.6,0.6,1.2,0.9,1.7c0.4,0.5,0.8,1.1,1.2,1.5c0.5,0.5,1,0.9,1.5,1.2
	c0.5,0.4,1.1,0.7,1.7,0.9c0.6,0.2,1.2,0.4,1.9,0.6c0.6,0.1,1.3,0.2,2,0.2c0.7,0,1.3-0.1,2-0.2c0.6-0.1,1.3-0.3,1.9-0.6
	c0.6-0.2,1.2-0.6,1.7-0.9c0.6-0.4,1.1-0.8,1.5-1.2s0.9-1,1.2-1.5c0.4-0.5,0.7-1.1,0.9-1.7c0.2-0.6,0.4-1.2,0.6-1.9
	c0.1-0.7,0.2-1.3,0.2-2c0-0.7-0.1-1.3-0.2-1.9C316.7,476.2,316.5,475.6,316.3,474.9z"/>
<path class="st1" d="M508,470.8l-30.8-23.2c-4.4-3.3-10.7-2.4-14,2s-2.4,10.7,2,14l7,5.2H345.6c-5.5,0-10,4.5-10,10
	c0,5.5,4.5,10,10,10h126.5l-7,5.2c-4.4,3.3-5.3,9.6-2,14c2,2.6,5,4,8,4c2.1,0,4.2-0.7,6-2l30.8-23.2c2.5-1.9,4-4.8,4-8
	C512,475.6,510.5,472.7,508,470.8z"/>
<path class="st1" d="M283.5,84.2c-0.7-3.1-2.7-5.6-5.6-6.9c-2.8-1.3-6.1-1.2-8.9,0.3L238,94.2c-4.9,2.6-6.7,8.7-4.1,13.5
	c2.6,4.9,8.7,6.7,13.5,4.1l6.2-3.4c-16.9,36.3-59.7,74.4-114.2,101.1c-18.4,9-37.2,16.3-55.9,21.6c-5.3,1.5-8.4,7-6.9,12.3
	c1.2,4.4,5.3,7.3,9.6,7.3c0.9,0,1.8-0.1,2.7-0.4c19.8-5.6,39.7-13.3,59.2-22.8c57.2-28,102.8-68.7,122.4-108.4l0.8,3.7
	c1,4.7,5.2,7.9,9.8,7.9c0.7,0,1.4-0.1,2.1-0.2c5.4-1.2,8.8-6.5,7.6-11.9L283.5,84.2z"/>
</svg>
