<svg width="23" height="21" version="1.1" viewBox="0 0 23 21" xmlns="http://www.w3.org/2000/svg">
 <path d="m11.447 0c-1.0472 0-2.0214 0.54808-2.5645 1.4434a1.0001 1.0001 0 0 0 -0.00195 0.00586l-8.4707 14.139a1.0001 1.0001 0 0 0 -0.007813 0.01563c-0.53227 0.92177-0.53491 2.0596-0.007813 2.9844 0.5271 0.92478 1.508 1.5039 2.5723 1.5156a1.0001 1.0001 0 0 0 0.011719 0h16.939a1.0001 1.0001 0 0 0 0.01172 0c1.0643-0.01168 2.0452-0.59084 2.5723-1.5156 0.52707-0.92472 0.52453-2.0626-0.0078-2.9844a1.0001 1.0001 0 0 0 -0.0078 -0.01563l-8.4707-14.139a1.0001 1.0001 0 0 0 -2e-3 -0.00586c-0.54302-0.89544-1.5192-1.4434-2.5664-1.4434zm0 2c0.351 0 0.67354 0.18049 0.85547 0.48047l8.459 14.123c0.17846 0.30901 0.18064 0.68406 0.0039 0.99414-0.1767 0.31001-0.50243 0.50194-0.85938 0.50586h-16.918c-0.35693-0.003918-0.68072-0.19584-0.85742-0.50586-0.17673-0.31006-0.17454-0.68511 0.0039062-0.99414l-0.0097656 0.013672 8.4688-14.137c0.18207-0.30014 0.50251-0.48047 0.85352-0.48047z" clip-rule="evenodd" color="#000000" color-rendering="auto" dominant-baseline="auto" fill-rule="evenodd" image-rendering="auto" shape-rendering="auto" solid-color="#000000" style="font-feature-settings:normal;font-variant-alternates:normal;font-variant-caps:normal;font-variant-ligatures:normal;font-variant-numeric:normal;font-variant-position:normal;isolation:auto;mix-blend-mode:normal;shape-padding:0;text-decoration-color:#000000;text-decoration-line:none;text-decoration-style:solid;text-indent:0;text-orientation:mixed;text-transform:none;white-space:normal"/>
 <path d="m11.434 6.0879a1.0001 1.0001 0 0 0 -0.98633 1.0137v4a1.0001 1.0001 0 1 0 2 0v-4a1.0001 1.0001 0 0 0 -1.0137 -1.0137z" color="#000000" color-rendering="auto" dominant-baseline="auto" image-rendering="auto" shape-rendering="auto" solid-color="#000000" style="font-feature-settings:normal;font-variant-alternates:normal;font-variant-caps:normal;font-variant-ligatures:normal;font-variant-numeric:normal;font-variant-position:normal;isolation:auto;mix-blend-mode:normal;shape-padding:0;text-decoration-color:#000000;text-decoration-line:none;text-decoration-style:solid;text-indent:0;text-orientation:mixed;text-transform:none;white-space:normal"/>
</svg>
