<svg width="29" height="24" viewBox="0 0 29 24" xmlns="http://www.w3.org/2000/svg">
<path d="M0.00062561 13.3316C0.00062561 12.7619 0.129261 12.2177 0.361559 11.7199C0.3855 11.5933 0.41287 11.4669 0.4471 11.3387L2.96315 5.10328L2.98017 5.04718C3.8605 2.42598 5.11309 0 8.28928 0H20.4331C23.6876 0 24.8376 2.48609 25.7372 5.03262L28.369 11.2833C28.7495 11.8929 28.9658 12.5902 28.9658 13.3316V15.2719C28.9658 15.5719 28.9304 15.8653 28.8629 16.148C28.9285 16.3187 28.9658 16.5028 28.9658 16.6968V22.4676C28.9658 23.3139 28.2798 24 27.4336 24H24.2539C23.4081 24 22.7221 23.3139 22.7221 22.4676V19.5818H6.06273V22.4676C6.06273 23.3139 5.37658 24 4.53028 24H1.53268C0.686127 24 0.000238419 23.3139 0.000238419 22.4676V16.6961C0.000238419 16.5028 0.0379601 16.318 0.102991 16.1478C0.0358257 15.8647 0.000238419 15.5716 0.000238419 15.2717V13.3317H0.00062561V13.3316ZM23.8699 5.65866C22.8681 2.83208 22.0624 1.96922 20.4331 1.96922H8.28999C6.67265 1.96922 5.77206 2.9316 4.85692 5.64649L3.02087 9.36725C3.62038 9.14524 4.28012 9.02204 4.97326 9.02204H23.9932C24.6173 9.02204 25.2137 9.1224 25.7639 9.30403L23.8699 5.65866ZM22.2927 16.0088H25.6476C26.2516 16.0088 26.7415 15.5185 26.7415 14.9145C26.7415 14.3103 26.2516 13.8203 25.6476 13.8203H22.2927C21.6884 13.8203 21.1985 14.3103 21.1985 14.9145C21.1985 15.5185 21.6887 16.0088 22.2927 16.0088ZM10.4414 15.7896H18.245C18.6276 15.7896 18.9376 15.4794 18.9376 15.097C18.9376 14.7139 18.6276 14.4038 18.245 14.4038H10.4414C10.0583 14.4038 9.74835 14.7139 9.74835 15.097C9.74835 15.4794 10.0583 15.7896 10.4414 15.7896ZM3.40342 16.0088H6.75819C7.36275 16.0088 7.85238 15.5185 7.85238 14.9145C7.85238 14.3103 7.36236 13.8203 6.75819 13.8203H3.40342C2.79886 13.8203 2.30884 14.3103 2.30884 14.9145C2.30884 15.5185 2.79886 16.0088 3.40342 16.0088Z"/>
</svg>
