<svg width="24" height="29" version="1.1" viewBox="0 0 24 29" xmlns="http://www.w3.org/2000/svg">
 <path d="m9.2188 1.8008c-0.21839 0.045191-0.39007 0.11908-0.50977 0.1582l-0.017578 0.00391-0.015625 0.00781c-0.16408 0.067208-0.46428 0.068282-0.85938 0.19531-0.25414 0.079826-0.47797 0.17585-0.68359 0.25195l0.15625 0.9668c0.24804 0.0084 0.45666-0.00796 0.62695-0.00195h0.00586c1.002 0.024847 2.0028 0.2602 2.8926 0.71484l0.0078 0.00195 0.0059 0.00391c0.02424 0.011502 0.14097 0.11559 0.39062 0.16602l0.0918 0.019531 0.0918-0.015625c0.08408-0.014389 0.16569-0.026401 0.24414-0.035156l0.87692-0.099613-0.53516-0.70117c-0.22901-0.29984-0.49039-0.60007-0.80664-0.85938-0.39909-0.34412-0.83238-0.51149-1.168-0.6875l-2e-3 -0.00195h-2e-3c-0.27765-0.14159-0.57253-0.13308-0.79092-0.087894zm0.32812 0.97852c0.00127 6.144e-4 0.00654-6.483e-4 0.00781 0 0.00306 0.0016 0.00476 0.00231 0.00781 0.00391-0.00526-0.00125-0.010358-0.00267-0.015625-0.00391z" color="#000000" color-rendering="auto" dominant-baseline="auto" image-rendering="auto" shape-rendering="auto" solid-color="#000000" style="font-feature-settings:normal;font-variant-alternates:normal;font-variant-caps:normal;font-variant-ligatures:normal;font-variant-numeric:normal;font-variant-position:normal;isolation:auto;mix-blend-mode:normal;shape-padding:0;text-decoration-color:#000000;text-decoration-line:none;text-decoration-style:solid;text-indent:0;text-orientation:mixed;text-transform:none;white-space:normal"/>
 <path d="m9.8066 1.5625 0.8457 0.87109c0.34185 0.35273 0.55091 0.87956 0.73242 1.4551l0.10156 0.32422 0.33789 0.025391c0.05993 0.00442 0.11937 0.00994 0.17969 0.017578l0.40625 0.050781 0.13086-0.38672c0.17085-0.50335 0.43457-0.96175 0.79102-1.3164l0.62109-0.61523-0.8457-0.22266c-0.73382-0.19228-1.4441-0.1669-2.0859-0.17969zm2.041 1.0898c0.10277 0.00475 0.20524 0.016705 0.30469 0.025391-0.05349 0.086021-0.10895 0.16865-0.15625 0.25781-0.03936-0.097818-0.10184-0.18596-0.14844-0.2832z" color="#000000" color-rendering="auto" dominant-baseline="auto" image-rendering="auto" shape-rendering="auto" solid-color="#000000" style="font-feature-settings:normal;font-variant-alternates:normal;font-variant-caps:normal;font-variant-ligatures:normal;font-variant-numeric:normal;font-variant-position:normal;isolation:auto;mix-blend-mode:normal;shape-padding:0;text-decoration-color:#000000;text-decoration-line:none;text-decoration-style:solid;text-indent:0;text-orientation:mixed;text-transform:none;white-space:normal"/>
 <path d="m7.8691 2.9961c-0.64684 0.03693-1.2931 0.15035-1.9199 0.36914-0.51029 0.17765-1.0375 0.39937-1.5195 0.74219-0.50386 0.35729-0.98997 0.76141-1.4199 1.2363-1.0492 1.1461-1.6858 2.6785-1.6934 4.2656v0.00586c0.0061 0.65987 0.054499 1.3028 0.076172 1.9277l0.017578 0.51172 1.0234-0.0625-0.017578-0.48828c-0.011343-0.30754-0.023769-0.57998 0.00977-0.81445l0.00195-0.0059v-0.0039c0.1012-0.83059 0.37-1.6428 0.75976-2.3906l0.00195-0.00195c0.18904-0.36737 0.41618-0.70562 0.6875-0.98828h0.00195c0.46546-0.48644 1.0305-0.90501 1.6172-1.3359l0.0039062-0.0019531c1.0341-0.74535 2.3092-1.1401 3.6074-1.2637 0.57279-0.042911 1.1661-0.038382 1.7754-0.042969l0.45703-0.00195 0.03125-0.37891 0.83984-0.56445-1.0117-0.30469c-0.45787-0.13743-0.92769-0.24613-1.4082-0.31446-0.62827-0.089706-1.275-0.13068-1.9219-0.09375zm-1.2598 1.291c-0.59238 0.22606-1.1749 0.48674-1.6992 0.86523l-0.00195 0.00195c-0.43196 0.3173-0.86408 0.69181-1.2891 1.0703 0.052238-0.062511 0.07397-0.14708 0.12891-0.20703h0.0019531l0.00195-0.00195c0.36729-0.40571 0.79494-0.76495 1.2559-1.0918h0.00195c0.36601-0.26028 0.80137-0.45097 1.2676-0.61328 0.10365-0.03618 0.2262 0.00629 0.33203-0.023437z" color="#000000" color-rendering="auto" dominant-baseline="auto" image-rendering="auto" shape-rendering="auto" solid-color="#000000" style="font-feature-settings:normal;font-variant-alternates:normal;font-variant-caps:normal;font-variant-ligatures:normal;font-variant-numeric:normal;font-variant-position:normal;isolation:auto;mix-blend-mode:normal;shape-padding:0;text-decoration-color:#000000;text-decoration-line:none;text-decoration-style:solid;text-indent:0;text-orientation:mixed;text-transform:none;white-space:normal"/>
 <path d="m14.682 2.1016c-0.22719-0.09795-0.49488-0.08752-0.71484 0.027344-0.70572 0.33118-1.4012 0.75047-1.9883 1.3301l-0.59961 0.58984 0.80664 0.24414c0.04854 0.014649 0.09636 0.030043 0.14258 0.046875l0.19531 0.072266 0.18945-0.089844c0.25717-0.12127 0.49385-0.23438 0.7207-0.3125l0.0039-0.00195 0.0039-0.00195c0.76208-0.27796 1.6039-0.34878 2.4297-0.24609l0.29103-0.93946c-0.44726-0.23103-0.92278-0.51871-1.4805-0.71875z" color="#000000" color-rendering="auto" dominant-baseline="auto" image-rendering="auto" shape-rendering="auto" solid-color="#000000" style="font-feature-settings:normal;font-variant-alternates:normal;font-variant-caps:normal;font-variant-ligatures:normal;font-variant-numeric:normal;font-variant-position:normal;isolation:auto;mix-blend-mode:normal;shape-padding:0;text-decoration-color:#000000;text-decoration-line:none;text-decoration-style:solid;text-indent:0;text-orientation:mixed;text-transform:none;white-space:normal"/>
 <path d="m11.137 3.7988-0.26367 0.048828c-0.74366 0.14095-1.4734 0.34257-2.1836 0.5957h-0.0019531l-0.00195 0.00195c-1.0417 0.37718-1.9823 0.9747-2.7988 1.6973-0.77858 0.68118-1.4487 1.4871-1.9766 2.3848l-0.00195 0.00195c-0.67883 1.1678-1.2128 2.5005-1.2656 3.9355-6.05e-5 0.0013 5.97e-5 0.0026 0 0.0039-2.36e-5 6.54e-4 2.35e-5 0.0013 0 2e-3 -0.063398 1.4055 0.34596 2.7702 0.96875 3.9688 0.42944 0.82566 0.97622 1.5678 1.5605 2.252v2e-3c0.38667 0.44863 0.78785 0.85765 1.1582 1.2715l0.00391 0.0039 0.00391 0.0039c0.39451 0.42152 0.7852 0.88759 1.2441 1.3242 0.00199 2e-3 0.00387 0.0039 0.00586 0.0059 6.983e-4 6.63e-4 0.00125 0.0013 0.00195 2e-3 0.58372 0.57756 1.1796 1.128 1.748 1.6895l0.011719 0.01367 0.013672 0.01172c-0.017175-0.01465 0.01595 0.02693 0.080078 0.16797 0.063509 0.13968 0.19104 0.39257 0.4707 0.53906 0.49066 0.26156 0.99988 0.22816 1.3945 0.18359h0.0059l0.0059-2e-3c0.2835-0.03828 0.74818-0.0779 1.1074-0.46094 0.27247-0.28217 0.22741-0.6172 0.21484-0.75l-0.02734-0.28516c0.12133-0.17378 0.26705-0.31273 0.36524-0.51172 0.57025-1.1231 0.96568-2.3062 1.3184-3.4766v-4e-3c0.42778-1.4421 0.87269-2.9301 1.0098-4.5059v-2e-3c0.14052-1.4841-0.12379-2.9481-0.51758-4.3223v-0.00391l-2e-3 -0.00195c-0.53477-1.7892-1.335-3.4599-2.1543-5.082l-0.14258-0.28125-0.31445 0.00586c-0.1436 0.00298-0.28867-0.010608-0.42969-0.041016l-0.13867-0.029297-0.080078-0.035156c-0.090593-0.038948-0.16019-0.085047-0.20508-0.13086zm0.73828 1.4648c0.75488 1.5073 1.4819 3.0199 1.9551 4.6016 0.37444 1.3066 0.60628 2.6503 0.48242 3.9551v4e-3c-0.12512 1.4438-0.54459 2.8694-0.97266 4.3125-0.34714 1.1518-0.72706 2.2801-1.2539 3.3164v2e-3l-2e-3 0.0039c-0.15014 0.30429-0.38263 0.58536-0.62695 0.86719-0.03496-0.33431-0.06979-0.67254-0.10352-0.99219v-4e-3c-0.23482-2.1027-0.49258-4.1927-0.65039-6.2832-0.15896-2.0716-0.24079-4.1433 0.02734-6.1602l2e-3 -0.00195c0.13991-1.0903 0.40728-2.1566 0.85352-3.1328v-0.00391l2e-3 -0.00195c0.06751-0.1526 0.18466-0.32085 0.28706-0.48246zm-2.5059 0.029297c-0.45374 0.30971-0.94337 0.55411-1.3477 0.94141h-0.00195c-0.613 0.59254-1.1235 1.2945-1.4941 2.0723v0.00195c-0.46836 0.98896-0.77895 2.0497-0.93164 3.1328v4e-3c-0.12087 0.89002-0.14867 1.8072-0.027344 2.7207 0.11244 0.90596 0.36057 1.7852 0.70508 2.6172v2e-3c0.48894 1.1725 1.0407 2.3232 1.668 3.4335-0.28346-0.29816-0.5627-0.59829-0.86328-0.91992l-0.00781-0.0098c-0.38756-0.43249-0.78227-0.8345-1.1387-1.248h0.00195c-0.5521-0.64644-1.0513-1.3276-1.4336-2.0625-0.56253-1.0826-0.90993-2.284-0.85547-3.4668v-0.0059c0.043365-1.2092 0.50205-2.3917 1.1289-3.4707l0.00195-0.00195c0.47257-0.803 1.0759-1.5284 1.7734-2.1387v-0.00195h0.00195c0.7355-0.65123 1.5721-1.178 2.4766-1.5059 0.11214-0.039969 0.23068-0.056611 0.34375-0.09375zm1.2207 0.35352c-0.41853 1.002-0.71334 2.0494-0.84961 3.1113-0.28297 2.1303-0.19595 4.2697-0.035156 6.3652 0.1602 2.1212 0.42039 4.2239 0.6543 6.3184 0.03205 0.30353 0.06013 0.58936 0.0918 0.88086-0.03723-0.0064-0.08373-0.0033-0.11914-0.01172-0.01145-0.02121-0.01582-0.03215-0.03906-0.06836l-0.01563-0.02539c-0.49901-0.8335-1.002-1.6546-1.4668-2.4883v-2e-3c-0.605-1.0709-1.1395-2.1852-1.6152-3.3261-0.31442-0.75936-0.5368-1.5524-0.63672-2.3574l-0.00195-2e-3v-2e-3c-0.1078-0.80724-0.082375-1.6386 0.029294-2.4608 0.13938-0.98573 0.42023-1.9492 0.8418-2.8398v-0.00195c0.31732-0.66542 0.75862-1.2724 1.2871-1.7832 0.54507-0.52181 1.2113-0.91482 1.875-1.3066zm1.1289 17.104l-0.0078 0.0078-0.0098 0.0098c-0.0025 0.0028-0.02042 0.0051-0.02344 0.0078 0.0018-0.0048-0.01564 0.03078 0.04102-0.02539zm-1.752 0.50977c0.00618 0.0018 0.011402 1.98e-4 0.017578 2e-3 0.00287 7.36e-4 0.00296 0.0032 0.00586 0.0039z" color="#000000" color-rendering="auto" dominant-baseline="auto" image-rendering="auto" shape-rendering="auto" solid-color="#000000" style="font-feature-settings:normal;font-variant-alternates:normal;font-variant-caps:normal;font-variant-ligatures:normal;font-variant-numeric:normal;font-variant-position:normal;isolation:auto;mix-blend-mode:normal;shape-padding:0;text-decoration-color:#000000;text-decoration-line:none;text-decoration-style:solid;text-indent:0;text-orientation:mixed;text-transform:none;white-space:normal"/>
 <path d="m13.68 3.3594c-0.37035 0.053392-0.6776 0.14443-0.93359 0.16797l-1.3262 0.12109 1.0781 0.78125c0.0053 0.00382 0.01802 0.015404 0.0293 0.041016l0.12109 0.27734 0.30078 0.021484c1.093 0.077196 2.1495 0.093359 3.1348 0.32422h0.0078c0.7867 0.17173 1.5377 0.46461 2.127 0.94922l2e-3 0.00195 0.0039 0.00195c0.1591 0.12708 0.32263 0.3102 0.52536 0.50977l0.80859-0.55469c-0.02613-0.060054-0.08272-0.097671-0.11133-0.15625l0.0039-0.00195c-0.004474-0.0044131-0.011118-0.011156-0.015619-0.015628-0.2645-0.53513-0.59835-1.0318-1.0195-1.4316l-2e-3 -0.00195-2e-3 -0.00195c-0.21692-0.20164-0.47525-0.52186-0.91592-0.72071l-0.02539-0.011719-0.02539-0.00781c-1.205-0.39254-2.5051-0.51617-3.7656-0.29297z" color="#000000" color-rendering="auto" dominant-baseline="auto" image-rendering="auto" shape-rendering="auto" solid-color="#000000" style="font-feature-settings:normal;font-variant-alternates:normal;font-variant-caps:normal;font-variant-ligatures:normal;font-variant-numeric:normal;font-variant-position:normal;isolation:auto;mix-blend-mode:normal;shape-padding:0;text-decoration-color:#000000;text-decoration-line:none;text-decoration-style:solid;text-indent:0;text-orientation:mixed;text-transform:none;white-space:normal"/>
 <path d="m10.928 23.348c-0.3062 0.0104-0.67773-0.0025-1.082 0.10547-5.213e-4 1.3e-4 5.211e-4 0.0018 0 2e-3 -0.55643 0.13921-0.96692 0.60107-1.0352 1.1758v0.0098c-0.019187 0.19072-0.00624 0.34388-0.00391 0.45898v0.0059c0.013833 0.448-0.00895 0.92839 0.025391 1.4395 0.028701 0.49485 0.30325 0.9481 0.75781 1.1836 0.39978 0.21232 0.7868 0.19555 1.0547 0.20508h0.02152c0.4868-0.0036 1.0237 0.01417 1.5859-0.09375l0.01758-2e-3 0.04687-0.01367 0.01172-0.0039c0.51829-0.16563 0.97132-0.61708 0.99805-1.2422v-0.02152c8.05e-4 -0.58265-0.0088-1.1609-0.01563-1.7344 5e-3 -0.71324-0.5124-1.2944-1.1855-1.4219h-2e-3c-0.43583-0.07996-0.8357-0.05436-1.1816-0.05273h-0.0078zm1.6191 0.55274 0.0078 0.0059c-0.0012-7.98e-4 -0.0027 7.95e-4 -0.0039 0-0.0021-0.0014-0.0018-0.0045-0.0039-0.0059zm-3.334 0.31445c-0.00115 2e-3 0.00114 0.0039 0 0.0059-0.00202 0.0036-0.00386 0.0022-0.00586 0.0059zm1.7266 0.33594c0.38014-0.02234 0.7083 0.03933 0.9668 0.17383-0.05481 0.04402-0.1178 0.09238-0.28125 0.14062-0.45433 0.09611-0.92464 0.08574-1.3203-0.07227h-2e-3c-0.09858-0.04456-0.13489-0.07637-0.16016-0.09961 0.01629-0.01013-0.01093 0.0106 0.02148-0.0059h2e-3l2e-3 -2e-3c0.16686-0.08624 0.43009-0.10806 0.77148-0.13477zm-1.1191 1.3633c0.057331 0.03244 0.059394 0.11872 0.12109 0.14453 0.56403 0.23933 1.1666 0.25969 1.7168 0.16797h2e-3c0.22861-0.03857 0.44623-0.16076 0.66016-0.2793 0.0019 0.19537 6e-3 0.39358 0.0059 0.58789-0.0052 0.12102-0.14056 0.27211-0.29688 0.32617-0.40814 0.07384-0.86398 0.06887-1.3555 0.07227-0.29439-0.01061-0.50251-0.02625-0.61719-0.08789l-0.0039-2e-3 -0.0039-2e-3c-0.10972-0.056413-0.21063-0.21358-0.21885-0.35538v-4e-3c-0.011944-0.17621-0.00865-0.38151-0.00977-0.56836z" color="#000000" color-rendering="auto" dominant-baseline="auto" image-rendering="auto" shape-rendering="auto" solid-color="#000000" style="font-feature-settings:normal;font-variant-alternates:normal;font-variant-caps:normal;font-variant-ligatures:normal;font-variant-numeric:normal;font-variant-position:normal;isolation:auto;mix-blend-mode:normal;shape-padding:0;text-decoration-color:#000000;text-decoration-line:none;text-decoration-style:solid;text-indent:0;text-orientation:mixed;text-transform:none;white-space:normal"/>
 <path d="m12.799 4-0.21094 0.12891c-0.04841 0.029754-0.11127 0.057367-0.1875 0.080078l-0.99805 0.29688 0.85547 0.59375c1.0429 0.72232 1.9517 1.6677 2.8594 2.6406h2e-3c0.74276 0.79491 1.4221 1.6284 1.8672 2.5664l2e-3 2e-3 2e-3 0.0039c0.36614 0.74732 0.56449 1.5856 0.65625 2.4434 0.111 1.0464 0.0042 2.1151-0.33594 3.0957l-2e-3 2e-3c-0.34198 1.005-0.91454 1.9309-1.6016 2.7676l-0.0059 0.0059-0.0039 0.0059c-0.02915 0.03783-0.1099 0.16801-0.17774 0.25781-0.01248 0.01271-0.02071 0.02832-0.0332 0.04102l0.0039 2e-3c-0.04156 0.06063-0.07003 0.0658-0.10742 0.1543l0.81641 0.54492c1.2247-1.2446 2.4116-2.5896 3.3145-4.1562v-2e-3c0.5767-1.0166 0.90287-2.1259 1.1562-3.209l0.01758-0.07422-0.0059-0.07617c-0.1148-1.5884-0.70004-3.1461-1.6934-4.3986h-2e-3c-0.91767-1.1554-2.1553-1.9525-3.4258-2.5312l-2e-3 -0.00195h-2e-3c-0.82641-0.36879-1.6595-0.75542-2.5252-1.0938zm1.6992 1.8125c0.21786 0.097745 0.43279 0.18525 0.65234 0.2832h-0.0039c1.1765 0.53592 2.273 1.2561 3.0566 2.2422 0.84563 1.0662 1.3536 2.413 1.4668 3.7773-0.24104 1.0147-0.53698 2.0043-1.0254 2.8652-0.07933 0.13759-0.21452 0.24035-0.29883 0.375 0.20439-0.89217 0.39124-1.7971 0.29492-2.7051-0.10065-0.94069-0.32126-1.8943-0.75391-2.7773-0.51506-1.0828-1.2668-1.992-2.0371-2.8164-0.40886-0.43826-0.91214-0.81713-1.3516-1.2441zm1.9902 13.43-0.0098 0.01367c0.0013-0.0015 6.89e-4 -0.0043 2e-3 -0.0059 0.0043-0.0055 0.0034-2e-3 0.0078-0.0078z" color="#000000" color-rendering="auto" dominant-baseline="auto" image-rendering="auto" shape-rendering="auto" solid-color="#000000" style="font-feature-settings:normal;font-variant-alternates:normal;font-variant-caps:normal;font-variant-ligatures:normal;font-variant-numeric:normal;font-variant-position:normal;isolation:auto;mix-blend-mode:normal;shape-padding:0;text-decoration-color:#000000;text-decoration-line:none;text-decoration-style:solid;text-indent:0;text-orientation:mixed;text-transform:none;white-space:normal"/>
</svg>
