<svg width="13" height="22" viewBox="0 0 13 22" xmlns="http://www.w3.org/2000/svg">
<path d="M9.25 4.46563H7.76539C8.00279 3.83642 8.58001 3.39375 9.25 3.39375C10.1293 3.39375 10.85 4.15689 10.85 5.10156C10.85 5.61403 10.6373 6.08415 10.2888 6.40136L9.81952 4.90136L9.81952 4.90135C9.73861 4.64289 9.51034 4.46563 9.25 4.46563ZM0.950037 9.78906C0.95 12.173 2.40847 14.2009 4.42233 14.8955C4.31209 15.1349 4.25 15.4037 4.25 15.6875C4.25 16.4585 4.70657 17.1198 5.35 17.3787V19.7781H3.75C3.4157 19.7781 3.15 20.0659 3.15 20.4141C3.15 20.7622 3.4157 21.05 3.75 21.05H8.15C8.48429 21.05 8.75 20.7622 8.75 20.4141C8.75 20.0659 8.48429 19.7781 8.15 19.7781H6.55V17.3787C7.19343 17.1198 7.65 16.4585 7.65 15.6875C7.65 15.4037 7.58791 15.1349 7.47767 14.8955C9.49153 14.2009 10.95 12.173 10.95 9.78906V9.37785C10.95 8.89612 10.8824 8.46663 10.8139 8.15338C10.7797 7.99668 10.7451 7.86892 10.7186 7.77808C10.7054 7.73266 10.6941 7.6965 10.686 7.67065L10.6833 7.66237C11.5201 7.13298 12.05 6.16792 12.05 5.10156C12.05 3.46155 10.7969 2.12188 9.25 2.12188C7.90888 2.12188 6.78836 3.12928 6.51427 4.46563H5.45V1.58594C5.45 1.23776 5.1843 0.95 4.85 0.95H1.55C1.2157 0.95 0.95 1.23776 0.95 1.58594C0.95 1.93412 1.2157 2.22187 1.55 2.22187H4.25V4.46563H2.65C2.38966 4.46563 2.16139 4.64288 2.08051 4.90136L1.20634 7.69534C1.03627 8.23888 0.950037 8.80497 0.950037 9.37789V9.78906ZM6.45 15.6875C6.45 15.986 6.22272 16.2234 5.95 16.2234C5.67728 16.2234 5.45 15.986 5.45 15.6875C5.45 15.389 5.67728 15.1516 5.95 15.1516C6.22272 15.1516 6.45 15.389 6.45 15.6875ZM5.45 6.80937V5.7375H8.81681L9.15219 6.80937H5.45ZM4.25 5.7375V6.80937H2.74781L3.08319 5.7375H4.25ZM2.15 9.37785C2.15 8.74308 2.30487 8.22494 2.34984 8.08125H9.55002C9.59527 8.22393 9.75 8.71548 9.75 9.37785V9.78906C9.75 12.0481 8.04191 13.8797 5.95 13.8797C3.85809 13.8797 2.15 12.0481 2.15 9.78906V9.37785Z" stroke="#111111" stroke-width="0.1"/>
</svg>
