<svg width="22" height="19" viewBox="0 0 22 19" xmlns="http://www.w3.org/2000/svg">
<path d="M17.9773 4.58453C19.2413 4.58453 20.2696 3.55621 20.2696 2.29229C20.2696 1.02832 19.2413 0 17.9773 0C16.7134 0 15.6851 1.02832 15.6851 2.29229C15.6851 3.55621 16.7134 4.58453 17.9773 4.58453ZM17.9773 1.17013C18.5961 1.17013 19.0995 1.67356 19.0995 2.29229C19.0995 2.91102 18.5961 3.4144 17.9773 3.4144C17.3586 3.4144 16.8552 2.91102 16.8552 2.29229C16.8552 1.67351 17.3586 1.17013 17.9773 1.17013Z" />
<line x1="8" y1="15.5" x2="9" y2="15.5" stroke="#111111"/>
<line x1="7" y1="16.5" x2="6" y2="16.5" stroke="#111111"/>
<line x1="16" y1="16.5" x2="15" y2="16.5" stroke="#111111"/>
<line x1="14" y1="15.5" x2="13" y2="15.5" stroke="#111111"/>
<line x1="12" y1="16.5" x2="11" y2="16.5" stroke="#111111"/>
<path d="M19.5088 17.4282C19.3683 16.3775 18.4338 15.4287 16.8407 14.7447C15.8624 14.3246 14.6887 14.0218 13.4116 13.8525C13.5605 12.63 13.9872 11.5452 14.6846 10.6241C14.9748 10.2409 15.2598 9.95931 15.4721 9.77371C15.8797 10.2055 16.4872 11.0046 16.1988 11.6936C16.0741 11.9916 16.2145 12.3344 16.5126 12.4592C16.5864 12.4901 16.6629 12.5047 16.7383 12.5047C16.967 12.5047 17.1843 12.3697 17.2782 12.1455C17.6547 11.246 17.34 10.3753 16.9143 9.71565C17.2645 9.90782 17.6471 10.2358 18.0017 10.7892C18.1134 10.9636 18.3021 11.0587 18.4949 11.0587C18.6029 11.0587 18.7122 11.0288 18.81 10.9662C19.082 10.7919 19.1613 10.43 18.987 10.1579C17.9665 8.56514 16.6994 8.29385 15.9772 8.2875C15.92 8.09866 15.8357 7.88714 15.7112 7.67057C15.3615 7.0626 14.6238 6.30058 13.0951 6.12276C12.7742 6.08559 12.4836 6.31538 12.4463 6.63636C12.409 6.95729 12.639 7.24775 12.9599 7.28511C13.8067 7.38358 14.289 7.71 14.5638 8.05366C13.868 7.93345 12.9755 7.98773 12.1312 8.6511C11.8771 8.85074 11.8329 9.21852 12.0326 9.47258C12.148 9.61952 12.3196 9.69625 12.493 9.69621C12.6195 9.69621 12.7469 9.65539 12.8541 9.57118C13.3666 9.16852 13.9225 9.13306 14.3658 9.20673C13.5901 9.98757 12.5183 11.4496 12.2464 13.7374C11.8299 13.7098 11.4059 13.6955 10.9772 13.6955C10.6899 13.6955 10.4047 13.702 10.1224 13.7145C10.2807 10.7817 9.17437 9.04089 8.37405 8.17778C8.98112 8.01572 9.84904 7.96626 10.6416 8.58899C10.7487 8.6732 10.8762 8.71402 11.0027 8.71402C11.1761 8.71402 11.3477 8.63728 11.4631 8.49039C11.6627 8.23629 11.6186 7.86851 11.3645 7.66886C10.5207 7.00585 9.49094 6.76714 8.3866 6.97871C8.30906 6.99356 8.23377 7.01022 8.16086 7.02817C8.16491 7.02097 8.16878 7.01377 8.17292 7.00657C8.58143 6.29625 9.33486 5.87258 10.4122 5.74728C10.7332 5.70993 10.9631 5.41951 10.9258 5.09858C10.8885 4.7776 10.5982 4.5479 10.277 4.58498C8.45128 4.79727 7.57345 5.70183 7.15855 6.42321C6.98884 6.71836 6.88213 7.00499 6.81498 7.25149C5.9809 7.23412 4.39763 7.50239 3.12259 9.48779C2.94797 9.75966 3.02686 10.1216 3.29874 10.2962C3.39658 10.3591 3.50608 10.3891 3.61436 10.3891C3.80689 10.3891 3.99541 10.2941 4.10721 10.1201C4.71725 9.17014 5.39449 8.74003 5.95061 8.55303C5.32477 9.36461 4.71716 10.5689 5.23733 11.8115C5.33121 12.0358 5.54849 12.1708 5.77726 12.1708C5.85255 12.1708 5.9291 12.1561 6.00296 12.1252C6.30102 12.0005 6.44148 11.6577 6.31673 11.3596C5.91412 10.3978 6.79955 9.30075 7.31647 8.77063C7.9316 9.34976 9.14715 10.8809 8.94426 13.804C7.5118 13.9601 6.19378 14.281 5.1137 14.7447C3.60617 15.392 2.6882 16.2708 2.47474 17.2535C2.02019 17.0799 1.45807 16.9301 0.585066 16.9301C0.26193 16.9301 0 17.192 0 17.5151C0 17.8383 0.26193 18.1002 0.585066 18.1002C1.50303 18.1002 1.93306 18.2864 2.43095 18.5021C2.9702 18.7356 3.58141 19.0003 4.74182 19.0003C5.90228 19.0003 6.51345 18.7356 7.0527 18.502C7.55059 18.2864 7.98061 18.1002 8.89854 18.1002C9.81651 18.1002 10.2465 18.2864 10.7445 18.502C11.2837 18.7356 11.8949 19.0002 13.0554 19.0002C14.2159 19.0002 14.8271 18.7356 15.3664 18.502C15.8644 18.2864 16.2944 18.1001 17.2125 18.1001C18.1305 18.1001 18.5605 18.2864 19.0585 18.502C19.5978 18.7355 20.209 19.0002 21.3695 19.0002C21.6927 19.0002 21.9546 18.7383 21.9546 18.4152C21.9546 18.092 21.6927 17.8301 21.3695 17.8301C20.4513 17.8301 20.0068 17.6438 19.5088 17.4282ZM14.9013 17.4282C14.4033 17.6438 13.9733 17.8301 13.0552 17.8301C12.1372 17.8301 11.7072 17.6438 11.2093 17.4282C10.67 17.1947 10.0588 16.93 8.89836 16.93C7.7379 16.93 7.12673 17.1947 6.58748 17.4283C6.08959 17.6439 5.65957 17.8301 4.74164 17.8301C4.24735 17.8301 3.89465 17.7761 3.59653 17.6925C3.60288 17.0491 4.34137 16.3497 5.57514 15.8199C7.00841 15.2045 8.92685 14.8656 10.9771 14.8656C13.0273 14.8656 14.9457 15.2045 16.379 15.8199C17.169 16.1592 17.7556 16.5679 18.0774 16.9871C17.8258 16.9513 17.5411 16.93 17.2122 16.93C16.0518 16.93 15.4406 17.1946 14.9013 17.4282Z"/>
</svg>
