<svg width="36" height="29" version="1.1" viewBox="0 0 36 29" xmlns="http://www.w3.org/2000/svg">
 <path d="m6 5.1211c-3.3067 0-6 2.6933-6 6v11.879c0 3.3067 2.6933 6 6 6h23.51c3.3067 0 6-2.6933 6-6v-11.879c0-3.3067-2.6933-6-6-6zm0 2h23.51c2.2333 0 4 1.7667 4 4v11.879c0 2.2333-1.7667 4-4 4h-23.51c-2.2333 0-4-1.7667-4-4v-11.879c0-2.2333 1.7667-4 4-4z" color="#000000" color-rendering="auto" dominant-baseline="auto" image-rendering="auto" shape-rendering="auto" solid-color="#000000" style="font-feature-settings:normal;font-variant-alternates:normal;font-variant-caps:normal;font-variant-ligatures:normal;font-variant-numeric:normal;font-variant-position:normal;isolation:auto;mix-blend-mode:normal;shape-padding:0;text-decoration-color:#000000;text-decoration-line:none;text-decoration-style:solid;text-indent:0;text-orientation:mixed;text-transform:none;white-space:normal"/>
 <path d="m10.406 16.143v12.244h2v-12.244z" color="#000000" color-rendering="auto" dominant-baseline="auto" image-rendering="auto" shape-rendering="auto" solid-color="#000000" style="font-feature-settings:normal;font-variant-alternates:normal;font-variant-caps:normal;font-variant-ligatures:normal;font-variant-numeric:normal;font-variant-position:normal;isolation:auto;mix-blend-mode:normal;shape-padding:0;text-decoration-color:#000000;text-decoration-line:none;text-decoration-style:solid;text-indent:0;text-orientation:mixed;text-transform:none;white-space:normal"/>
 <path d="m7.041 0c-1.8479 0-3.3672 1.5193-3.3672 3.3672s1.5193 3.3672 3.3672 3.3672h3.4043l0.072266-0.92188c0.0033-0.042338 0.0067-0.086098 0.0098-0.13086 0.04361-0.63965 0.05538-1.463-0.08008-2.3145-0.13772-0.86547-0.40142-1.6699-0.94339-2.3145-0.48792-0.58022-1.3636-1.0527-2.4629-1.0527zm0 2c0.6358 0 0.75829 0.13138 0.93359 0.33984 0.19119 0.22737 0.3942 0.70134 0.49609 1.3418 0.056611 0.35583 0.031709 0.69523 0.035156 1.0527h-1.4648c-0.76701 0-1.3672-0.60017-1.3672-1.3672s0.60018-1.3672 1.3672-1.3672z" color="#000000" color-rendering="auto" dominant-baseline="auto" image-rendering="auto" shape-rendering="auto" solid-color="#000000" style="font-feature-settings:normal;font-variant-alternates:normal;font-variant-caps:normal;font-variant-ligatures:normal;font-variant-numeric:normal;font-variant-position:normal;isolation:auto;mix-blend-mode:normal;shape-padding:0;text-decoration-color:#000000;text-decoration-line:none;text-decoration-style:solid;text-indent:0;text-orientation:mixed;text-transform:none;white-space:normal"/>
 <path d="m13.924 0c-1.0993 0-1.975 0.47253-2.4629 1.0527-0.542 0.64451-0.80566 1.449-0.94336 2.3145-0.13535 0.85134-0.12365 1.6748-0.08008 2.3145 0.0031 0.045406 0.0064 0.088677 0.0098 0.13086l0.07226 0.92188h3.4043c1.8479 0 3.3672-1.5193 3.3672-3.3672-2.7e-5 -1.8479-1.5194-3.3672-3.3672-3.3672zm0 2c0.76694 0 1.3672 0.60018 1.3672 1.3672s-0.60024 1.3672-1.3672 1.3672h-1.4648c0.003454-0.35753-0.021424-0.69685 0.035157-1.0527 0.1019-0.64045 0.30489-1.1144 0.49609-1.3418 0.1753-0.20847 0.29771-0.33984 0.93359-0.33984z" color="#000000" color-rendering="auto" dominant-baseline="auto" image-rendering="auto" shape-rendering="auto" solid-color="#000000" style="font-feature-settings:normal;font-variant-alternates:normal;font-variant-caps:normal;font-variant-ligatures:normal;font-variant-numeric:normal;font-variant-position:normal;isolation:auto;mix-blend-mode:normal;shape-padding:0;text-decoration-color:#000000;text-decoration-line:none;text-decoration-style:solid;text-indent:0;text-orientation:mixed;text-transform:none;white-space:normal"/>
 <path d="m10.52 6.7344-0.07226 0.92188c-0.0033 0.042182-0.0067 0.085453-0.0098 0.13086-0.04357 0.63963-0.05527 1.4631 0.08008 2.3145 0.1377 0.86552 0.40146 1.67 0.94336 2.3145 0.48787 0.58012 1.3635 1.0527 2.4629 1.0527 1.8479 0 3.3672-1.5193 3.3672-3.3672 0-1.8479-1.5193-3.3672-3.3672-3.3672h-2.3809zm1.9395 2h1.4648c0.76694 0 1.3672 0.60021 1.3672 1.3672 0 0.76708-0.60025 1.3672-1.3672 1.3672-0.63585 0-0.75826-0.13136-0.93359-0.33984-0.1913-0.22751-0.39419-0.70131-0.49609-1.3418-0.05658-0.35589-0.0317-0.6952-0.03516-1.0527z" color="#000000" color-rendering="auto" dominant-baseline="auto"  image-rendering="auto" shape-rendering="auto" solid-color="#000000" style="font-feature-settings:normal;font-variant-alternates:normal;font-variant-caps:normal;font-variant-ligatures:normal;font-variant-numeric:normal;font-variant-position:normal;isolation:auto;mix-blend-mode:normal;shape-padding:0;text-decoration-color:#000000;text-decoration-line:none;text-decoration-style:solid;text-indent:0;text-orientation:mixed;text-transform:none;white-space:normal"/>
 <path d="m7.041 6.7344c-1.8479 0-3.3672 1.5193-3.3672 3.3672 0 1.8479 1.5193 3.3672 3.3672 3.3672 1.0993 0 1.975-0.47261 2.4629-1.0527 0.54187-0.64449 0.80567-1.4489 0.94336-2.3145 0.13546-0.85143 0.12369-1.6748 0.08008-2.3145-3e-3 -0.044762-0.0064-0.088522-0.0098-0.13086l-0.072234-0.92188h-1.0234zm0 2h1.4648c-0.0034476 0.3575 0.021454 0.6969-0.035156 1.0527-0.10189 0.64049-0.30481 1.1143-0.49609 1.3418-0.17533 0.20847-0.29783 0.33984-0.93359 0.33984-0.76701 0-1.3672-0.6001-1.3672-1.3672 0-0.76698 0.60017-1.3672 1.3672-1.3672z" color="#000000" color-rendering="auto" dominant-baseline="auto" image-rendering="auto" shape-rendering="auto" solid-color="#000000" style="font-feature-settings:normal;font-variant-alternates:normal;font-variant-caps:normal;font-variant-ligatures:normal;font-variant-numeric:normal;font-variant-position:normal;isolation:auto;mix-blend-mode:normal;shape-padding:0;text-decoration-color:#000000;text-decoration-line:none;text-decoration-style:solid;text-indent:0;text-orientation:mixed;text-transform:none;white-space:normal"/>
 <path d="m25.562 13.229c-1.0233 6e-6 -2.071 0.08269-3.002 0.45508-0.46546 0.18619-0.91448 0.45596-1.2637 0.875-0.34919 0.41904-0.56055 0.993-0.56055 1.584 0 0.59098 0.21703 1.1718 0.57422 1.582s0.80486 0.65809 1.2598 0.83398c0.9098 0.35178 1.9164 0.45162 2.873 0.56641s1.8635 0.24422 2.3887 0.44727c0.26257 0.10152 0.41132 0.21275 0.47266 0.2832 0.06134 0.07045 0.08398 0.09326 0.08398 0.26758 0 0.17434-0.02832 0.22148-0.09766 0.30469-0.06934 0.08321-0.21869 0.19607-0.4707 0.29688-0.50402 0.20162-1.3679 0.31054-2.2578 0.31055-1.7799 1.2e-5 -3.6309-0.36328-3.6309-0.36328l-0.39258 1.9609s1.9768 0.40236 4.0234 0.40234c1.0233-6e-6 2.071-0.08074 3.002-0.45312 0.46546-0.18619 0.91448-0.45596 1.2637-0.875 0.34919-0.41904 0.56055-0.993 0.56055-1.584 0-0.59098-0.21703-1.1718-0.57422-1.582s-0.80682-0.65809-1.2617-0.83398c-0.9098-0.35178-1.9145-0.45162-2.8711-0.56641-0.95662-0.11479-1.8655-0.24422-2.3906-0.44727-0.26257-0.10152-0.41132-0.21275-0.47266-0.2832-0.06134-0.07045-0.08203-0.09326-0.08203-0.26758 0-0.17434 0.02637-0.22148 0.0957-0.30469 0.06934-0.08321 0.21869-0.19607 0.4707-0.29688 0.50402-0.20162 1.3698-0.3125 2.2598-0.3125 1.7799-1.2e-5 3.6289 0.36328 3.6289 0.36328l0.39258-1.9609s-1.9749-0.40236-4.0215-0.40234z" color="#000000" color-rendering="auto" dominant-baseline="auto"  image-rendering="auto" shape-rendering="auto" solid-color="#000000" style="font-feature-settings:normal;font-variant-alternates:normal;font-variant-caps:normal;font-variant-ligatures:normal;font-variant-numeric:normal;font-variant-position:normal;isolation:auto;mix-blend-mode:normal;shape-padding:0;text-decoration-color:#000000;text-decoration-line:none;text-decoration-style:solid;text-indent:0;text-orientation:mixed;text-transform:none;white-space:normal"/>
 <path d="m25.102 11.857v2.4492h2v-2.4492z" color="#000000" color-rendering="auto" dominant-baseline="auto"  image-rendering="auto" shape-rendering="auto" solid-color="#000000" style="font-feature-settings:normal;font-variant-alternates:normal;font-variant-caps:normal;font-variant-ligatures:normal;font-variant-numeric:normal;font-variant-position:normal;isolation:auto;mix-blend-mode:normal;shape-padding:0;text-decoration-color:#000000;text-decoration-line:none;text-decoration-style:solid;text-indent:0;text-orientation:mixed;text-transform:none;white-space:normal"/>
 <path d="m25.102 22.266v2.4492h2v-2.4492z" color="#000000" color-rendering="auto" dominant-baseline="auto"  image-rendering="auto" shape-rendering="auto" solid-color="#000000" style="font-feature-settings:normal;font-variant-alternates:normal;font-variant-caps:normal;font-variant-ligatures:normal;font-variant-numeric:normal;font-variant-position:normal;isolation:auto;mix-blend-mode:normal;shape-padding:0;text-decoration-color:#000000;text-decoration-line:none;text-decoration-style:solid;text-indent:0;text-orientation:mixed;text-transform:none;white-space:normal"/>
</svg>
