<svg width="24" height="24" viewBox="0 0 24 24" xmlns="http://www.w3.org/2000/svg">
<path d="M21.8906 2.8125H21.1875V2.10938C21.1875 0.946266 20.2412 0 19.0781 0C17.915 0 16.9688 0.946266 16.9688 2.10938V2.8125H14.1562V2.10938C14.1562 0.946266 13.21 0 12.0469 0C10.8838 0 9.9375 0.946266 9.9375 2.10938V2.8125H7.03125V2.10938C7.03125 0.946266 6.08498 0 4.92188 0C3.75877 0 2.8125 0.946266 2.8125 2.10938V2.8125H2.10938C0.946266 2.8125 0 3.75877 0 4.92188C0 5.02388 0 21.621 0 21.8906C0 23.0537 0.946266 24 2.10938 24H21.8906C23.0537 24 24 23.0537 24 21.8906C24 21.7611 24 5.15034 24 4.92188C24 3.75877 23.0537 2.8125 21.8906 2.8125ZM18.375 2.10938C18.375 1.72167 18.6904 1.40625 19.0781 1.40625C19.4658 1.40625 19.7812 1.72167 19.7812 2.10938V4.92188C19.7812 5.30958 19.4658 5.625 19.0781 5.625C18.6904 5.625 18.375 5.30958 18.375 4.92188V2.10938ZM11.3438 2.10938C11.3438 1.72167 11.6592 1.40625 12.0469 1.40625C12.4346 1.40625 12.75 1.72167 12.75 2.10938V4.92188C12.75 5.30958 12.4346 5.625 12.0469 5.625C11.6592 5.625 11.3438 5.30958 11.3438 4.92188V2.10938ZM4.21875 2.10938C4.21875 1.72167 4.53417 1.40625 4.92188 1.40625C5.30958 1.40625 5.625 1.72167 5.625 2.10938V4.92188C5.625 5.30958 5.30958 5.625 4.92188 5.625C4.53417 5.625 4.21875 5.30958 4.21875 4.92188V2.10938ZM22.5938 21.8906C22.5938 22.2783 22.2783 22.5938 21.8906 22.5938H2.10938C1.72167 22.5938 1.40625 22.2783 1.40625 21.8906V9.9375H22.5938V21.8906ZM22.5938 8.53125H1.40625V4.92188C1.40625 4.53417 1.72167 4.21875 2.10938 4.21875H2.8125V4.92188C2.8125 6.08498 3.75877 7.03125 4.92188 7.03125C6.08498 7.03125 7.03125 6.08498 7.03125 4.92188V4.21875H9.9375V4.92188C9.9375 6.08498 10.8838 7.03125 12.0469 7.03125C13.21 7.03125 14.1562 6.08498 14.1562 4.92188V4.21875H16.9688V4.92188C16.9688 6.08498 17.915 7.03125 19.0781 7.03125C20.2412 7.03125 21.1875 6.08498 21.1875 4.92188V4.21875H21.8906C22.2783 4.21875 22.5938 4.53417 22.5938 4.92188V8.53125Z"/>
<path d="M20.4844 11.3438H3.51562C3.12731 11.3438 2.8125 11.6586 2.8125 12.0469V20.4844C2.8125 20.8727 3.12731 21.1875 3.51562 21.1875H20.4844C20.8727 21.1875 21.1875 20.8727 21.1875 20.4844V12.0469C21.1875 11.6586 20.8727 11.3438 20.4844 11.3438ZM7.03125 19.7812H4.21875V16.9688H7.03125V19.7812ZM7.03125 15.5625H4.21875V12.75H7.03125V15.5625ZM11.3438 19.7812H8.4375V16.9688H11.3438V19.7812ZM11.3438 15.5625H8.4375V12.75H11.3438V15.5625ZM15.5625 19.7812H12.75V16.9688H15.5625V19.7812ZM15.5625 15.5625H12.75V12.75H15.5625V15.5625ZM19.7812 19.7812H16.9688V16.9688H19.7812V19.7812ZM19.7812 15.5625H16.9688V12.75H19.7812V15.5625Z"/>
</svg>
