<svg width="24.2" height="24.2" version="1.1" viewBox="0 0 24.152655 24.151667" xmlns="http://www.w3.org/2000/svg">
 <path d="m22.3 17.9-2.97-3.07c-0.0028-0.0029-0.0056-0.0057-0.0084-0.0085-0.824-0.824-2.16-0.825-2.98 0l-1.36 1.36c-0.624 0.625-1.64 0.625-2.26 0l-9e-4 -8e-4 -4.72-4.6c-0.625-0.625-0.625-1.64 0-2.26l1.36-1.36c0.822-0.823 0.822-2.16 0-2.98l-2.98-2.98c-0.823-0.822-2.16-0.822-2.98 0l-0.994 0.994-0.0904 0.0904c-2.97 2.97-2.97 7.78 4.7e-4 10.8l8.15 8.04c2.97 2.97 7.77 2.98 10.7 0.0104 0.0164-0.015 1.07-0.986 1.09-1 0.821-0.821 0.822-2.16 0.0047-2.98zm-17.9-14.9c0.274-0.274 0.72-0.274 0.994 0l2.98 2.98c0.275 0.275 0.275 0.72 0 0.994l-0.497 0.497-3.98-3.98zm7.07 17.9-8.15-8.04c-2.3-2.3-2.41-5.92-0.388-8.34l3.96 3.96c-1.04 1.18-0.995 2.98 0.132 4.11l4.72 4.61c1.13 1.13 2.93 1.17 4.11 0.13l3.96 3.96c-2.45 2.03-6.05 1.91-8.34-0.388zm9.85-0.999-0.473 0.436-4-4 0.497-0.497c0.274-0.274 0.716-0.275 0.991-0.0035 0.0055 0.0056 2.97 3.08 2.98 3.08 0.271 0.272 0.274 0.711 0.0084 0.986z"   />
 <path d="m12.1 0.05c-0.416 0-0.753 0.337-0.753 0.753s0.337 0.753 0.753 0.753c5.79 0 10.5 4.71 10.5 10.5 0 0.416 0.337 0.753 0.753 0.753 0.416 0 0.753-0.337 0.753-0.753 0-6.63-5.37-12-12-12z"   />
 <path d="m12.1 2.86c-0.416 0-0.753 0.337-0.753 0.753s0.337 0.753 0.753 0.753c4.24 0 7.68 3.45 7.68 7.68 0 0.416 0.337 0.753 0.753 0.753 0.416 0 0.753-0.337 0.753-0.753 0-5.07-4.12-9.19-9.19-9.19z"   />
 <path d="m12.1 5.68c-0.416 0-0.753 0.337-0.753 0.753s0.337 0.753 0.753 0.753c2.69 0 4.87 2.19 4.87 4.87 0 0.416 0.337 0.753 0.753 0.753s0.753-0.337 0.753-0.753c0-3.52-2.86-6.38-6.38-6.38z"   />
 <path d="m12.1 8.49c-0.416 0-0.753 0.337-0.753 0.753 0 0.416 0.337 0.753 0.753 0.753 1.14 0 2.06 0.924 2.06 2.06 0 0.416 0.337 0.753 0.753 0.753 0.416 0 0.753-0.337 0.753-0.753-1e-4 -1.97-1.6-3.57-3.57-3.57z"   />
</svg>
