<svg width="52" height="52" viewBox="0 0 52 52" xmlns="http://www.w3.org/2000/svg">
<path d="M17.0384 48.7665L4.18861 35.9167L4.17299 35.9011C4.17292 35.901 4.17286 35.901 4.17279 35.9009L17.0384 48.7665ZM17.0384 48.7665H15.5837C14.9256 48.7665 14.392 49.3 14.392 49.9582C14.392 50.6162 14.9256 51.1498 15.5837 51.1498H21.3633L17.0384 48.7665ZM2.21929 27.3162L2.32535 27.4223L21.3729 51.1498L36.417 51.15C37.0751 51.15 37.6087 50.6164 37.6087 49.9583C37.6087 49.3002 37.0751 48.7667 36.417 48.7667L25.6982 48.7665L49.7811 24.6836C51.6093 22.8552 51.6093 19.8806 49.781 18.0524L33.9477 2.21929C33.0647 1.33636 31.8866 0.85 30.632 0.85C29.3775 0.85 28.1993 1.33616 27.3163 2.21909L27.4224 2.32516L27.3163 2.21909L2.21929 27.3162ZM21.3681 51.1499L21.3721 51.1498H21.3641L21.3681 51.1499ZM6.70017 35.0577L30.6963 11.0614C31.1616 10.5961 31.1616 9.84149 30.6963 9.37615L30.6962 9.37614C30.2308 8.91081 29.4764 8.91083 29.0109 9.37624L29.0109 9.37625L5.01483 33.3725L3.90443 32.2621C3.47183 31.8295 3.23339 31.2512 3.23339 30.6319C3.23339 30.0126 3.47183 29.4342 3.90453 29.0015L29.0015 3.90445C29.0015 3.90444 29.0016 3.90444 29.0016 3.90443C29.4343 3.47182 30.0127 3.23339 30.632 3.23339C31.2513 3.23339 31.8297 3.47183 32.2624 3.90453L37.7917 9.43368L13.7953 33.4303C13.3299 33.8955 13.33 34.6501 13.7953 35.1156L13.7953 35.1156C14.028 35.3482 14.3333 35.4645 14.6379 35.4645C14.9426 35.4645 15.2479 35.3481 15.4805 35.1155L15.4805 35.1155L39.4769 11.119L48.0958 19.7376C48.9945 20.6364 48.9945 22.0995 48.0958 22.9983L22.9985 48.0956C22.5667 48.5273 21.9896 48.7656 21.3717 48.7665H21.3642C20.7465 48.7655 20.1696 48.5273 19.738 48.0956L19.6319 48.2016L19.738 48.0956L6.70017 35.0577Z" stroke="#9AC8B1" stroke-width="0.3"/>
<path d="M25.0856 30.9782L25.0855 30.9783L16.8885 39.1752L16.9941 39.2808L16.8885 39.1752C16.4231 39.6406 16.4231 40.395 16.8884 40.8605L16.8885 40.8606C17.1211 41.0932 17.4264 41.2096 17.7311 41.2096C18.0358 41.2096 18.341 41.0931 18.5737 40.8606L18.5737 40.8606L26.7707 32.6636L26.7708 32.6636C27.2362 32.1981 27.2362 31.4436 26.7708 30.9783C26.3055 30.5129 25.5511 30.5131 25.0856 30.9782Z" stroke="#9AC8B1" stroke-width="0.3"/>
<path d="M23.1977 38.7596L23.1977 38.7596L19.8357 42.1216C19.3704 42.5869 19.3704 43.3415 19.8357 43.8069L19.8357 43.807C20.0684 44.0395 20.3736 44.156 20.6783 44.156C20.9832 44.156 21.2883 44.0395 21.5209 43.807L21.521 43.8069L24.8829 40.445C25.3483 39.9796 25.3483 39.2251 24.8829 38.7596C24.4176 38.2942 23.6633 38.2942 23.1977 38.7596Z" stroke="#9AC8B1" stroke-width="0.3"/>
<path d="M25.8495 36.1085L26.2914 35.6667C26.2914 35.6667 26.2914 35.6667 26.2914 35.6667C26.7567 35.2014 27.5114 35.2015 27.9766 35.6668C28.4419 36.1323 28.4419 36.8867 27.9764 37.3521L27.5346 37.7939C27.5345 37.7939 27.5345 37.7939 27.5345 37.7939C27.3019 38.0266 26.9967 38.143 26.692 38.143C26.3873 38.143 26.0819 38.0266 25.8494 37.7939C25.3841 37.3283 25.384 36.5739 25.8495 36.1085C25.8495 36.1085 25.8495 36.1085 25.8495 36.1085ZM25.8495 36.1085L25.9555 36.2146M25.8495 36.1085L25.9555 36.2146M25.9555 36.2146C25.5487 36.6214 25.5487 37.2809 25.9554 37.6878C26.1588 37.8912 26.4255 37.993 26.692 37.993C26.9585 37.993 27.2251 37.8912 27.4285 37.6878L25.9555 36.2146ZM25.9555 36.2146L26.3975 35.7728L25.9555 36.2146Z" stroke="#9AC8B1" stroke-width="0.3"/>
<path d="M39.1773 16.8894L39.1773 16.8895L34.7576 21.309L34.7576 21.309C34.5342 21.5325 34.4086 21.8355 34.4086 22.1516C34.4086 22.4677 34.5342 22.7708 34.7576 22.9942L34.7576 22.9942L37.704 25.9404C37.704 25.9404 37.704 25.9404 37.704 25.9404C37.9367 26.1731 38.242 26.2894 38.5467 26.2894C38.8516 26.2894 39.1566 26.1729 39.3893 25.9404L39.3893 25.9404L43.8087 21.521C44.2741 21.0557 44.2741 20.3011 43.8087 19.8358L40.8625 16.8895L40.7567 16.9953L40.8625 16.8895C40.639 16.666 40.3359 16.5404 40.0199 16.5404C39.7038 16.5404 39.4008 16.666 39.1773 16.8894ZM41.2808 20.6785L38.5466 23.4126L37.2855 22.1516L40.0198 19.4174L41.2808 20.6785Z" stroke="#9AC8B1" stroke-width="0.3"/>
<path d="M33.5685 8.18876L33.5685 8.18876L33.1266 8.63085C33.1266 8.63086 33.1266 8.63086 33.1266 8.63087C32.894 8.86368 32.5887 8.98012 32.2839 8.98012C31.9791 8.98012 31.6741 8.8639 31.4414 8.63122L33.5685 8.18876ZM33.5685 8.18876C34.0337 7.72333 34.0336 6.96877 33.5682 6.50353C33.1028 6.03829 32.3482 6.03841 31.8829 6.50386C31.8829 6.50386 31.8829 6.50386 31.8829 6.50386L31.441 6.94597L31.441 6.94597M33.5685 8.18876L31.441 6.94597M31.441 6.94597C30.9758 7.4114 30.9759 8.16595 31.4413 8.63119L31.441 6.94597Z" stroke="#9AC8B1" stroke-width="0.3"/>
<path d="M10.9236 37.9884L10.9236 37.9885C11.1563 38.221 11.4616 38.3374 11.7662 38.3374C12.0709 38.3374 12.3761 38.221 12.6088 37.9885L12.6089 37.9884L13.0508 37.5465L13.0508 37.5465C13.5161 37.0811 13.5161 36.3265 13.0508 35.8612C12.5853 35.3958 11.831 35.3958 11.3655 35.8612L10.9236 36.3031C10.9236 36.3031 10.9236 36.3031 10.9236 36.3031C10.4583 36.7684 10.4583 37.5229 10.9236 37.9884Z" stroke="#9AC8B1" stroke-width="0.3"/>
</svg>
