<svg width="22" height="24" version="1.1" viewBox="0 0 22 24" xmlns="http://www.w3.org/2000/svg">
 <path d="m14.549 0.88477c-1.2652-1.08e-6 -2.5307 0.47995-3.4902 1.4395l-9.0371 9.0371c-2.6875 2.6874-2.6875 7.0743 0 9.7617 2.6874 2.6876 7.0762 2.6876 9.7637 0l9.0352-9.0371a1.0001 1.0001 0 1 0 -1.4141 -1.4141l-9.0371 9.0371c-1.9231 1.9232-5.0104 1.9232-6.9336 0-1.9232-1.9232-1.9232-5.0104 0-6.9336l9.0371-9.0371c1.1547-1.1547 2.9958-1.1547 4.1504 0 1.1547 1.1547 1.1547 2.9976 0 4.1523l-9.0449 9.0352c-0.38629 0.38627-0.98285 0.38627-1.3691 0-0.38625-0.38624-0.38625-0.98095 0-1.3672l8.3477-8.3379a1.0006 1.0006 0 1 0 -1.4141 -1.416l-8.3477 8.3379a1.0001 1.0001 0 0 0 0 2e-3c-1.1506 1.1506-1.1506 3.0447 0 4.1953 1.1506 1.1505 3.0467 1.1505 4.1973 0l9.0449-9.0352a1.0001 1.0001 0 0 0 2e-3 0c1.9191-1.919 1.9191-5.0615 0-6.9805-0.95953-0.95953-2.2251-1.4395-3.4903-1.4395z" color="#000000" color-rendering="auto" dominant-baseline="auto" image-rendering="auto" shape-rendering="auto" solid-color="#000000" style="font-feature-settings:normal;font-variant-alternates:normal;font-variant-caps:normal;font-variant-ligatures:normal;font-variant-numeric:normal;font-variant-position:normal;isolation:auto;mix-blend-mode:normal;shape-padding:0;text-decoration-color:#000000;text-decoration-line:none;text-decoration-style:solid;text-indent:0;text-orientation:mixed;text-transform:none;white-space:normal"/>
</svg>
