<svg width="24" height="24" viewBox="0 0 24 24" xmlns="http://www.w3.org/2000/svg">
<path d="M9.97008 7.07505C9.5989 6.55273 8.87274 6.4285 8.3489 6.80081C7.82541 7.17234 7.70235 7.89854 8.07427 8.42238L10.2901 11.5421C10.2658 11.6571 10.252 11.7767 10.252 11.8994C10.252 12.8494 11.0213 13.6194 11.9709 13.6194C12.4709 13.6194 12.917 13.4029 13.2313 13.0625H15.724C16.3663 13.0625 16.8867 12.5417 16.8867 11.8998C16.8867 11.2578 16.3663 10.737 15.724 10.737H13.2309C12.964 10.4478 12.6009 10.2547 12.1913 10.2017L9.97008 7.07505Z" />
<path d="M20.1658 8.19449C20.4716 8.85759 20.6977 9.56414 20.8335 10.303C20.8769 10.5407 21.0942 10.7041 21.335 10.6823L23.5012 10.483C23.6304 10.4715 23.7485 10.4065 23.8278 10.3038C23.9074 10.2007 23.9397 10.0699 23.9185 9.94187C23.71 8.6861 23.3073 7.4972 22.7412 6.40489C22.6773 6.28065 22.5612 6.19218 22.4247 6.16257C22.2881 6.13375 22.1458 6.16642 22.0362 6.25336L20.2988 7.63336C20.1316 7.76759 20.0758 7.99912 20.1658 8.19449Z" />
<path d="M18.548 18.5766C18.3711 18.4554 18.1349 18.4704 17.9746 18.6127C16.5768 19.8535 14.7899 20.6643 12.821 20.8347V19.7901C12.821 19.3616 12.474 19.0151 12.046 19.0151C11.6179 19.0151 11.2706 19.362 11.2706 19.7901V20.834C6.95667 20.4616 3.51239 17.0177 3.14008 12.7034H4.18431C4.61239 12.7034 4.95933 12.3569 4.95933 11.9284C4.95933 11.4999 4.61239 11.1534 4.18431 11.1534H3.13698C3.48698 7.10062 6.55051 3.81905 10.4971 3.12709C10.7202 3.08787 10.8833 2.89477 10.8833 2.66823V0.466264C10.8833 0.331637 10.8248 0.202774 10.7225 0.114303C10.6206 0.025872 10.4851 -0.0145202 10.3513 0.00469552C4.50082 0.827833 0 5.85172 0 11.9284C0 18.5812 5.39318 23.9744 12.046 23.9744C15.3141 23.9744 18.2703 22.6655 20.4396 20.5516C20.5396 20.454 20.5907 20.317 20.5788 20.1778C20.5665 20.0385 20.4934 19.9112 20.378 19.8324L18.548 18.5766Z"/>
<path d="M13.5957 3.12613C13.9004 3.17923 14.1996 3.24727 14.4923 3.33037C14.7165 3.39382 14.9515 3.28268 15.0457 3.06997L15.9296 1.07688C15.9835 0.955738 15.9827 0.817267 15.928 0.696091C15.8738 0.575698 15.7704 0.48264 15.6438 0.442247C15.0296 0.24762 14.3949 0.0984043 13.7427 0.00456114C13.6088 -0.0142624 13.4726 0.0257376 13.3707 0.114169C13.2685 0.20264 13.21 0.331502 13.21 0.466875V2.66613C13.2096 2.89386 13.3723 3.08731 13.5957 3.12613Z" />
<path d="M18.3931 5.64481C18.5604 5.8152 18.8285 5.83097 19.0154 5.68289L20.7224 4.32634C20.825 4.24516 20.8885 4.12402 20.8977 3.99324C20.907 3.86206 20.8604 3.73438 20.7701 3.639C20.1489 2.9863 19.4554 2.40438 18.7019 1.90398C18.5877 1.82822 18.4454 1.8063 18.3131 1.84477C18.1812 1.8832 18.0727 1.97787 18.0173 2.10363L17.125 4.1152C17.0361 4.31673 17.0988 4.55289 17.2769 4.68136C17.6754 4.97132 18.0481 5.29442 18.3931 5.64481Z" />
<path d="M23.8675 12.9596C23.7691 12.8588 23.631 12.8073 23.491 12.8204L21.2775 13.0238C21.0663 13.0427 20.8956 13.2019 20.8602 13.4108C20.6944 14.3988 20.3659 15.33 19.9036 16.1793C19.7894 16.3889 19.8517 16.6516 20.049 16.7866L21.8455 18.0197C21.9532 18.0939 22.0871 18.1197 22.2144 18.0901C22.3417 18.0604 22.4505 17.9789 22.5151 17.8654C23.2909 16.5004 23.8063 14.9704 23.9967 13.34C24.0133 13.1996 23.9656 13.0604 23.8675 12.9596Z" />
</svg>
