<svg width="50" height="50" viewBox="0 0 50 50" xmlns="http://www.w3.org/2000/svg">
<path d="M27.617 20.1599L27.6725 20.2431L27.617 20.1599L26.7563 20.7337V14.5063H29.3687V20.7337L28.508 20.1599L28.4525 20.2431L28.508 20.1599C28.2382 19.98 27.8868 19.98 27.617 20.1599ZM36.6 18.0156C36.6 16.7703 35.5933 15.7125 34.3906 15.7125H33.7875V15.1094C33.7875 13.891 32.7965 12.9 31.5781 12.9H16.1094C14.891 12.9 13.9 13.891 13.9 15.1094V34.8906C13.9 36.109 14.891 37.1 16.1094 37.1H31.5781C32.7965 37.1 33.7875 36.109 33.7875 34.8906V34.2875H34.3906C35.609 34.2875 36.6 33.2965 36.6 32.0781V29.2656C36.6 28.7317 36.4093 28.2416 36.0931 27.8594C36.4093 27.4772 36.6 26.9871 36.6 26.4531V23.6406C36.6 23.1067 36.4093 22.6166 36.0931 22.2344C36.4093 21.8522 36.6 21.3621 36.6 20.8281V18.0156ZM18.1188 35.4937H16.1094C15.7769 35.4937 15.5063 35.2231 15.5063 34.8906V15.1094C15.5063 14.7769 15.7769 14.5063 16.1094 14.5063H18.1188V35.4937ZM32.1812 34.8906C32.1812 35.2231 31.9106 35.4937 31.5781 35.4937H19.725V14.5063H25.15V22.2344C25.15 22.5306 25.313 22.8027 25.5742 22.9425C25.8353 23.0823 26.1522 23.0669 26.3986 22.9026L28.0625 21.7934L29.7264 22.9026C29.9727 23.0668 30.2896 23.0823 30.5508 22.9425C30.812 22.8027 30.975 22.5306 30.975 22.2344V14.5063H31.5781C31.9106 14.5063 32.1812 14.7769 32.1812 15.1094V34.8906ZM34.9937 32.0781C34.9937 32.4106 34.7231 32.6812 34.3906 32.6812H33.7875V28.6625H34.3906C34.7231 28.6625 34.9937 28.9332 34.9937 29.2656V32.0781ZM34.9937 26.4531C34.9937 26.7856 34.7231 27.0562 34.3906 27.0562H33.7875V23.0375H34.3906C34.7231 23.0375 34.9937 23.3082 34.9937 23.6406V26.4531ZM34.9937 20.8281C34.9937 21.1606 34.7231 21.4312 34.3906 21.4312H33.7875V17.3187H34.3906C34.5355 17.3187 34.6858 17.3972 34.8027 17.5298C34.9192 17.6617 34.9937 17.838 34.9937 18.0156V20.8281Z" stroke="#009C4D" stroke-width="0.2"/>
<path d="M30.1719 28.4625H21.7344C21.2908 28.4625 20.9312 28.8221 20.9312 29.2656C20.9312 29.7092 21.2908 30.0688 21.7344 30.0688H30.1719C30.6154 30.0688 30.975 29.7092 30.975 29.2656C30.975 28.8221 30.6154 28.4625 30.1719 28.4625Z" stroke="#009C4D" stroke-width="0.2"/>
<path d="M30.1719 31.275H21.7344C21.2908 31.275 20.9312 31.6346 20.9312 32.0781C20.9312 32.5217 21.2908 32.8813 21.7344 32.8813H30.1719C30.6154 32.8813 30.975 32.5217 30.975 32.0781C30.975 31.6346 30.6154 31.275 30.1719 31.275Z" stroke="#009C4D" stroke-width="0.2"/>
</svg>
