<svg width="17" height="18" version="1.1" viewBox="0 0 17 18" xmlns="http://www.w3.org/2000/svg">
 <path d="m10.08 0a1.0001 1.0001 0 0 0 -0.69336 0.29297l-8.3809 8.3809a1.0001 1.0001 0 0 0 -0.29102 0.70703v3.0469a1.0001 1.0001 0 0 0 1 1h3.0469a1.0001 1.0001 0 0 0 0.70703 -0.29297l8.3809-8.3809a1.0001 1.0001 0 0 0 0 -1.4141l-3.0469-3.0469a1.0001 1.0001 0 0 0 -0.72266 -0.29297zm0.01563 2.4141 1.6328 1.6328-7.3809 7.3809h-1.6328v-1.6328z" clip-rule="evenodd" color="#000000" color-rendering="auto" dominant-baseline="auto"  fill-rule="evenodd" image-rendering="auto" shape-rendering="auto" solid-color="#000000" style="font-feature-settings:normal;font-variant-alternates:normal;font-variant-caps:normal;font-variant-ligatures:normal;font-variant-numeric:normal;font-variant-position:normal;isolation:auto;mix-blend-mode:normal;shape-padding:0;text-decoration-color:#000000;text-decoration-line:none;text-decoration-style:solid;text-indent:0;text-orientation:mixed;text-transform:none;white-space:normal"/>
 <path d="m1.7148 15.238a1.0001 1.0001 0 1 0 0 2h13.713a1.0001 1.0001 0 1 0 0 -2z" color="#000000" color-rendering="auto" dominant-baseline="auto"  image-rendering="auto" shape-rendering="auto" solid-color="#000000" style="font-feature-settings:normal;font-variant-alternates:normal;font-variant-caps:normal;font-variant-ligatures:normal;font-variant-numeric:normal;font-variant-position:normal;isolation:auto;mix-blend-mode:normal;shape-padding:0;text-decoration-color:#000000;text-decoration-line:none;text-decoration-style:solid;text-indent:0;text-orientation:mixed;text-transform:none;white-space:normal"/>
</svg>
