<svg width="27" height="24" viewBox="0 0 27 24" xmlns="http://www.w3.org/2000/svg">
<path d="M24.626 6.05911L13.6965 0.133362C13.3683 -0.044454 12.9732 -0.044454 12.645 0.133362L1.71659 6.05911C0.657439 6.63183 0 7.73255 0 8.93253V20.7273C0 22.5317 1.47732 24 3.29268 24H23.0488C24.8641 24 26.3415 22.5317 26.3415 20.7273V8.93253C26.3415 7.73255 25.684 6.63183 24.626 6.05911ZM2.76695 7.97473L13.1707 2.3337L23.5745 7.97364C23.9268 8.16563 24.1463 8.53218 24.1463 8.93253V10.2951L13.8139 15.659C13.4177 15.863 12.9238 15.863 12.5309 15.6612L2.19512 10.2951V8.93253C2.19512 8.53218 2.41463 8.16564 2.76695 7.97473Z"/>
</svg>
