<svg width="23" height="15" viewBox="0 0 23 15" xmlns="http://www.w3.org/2000/svg">
<path d="M22.394 13.8192C22.2444 13.8192 22.1074 13.8145 21.9806 13.8059C21.9691 10.688 20.9536 7.97391 20.1005 6.29559C19.5695 5.25096 19.0399 4.44942 18.6755 3.94488C19.3679 3.70978 20.5272 3.52209 21.5751 4.3244C21.6861 4.40937 21.8181 4.4506 21.949 4.45056C22.1286 4.45051 22.3064 4.37313 22.4259 4.2249C22.6326 3.96854 22.5869 3.59739 22.3238 3.39593C21.3813 2.67446 20.2308 2.41474 18.9966 2.64512C18.8649 2.66969 18.7391 2.6988 18.6197 2.7305C18.6428 2.6854 18.6675 2.63986 18.6946 2.59394C19.1668 1.794 20.0345 1.31725 21.2737 1.17684C21.606 1.13914 21.8442 0.846095 21.8055 0.522256C21.7669 0.198372 21.4661 -0.0336426 21.1337 0.00400459C19.0892 0.235655 18.1076 1.22016 17.6441 2.00526C17.4065 2.40784 17.2796 2.79535 17.2117 3.1003C15.6456 3.09407 14.6189 3.61955 14.0146 4.09093C13.2708 4.67113 12.9842 5.29355 12.9539 5.36258C12.8226 5.66249 12.9657 6.00931 13.2736 6.13728C13.3511 6.16952 13.4317 6.18478 13.511 6.18478C13.7465 6.18478 13.9705 6.05022 14.0686 5.82593C14.0749 5.81171 14.5938 4.6778 16.2713 4.36164C15.571 5.24596 14.8922 6.55535 15.4711 7.90284C15.5683 8.12913 15.7934 8.26537 16.0303 8.26537C16.1083 8.26537 16.1876 8.25061 16.264 8.21941C16.5727 8.09353 16.7182 7.74762 16.589 7.44685C16.1312 6.38133 17.0602 5.207 17.6624 4.59538C18.0014 5.06258 18.5183 5.83837 19.0308 6.85162C19.7997 8.37204 20.7117 10.7472 20.7666 13.5311C20.6718 13.4937 20.5782 13.4542 20.4821 13.4137C19.9237 13.178 19.2906 12.911 18.0887 12.911C16.8869 12.911 16.2539 13.178 15.6953 13.4137C15.5805 13.4621 15.4692 13.5091 15.355 13.5528V11.2789H15.7022C15.7025 11.2789 15.7028 11.2789 15.7031 11.2789C16.0378 11.2789 16.309 11.0146 16.309 10.6886C16.309 10.4896 16.2081 10.3137 16.0534 10.2067L8.52636 4.49692C8.30748 4.33089 8.00079 4.33085 7.78186 4.49692L0.233716 10.2227C0.029519 10.3776 -0.0511622 10.6417 0.0328749 10.8802C0.116912 11.1187 0.347117 11.2789 0.60594 11.2789H0.953135V12.9116C0.925123 12.9113 0.897157 12.911 0.868539 12.911C0.533882 12.911 0.262614 13.1753 0.262614 13.5014C0.262614 13.8274 0.533882 14.0917 0.868539 14.0917C1.81924 14.0917 2.26459 14.2797 2.78028 14.4973C3.33871 14.7329 3.97176 15 5.17354 15C6.37533 15 7.00833 14.7329 7.56681 14.4972C8.08245 14.2797 8.52781 14.0917 9.4785 14.0917C10.4292 14.0917 10.8746 14.2797 11.3902 14.4972C11.9487 14.7329 12.5817 15 13.7836 15C14.9854 15 15.6185 14.7329 16.177 14.4972C16.6927 14.2796 17.1381 14.0917 18.0888 14.0917C19.0395 14.0917 19.4849 14.2796 20.0007 14.4972C20.5591 14.7329 21.1922 15 22.3941 15C22.7287 15 23 14.7357 23 14.4096C22.9999 14.0835 22.7286 13.8192 22.394 13.8192ZM8.15414 5.71094L13.9376 10.0982L2.37058 10.0981L8.15414 5.71094ZM11.8718 13.4137C11.3133 13.1781 10.6803 12.911 9.47846 12.911C8.27667 12.911 7.64367 13.1781 7.08519 13.4138C6.5695 13.6313 6.12419 13.8193 5.1735 13.8193C4.2228 13.8193 3.77749 13.6313 3.2618 13.4138C2.94868 13.2816 2.61211 13.1397 2.16499 13.0404V11.2789L14.1431 11.2789V13.8092C14.0314 13.8157 13.9122 13.8193 13.7834 13.8193C12.8328 13.8192 12.3874 13.6313 11.8718 13.4137Z"/>
</svg>
