<svg width="84" height="83" version="1.1" viewBox="0 0 84 83" xmlns="http://www.w3.org/2000/svg">
 <path d="m59.189 19.299c-2.5682 0.0845-4.9732 1.1666-6.7773 2.9707l-7.6973 7.6973-3.0078-0.78711c0.49805-1.4093 0.21628-3.0513-0.89844-4.166-1.541-1.541-4.0997-1.541-5.6406 0l-1.9961 1.998-12.174-3.1758-0.05664-0.0098c-2.2234-0.40423-4.1672 0.94266-4.8906 2.6739-0.72347 1.7312-0.33221 4.0496 1.4922 5.3672l14.617 10.514-7.4453 7.4453-9.0879-0.26367h-0.02148c-1.5113 0-2.7187 1.1569-2.9746 2.4023-0.25591 1.2454 0.37173 2.7707 1.75 3.3613l0.02344 0.0098 9.5449 3.7129 3.6895 9.4883c0.52975 1.4568 2.1114 2.1375 3.3848 1.8828 1.2728-0.25454 2.4716-1.5239 2.4102-3.0859l-0.26172-9.0527 7.4434-7.4453 10.531 14.641 0.01953 0.02539c1.4161 1.8068 3.739 2.2046 5.4863 1.4668s3.0628-2.6995 2.6602-4.9141l-0.00977-0.054721-0.01563-0.05469-3.1602-12.119 1.9961-1.9961c1.5409-1.541 1.5409-4.0996 0-5.6406-1.1172-1.1172-2.7643-1.3993-4.1758-0.89648l-0.77148-2.875 7.6914-7.6934c1.8056-1.8056 2.7973-4.1398 3.0371-6.6172l0.0039-0.04102 2e-3 -0.04297c0.10518-2.629-2.0924-4.8261-4.7207-4.7246zm0.10352 2.9961h0.0118c0.87831-0.03514 1.6157 0.70863 1.5977 1.584-0.19228 1.8582-0.87983 3.4482-2.1562 4.7246l-8.918 8.918 2.4473 9.1172 2.3281-2.3281c0.42981-0.42981 0.96863-0.42981 1.3984 0 0.42974 0.42978 0.42974 0.9667 0 1.3965l-3.2129 3.2129 3.5703 13.686c0.15196 0.87118-0.25098 1.3361-0.875 1.5996-0.62701 0.26474-1.329 0.24044-1.9531-0.55273l-12.541-17.434-10.855 10.855 0.30078 10.369v0.0078l-4.1699-10.721-10.699-4.1621c0.01334 0.01029-1.11e-4 0.01955 0.0039 0 8e-3 -0.0391-0.14283-0.0059 0.03516-0.0059l10.316 0.29883 10.855-10.855-17.479-12.572-2e-3 -2e-3c-0.7068-0.51206-0.73812-1.1495-0.47656-1.7754 0.26089-0.62429 0.70927-1.0308 1.5762-0.87695l13.68 3.5684 3.2129-3.2109c0.42985-0.42985 0.96859-0.42985 1.3984 0s0.42985 0.96664 0 1.3965l-2.3418 2.3418 9.2734 2.4297 8.9141-8.9141c1.2914-1.2914 2.9663-2.0378 4.7598-2.0957z" color="#000000" color-rendering="auto" dominant-baseline="auto" image-rendering="auto" shape-rendering="auto" solid-color="#000000" style="font-feature-settings:normal;font-variant-alternates:normal;font-variant-caps:normal;font-variant-ligatures:normal;font-variant-numeric:normal;font-variant-position:normal;isolation:auto;mix-blend-mode:normal;shape-padding:0;text-decoration-color:#000000;text-decoration-line:none;text-decoration-style:solid;text-indent:0;text-orientation:mixed;text-transform:none;white-space:normal"/>
</svg>
