<svg width="26" height="26" version="1.1" viewBox="0 0 26 26" xmlns="http://www.w3.org/2000/svg">
 <path d="m13 0c-7.1679 0-13 5.8321-13 13 0 7.1678 5.8321 13 13 13 7.1678 0 13-5.8322 13-13 0-7.1679-5.8322-13-13-13zm0 2c6.087 0 11 4.913 11 11s-4.913 11-11 11-11-4.913-11-11 4.913-11 11-11z" clip-rule="evenodd" color="#000000" color-rendering="auto" dominant-baseline="auto" fill-rule="evenodd" image-rendering="auto" shape-rendering="auto" solid-color="#000000" style="font-feature-settings:normal;font-variant-alternates:normal;font-variant-caps:normal;font-variant-ligatures:normal;font-variant-numeric:normal;font-variant-position:normal;isolation:auto;mix-blend-mode:normal;shape-padding:0;text-decoration-color:#000000;text-decoration-line:none;text-decoration-style:solid;text-indent:0;text-orientation:mixed;text-transform:none;white-space:normal"/>
 <path d="m1 12a1.0001 1.0001 0 1 0 0 2h24a1.0001 1.0001 0 1 0 0 -2z" color="#000000" color-rendering="auto" dominant-baseline="auto"  image-rendering="auto" shape-rendering="auto" solid-color="#000000" style="font-feature-settings:normal;font-variant-alternates:normal;font-variant-caps:normal;font-variant-ligatures:normal;font-variant-numeric:normal;font-variant-position:normal;isolation:auto;mix-blend-mode:normal;shape-padding:0;text-decoration-color:#000000;text-decoration-line:none;text-decoration-style:solid;text-indent:0;text-orientation:mixed;text-transform:none;white-space:normal"/>
 <path d="m13.031 0a1.0001 1.0001 0 0 0 -0.76953 0.32617c-3.1649 3.4648-4.9628 7.9607-5.0605 12.652a1.0001 1.0001 0 0 0 0 0.04297c0.097733 4.6917 1.8957 9.1876 5.0605 12.652a1.0001 1.0001 0 0 0 1.4766 0c3.1648-3.4648 4.9648-7.9606 5.0625-12.652a1.0001 1.0001 0 0 0 0 -0.04297c-0.097744-4.6917-1.8977-9.1875-5.0625-12.652a1.0001 1.0001 0 0 0 -0.70703 -0.32617zm-0.03125 2.6445c2.3393 2.9551 3.7151 6.5656 3.7988 10.355-0.0837 3.7899-1.4595 7.4004-3.7988 10.355-2.3393-2.9551-3.7151-6.5655-3.7988-10.355 0.083691-3.7899 1.4595-7.4004 3.7988-10.355z" clip-rule="evenodd" color="#000000" color-rendering="auto" dominant-baseline="auto" fill-rule="evenodd" image-rendering="auto" shape-rendering="auto" solid-color="#000000" style="font-feature-settings:normal;font-variant-alternates:normal;font-variant-caps:normal;font-variant-ligatures:normal;font-variant-numeric:normal;font-variant-position:normal;isolation:auto;mix-blend-mode:normal;shape-padding:0;text-decoration-color:#000000;text-decoration-line:none;text-decoration-style:solid;text-indent:0;text-orientation:mixed;text-transform:none;white-space:normal"/>
</svg>
