<svg width="16" height="16" version="1.1" viewBox="0 0 16 16" xmlns="http://www.w3.org/2000/svg">
 <path d="m8.4258 3.7891c-1.3647-0.23409-2.7104 0.55713-3.1699 1.8633a0.75008 0.75008 0 1 0 1.4141 0.49609c0.22014-0.62579 0.84814-0.99301 1.502-0.88086 0.65383 0.11215 1.1221 0.66863 1.1211 1.332 0 0.325-0.28585 0.66518-0.71484 0.95117-0.429 0.286-0.87109 0.4375-0.87109 0.4375a0.75042 0.75042 0 1 0 0.47461 1.4238s0.60751-0.19928 1.2285-0.61328c0.6206-0.41373 1.3818-1.1234 1.3828-2.1973 2e-3 -1.3846-1.0025-2.5784-2.3672-2.8125z" color="#000000" color-rendering="auto" dominant-baseline="auto" image-rendering="auto" shape-rendering="auto" solid-color="#000000" style="font-feature-settings:normal;font-variant-alternates:normal;font-variant-caps:normal;font-variant-ligatures:normal;font-variant-numeric:normal;font-variant-position:normal;isolation:auto;mix-blend-mode:normal;shape-padding:0;text-decoration-color:#000000;text-decoration-line:none;text-decoration-style:solid;text-indent:0;text-orientation:mixed;text-transform:none;white-space:normal"/>
 <path d="m8 0.25c-4.2713 0-7.75 3.4787-7.75 7.75 0 4.2713 3.4787 7.75 7.75 7.75 4.2713 0 7.75-3.4787 7.75-7.75 0-4.2713-3.4787-7.75-7.75-7.75zm0 1.5c3.4607 0 6.25 2.7893 6.25 6.25 0 3.4607-2.7893 6.25-6.25 6.25-3.4607 0-6.25-2.7893-6.25-6.25 0-3.4607 2.7893-6.25 6.25-6.25z" clip-rule="evenodd" color="#000000" color-rendering="auto" dominant-baseline="auto" fill-rule="evenodd" image-rendering="auto" shape-rendering="auto" solid-color="#000000" style="font-feature-settings:normal;font-variant-alternates:normal;font-variant-caps:normal;font-variant-ligatures:normal;font-variant-numeric:normal;font-variant-position:normal;isolation:auto;mix-blend-mode:normal;shape-padding:0;text-decoration-color:#000000;text-decoration-line:none;text-decoration-style:solid;text-indent:0;text-orientation:mixed;text-transform:none;white-space:normal"/>
</svg>
