<svg width="24" height="24" viewBox="0 0 24 24" xmlns="http://www.w3.org/2000/svg">
<path d="M9.58594 21.5497V23.9864L8.99817 23.5105C8.90735 23.4369 6.74652 21.6782 4.5553 19.1564C1.53259 15.6775 0 12.5547 0 9.875V9.6094C0 4.31076 4.30023 0 9.58594 0C14.8716 0 19.1719 4.31076 19.1719 9.6094V9.875C19.1719 10.1 19.16 10.3286 19.1384 10.5598L17.2637 8.84545C16.8798 4.93796 13.5831 1.875 9.58594 1.875C5.33167 1.875 1.87042 5.34471 1.87042 9.6094V9.875C1.87042 14.4033 7.69061 19.8851 9.58594 21.5497ZM15.3375 20.203H18.143V17.3906H15.3375V20.203ZM9.58594 5.625C11.7775 5.625 13.5606 7.41244 13.5606 9.6094C13.5606 11.8064 11.7775 13.5938 9.58594 13.5938C7.39435 13.5938 5.61127 11.8064 5.61127 9.6094C5.61127 7.41244 7.39435 5.625 9.58594 5.625ZM9.58594 7.5C8.4256 7.5 7.48169 8.44622 7.48169 9.6094C7.48169 10.7724 8.4256 11.7188 9.58594 11.7188C10.7461 11.7188 11.6902 10.7724 11.6902 9.6094C11.6902 8.44622 10.7461 7.5 9.58594 7.5ZM22.7395 18.929L22.2136 18.4481V21.4581C22.2136 22.8598 21.076 24 19.6778 24H13.756C12.3578 24 11.2202 22.8598 11.2202 21.4581V18.4481L10.6943 18.929L9.43378 17.5439L16.7168 10.8833L24 17.5439L22.7395 18.929ZM20.3432 16.7375L16.7168 13.4213L13.0906 16.7375V21.458C13.0906 21.8258 13.389 22.125 13.756 22.125H19.6778C20.0447 22.125 20.3432 21.8258 20.3432 21.458V16.7375Z"/>
</svg>
