<svg width="16" height="18" version="1.1" viewBox="0 0 16 18" xmlns="http://www.w3.org/2000/svg">
 <path d="m9.5898 0a1.0001 1.0001 0 0 0 -0.86523 0.53711l-1.4746 2.8164-0.93164-1.5371a1.0001 1.0001 0 0 0 -1.5098 -0.23438s-4.8061 3.9658-4.8086 9.0801c-2.9678e-6 6.5e-4 2.7837e-6 0.0013 0 2e-3 -1.6421e-7 6.69e-4 0 0.0013 0 2e-3 -0.006962 1.7393 0.64551 3.4227 1.8242 4.752 1.1796 1.3302 2.8093 2.2282 4.6094 2.5645a1.0001 1.0001 0 0 0 0.98047 -1.586c-0.35958-0.476-0.55106-1.0212-0.58203-1.582 0.00683-0.52678 0.36967-1.1723 0.82812-1.6797 0.17825-0.19726 0.20308-0.18651 0.35352-0.31836 0.15044 0.13185 0.17527 0.1211 0.35352 0.31836 0.45845 0.50736 0.8213 1.1529 0.82812 1.6797-0.030949 0.56077-0.22245 1.106-0.58203 1.582a1.0001 1.0001 0 0 0 0.98438 1.5859c1.7883-0.34105 3.4056-1.2377 4.5781-2.5605 1.1717-1.3218 1.8242-2.9953 1.8242-4.7246 0.032814-5.9963-5.7617-10.475-5.7617-10.475a1.0001 1.0001 0 0 0 -0.64844 -0.22266zm0.25586 2.707c1.1858 1.1186 4.177 4.1431 4.1543 7.9824a1.0001 1.0001 0 0 0 0 0.0059c6.65e-4 1.2298-0.45691 2.4264-1.3203 3.4004-0.45854 0.51732-1.0272 0.93691-1.6562 1.2715 0.02751-0.1745 0.17174-0.31471 0.17969-0.49219a1.0001 1.0001 0 0 0 0 -0.04492c0-1.3192-0.71926-2.3373-1.3516-3.0371-0.63231-0.6998-1.2734-1.1348-1.2734-1.1348a1.0001 1.0001 0 0 0 -1.1289 0s-0.63917 0.435-1.2715 1.1348c-0.63231 0.69976-1.3535 1.7179-1.3535 3.0371a1.0001 1.0001 0 0 0 0 0.04492c0.00805 0.17956 0.15357 0.32154 0.18164 0.49805-0.63973-0.33619-1.2185-0.75682-1.6836-1.2812-0.86863-0.97956-1.3279-2.1851-1.3223-3.4219a1.0001 1.0001 0 0 0 0 -0.0039c0-3.0385 2.2713-5.5706 3.3145-6.6484l1.1465 1.8867a1.0001 1.0001 0 0 0 1.7402 -0.054687z" color="#000000" color-rendering="auto" dominant-baseline="auto" image-rendering="auto" shape-rendering="auto" solid-color="#000000" style="font-feature-settings:normal;font-variant-alternates:normal;font-variant-caps:normal;font-variant-ligatures:normal;font-variant-numeric:normal;font-variant-position:normal;isolation:auto;mix-blend-mode:normal;shape-padding:0;text-decoration-color:#000000;text-decoration-line:none;text-decoration-style:solid;text-indent:0;text-orientation:mixed;text-transform:none;white-space:normal"/>
</svg>
