<svg width="22" height="22" version="1.1" viewBox="0 0 22 22" xmlns="http://www.w3.org/2000/svg">
 <path d="m3 0c-1.6447 0-3 1.3553-3 3v16c0 1.6447 1.3553 3 3 3h16c1.6447 0 3-1.3553 3-3v-16c0-1.6447-1.3553-3-3-3zm0 2h16c0.5713 0 1 0.4287 1 1v16c0 0.5713-0.4287 1-1 1h-16c-0.5713 0-1-0.4287-1-1v-16c0-0.5713 0.4287-1 1-1z" color="#000000" color-rendering="auto" dominant-baseline="auto" fill="#111" image-rendering="auto" shape-rendering="auto" solid-color="#000000" style="font-feature-settings:normal;font-variant-alternates:normal;font-variant-caps:normal;font-variant-ligatures:normal;font-variant-numeric:normal;font-variant-position:normal;isolation:auto;mix-blend-mode:normal;shape-padding:0;text-decoration-color:#000000;text-decoration-line:none;text-decoration-style:solid;text-indent:0;text-orientation:mixed;text-transform:none;white-space:normal"/>
 <path d="m7.1113 4.4453c-1.4609 0-2.666 1.2051-2.666 2.666 0 1.4609 1.2051 2.666 2.666 2.666 1.4609 0 2.666-1.2051 2.666-2.666 0-1.4609-1.2051-2.666-2.666-2.666zm0 2c0.38004 0 0.66602 0.28599 0.66602 0.66602 0 0.38004-0.28597 0.66602-0.66602 0.66602-0.38003 0-0.66602-0.28597-0.66602-0.66602 0-0.38003 0.28599-0.66602 0.66602-0.66602z" clip-rule="evenodd" color="#000000" color-rendering="auto" dominant-baseline="auto" fill="#111" fill-rule="evenodd" image-rendering="auto" shape-rendering="auto" solid-color="#000000" style="font-feature-settings:normal;font-variant-alternates:normal;font-variant-caps:normal;font-variant-ligatures:normal;font-variant-numeric:normal;font-variant-position:normal;isolation:auto;mix-blend-mode:normal;shape-padding:0;text-decoration-color:#000000;text-decoration-line:none;text-decoration-style:solid;text-indent:0;text-orientation:mixed;text-transform:none;white-space:normal"/>
 <path d="m15.43 7.7773a1.0001 1.0001 0 0 0 -0.69141 0.29297l-12.223 12.223a1.0001 1.0001 0 1 0 1.4141 1.4141l11.516-11.516 4.8477 4.8477a1.0001 1.0001 0 1 0 1.4141 -1.4141l-5.5547-5.5547a1.0001 1.0001 0 0 0 -0.72266 -0.29297z" color="#000000" color-rendering="auto" dominant-baseline="auto" fill="#111" image-rendering="auto" shape-rendering="auto" solid-color="#000000" style="font-feature-settings:normal;font-variant-alternates:normal;font-variant-caps:normal;font-variant-ligatures:normal;font-variant-numeric:normal;font-variant-position:normal;isolation:auto;mix-blend-mode:normal;shape-padding:0;text-decoration-color:#000000;text-decoration-line:none;text-decoration-style:solid;text-indent:0;text-orientation:mixed;text-transform:none;white-space:normal"/>
</svg>
