<svg width="30" height="30" viewBox="0 0 30 30" xmlns="http://www.w3.org/2000/svg">
<path d="M30 15.0018C30 6.73554 23.2645 0 14.9982 0C6.73201 0 0 6.73554 0 15.0018C0 19.5548 2.06569 23.6506 5.27931 26.4037C5.31828 26.4426 5.35725 26.4816 5.43167 26.5171C8.03235 28.6997 11.3629 30 15.0372 30C18.6335 30 21.9641 28.6997 24.5648 26.595C24.7172 26.556 24.8341 26.4426 24.9085 26.3257C28.0123 23.5337 30 19.5158 30 15.0018ZM1.37828 15.0018C1.37828 7.50088 7.50088 1.37828 15.0018 1.37828C22.5026 1.37828 28.6252 7.50088 28.6252 15.0018C28.6252 18.676 27.1726 22.003 24.7986 24.455C24.416 22.655 23.268 19.5937 19.7461 17.606C20.5504 16.6104 21.0075 15.3101 21.0075 13.9318C21.0075 10.6401 18.3288 7.96152 15.0372 7.96152C11.7456 7.96152 9.06696 10.6401 9.06696 13.9318C9.06696 15.3101 9.56299 16.5714 10.3283 17.606C6.77456 19.5937 5.62657 22.6551 5.28284 24.455C2.86995 22.0421 1.37828 18.676 1.37828 15.0018ZM10.4098 13.9672C10.4098 11.4409 12.4755 9.3752 15.0018 9.3752C17.528 9.3752 19.5937 11.4409 19.5937 13.9672C19.5937 16.4934 17.528 18.5591 15.0018 18.5591C12.4755 18.5591 10.4098 16.4934 10.4098 13.9672ZM6.50525 25.6384C6.58319 24.5294 7.1926 20.7772 11.3275 18.6725C12.3621 19.4768 13.6235 19.9339 15.0018 19.9339C16.3801 19.9339 17.6804 19.4378 18.715 18.6335C22.8109 20.7382 23.4593 24.4125 23.5762 25.5994C21.2413 27.4738 18.2579 28.6217 15.0443 28.6217C11.7881 28.6252 8.8402 27.5162 6.50525 25.6384Z"/>
</svg>
