<svg width="18" height="17" version="1.1" viewBox="0 0 18 17" xmlns="http://www.w3.org/2000/svg">
 <path d="m6.0547 0a1.0001 1.0001 0 0 0 -0.45898 0.13086l-5.0918 2.9102a1.0001 1.0001 0 0 0 -0.50391 0.86719v11.637a1.0001 1.0001 0 0 0 1.4961 0.86914l4.627-2.6445 5.3379 2.6699a1.0001 1.0001 0 0 0 0.94336 -0.02539l5.0918-2.9102a1.0001 1.0001 0 0 0 0.50391 -0.86719v-11.637a1.0001 1.0001 0 0 0 -1.4961 -0.86914l-4.627 2.6445-5.3379-2.6699a1.0001 1.0001 0 0 0 -0.48438 -0.10547zm0.068359 2.1328 5.3379 2.6699a1.0001 1.0001 0 0 0 0.94336 -0.025391l3.5957-2.0527v9.332l-4.123 2.3555-5.3379-2.6699a1.0001 1.0001 0 0 0 -0.94336 0.02539l-3.5957 2.0547v-9.332z" clip-rule="evenodd" color="#000000" color-rendering="auto" dominant-baseline="auto" fill-rule="evenodd" image-rendering="auto" shape-rendering="auto" solid-color="#000000" style="font-feature-settings:normal;font-variant-alternates:normal;font-variant-caps:normal;font-variant-ligatures:normal;font-variant-numeric:normal;font-variant-position:normal;isolation:auto;mix-blend-mode:normal;shape-padding:0;text-decoration-color:#000000;text-decoration-line:none;text-decoration-style:solid;text-indent:0;text-orientation:mixed;text-transform:none;white-space:normal"/>
 <path d="m6.0762-0.013672a1.0001 1.0001 0 0 0 -0.98633 1.0137v11.637a1.0001 1.0001 0 1 0 2 0v-11.637a1.0001 1.0001 0 0 0 -1.0137 -1.0137z" color="#000000" color-rendering="auto" dominant-baseline="auto" image-rendering="auto" shape-rendering="auto" solid-color="#000000" style="font-feature-settings:normal;font-variant-alternates:normal;font-variant-caps:normal;font-variant-ligatures:normal;font-variant-numeric:normal;font-variant-position:normal;isolation:auto;mix-blend-mode:normal;shape-padding:0;text-decoration-color:#000000;text-decoration-line:none;text-decoration-style:solid;text-indent:0;text-orientation:mixed;text-transform:none;white-space:normal"/>
 <path d="m11.895 2.8945a1.0001 1.0001 0 0 0 -0.98438 1.0137v11.637a1.0001 1.0001 0 1 0 2 0v-11.637a1.0001 1.0001 0 0 0 -1.0156 -1.0137z" color="#000000" color-rendering="auto" dominant-baseline="auto"  image-rendering="auto" shape-rendering="auto" solid-color="#000000" style="font-feature-settings:normal;font-variant-alternates:normal;font-variant-caps:normal;font-variant-ligatures:normal;font-variant-numeric:normal;font-variant-position:normal;isolation:auto;mix-blend-mode:normal;shape-padding:0;text-decoration-color:#000000;text-decoration-line:none;text-decoration-style:solid;text-indent:0;text-orientation:mixed;text-transform:none;white-space:normal"/>
</svg>
