<svg width="21" height="26" viewBox="0 0 21 26" xmlns="http://www.w3.org/2000/svg">
<path d="M10.8555 4.50209C10.8555 4.08771 10.5196 3.75176 10.1052 3.75176H7.30385C6.88946 3.75176 6.55352 4.08771 6.55352 4.50209C6.55352 4.91648 6.88946 5.25243 7.30385 5.25243H10.1052C10.5196 5.25243 10.8555 4.91648 10.8555 4.50209Z" stroke="#009C4D" stroke-width="0.1"/>
<path d="M8.70424 22.1538C9.11864 22.1538 9.45458 21.8179 9.45458 21.4035C9.45458 20.9891 9.11864 20.6531 8.70424 20.6531C8.28984 20.6531 7.95391 20.9891 7.95391 21.4035C7.95391 21.8179 8.28984 22.1538 8.70424 22.1538Z" stroke="#009C4D" stroke-width="0.1"/>
<path d="M20.6593 8.79501L20.6593 8.79485C20.6593 8.79473 20.6593 8.7946 20.6593 8.79448C20.6578 8.37732 20.3165 8.04673 19.909 8.04673H16.4574V3.101C16.4574 1.9149 15.4925 0.95 14.3064 0.95H3.101C1.9149 0.95 0.95 1.9149 0.95 3.101V22.8038C0.95 23.9899 1.9149 24.9548 3.101 24.9548H14.3064C15.4925 24.9548 16.4574 23.9899 16.4574 22.8038V17.9514H19.909C20.3234 17.9514 20.6594 17.6155 20.6594 17.2011V8.79706L20.6593 8.79501ZM8.70368 17.9514H14.9567V22.8038C14.9567 23.1623 14.6649 23.4541 14.3064 23.4541H3.101C2.74245 23.4541 2.45067 23.1623 2.45067 22.8038V3.101C2.45067 2.74245 2.74245 2.45067 3.101 2.45067H14.3064C14.6649 2.45067 14.9567 2.74245 14.9567 3.101V8.04673H8.70368C8.29817 8.04673 7.95469 8.3762 7.95344 8.79486L7.95335 8.79706V17.2011C7.95335 17.6155 8.2893 17.9514 8.70368 17.9514ZM10.5151 9.5474H18.0976L14.3064 13.3386L10.5151 9.5474ZM9.45402 16.4507V10.6085L13.7758 14.9303C14.0688 15.2233 14.5439 15.2234 14.8369 14.9303L19.1587 10.6085V16.4507H9.45402Z" stroke="#009C4D" stroke-width="0.1"/>
</svg>
