<svg width="60" height="57" version="1.1" viewBox="0 0 60 57" xmlns="http://www.w3.org/2000/svg">
 <path d="m21.598 42.803-2.0176 2.2188 1.1191 1.0195 2.0195-2.2207z" color="#000000" color-rendering="auto" dominant-baseline="auto" image-rendering="auto" shape-rendering="auto" solid-color="#000000" style="font-feature-settings:normal;font-variant-alternates:normal;font-variant-caps:normal;font-variant-ligatures:normal;font-variant-numeric:normal;font-variant-position:normal;isolation:auto;mix-blend-mode:normal;shape-padding:0;text-decoration-color:#000000;text-decoration-line:none;text-decoration-style:solid;text-indent:0;text-orientation:mixed;text-transform:none;white-space:normal"/>
 <path d="m37.59 46.082-0.71289 0.81445 2.2578 1.9746 0.71289-0.81445z" color="#000000" color-rendering="auto" dominant-baseline="auto" image-rendering="auto" shape-rendering="auto" solid-color="#000000" style="font-feature-settings:normal;font-variant-alternates:normal;font-variant-caps:normal;font-variant-ligatures:normal;font-variant-numeric:normal;font-variant-position:normal;isolation:auto;mix-blend-mode:normal;shape-padding:0;text-decoration-color:#000000;text-decoration-line:none;text-decoration-style:solid;text-indent:0;text-orientation:mixed;text-transform:none;white-space:normal"/>
 <path d="m27.402 48.504-2.2207 2.0195 1.0195 1.1191 2.2188-2.0176z" color="#000000" color-rendering="auto" dominant-baseline="auto" image-rendering="auto" shape-rendering="auto" solid-color="#000000" style="font-feature-settings:normal;font-variant-alternates:normal;font-variant-caps:normal;font-variant-ligatures:normal;font-variant-numeric:normal;font-variant-position:normal;isolation:auto;mix-blend-mode:normal;shape-padding:0;text-decoration-color:#000000;text-decoration-line:none;text-decoration-style:solid;text-indent:0;text-orientation:mixed;text-transform:none;white-space:normal"/>
 <path d="m17.771 0.52148c-4.3612 0.18175-8.6657 1.9313-11.992 5.2578-6.653 6.653-6.9996 17.222-1.1055 24.229l0.041016 0.04883 0.044922 0.04687c-0.12609-0.12602-0.086029-0.10171-0.035156-0.02539 0.031552 0.04733 0.13414 0.16901 0.21094 0.26758 0.36653 0.5155 0.66515 0.76335 0.65625 0.75l0.082031 0.125 3.9746 3.9746 2.1211-2.1211-3.8691-3.8711 0.1875 0.22852c-0.41705-0.6257-0.72256-0.82895-0.71289-0.81445l-0.082031-0.12305-0.10547-0.10547c0.12563 0.1257 0.086126 0.10185 0.035156 0.02539-0.050969-0.07646-0.11386-0.20577-0.3418-0.43359l0.087891 0.0957c-4.9018-5.8266-4.6371-14.607 0.93164-20.176 5.5595-5.5595 14.321-5.835 20.256-0.94531l0.0293 0.029297 2.1211-2.123-0.15234-0.15039-0.05273-0.044922c-3.5507-2.9404-7.9689-4.3263-12.33-4.1445z" color="#000000" color-rendering="auto" dominant-baseline="auto" image-rendering="auto" shape-rendering="auto" solid-color="#000000" style="font-feature-settings:normal;font-variant-alternates:normal;font-variant-caps:normal;font-variant-ligatures:normal;font-variant-numeric:normal;font-variant-position:normal;isolation:auto;mix-blend-mode:normal;shape-padding:0;text-decoration-color:#000000;text-decoration-line:none;text-decoration-style:solid;text-indent:0;text-orientation:mixed;text-transform:none;white-space:normal"/>
 <path d="m16.533 37.641-2.2773 1.9512 0.61133 0.71289 2.2773-1.9512z" color="#000000" color-rendering="auto" dominant-baseline="auto" image-rendering="auto" shape-rendering="auto" solid-color="#000000" style="font-feature-settings:normal;font-variant-alternates:normal;font-variant-caps:normal;font-variant-ligatures:normal;font-variant-numeric:normal;font-variant-position:normal;isolation:auto;mix-blend-mode:normal;shape-padding:0;text-decoration-color:#000000;text-decoration-line:none;text-decoration-style:solid;text-indent:0;text-orientation:mixed;text-transform:none;white-space:normal"/>
 <path d="m49.268 34.5-1.3242 1.3242 2.1211 2.1211 1.3242-1.3242z" color="#000000" color-rendering="auto" dominant-baseline="auto" image-rendering="auto" shape-rendering="auto" solid-color="#000000" style="font-feature-settings:normal;font-variant-alternates:normal;font-variant-caps:normal;font-variant-ligatures:normal;font-variant-numeric:normal;font-variant-position:normal;isolation:auto;mix-blend-mode:normal;shape-padding:0;text-decoration-color:#000000;text-decoration-line:none;text-decoration-style:solid;text-indent:0;text-orientation:mixed;text-transform:none;white-space:normal"/>
 <path d="m43.666 40.102-1.7305 1.7305 2.1211 2.123 1.7305-1.7324z" color="#000000" color-rendering="auto" dominant-baseline="auto" image-rendering="auto" shape-rendering="auto" solid-color="#000000" style="font-feature-settings:normal;font-variant-alternates:normal;font-variant-caps:normal;font-variant-ligatures:normal;font-variant-numeric:normal;font-variant-position:normal;isolation:auto;mix-blend-mode:normal;shape-padding:0;text-decoration-color:#000000;text-decoration-line:none;text-decoration-style:solid;text-indent:0;text-orientation:mixed;text-transform:none;white-space:normal"/>
 <path d="m16.533 37.641-2.2773 1.9512 0.61133 0.71289 2.2773-1.9512z" color="#000000" color-rendering="auto" dominant-baseline="auto" image-rendering="auto" shape-rendering="auto" solid-color="#000000" style="font-feature-settings:normal;font-variant-alternates:normal;font-variant-caps:normal;font-variant-ligatures:normal;font-variant-numeric:normal;font-variant-position:normal;isolation:auto;mix-blend-mode:normal;shape-padding:0;text-decoration-color:#000000;text-decoration-line:none;text-decoration-style:solid;text-indent:0;text-orientation:mixed;text-transform:none;white-space:normal"/>
 <path d="m40.041 0.95898c-3.6091 0-7.1283 0.99796-10.295 2.9473-0.46905 0.23998-0.92942 0.54043-1.332 0.9375-0.73212 0.53768-1.4544 1.1419-2.1641 1.8516l-11.203 11.203 2.1211 2.1211 11.203-11.203c0.66235-0.66239 1.3152-1.2195 1.9512-1.6738l0.09961-0.072266 0.08789-0.087891c0.18751-0.18754 0.31085-0.27261 0.62891-0.43164l0.0625-0.029297 0.05859-0.037109c2.7239-1.6907 5.693-2.5254 8.7812-2.5254 4.2015 0 8.3816 1.5739 11.662 4.8496 5.8962 5.9898 6.3519 15.328 1.4082 21.764l2.3789 1.8281c5.8523-7.6189 5.2881-18.651-1.6484-25.697l-0.0039-0.00391-0.0039-0.00391c-3.8475-3.8475-8.832-5.7363-13.793-5.7363z" color="#000000" color-rendering="auto" dominant-baseline="auto" image-rendering="auto" shape-rendering="auto" solid-color="#000000" style="font-feature-settings:normal;font-variant-alternates:normal;font-variant-caps:normal;font-variant-ligatures:normal;font-variant-numeric:normal;font-variant-position:normal;isolation:auto;mix-blend-mode:normal;shape-padding:0;text-decoration-color:#000000;text-decoration-line:none;text-decoration-style:solid;text-indent:0;text-orientation:mixed;text-transform:none;white-space:normal"/>
 <path d="m7.0215 28.143-2.4004 1.7988 0.375 0.5 4.7656 4.6641 2.0977-2.1445-4.6016-4.5039z" color="#000000" color-rendering="auto" dominant-baseline="auto" image-rendering="auto" shape-rendering="auto" solid-color="#000000" style="font-feature-settings:normal;font-variant-alternates:normal;font-variant-caps:normal;font-variant-ligatures:normal;font-variant-numeric:normal;font-variant-position:normal;isolation:auto;mix-blend-mode:normal;shape-padding:0;text-decoration-color:#000000;text-decoration-line:none;text-decoration-style:solid;text-indent:0;text-orientation:mixed;text-transform:none;white-space:normal"/>
 <path d="m37.76 46.008-0.81641 0.81641 2.123 2.1211 0.81445-0.81445z" color="#000000" color-rendering="auto" dominant-baseline="auto" image-rendering="auto" shape-rendering="auto" solid-color="#000000" style="font-feature-settings:normal;font-variant-alternates:normal;font-variant-caps:normal;font-variant-ligatures:normal;font-variant-numeric:normal;font-variant-position:normal;isolation:auto;mix-blend-mode:normal;shape-padding:0;text-decoration-color:#000000;text-decoration-line:none;text-decoration-style:solid;text-indent:0;text-orientation:mixed;text-transform:none;white-space:normal"/>
 <path d="m21.752 42.852-2.1211 2.1211 1.0176 1.0195 2.1211-2.123z" color="#000000" color-rendering="auto" dominant-baseline="auto" image-rendering="auto" shape-rendering="auto" solid-color="#000000" style="font-feature-settings:normal;font-variant-alternates:normal;font-variant-caps:normal;font-variant-ligatures:normal;font-variant-numeric:normal;font-variant-position:normal;isolation:auto;mix-blend-mode:normal;shape-padding:0;text-decoration-color:#000000;text-decoration-line:none;text-decoration-style:solid;text-indent:0;text-orientation:mixed;text-transform:none;white-space:normal"/>
 <path d="m49.268 34.5-1.3242 1.3242 2.1211 2.1211 1.3242-1.3242z" color="#000000" color-rendering="auto" dominant-baseline="auto" image-rendering="auto" shape-rendering="auto" solid-color="#000000" style="font-feature-settings:normal;font-variant-alternates:normal;font-variant-caps:normal;font-variant-ligatures:normal;font-variant-numeric:normal;font-variant-position:normal;isolation:auto;mix-blend-mode:normal;shape-padding:0;text-decoration-color:#000000;text-decoration-line:none;text-decoration-style:solid;text-indent:0;text-orientation:mixed;text-transform:none;white-space:normal"/>
 <path d="m43.666 40.102-1.7305 1.7305 2.1211 2.123 1.7305-1.7324z" color="#000000" color-rendering="auto" dominant-baseline="auto" image-rendering="auto" shape-rendering="auto" solid-color="#000000" style="font-feature-settings:normal;font-variant-alternates:normal;font-variant-caps:normal;font-variant-ligatures:normal;font-variant-numeric:normal;font-variant-position:normal;isolation:auto;mix-blend-mode:normal;shape-padding:0;text-decoration-color:#000000;text-decoration-line:none;text-decoration-style:solid;text-indent:0;text-orientation:mixed;text-transform:none;white-space:normal"/>
 <path d="m37.945 22.074-2.1211 2.123 10.898 10.896c0.54955 0.54955 0.78125 1.1726 0.78125 1.791v0.10156c0 0.75669-0.23163 1.3448-0.78125 1.8945-0.50542 0.50536-1.2394 0.78125-1.9961 0.78125-0.6185 0-1.2413-0.23163-1.791-0.78125l-10.896-10.898-2.123 2.1211 10.898 10.898c1.0799 1.0798 2.4936 1.6602 3.9121 1.6602 1.484 0 2.993-0.53612 4.1172-1.6602 1.0798-1.0799 1.6602-2.5315 1.6602-4.0156v-0.10156c0-1.4186-0.5803-2.8323-1.6602-3.9121z" color="#000000" color-rendering="auto" dominant-baseline="auto" image-rendering="auto" shape-rendering="auto" solid-color="#000000" style="font-feature-settings:normal;font-variant-alternates:normal;font-variant-caps:normal;font-variant-ligatures:normal;font-variant-numeric:normal;font-variant-position:normal;isolation:auto;mix-blend-mode:normal;shape-padding:0;text-decoration-color:#000000;text-decoration-line:none;text-decoration-style:solid;text-indent:0;text-orientation:mixed;text-transform:none;white-space:normal"/>
 <path d="m29.9 3.7539c-0.63567 0.15892-1.2224 0.46564-1.7578 0.86719l-0.08594 0.064453-0.07422 0.074219c0.1257-0.12563 0.0999-0.084172 0.02344-0.033203s-0.20382 0.11191-0.43164 0.33984l-0.01758 0.017578-1.5273 1.6289-12.246 12.246 1.0605 1.0605c3.7275 3.7275 9.7998 3.7275 13.527 0l6.0215-6.0215 17.727 16.818c0.29719 0.29724 0.44947 0.62664 0.49805 0.91797l0.0039 0.02344 0.0039 0.02344c0.10565 0.52826-0.04461 1.1364-0.50586 1.5977l-0.20312 0.20508c-0.34941 0.34941-0.8949 0.51786-1.498 0.4707-0.31579-0.0666-0.75079-0.25661-0.96484-0.4707l-0.61133-0.61133-10.896-10.898-2.1211 2.1211 10.896 10.898 0.61133 0.61133c0.79215 0.79231 1.7443 1.1852 2.6484 1.3359l0.04687 0.0078 0.05078 0.0039c1.4124 0.14119 2.8924-0.2811 3.959-1.3477l0.20315-0.20507c1.1608-1.1608 1.6163-2.7768 1.3262-4.2773-0.15835-0.92382-0.61-1.811-1.3262-2.5273l-0.01367-0.01367-17.912-16.996c-0.53746-0.53736-1.3087-0.80955-1.9883-0.78125-0.67956 0.0283-1.2666 0.29292-1.7402 0.67188l-0.06445 0.05078-6.2715 6.2715c-2.2094 2.2094-5.4796 2.414-8.0137 0.84961l9.9473-9.9492 1.5117-1.6094c-0.11096 0.10998-0.09892 0.082219-0.02539 0.033203 0.07632-0.050873 0.20404-0.11237 0.43164-0.33984l-0.16016 0.13867c0.2794-0.20955 0.50837-0.31069 0.6875-0.35547z" color="#000000" color-rendering="auto" dominant-baseline="auto" image-rendering="auto" shape-rendering="auto" solid-color="#000000" style="font-feature-settings:normal;font-variant-alternates:normal;font-variant-caps:normal;font-variant-ligatures:normal;font-variant-numeric:normal;font-variant-position:normal;isolation:auto;mix-blend-mode:normal;shape-padding:0;text-decoration-color:#000000;text-decoration-line:none;text-decoration-style:solid;text-indent:0;text-orientation:mixed;text-transform:none;white-space:normal"/>
 <path d="m22.449 33.219v0.10156h3v-0.10156z" color="#000000" color-rendering="auto" dominant-baseline="auto" image-rendering="auto" shape-rendering="auto" solid-color="#000000" style="font-feature-settings:normal;font-variant-alternates:normal;font-variant-caps:normal;font-variant-ligatures:normal;font-variant-numeric:normal;font-variant-position:normal;isolation:auto;mix-blend-mode:normal;shape-padding:0;text-decoration-color:#000000;text-decoration-line:none;text-decoration-style:solid;text-indent:0;text-orientation:mixed;text-transform:none;white-space:normal"/>
 <path d="m31.834 27.98-2.1211 2.123 11 10.998c0.59374 0.59367 0.7832 1.071 0.7832 1.6895v0.10156c0 0.6185-0.27774 1.3891-0.7832 1.8945-0.50546 0.50546-1.2394 0.78125-1.9961 0.78125-0.3056 0-0.42038-0.01643-0.44141-0.02344l-0.94922 2.8457c0.59018 0.19679 1.085 0.17773 1.3906 0.17773 1.484 0 2.993-0.53602 4.1172-1.6602 1.1241-1.1241 1.6621-2.5971 1.6621-4.0156v-0.10156c0-1.4185-0.62626-2.7748-1.6621-3.8105z" color="#000000" color-rendering="auto" dominant-baseline="auto" image-rendering="auto" shape-rendering="auto" solid-color="#000000" style="font-feature-settings:normal;font-variant-alternates:normal;font-variant-caps:normal;font-variant-ligatures:normal;font-variant-numeric:normal;font-variant-position:normal;isolation:auto;mix-blend-mode:normal;shape-padding:0;text-decoration-color:#000000;text-decoration-line:none;text-decoration-style:solid;text-indent:0;text-orientation:mixed;text-transform:none;white-space:normal"/>
 <path d="m17.791 26.379c-1.3334 0.0016-2.6568 0.49664-3.6602 1.5l-3.4824 3.4824-0.01758 0.01758c-1.9478 2.0869-1.9697 5.3742 0.03711 7.3809l0.01758 0.01953 0.01953 0.01758c2.0868 1.9478 5.3722 1.9696 7.3789-0.03711l3.4629-3.4629c2.0067-2.0067 1.9849-5.2921 0.03711-7.3789l-0.03516-0.03906-0.03906-0.03516c-1.0434-0.97389-2.3854-1.4665-3.7188-1.4648zm0.01953 2.9844c0.55848 0.0016 1.1259 0.22817 1.6016 0.65234 0.86187 0.96644 0.84569 2.3281 0.01367 3.1602l-3.4629 3.4629c-0.83803 0.83803-2.2161 0.85773-3.1836-0.02344-0.82532-0.84574-0.85087-2.2225 0.04297-3.1836 0.0011-0.0012 8.49e-4 -0.0027 2e-3 -0.0039l3.4277-3.4258c0.42254-0.42254 0.98231-0.64028 1.5586-0.63867z" color="#000000" color-rendering="auto" dominant-baseline="auto"  image-rendering="auto" shape-rendering="auto" solid-color="#000000" style="font-feature-settings:normal;font-variant-alternates:normal;font-variant-caps:normal;font-variant-ligatures:normal;font-variant-numeric:normal;font-variant-position:normal;isolation:auto;mix-blend-mode:normal;shape-padding:0;text-decoration-color:#000000;text-decoration-line:none;text-decoration-style:solid;text-indent:0;text-orientation:mixed;text-transform:none;white-space:normal"/>
 <path d="m22.984 31.676c-1.3334 0.0016-2.6568 0.49664-3.6602 1.5l-3.4805 3.4805-0.01758 0.01953c-1.9477 2.0869-1.9715 5.3742 0.03516 7.3809l0.01953 0.01758 0.01758 0.01758c2.0869 1.9477 5.3742 1.9716 7.3809-0.03516l3.4629-3.4629c2.0067-2.0067 1.9829-5.294 0.03516-7.3809l-0.03516-0.03711-0.03711-0.03516c-1.0434-0.97389-2.3873-1.4665-3.7207-1.4648zm0.02148 2.9824c0.55789 0.0016 1.1243 0.22907 1.5996 0.65234 0.86187 0.96644 0.84764 2.3301 0.01563 3.1621l-3.4629 3.4629c-0.83834 0.8384-2.2198 0.85721-3.1875-0.02539-0.82439-0.84694-0.8476-2.227 0.04883-3.1875l3.4258-3.4258c0.42254-0.42254 0.98426-0.64028 1.5605-0.63867z" color="#000000" color-rendering="auto" dominant-baseline="auto"  image-rendering="auto" shape-rendering="auto" solid-color="#000000" style="font-feature-settings:normal;font-variant-alternates:normal;font-variant-caps:normal;font-variant-ligatures:normal;font-variant-numeric:normal;font-variant-position:normal;isolation:auto;mix-blend-mode:normal;shape-padding:0;text-decoration-color:#000000;text-decoration-line:none;text-decoration-style:solid;text-indent:0;text-orientation:mixed;text-transform:none;white-space:normal"/>
 <path d="m28.688 37.277c-1.3334 0.0016-2.6568 0.49664-3.6602 1.5l-3.4805 3.4805-0.01758 0.01953c-1.9478 2.0868-1.9716 5.3741 0.03516 7.3809l0.01953 0.01758 0.01758 0.01758c2.0868 1.9478 5.3742 1.9716 7.3809-0.03516l3.4629-3.4629c2.0068-2.0066 1.9829-5.294 0.03516-7.3809l-0.03516-0.03711-0.03711-0.03516c-1.0434-0.97389-2.3873-1.4664-3.7207-1.4648zm0.02148 2.9824c0.55848 0.0016 1.1259 0.22817 1.6016 0.65234 0.86187 0.96644 0.84563 2.3302 0.01367 3.1621l-3.4629 3.4629c-0.83834 0.8384-2.2199 0.85716-3.1875-0.02539-0.82455-0.8471-0.8477-2.227 0.04883-3.1875l3.4258-3.4258c0.42254-0.42254 0.98426-0.64028 1.5605-0.63867z" color="#000000" color-rendering="auto" dominant-baseline="auto"  image-rendering="auto" shape-rendering="auto" solid-color="#000000" style="font-feature-settings:normal;font-variant-alternates:normal;font-variant-caps:normal;font-variant-ligatures:normal;font-variant-numeric:normal;font-variant-position:normal;isolation:auto;mix-blend-mode:normal;shape-padding:0;text-decoration-color:#000000;text-decoration-line:none;text-decoration-style:solid;text-indent:0;text-orientation:mixed;text-transform:none;white-space:normal"/>
 <path d="m34.289 42.879c-1.3334 0.0016-2.6568 0.49664-3.6602 1.5l-3.4805 3.4805-0.01758 0.01953c-1.9477 2.0869-1.9716 5.3741 0.03516 7.3809l0.01953 0.01758 0.01953 0.01758c2.0869 1.9477 5.3722 1.9714 7.3789-0.03516l3.4629-3.4629c2.0067-2.0067 1.9849-5.294 0.03711-7.3809l-0.03711-0.03711-0.03711-0.03516c-1.0434-0.97389-2.3873-1.4664-3.7207-1.4648zm0.02148 2.9824c0.55848 0.0016 1.1259 0.22817 1.6016 0.65234 0.86187 0.96644 0.84569 2.3301 0.01367 3.1621l-3.4629 3.4629c-0.83862 0.83856-2.2179 0.85569-3.1855-0.02734-0.82223-0.84618-0.84783-2.2217 0.04492-3.1816 0.0011-0.0012 8.5e-4 -0.0027 2e-3 -0.0039l3.4277-3.4258c0.42254-0.42254 0.98231-0.64028 1.5586-0.63867z" color="#000000" color-rendering="auto" dominant-baseline="auto" image-rendering="auto" shape-rendering="auto" solid-color="#000000" style="font-feature-settings:normal;font-variant-alternates:normal;font-variant-caps:normal;font-variant-ligatures:normal;font-variant-numeric:normal;font-variant-position:normal;isolation:auto;mix-blend-mode:normal;shape-padding:0;text-decoration-color:#000000;text-decoration-line:none;text-decoration-style:solid;text-indent:0;text-orientation:mixed;text-transform:none;white-space:normal"/>
 <path d="m23.227 31.719-1.1523 1.1523 2.1211 2.1211 0.27344-0.27344h-0.51953v-3z" color="#000000" color-rendering="auto" dominant-baseline="auto" image-rendering="auto" shape-rendering="auto" solid-color="#000000" style="font-feature-settings:normal;font-variant-alternates:normal;font-variant-caps:normal;font-variant-ligatures:normal;font-variant-numeric:normal;font-variant-position:normal;isolation:auto;mix-blend-mode:normal;shape-padding:0;text-decoration-color:#000000;text-decoration-line:none;text-decoration-style:solid;text-indent:0;text-orientation:mixed;text-transform:none;white-space:normal"/>
</svg>
