<svg width="22" height="22" viewBox="0 0 22 22" fill="none" xmlns="http://www.w3.org/2000/svg">
<path d="M4.82834 4.82834L4.82834 4.82834C6.47692 3.17961 8.66843 2.27188 11 2.27188C13.3316 2.27188 15.5231 3.17961 17.1717 4.82834L17.2424 4.75763L17.1717 4.82834C18.8204 6.47692 19.7281 8.66843 19.7281 11C19.7281 13.3316 18.8204 15.5231 17.1717 17.1717L17.2424 17.2424L17.1717 17.1717C15.5231 18.8204 13.3316 19.7281 11 19.7281C8.66843 19.7281 6.47692 18.8204 4.82834 17.1717L4.75763 17.2424L4.82834 17.1717C3.17961 15.5231 2.27188 13.3316 2.27188 11C2.27188 8.66843 3.17961 6.47692 4.82834 4.82834ZM18.1418 3.85821C16.2343 1.95073 13.6976 0.9 11 0.9C8.30243 0.9 5.7657 1.95073 3.85821 3.85821C1.95073 5.7657 0.9 8.30243 0.9 11C0.9 13.6976 1.95073 16.2343 3.85821 18.1418C5.7657 20.0493 8.30243 21.1 11 21.1C13.6976 21.1 16.2343 20.0493 18.1418 18.1418C20.0493 16.2343 21.1 13.6976 21.1 11C21.1 8.30243 20.0493 5.7657 18.1418 3.85821Z" fill="#111111" stroke="#111111" stroke-width="0.2"/>
<path d="M11.7812 4.84531H8.26562C7.88676 4.84531 7.57969 5.15238 7.57969 5.53125V16.8594C7.57969 17.2382 7.88676 17.5453 8.26562 17.5453C8.64449 17.5453 8.95156 17.2382 8.95156 16.8594V13.2484H11.7812C14.0981 13.2484 15.9828 11.3638 15.9828 9.04688C15.9828 6.72999 14.0981 4.84531 11.7812 4.84531ZM11.7812 11.8766H8.95156V6.21719H11.7812C13.3415 6.21719 14.6109 7.48666 14.6109 9.04688C14.6109 10.6071 13.3415 11.8766 11.7812 11.8766Z" fill="#111111" stroke="#111111" stroke-width="0.2"/>
</svg>
