<svg width="18" height="18" version="1.1" viewBox="0 0 18 18" xmlns="http://www.w3.org/2000/svg">
 <path d="m15.98 0.99023a1.0001 1.0001 0 0 0 -0.6875 0.30273l-14 14a1.0001 1.0001 0 1 0 1.4141 1.4141l14-14a1.0001 1.0001 0 0 0 -0.72656 -1.7168z" color="#000000" color-rendering="auto" dominant-baseline="auto" image-rendering="auto" shape-rendering="auto" solid-color="#000000" style="font-feature-settings:normal;font-variant-alternates:normal;font-variant-caps:normal;font-variant-ligatures:normal;font-variant-numeric:normal;font-variant-position:normal;isolation:auto;mix-blend-mode:normal;shape-padding:0;text-decoration-color:#000000;text-decoration-line:none;text-decoration-style:solid;text-indent:0;text-orientation:mixed;text-transform:none;white-space:normal"/>
 <path d="m3.5 0c-1.9212 0-3.5 1.5788-3.5 3.5s1.5788 3.5 3.5 3.5 3.5-1.5788 3.5-3.5-1.5788-3.5-3.5-3.5zm0 2c0.84027 0 1.5 0.65973 1.5 1.5s-0.65973 1.5-1.5 1.5-1.5-0.65973-1.5-1.5 0.65973-1.5 1.5-1.5z" clip-rule="evenodd" color="#000000" color-rendering="auto" dominant-baseline="auto"  fill-rule="evenodd" image-rendering="auto" shape-rendering="auto" solid-color="#000000" style="font-feature-settings:normal;font-variant-alternates:normal;font-variant-caps:normal;font-variant-ligatures:normal;font-variant-numeric:normal;font-variant-position:normal;isolation:auto;mix-blend-mode:normal;shape-padding:0;text-decoration-color:#000000;text-decoration-line:none;text-decoration-style:solid;text-indent:0;text-orientation:mixed;text-transform:none;white-space:normal"/>
 <path d="m14.5 11c-1.9212 0-3.5 1.5788-3.5 3.5s1.5788 3.5 3.5 3.5 3.5-1.5788 3.5-3.5-1.5788-3.5-3.5-3.5zm0 2c0.84025 0 1.5 0.65975 1.5 1.5s-0.65975 1.5-1.5 1.5-1.5-0.65975-1.5-1.5 0.65975-1.5 1.5-1.5z" clip-rule="evenodd" color="#000000" color-rendering="auto" dominant-baseline="auto"  fill-rule="evenodd" image-rendering="auto" shape-rendering="auto" solid-color="#000000" style="font-feature-settings:normal;font-variant-alternates:normal;font-variant-caps:normal;font-variant-ligatures:normal;font-variant-numeric:normal;font-variant-position:normal;isolation:auto;mix-blend-mode:normal;shape-padding:0;text-decoration-color:#000000;text-decoration-line:none;text-decoration-style:solid;text-indent:0;text-orientation:mixed;text-transform:none;white-space:normal"/>
</svg>
