<svg width="15" height="15" viewBox="0 0 15 15" xmlns="http://www.w3.org/2000/svg">
<path fill-rule="evenodd" clip-rule="evenodd" d="M14.9117 11.2786V13.3861C14.9133 13.7817 14.7477 14.1597 14.4556 14.4272C14.1635 14.6946 13.7719 14.8268 13.3771 14.7912C11.2111 14.5563 9.13041 13.8176 7.30234 12.6344C5.60156 11.5558 4.1596 10.1167 3.07885 8.4193C1.88922 6.58656 1.14888 4.49993 0.917828 2.32844C0.882261 1.93564 1.01375 1.54601 1.28018 1.25472C1.54661 0.963434 1.92344 0.797315 2.31862 0.796944H4.43037C5.137 0.790003 5.7393 1.30695 5.8382 2.00528C5.92733 2.67975 6.09263 3.34199 6.33094 3.97937C6.52433 4.49282 6.40064 5.07165 6.01418 5.46168L5.1202 6.35389C6.12227 8.11268 7.58141 9.56894 9.3437 10.569L10.2377 9.67681C10.6285 9.29112 11.2085 9.16767 11.7229 9.36068C12.3616 9.59852 13.0251 9.76349 13.7009 9.85244C14.4088 9.9521 14.9294 10.5654 14.9117 11.2786Z"/>
</svg>
