<svg width="56" height="51" version="1.1" viewBox="0 0 56 51" xmlns="http://www.w3.org/2000/svg">
 <path d="m8 0.19922c-4.1125 0-7.5 3.3875-7.5 7.5v15c0 7.2925 2.8982 14.289 8.0547 19.445 5.1566 5.1566 12.153 8.0547 19.445 8.0547 15.158 0 27.5-12.342 27.5-27.5v-15c0-4.1125-3.3875-7.5-7.5-7.5zm0 5h40c1.4103 0 2.5 1.0897 2.5 2.5v15c0 12.456-10.044 22.5-22.5 22.5-5.9683 0-11.69-2.3696-15.91-6.5898-4.2202-4.2202-6.5898-9.9418-6.5898-15.91v-15c0-1.4103 1.0897-2.5 2.5-2.5z" clip-rule="evenodd" color="#000000" color-rendering="auto" dominant-baseline="auto"  fill-rule="evenodd" image-rendering="auto" shape-rendering="auto" solid-color="#000000" style="font-feature-settings:normal;font-variant-alternates:normal;font-variant-caps:normal;font-variant-ligatures:normal;font-variant-numeric:normal;font-variant-position:normal;isolation:auto;mix-blend-mode:normal;shape-padding:0;text-decoration-color:#000000;text-decoration-line:none;text-decoration-style:solid;text-indent:0;text-orientation:mixed;text-transform:none;white-space:normal"/>
 <path d="m17.975 17.674a2.5002 2.5002 0 0 0 -1.7422 4.293l10 10a2.5002 2.5002 0 0 0 3.5352 0l10-10a2.5002 2.5002 0 1 0 -3.5352 -3.5352l-8.2324 8.2324-8.2324-8.2324a2.5002 2.5002 0 0 0 -1.793 -0.75781z" color="#000000" color-rendering="auto" dominant-baseline="auto" image-rendering="auto" shape-rendering="auto" solid-color="#000000" style="font-feature-settings:normal;font-variant-alternates:normal;font-variant-caps:normal;font-variant-ligatures:normal;font-variant-numeric:normal;font-variant-position:normal;isolation:auto;mix-blend-mode:normal;shape-padding:0;text-decoration-color:#000000;text-decoration-line:none;text-decoration-style:solid;text-indent:0;text-orientation:mixed;text-transform:none;white-space:normal"/>
</svg>
