<svg width="23" height="23" version="1.1" viewBox="0 0 23 23" xmlns="http://www.w3.org/2000/svg">
 <path d="m3.334 0c-1.8291 0-3.334 1.5049-3.334 3.334v18.666a1.0001 1.0001 0 0 0 1.707 0.70703l4.373-4.373h13.586c1.829 0 3.334-1.5048 3.334-3.334v-11.666c0-1.8291-1.5049-3.334-3.334-3.334zm0 2h16.332c0.74813 0 1.334 0.58578 1.334 1.334v11.666c0 0.74826-0.58582 1.334-1.334 1.334h-14a1.0001 1.0001 0 0 0 -0.70703 0.29297l-2.959 2.959v-16.252c0-0.74822 0.58577-1.334 1.334-1.334z" clip-rule="evenodd" color="#000000" color-rendering="auto" dominant-baseline="auto" fill="#111" fill-rule="evenodd" image-rendering="auto" shape-rendering="auto" solid-color="#000000" style="font-feature-settings:normal;font-variant-alternates:normal;font-variant-caps:normal;font-variant-ligatures:normal;font-variant-numeric:normal;font-variant-position:normal;isolation:auto;mix-blend-mode:normal;shape-padding:0;text-decoration-color:#000000;text-decoration-line:none;text-decoration-style:solid;text-indent:0;text-orientation:mixed;text-transform:none;white-space:normal"/>
 <path d="m6 8a1.0001 1.0001 0 1 0 0 2h9a1.0001 1.0001 0 1 0 0 -2z" color="#000000" color-rendering="auto" dominant-baseline="auto" fill="#111" image-rendering="auto" shape-rendering="auto" solid-color="#000000" style="font-feature-settings:normal;font-variant-alternates:normal;font-variant-caps:normal;font-variant-ligatures:normal;font-variant-numeric:normal;font-variant-position:normal;isolation:auto;mix-blend-mode:normal;shape-padding:0;text-decoration-color:#000000;text-decoration-line:none;text-decoration-style:solid;text-indent:0;text-orientation:mixed;text-transform:none;white-space:normal"/>
 <path d="m6 4a1.0001 1.0001 0 1 0 0 2h11a1.0001 1.0001 0 1 0 0 -2z" color="#000000" color-rendering="auto" dominant-baseline="auto" fill="#111" image-rendering="auto" shape-rendering="auto" solid-color="#000000" style="font-feature-settings:normal;font-variant-alternates:normal;font-variant-caps:normal;font-variant-ligatures:normal;font-variant-numeric:normal;font-variant-position:normal;isolation:auto;mix-blend-mode:normal;shape-padding:0;text-decoration-color:#000000;text-decoration-line:none;text-decoration-style:solid;text-indent:0;text-orientation:mixed;text-transform:none;white-space:normal"/>
 <path d="m6 12a1.0001 1.0001 0 1 0 0 2h5a1.0001 1.0001 0 1 0 0 -2z" color="#000000" color-rendering="auto" dominant-baseline="auto" fill="#111" image-rendering="auto" shape-rendering="auto" solid-color="#000000" style="font-feature-settings:normal;font-variant-alternates:normal;font-variant-caps:normal;font-variant-ligatures:normal;font-variant-numeric:normal;font-variant-position:normal;isolation:auto;mix-blend-mode:normal;shape-padding:0;text-decoration-color:#000000;text-decoration-line:none;text-decoration-style:solid;text-indent:0;text-orientation:mixed;text-transform:none;white-space:normal"/>
</svg>
