<svg width="52" height="52" version="1.1" viewBox="0 0 52 52" xmlns="http://www.w3.org/2000/svg">
 <mask id="path-1-outside-1" x="0" y="0" width="52" height="52" maskUnits="userSpaceOnUse">
  <rect width="52" height="52" />
  <path d="m1.8333 14.334h2.2642l21.466-13.21c0.1314-0.08079 0.2825-0.12357 0.4367-0.12357s0.3053 0.04278 0.4367 0.12357l21.466 13.21h2.2642c0.221 0 0.4329 0.0878 0.5892 0.2441s0.2441 0.3682 0.2441 0.5892v3.3334c0 0.221-0.0878 0.4329-0.2441 0.5892s-0.3682 0.2441-0.5892 0.2441h-1.6667v2.5c0 0.221-0.0878 0.4329-0.2441 0.5892s-0.3682 0.2441-0.5892 0.2441h-2.5v16.667h0.8333c0.221 0 0.433 0.0878 0.5893 0.2441 0.1562 0.1562 0.244 0.3682 0.244 0.5892v2.5h2.5v3.3333h1.6667v5h-50v-5h1.6667v-3.3333h2.5v-2.5c0-0.221 0.08779-0.433 0.24407-0.5892 0.15628-0.1563 0.36825-0.2441 0.58926-0.2441h0.83334v-16.667h-2.5c-0.22102 0-0.43298-0.0878-0.58926-0.2441s-0.24408-0.3682-0.24408-0.5892v-2.5h-1.6667c-0.22102 0-0.43298-0.0878-0.58926-0.2441s-0.24408-0.3682-0.24408-0.5892v-3.3334c0-0.221 0.0878-0.4329 0.24408-0.5892s0.36824-0.2441 0.58926-0.2441zm24.167-11.522l-18.722 11.522h15.006c-0.6465-0.7184-1.0709-1.6088-1.2219-2.5635-0.151-0.9546-0.0221-1.9325 0.3712-2.8154 0.3932-0.88289 1.0339-1.6329 1.8445-2.1592s1.7564-0.80645 2.7229-0.80645 1.9123 0.28012 2.7229 0.80645 1.4513 1.2763 1.8445 2.1592c0.3933 0.88288 0.5222 1.8608 0.3712 2.8154-0.151 0.9547-0.5754 1.8451-1.2219 2.5635h15.006l-18.722-11.522zm3.3333 8.1883c0-0.6593-0.1955-1.3037-0.5617-1.8519-0.3663-0.54817-0.8869-0.97541-1.496-1.2277s-1.2793-0.3183-1.9259-0.18968-1.2405 0.44608-1.7067 0.91226c-0.4662 0.46617-0.7837 1.0601-0.9123 1.7067-0.1286 0.6466-0.0626 1.3168 0.1897 1.9259s0.6795 1.1297 1.2277 1.4959c0.5482 0.3663 1.1926 0.5618 1.8519 0.5618 0.8841 0 1.7319-0.3512 2.357-0.9763s0.9763-1.473 0.9763-2.357zm17.5 8.3333h-10v1.6666h10v-1.6666zm-14.167 0v2.5c0 0.221-0.0878 0.4329-0.2441 0.5892s-0.3683 0.2441-0.5893 0.2441h-2.5v16.667h2.5c0.221 0 0.433 0.0878 0.5893 0.2441 0.1563 0.1562 0.2441 0.3682 0.2441 0.5892v2.5h4.1666v-2.5c0-0.221 0.0878-0.433 0.2441-0.5892 0.1563-0.1563 0.3683-0.2441 0.5893-0.2441h0.8333v-16.667h-2.5c-0.221 0-0.433-0.0878-0.5893-0.2441-0.1562-0.1563-0.244-0.3682-0.244-0.5892v-2.5h-2.5zm-15.833 0v2.5c0 0.221-0.0878 0.4329-0.244 0.5892-0.1563 0.1563-0.3683 0.2441-0.5893 0.2441h-2.5v16.667h0.8333c0.221 0 0.433 0.0878 0.5893 0.2441 0.1563 0.1562 0.2441 0.3682 0.2441 0.5892v2.5h4.1666v-2.5c0-0.221 0.0878-0.433 0.2441-0.5892 0.1563-0.1563 0.3683-0.2441 0.5893-0.2441h2.5v-16.667h-2.5c-0.221 0-0.433-0.0878-0.5893-0.2441s-0.2441-0.3682-0.2441-0.5892v-2.5h-2.5zm10.833 10.833h-1.6667v-1.6667h1.6667v-5.8333h-3.3334v10.833h1.6667v1.6666h-1.6667v4.1667h3.3334v-9.1666zm-6.6667 10.833v1.6667h10v-1.6667h-10zm0-20h10v-1.6666h-10v1.6666zm22.5 16.667h-1.6667v-1.6666h1.6667v-1.6667h-1.6667v-1.6666h1.6667v-10h-3.3333v3.3333h1.6666v1.6667h-1.6666v11.667h3.3333v-1.6667zm1.6667 3.3333h-6.6667v1.6667h6.6667v-1.6667zm-42.5 8.3333h46.667v-1.6666h-46.667v1.6666zm1.6667-3.3333h43.333v-1.6666h-43.333v1.6666zm9.1667-3.3333v-1.6667h-6.6667v1.6667h6.6667zm-5-8.3333h1.6667v1.6667h-1.6667v3.3333h3.3333v-9.1666h-1.6666v-1.6667h1.6666v-1.6667h-1.6666v-1.6666h1.6666v-2.5h-3.3333v11.667zm-3.3333-13.333h10v-1.6666h-10v1.6666zm-2.5-3.3333h46.667v-1.6666h-46.667v1.6666z"/>
 </mask>
 <path d="m26 0.5c-0.24668 0-0.48922 0.068149-0.69922 0.19727l-21.346 13.137h-2.1211c-0.35344 0-0.69345 0.14068-0.94336 0.39062-0.24984 0.24987-0.39062 0.58798-0.39062 0.94141v3.334c0 0.35343 0.14079 0.69349 0.39062 0.94336 0.24991 0.24994 0.58992 0.39062 0.94336 0.39062h1.166v2c0 0.35343 0.14079 0.69154 0.39062 0.94141 0.24991 0.24994 0.58992 0.39062 0.94336 0.39062h2v15.668h-0.33398c-0.35343 0-0.69344 0.14067-0.94336 0.39062-0.25005 0.24992-0.39062 0.58799-0.39062 0.94141v2h-2.5v3.334h-1.666v6h51v-6h-1.666v-3.334h-2.5v-2c0-0.35343-0.14072-0.6915-0.39062-0.94141-0.24995-0.24995-0.58993-0.39062-0.94336-0.39062h-0.33398v-15.668h2c0.35343 0 0.69349-0.14075 0.94336-0.39062 0.24987-0.24987 0.39062-0.58798 0.39062-0.94141v-2h1.166c0.35343 0 0.69349-0.14075 0.94336-0.39062 0.24987-0.24987 0.39062-0.58993 0.39062-0.94336v-3.334c0-0.35343-0.14075-0.69153-0.39062-0.94141-0.24987-0.24987-0.58993-0.39062-0.94336-0.39062h-2.1211l-21.346-13.137c-0.21-0.12912-0.45254-0.19727-0.69922-0.19727zm0 1c0.06172 0 0.12298 0.016365 0.17578 0.048828l21.586 13.285h2.4043c0.08857 0 0.1736 0.03493 0.23633 0.09766 0.06273 0.06273 0.09766 0.1458 0.09766 0.23438v3.334c0 0.08857-0.03493 0.1736-0.09766 0.23633-0.06273 0.06273-0.14776 0.09766-0.23633 0.09766h-2.166v3c0 0.08857-0.03493 0.17165-0.09766 0.23438-0.06273 0.06273-0.14776 0.09766-0.23633 0.09766h-3v17.668h1.334c0.08857 0 0.17368 0.035 0.23633 0.09766 0.06249 0.06249 0.09766 0.1458 0.09766 0.23438v3h2.5v3.334h1.666v4h-49v-4h1.666v-3.334h2.5v-3c0-0.08859 0.035149-0.1719 0.097656-0.23438 0.062641-0.062649 0.14774-0.097657 0.23633-0.097657h1.334v-17.668h-3c-0.088604 0-0.17368-0.035-0.23633-0.09766-0.062722-0.062727-0.097656-0.1458-0.097656-0.23437v-3h-2.166c-0.088604 0-0.17368-0.035-0.23633-0.09766-0.062722-0.062726-0.097656-0.14775-0.097656-0.23632v-3.334c0-0.08857 0.034934-0.17164 0.097656-0.23438 0.062648-0.06266 0.14772-0.09766 0.23633-0.09766h2.4043l21.586-13.285c0.052799-0.032463 0.11406-0.048828 0.17578-0.048828zm0 0.72461-0.26172 0.16211-20.227 12.447h17.895l-0.75195-0.83398c-0.58187-0.64658-0.9637-1.4493-1.0996-2.3086-0.13591-0.85918-0.019994-1.7386 0.33398-2.5332 0.35389-0.79462 0.93058-1.4696 1.6602-1.9434 0.72957-0.47372 1.5813-0.72656 2.4512-0.72656 0.86989 0 1.7216 0.25285 2.4512 0.72656 0.72957 0.47372 1.3063 1.1487 1.6602 1.9434 0.35398 0.79461 0.46989 1.674 0.33398 2.5332-0.13591 0.85929-0.51774 1.662-1.0996 2.3086l-0.75195 0.83398h17.895zm0 1.1738 16.957 10.436h-12.473c0.39574-0.62817 0.83027-1.2466 0.94727-1.9863 0.16609-1.05 0.02442-2.1246-0.4082-3.0957-0.43251-0.97116-1.1357-1.7961-2.0273-2.375-0.89163-0.57894-1.933-0.88867-2.9961-0.88867s-2.1045 0.30973-2.9961 0.88867c-0.89162 0.57894-1.5948 1.4038-2.0273 2.375-0.43262 0.97115-0.5743 2.0457-0.4082 3.0957 0.117 0.73971 0.55153 1.3582 0.94727 1.9863h-12.473zm-0.74805 3.8418c-0.74354 0.1479-1.4268 0.51277-1.9629 1.0488-0.53609 0.53606-0.90094 1.2193-1.0488 1.9629-0.14788 0.74353-0.07138 1.5144 0.21875 2.2148 0.29012 0.7004 0.78167 1.2996 1.4121 1.7207 0.63036 0.4212 1.3708 0.64648 2.1289 0.64648 1.0165 0 1.9922-0.40432 2.7109-1.123 0.71874-0.71874 1.123-1.6945 1.123-2.7109 0-0.75814-0.22539-1.4986-0.64648-2.1289-0.42121-0.63035-1.0203-1.122-1.7207-1.4121-0.70041-0.29011-1.4713-0.36665-2.2148-0.21875zm0.19531 0.98047c0.54966-0.10934 1.1189-0.052359 1.6367 0.16211 0.51778 0.21446 0.9601 0.57697 1.2715 1.043 0.31131 0.46599 0.47852 1.0138 0.47852 1.5742 0 0.75157-0.29862 1.4724-0.83008 2.0039-0.53148 0.53148-1.2522 0.83008-2.0039 0.83008-0.56046 0-1.1082-0.16712-1.5742-0.47852-0.46596-0.31126-0.82849-0.75368-1.043-1.2715-0.21447-0.51778-0.27143-1.087-0.16211-1.6367 0.10931-0.54964 0.37908-1.0549 0.77539-1.4512 0.39632-0.3963 0.90152-0.66605 1.4512-0.77539zm-23.281 7.2793v2.666h47.668v-2.666zm1 1h45.668v0.66602h-45.668zm1.5 2.334v2.666h11v-2.666zm11.668 0v3c0 0.08857-0.03496 0.17164-0.09766 0.23438-0.06265 0.06265-0.14776 0.09766-0.23633 0.09766h-3v17.668h1.334c0.08857 0 0.17172 0.035 0.23438 0.09766 0.06252 0.06248 0.09766 0.1458 0.09766 0.23438v3h5.168v-3c0-0.08857 0.03514-0.1719 0.09766-0.23438 0.06265-0.06265 0.1458-0.09766 0.23438-0.09766h3v-17.668h-3c-0.08857 0-0.17172-0.035-0.23438-0.09766-0.06273-0.06273-0.09766-0.1458-0.09766-0.23438v-3zm4.166 0v2.666h11v-2.666zm11.666 0v3c0 0.08857-0.03493 0.17165-0.09766 0.23438-0.06265 0.06265-0.1458 0.09766-0.23438 0.09766h-3v17.668h3c0.08857 0 0.17172 0.035 0.23438 0.09766 0.06252 0.06248 0.09766 0.1458 0.09766 0.23438v3h5.168v-3c0-0.08857 0.03514-0.1719 0.09766-0.23438 0.06265-0.06265 0.1458-0.09766 0.23438-0.09766h1.334v-17.668h-3c-0.08857 0-0.17368-0.035-0.23633-0.09766-0.0627-0.06274-0.09766-0.1458-0.09766-0.23438v-3zm4.168 0v2.666h11v-2.666h-0.5zm-30.668 1h9v0.66602h-9zm11.668 0h1.5v2c0 0.35343 0.14075 0.69153 0.39062 0.94141 0.24995 0.24995 0.58798 0.39062 0.94141 0.39062h2v15.668h-2c-0.35343 0-0.69146 0.14068-0.94141 0.39062-0.25008 0.24992-0.39062 0.58798-0.39062 0.94141v2h-3.168v-2c0-0.35343-0.14055-0.69149-0.39062-0.94141-0.24995-0.24995-0.58798-0.39062-0.94141-0.39062h-0.33398v-15.668h2c0.35343 0 0.69341-0.14068 0.94336-0.39062 0.2497-0.24986 0.39062-0.58798 0.39062-0.94141zm4.166 0h9v0.66602h-9zm11.666 0h1.5v2c0 0.35343 0.14092 0.69155 0.39062 0.94141 0.24995 0.24995 0.58993 0.39062 0.94336 0.39062h2v15.668h-0.33398c-0.35343 0-0.69146 0.14068-0.94141 0.39062-0.25008 0.24992-0.39062 0.58798-0.39062 0.94141v2h-3.168v-2c0-0.35343-0.14055-0.69149-0.39062-0.94141-0.24995-0.24995-0.58798-0.39062-0.94141-0.39062h-2v-15.668h2c0.35343 0 0.69146-0.14068 0.94141-0.39062 0.24987-0.24987 0.39062-0.58798 0.39062-0.94141zm4.168 0h9v0.66602h-9zm-29.334 2.332v12.668h1.666v0.66602h-1.666v4.334h4.334v-10.168h-1.668v-0.66602h1.668v-2.666h-1.668v-0.66797h1.668v-3.5zm15.834 0v11.834h1.666v0.66602h-1.666v5.168h4.332v-10.168h-1.666v-0.66602h1.666v-6.834zm15.832 0v4.334h1.668v0.66602h-1.668v12.668h4.334v-2.668h-1.666v-0.66602h1.666v-2.666h-1.666v-0.66797h1.666v-11zm-30.666 1h2.334v1.5h-1.668v2.668h1.668v0.66602h-1.668v2.666h1.668v8.168h-2.334v-2.334h1.666v-2.666h-1.666zm15.834 0h2.332v4.834h-1.666v2.666h1.666v8.168h-2.332v-3.168h1.666v-2.666h-1.666zm15.832 0h2.334v9h-1.666v2.668h1.666v0.66602h-1.666v2.666h1.666v0.66797h-2.334v-10.668h1.668v-2.666h-1.668zm-34.332 17.334v2.666h7.666v-2.666zm14.166 0v2.666h11v-2.666zm17.5 0v2.666h7.666v-2.666h-0.5zm-30.666 1h5.666v0.66602h-5.666zm14.166 0h9v0.66602h-9zm17.5 0h5.666v0.66602h-5.666zm-35.166 2.334v2.666h44.332v-2.666zm1 1h42.332v0.66602h-42.332zm-2.668 2.332v2.668h47.668v-2.668zm1 1h45.668v0.66797h-45.668z" color="#000000" color-rendering="auto" dominant-baseline="auto" image-rendering="auto" shape-rendering="auto" solid-color="#000000" style="font-feature-settings:normal;font-variant-alternates:normal;font-variant-caps:normal;font-variant-ligatures:normal;font-variant-numeric:normal;font-variant-position:normal;isolation:auto;mix-blend-mode:normal;shape-padding:0;text-decoration-color:#000000;text-decoration-line:none;text-decoration-style:solid;text-indent:0;text-orientation:mixed;text-transform:none;white-space:normal"/>
 <path d="m26 0.69922c-0.20969 0-0.41519 0.058183-0.59375 0.16797l-21.395 13.166h-2.1777c-0.30047 0-0.59028 0.11954-0.80273 0.33203-0.21241 0.21244-0.33203 0.50032-0.33203 0.80078v3.334c0 0.30046 0.11962 0.58834 0.33203 0.80078 0.21246 0.21249 0.50226 0.33203 0.80273 0.33203h1.3652v2.2012c0 0.30046 0.11962 0.58834 0.33203 0.80078 0.21246 0.21249 0.50226 0.33203 0.80273 0.33203h2.1992v16.066h-0.5332c-0.30046 0-0.58832 0.11954-0.80078 0.33203-0.21254 0.21244-0.33203 0.50033-0.33203 0.80078v2.2012h-2.5v3.332h-1.668v5.6016h50.602v-5.6016h-1.668v-3.332h-2.5v-2.2012c0-0.30046-0.11961-0.58836-0.33203-0.80078-0.21249-0.21249-0.50032-0.33203-0.80078-0.33203h-0.5332v-16.066h2.1992c0.30046 0 0.59029-0.11959 0.80273-0.33203 0.21244-0.21244 0.33203-0.50032 0.33203-0.80078v-2.2012h1.3652c0.30046 0 0.59029-0.11959 0.80273-0.33203 0.21244-0.21244 0.33203-0.50032 0.33203-0.80078v-3.334c0-0.30046-0.11959-0.58834-0.33203-0.80078-0.21244-0.21244-0.50228-0.33203-0.80273-0.33203h-2.1777l-21.395-13.166c-0.17856-0.10979-0.38406-0.16797-0.59375-0.16797zm0 0.60156c0.09871 0 0.19506 0.026331 0.2793 0.078125l21.539 13.254h2.3477c0.14154 0 0.2768 0.05609 0.37695 0.15625 0.10016 0.10016 0.15625 0.23541 0.15625 0.37695v3.334c0 0.14154-0.05609 0.2768-0.15625 0.37695-0.10016 0.10016-0.23541 0.15625-0.37695 0.15625h-1.9668v2.8008c0 0.14154-0.05609 0.2768-0.15625 0.37695-0.10016 0.10016-0.23541 0.15625-0.37695 0.15625h-2.7988v17.266h1.1328c0.14154 0 0.27684 0.05614 0.37695 0.15625 0.09998 0.09998 0.15625 0.23541 0.15625 0.37695v2.8008h2.5v3.334h1.666v4.3984h-49.398v-4.3984h1.666v-3.334h2.5v-2.8008c0-0.14155 0.056234-0.27699 0.15625-0.37695 0.1001-0.10011 0.2354-0.15625 0.37695-0.15625h1.1328v-17.266h-2.7988c-0.14157 0-0.27685-0.05614-0.37695-0.15625-0.10015-0.10016-0.15625-0.23541-0.15625-0.37695v-2.8008h-1.9668c-0.14157 0-0.27685-0.05614-0.37695-0.15625-0.10015-0.10016-0.15625-0.23541-0.15625-0.37695v-3.334c0-0.14154 0.056105-0.2768 0.15625-0.37695 0.1001-0.10011 0.23538-0.15625 0.37695-0.15625h2.3477l21.539-13.254c0.08424-0.051794 0.18058-0.078125 0.2793-0.078125zm0 1.1582-0.1582 0.097656-19.625 12.076h16.74l-0.45117-0.5c-0.60772-0.67531-1.0065-1.5127-1.1484-2.4102-0.14194-0.89735-0.020097-1.8166 0.34961-2.6465 0.36961-0.82993 0.97239-1.5345 1.7344-2.0293 0.76198-0.49476 1.6501-0.75781 2.5586-0.75781s1.7966 0.26305 2.5586 0.75781c0.76198 0.49476 1.3648 1.1994 1.7344 2.0293 0.36971 0.82992 0.49155 1.7491 0.34961 2.6465-0.14195 0.89746-0.54072 1.7348-1.1484 2.4102l-0.45117 0.5h16.74zm0 0.70703 17.66 10.867h-13.482c0.48696-0.67297 0.92604-1.3911 1.0566-2.2168 0.16006-1.0119 0.024315-2.0485-0.39258-2.9844-0.41679-0.93585-1.0959-1.7312-1.9551-2.2891-0.85922-0.5579-1.8623-0.85352-2.8867-0.85352s-2.0275 0.29562-2.8867 0.85352c-0.85922 0.5579-1.5383 1.3532-1.9551 2.2891-0.41689 0.93584-0.55263 1.9725-0.39258 2.9844 0.1306 0.82571 0.56968 1.5438 1.0566 2.2168h-13.482zm-0.70898 4.2715c-0.70477 0.14019-1.3512 0.48603-1.8594 0.99414-0.50814 0.5081-0.85592 1.1546-0.99609 1.8594-0.14017 0.70476-0.06797 1.4357 0.20703 2.0996 0.27499 0.66388 0.7423 1.2317 1.3398 1.6309 0.59716 0.39856 1.2996 0.61133 2.0176 0.61133 0.96355 0 1.8871-0.38318 2.5684-1.0645 0.68129-0.68129 1.0645-1.6049 1.0645-2.5684 0-0.7186-0.21219-1.4201-0.61133-2.0176-0.39925-0.59748-0.96697-1.0649-1.6309-1.3398-0.66389-0.27498-1.3948-0.34527-2.0996-0.20508zm0.11719 0.58789c0.58843-0.11705 1.1976-0.057722 1.752 0.17188 0.55431 0.22959 1.028 0.61832 1.3613 1.1172 0.33327 0.49886 0.51172 1.0856 0.51172 1.6855 0 0.80454-0.31976 1.5756-0.88867 2.1445-0.56892 0.56892-1.3399 0.88867-2.1445 0.88867-0.6 0-1.1866-0.17836-1.6855-0.51172-0.49886-0.33324-0.88758-0.80701-1.1172-1.3613-0.2296-0.55431-0.28891-1.1635-0.17188-1.752 0.11703-0.58843 0.40581-1.1285 0.83008-1.5527 0.42427-0.42425 0.9643-0.71303 1.5527-0.83008zm-23.041 7.6758v2.2656h47.266v-2.2656zm0.59961 0.59961h46.066v1.0664h-46.066zm1.9004 2.7324v2.2676h10.6v-2.2676zm11.666 0v2.8008c0 0.14154-0.05615 0.27679-0.15625 0.37695-0.10011 0.10011-0.23541 0.15625-0.37695 0.15625h-2.8008v17.266h1.1348c0.14154 0 0.27684 0.05614 0.37695 0.15625 0.10003 0.09997 0.15625 0.23541 0.15625 0.37695v2.8008h4.7656v-2.8008c0-0.14154 0.05622-0.27698 0.15625-0.37695 0.10011-0.10011 0.23541-0.15625 0.37695-0.15625h2.8008v-17.266h-2.8008c-0.14154 0-0.27684-0.05614-0.37695-0.15625-0.10016-0.10016-0.15625-0.23541-0.15625-0.37695v-2.8008zm4.166 0v2.2676h10.602v-2.2676zm11.668 0v2.8008c0 0.14154-0.05609 0.2768-0.15625 0.37695-0.10011 0.10011-0.23541 0.15625-0.37695 0.15625h-2.8008v17.266h2.8008c0.14154 0 0.27684 0.05614 0.37695 0.15625 0.10003 0.09997 0.15625 0.23541 0.15625 0.37695v2.8008h4.7656v-2.8008c0-0.14154 0.05622-0.27698 0.15625-0.37695 0.10011-0.10011 0.23541-0.15625 0.37695-0.15625h1.1348v-17.266h-2.8008c-0.14154 0-0.27684-0.05614-0.37695-0.15625-0.1001-0.10016-0.15625-0.23541-0.15625-0.37695v-2.8008zm4.166 0v2.2676h10.6v-2.2676h-0.29883zm-31.066 0.59961h9.4004v1.0664h-9.4004zm11.666 0h1.9004v2.2012c0 0.30046 0.11959 0.58834 0.33203 0.80078 0.21249 0.21249 0.50032 0.33203 0.80078 0.33203h2.2012v16.066h-2.2012c-0.30046 0-0.58829 0.11954-0.80078 0.33203-0.21257 0.21243-0.33203 0.50032-0.33203 0.80078v2.2012h-3.5664v-2.2012c0-0.30046-0.11946-0.58835-0.33203-0.80078-0.21249-0.21249-0.50032-0.33203-0.80078-0.33203h-0.5332v-16.066h2.1992c0.30046 0 0.58829-0.11954 0.80078-0.33203 0.2123-0.21244 0.33203-0.50032 0.33203-0.80078zm4.168 0h9.3984v1.0664h-9.3984zm11.666 0h1.9004v2.2012c0 0.30046 0.11973 0.58835 0.33203 0.80078 0.21249 0.21249 0.50032 0.33203 0.80078 0.33203h2.1992v16.066h-0.5332c-0.30046 0-0.58829 0.11954-0.80078 0.33203-0.21257 0.21243-0.33203 0.50032-0.33203 0.80078v2.2012h-3.5664v-2.2012c0-0.30046-0.11946-0.58835-0.33203-0.80078-0.21249-0.21249-0.50032-0.33203-0.80078-0.33203h-2.2012v-16.066h2.2012c0.30046 0 0.58829-0.11954 0.80078-0.33203 0.21244-0.21244 0.33203-0.50032 0.33203-0.80078zm4.166 0h9.4004v1.0664h-9.4004zm-28.934 2.7344v12.266h1.668v1.0664h-1.668v3.9336h3.9336v-9.7656h-1.666v-1.0664h1.666v-2.2676h-1.666v-1.0664h1.666v-3.0996zm15.834 0v11.434h1.666v1.0664h-1.666v4.7656h3.9336v-9.7656h-1.666v-1.0664h1.666v-6.4336zm15.834 0v3.9336h1.666v1.0664h-1.666v12.266h3.9336v-2.2656h-1.668v-1.0664h1.668v-2.2676h-1.668v-1.0664h1.668v-10.6zm-31.066 0.59961h2.7324v1.9004h-1.666v2.2656h1.666v1.0664h-1.666v2.2676h1.666v8.5664h-2.7324v-2.7324h1.666v-2.2676h-1.666zm15.832 0h2.7344v5.2324h-1.668v2.2676h1.668v8.5664h-2.7344v-3.5664h1.668v-2.2676h-1.668zm15.834 0h2.7324v9.4004h-1.666v2.2656h1.666v1.0664h-1.666v2.2676h1.666v1.0664h-2.7324v-11.066h1.666v-2.2676h-1.666zm-33.934 17.732v2.2676h7.2676v-2.2676zm14.166 0v2.2676h10.602v-2.2676zm17.5 0v2.2676h7.2676v-2.2676h-0.30078zm-31.066 0.60156h6.0664v1.0664h-6.0664zm14.168 0h9.3984v1.0664h-9.3984zm17.5 0h6.0664v1.0664h-6.0664zm-34.768 2.7324v2.2676h43.934v-2.2676zm0.59961 0.59961h42.734v1.0664h-42.734zm-2.2656 2.7344v2.2656h47.266v-2.2656zm0.59961 0.59961h46.066v1.0664h-46.066z" color="#000000" color-rendering="auto" dominant-baseline="auto" image-rendering="auto" mask="url(#path-1-outside-1)" shape-rendering="auto" solid-color="#000000" style="font-feature-settings:normal;font-variant-alternates:normal;font-variant-caps:normal;font-variant-ligatures:normal;font-variant-numeric:normal;font-variant-position:normal;isolation:auto;mix-blend-mode:normal;shape-padding:0;text-decoration-color:#000000;text-decoration-line:none;text-decoration-style:solid;text-indent:0;text-orientation:mixed;text-transform:none;white-space:normal"/>
</svg>
