<svg width="33" height="33" version="1.1" viewBox="0 0 33 33" xmlns="http://www.w3.org/2000/svg">
 <path d="m16.344-0.17773c-9.295 0-16.844 7.5472-16.844 16.844 0 9.2966 7.549 16.834 16.844 16.834 9.2936 0 16.834-7.5377 16.834-16.834 0-9.2962-7.54-16.844-16.834-16.844zm0 1c8.7535 0 15.834 7.0874 15.834 15.844 0 8.7564-7.0804 15.834-15.834 15.834-8.7549 0-15.844-7.078-15.844-15.834 0-8.756 7.0891-15.844 15.844-15.844z" color="#000000" color-rendering="auto" dominant-baseline="auto" image-rendering="auto" shape-rendering="auto" solid-color="#000000" style="font-feature-settings:normal;font-variant-alternates:normal;font-variant-caps:normal;font-variant-ligatures:normal;font-variant-numeric:normal;font-variant-position:normal;isolation:auto;mix-blend-mode:normal;shape-padding:0;text-decoration-color:#000000;text-decoration-line:none;text-decoration-style:solid;text-indent:0;text-orientation:mixed;text-transform:none;white-space:normal"/>
 <path d="m15.152 7.6367c-2.5919 0-4.3079 0.1341-5.625 0.62305h-0.00391l-0.00391 0.00195c-2.1786 0.84865-3.7519 2.7001-3.7519 5.0938 0 0.98506 0.24416 1.8939 0.81836 2.7207s1.4529 1.5693 2.709 2.3457l0.00195 2e-3h0.00195c1.2965 0.78598 2.0609 1.3106 2.4531 1.6953 0.39219 0.38468 0.4375 0.54997 0.4375 0.93555 0 0.3583-0.1637 0.7576-0.63672 1.1035-0.47302 0.34591-1.2758 0.62695-2.5156 0.62695-0.87073 0-2.2517-0.13023-3.0625-0.32812h-0.00391l-0.85156-0.21484-0.15625 0.41992c-0.2388 0.64024-0.76672 2.1061-0.94336 2.6934l-0.14452 0.48042 0.88867 0.26172c0.94114 0.30021 2.7854 0.47656 4.1855 0.47656 4.6966 0 7.6758-2.9023 7.6758-6.0605 0-0.94936-0.23108-1.8477-0.82227-2.6895s-1.5144-1.628-2.8867-2.4844h-4e-3c-1.3077-0.80431-1.9432-1.3113-2.3203-1.6836-0.25229-0.3316-0.26172-0.47165-0.26172-0.76758 0-0.25137 0.06742-0.52424 0.17969-0.66797l0.0098-0.01172 0.0098-0.01367c0.12712-0.18607 0.43518-0.37365 0.96875-0.53906l0.0059-2e-3h0.0039c0.41929-0.1391 1.5327-0.17774 3.2402-0.17774h1.9297l1.5352-3.8398h-2.5605zm3.6895 0-1.5352 3.8398h3.3887c1.275 0 1.4686-0.01616 1.832-0.02734-0.98425 2.3629-4.2656 10.713-4.2656 10.713l-0.26758 0.68164h4.3672l0.12695-0.31445s4.8966-12.272 5.4375-13.613c0.11472-0.22904 0.18888-0.51628 0.05078-0.81836-0.13809-0.30208-0.49509-0.46094-0.80078-0.46094zm-3.6895 1h1.584l-0.73633 1.8398h-1.252c-1.7086 0-2.7881-0.02474-3.5527 0.22852-0.60968 0.18962-1.1423 0.43418-1.4785 0.91602-0.30706 0.40238-0.38672 0.87291-0.38672 1.2676 0 0.37733 0.080171 0.89 0.48047 1.4043l0.017578 0.02539 0.023437 0.02149c0.45817 0.45718 1.1744 1.0134 2.5371 1.8516 1.3072 0.81605 2.1203 1.5302 2.5957 2.207 0.47576 0.67743 0.64062 1.3172 0.64062 2.1152 0 2.5295-2.3819 5.0605-6.6758 5.0605-1.2756 0-3.1148-0.21497-3.8008-0.41797 0.17711-0.52966 0.39865-1.1641 0.60352-1.7266 0.95595 0.23166 2.3262 0.35547 3.2852 0.35547 1.3903 0 2.4119-0.31167 3.1074-0.82031 0.69555-0.50864 1.0449-1.2253 1.0449-1.9102 0-0.56763-0.21585-1.1399-0.73633-1.6504-0.51978-0.50983-1.321-1.0378-2.6309-1.832l-0.00391-2e-3c-1.1869-0.73412-1.9529-1.4033-2.4121-2.0644-0.45977-0.66204-0.63867-1.3205-0.63867-2.1504 0-1.9621 1.2301-3.4237 3.1094-4.1582 1.1-0.40803 2.7213-0.56055 5.2754-0.56055zm4.3672 0h7.4414c-0.59177 1.4693-5.0627 12.669-5.2773 13.207h-2.2207c0.41793-1.0636 3.6878-9.3875 4.2637-10.705l0.30664-0.69922h-0.76562c-0.47622 0-0.79643 0.03711-2.5723 0.03711h-1.9121z" color="#000000" color-rendering="auto" dominant-baseline="auto" image-rendering="auto" shape-rendering="auto" solid-color="#000000" style="font-feature-settings:normal;font-variant-alternates:normal;font-variant-caps:normal;font-variant-ligatures:normal;font-variant-numeric:normal;font-variant-position:normal;isolation:auto;mix-blend-mode:normal;shape-padding:0;text-decoration-color:#000000;text-decoration-line:none;text-decoration-style:solid;text-indent:0;text-orientation:mixed;text-transform:none;white-space:normal"/>
</svg>
