<svg width="54" height="50" viewBox="0 0 54 50" xmlns="http://www.w3.org/2000/svg">
<path d="M48.585 0H4.68164C2.10024 0 0 2.10024 0 4.68164V35.8926C0 38.474 2.10024 40.5742 4.68164 40.5742H18.2259L16.1452 46.8164H11.0279C10.1659 46.8164 9.46732 47.515 9.46732 48.377C9.46732 49.2389 10.1659 49.9375 11.0279 49.9375H42.2388C43.1008 49.9375 43.7993 49.2389 43.7993 48.377C43.7993 47.515 43.1008 46.8164 42.2388 46.8164H37.1215L35.0408 40.5742H48.585C51.1664 40.5742 53.2667 38.474 53.2667 35.8926V4.68164C53.2667 2.10024 51.1664 0 48.585 0ZM19.4353 46.8164L21.516 40.5742H31.7506L33.8314 46.8164H19.4353ZM50.1456 35.8926C50.1456 36.7529 49.4454 37.4531 48.585 37.4531C44.0509 37.4531 9.2629 37.4531 4.68164 37.4531C3.82131 37.4531 3.12109 36.7529 3.12109 35.8926V34.332H50.1456V35.8926ZM17.0181 22.2419L15.5986 20.8227L17.8053 18.6156L19.2248 20.0351C19.7279 20.5383 20.5078 20.6374 21.121 20.2757C21.998 19.7588 22.9343 19.3691 23.9036 19.1179C24.592 18.9399 25.0728 18.3185 25.0728 17.6074V15.6055H28.1939V17.6074C28.1939 18.3185 28.6746 18.9399 29.3631 19.1179C30.3319 19.3691 31.2682 19.7588 32.1452 20.2761C32.7585 20.6374 33.5383 20.5383 34.0415 20.0351L35.461 18.6156L37.6681 20.8227L36.2486 22.2423C35.7455 22.7454 35.6463 23.5252 36.008 24.1381C36.5253 25.0155 36.9147 25.9518 37.1658 26.9207C37.3438 27.6091 37.9652 28.0898 38.6764 28.0898H40.6783V31.2109H34.2784C34.3824 30.6997 34.4361 30.1767 34.4361 29.6504C34.4361 25.3479 30.9358 21.8477 26.6333 21.8477C22.3309 21.8477 18.8306 25.3479 18.8306 29.6504C18.8306 30.1767 18.8842 30.6997 18.9883 31.2109H12.5884V28.0898H14.5903C15.3015 28.0898 15.9229 27.6091 16.1013 26.9207C16.352 25.9518 16.7417 25.0155 17.2587 24.1381C17.62 23.5252 17.5212 22.7454 17.0181 22.2419ZM31.315 29.6504C31.315 30.1848 31.2223 30.7127 31.0468 31.2109H22.2199C22.0443 30.7127 21.9517 30.1848 21.9517 29.6504C21.9517 27.069 24.0519 24.9688 26.6333 24.9688C29.2147 24.9688 31.315 27.069 31.315 29.6504ZM50.1456 31.2109H43.7993V26.5293C43.7993 25.6673 43.1008 24.9688 42.2388 24.9688H39.8281C39.6663 24.5152 39.4806 24.0694 39.2717 23.6325L40.9786 21.9261C41.5878 21.3165 41.5878 20.3286 40.9782 19.719L36.5643 15.3051C36.2717 15.0125 35.8747 14.8484 35.461 14.8484C35.0473 14.8484 34.6502 15.0125 34.3576 15.3051L32.6512 17.012C32.2143 16.8031 31.7685 16.6174 31.315 16.456V14.0449C31.315 13.183 30.6164 12.4844 29.7544 12.4844H23.5122C22.6503 12.4844 21.9517 13.183 21.9517 14.0449V16.456C21.4982 16.6174 21.0523 16.8031 20.6155 17.012L18.909 15.3051C18.6164 15.0125 18.2194 14.8484 17.8057 14.8484C17.3916 14.8484 16.9949 15.0125 16.7019 15.3051L12.2885 19.719C11.6789 20.3286 11.6789 21.3165 12.2885 21.9261L13.9949 23.6329C13.786 24.0694 13.6007 24.5152 13.439 24.9688H11.0279C10.1659 24.9688 9.46732 25.6677 9.46732 26.5293V31.2109H3.12109V4.68164C3.12109 3.82131 3.82131 3.12109 4.68164 3.12109H48.585C49.4454 3.12109 50.1456 3.82131 50.1456 4.68164V31.2109Z"/>
<path d="M42.2383 6.24219C39.6569 6.24219 37.5566 8.34242 37.5566 10.9238C37.5566 13.5052 39.6569 15.6055 42.2383 15.6055C44.8197 15.6055 46.9199 13.5052 46.9199 10.9238C46.9199 8.34242 44.8197 6.24219 42.2383 6.24219ZM42.2383 12.4844C41.3779 12.4844 40.6777 11.7842 40.6777 10.9238C40.6777 10.0635 41.3779 9.36328 42.2383 9.36328C43.0986 9.36328 43.7988 10.0635 43.7988 10.9238C43.7988 11.7842 43.0986 12.4844 42.2383 12.4844Z"/>
</svg>
