<svg width="54" height="50" viewBox="0 0 54 50" xmlns="http://www.w3.org/2000/svg">
<path d="M48.6458 0H4.6875C2.10286 0 0 2.10286 0 4.6875V35.9375C0 38.5221 2.10286 40.625 4.6875 40.625H18.2487L16.1654 46.875H11.0417C10.1786 46.875 9.47917 47.5745 9.47917 48.4375C9.47917 49.3005 10.1786 50 11.0417 50H42.2917C43.1547 50 43.8542 49.3005 43.8542 48.4375C43.8542 47.5745 43.1547 46.875 42.2917 46.875H37.168L35.0846 40.625H48.6458C51.2305 40.625 53.3333 38.5221 53.3333 35.9375V4.6875C53.3333 2.10286 51.2305 0 48.6458 0ZM19.4596 46.875L21.543 40.625H31.7904L33.8737 46.875H19.4596ZM50.2083 35.9375C50.2083 36.7989 49.5072 37.5 48.6458 37.5C46.2854 37.5 7.06014 37.5 4.6875 37.5C3.82609 37.5 3.125 36.7989 3.125 35.9375V34.375H50.2083V35.9375ZM50.2083 31.25H3.125V4.6875C3.125 3.82609 3.82609 3.125 4.6875 3.125H48.6458C49.5072 3.125 50.2083 3.82609 50.2083 4.6875V31.25Z"/>
<path d="M31.3555 7.8125C31.3555 8.67554 30.656 9.375 29.793 9.375C28.9299 9.375 28.2305 8.67554 28.2305 7.8125C28.2305 6.94946 28.9299 6.25 29.793 6.25C30.656 6.25 31.3555 6.94946 31.3555 7.8125Z" />
<path d="M25.1055 7.8125C25.1055 8.67554 24.406 9.375 23.543 9.375C22.6799 9.375 21.9805 8.67554 21.9805 7.8125C21.9805 6.94946 22.6799 6.25 23.543 6.25C24.406 6.25 25.1055 6.94946 25.1055 7.8125Z" />
<path d="M37.6055 7.8125C37.6055 8.67554 36.906 9.375 36.043 9.375C35.1799 9.375 34.4805 8.67554 34.4805 7.8125C34.4805 6.94946 35.1799 6.25 36.043 6.25C36.906 6.25 37.6055 6.94946 37.6055 7.8125Z" />
<path d="M17.293 6.25H7.91797C7.05493 6.25 6.35547 6.94946 6.35547 7.8125V26.5625C6.35547 27.4255 7.05493 28.125 7.91797 28.125H17.293C18.156 28.125 18.8555 27.4255 18.8555 26.5625V7.8125C18.8555 6.94946 18.156 6.25 17.293 6.25ZM15.7305 25H9.48047V21.875H15.7305V25ZM15.7305 18.75H9.48047V15.625H15.7305V18.75ZM15.7305 12.5H9.48047V9.375H15.7305V12.5Z"/>
<path d="M40.2728 22.3328C39.6629 21.7224 38.6733 21.7224 38.0633 22.3328L36.286 24.1097L31.0931 16.3208C30.8034 15.8862 30.3155 15.625 29.7931 15.625C29.2706 15.625 28.7827 15.8862 28.493 16.3208L22.243 25.6958C21.7645 26.4136 21.9582 27.384 22.6764 27.8625C23.3913 28.339 24.3622 28.1502 24.8431 27.4292L29.7931 20.0045L34.743 27.4292C35.0026 27.8186 35.4234 28.0713 35.8893 28.1173C36.3556 28.1637 36.817 27.9985 37.1478 27.6672L39.1681 25.6474L41.1883 27.6672C41.7983 28.2776 42.7879 28.2776 43.3978 27.6672C44.0082 27.0573 44.0082 26.0681 43.3978 25.4578L40.2728 22.3328Z"/>
<path d="M42.293 9.375C39.7083 9.375 37.6055 11.4779 37.6055 14.0625C37.6055 16.6471 39.7083 18.75 42.293 18.75C44.8776 18.75 46.9805 16.6471 46.9805 14.0625C46.9805 11.4779 44.8776 9.375 42.293 9.375ZM42.293 15.625C41.4316 15.625 40.7305 14.9239 40.7305 14.0625C40.7305 13.2011 41.4316 12.5 42.293 12.5C43.1544 12.5 43.8555 13.2011 43.8555 14.0625C43.8555 14.9239 43.1544 15.625 42.293 15.625Z"/>
</svg>
