<svg width="18" height="18" version="1.1" viewBox="0 0 18 18" xmlns="http://www.w3.org/2000/svg">
 <path d="m7.666 0c-4.2223 0-7.666 3.4437-7.666 7.666 0 4.2224 3.4437 7.668 7.666 7.668 4.2224 0 7.668-3.4456 7.668-7.668 0-4.2223-3.4456-7.666-7.668-7.666zm0 2c3.1415 0 5.668 2.5245 5.668 5.666 0 3.1415-2.5265 5.668-5.668 5.668-3.1415 0-5.666-2.5265-5.666-5.668 0-3.1415 2.5246-5.666 5.666-5.666z" clip-rule="evenodd" color="#000000" color-rendering="auto" dominant-baseline="auto"  fill-rule="evenodd" image-rendering="auto" shape-rendering="auto" solid-color="#000000" style="font-feature-settings:normal;font-variant-alternates:normal;font-variant-caps:normal;font-variant-ligatures:normal;font-variant-numeric:normal;font-variant-position:normal;isolation:auto;mix-blend-mode:normal;shape-padding:0;text-decoration-color:#000000;text-decoration-line:none;text-decoration-style:solid;text-indent:0;text-orientation:mixed;text-transform:none;white-space:normal"/>
 <path d="m12.367 11.367a1.0001 1.0001 0 0 0 -0.69727 1.7168l4.623 4.623a1.0001 1.0001 0 1 0 1.4141 -1.4141l-4.6211-4.623a1.0001 1.0001 0 0 0 -0.71875 -0.30273z" color="#000000" color-rendering="auto" dominant-baseline="auto" image-rendering="auto" shape-rendering="auto" solid-color="#000000" style="font-feature-settings:normal;font-variant-alternates:normal;font-variant-caps:normal;font-variant-ligatures:normal;font-variant-numeric:normal;font-variant-position:normal;isolation:auto;mix-blend-mode:normal;shape-padding:0;text-decoration-color:#000000;text-decoration-line:none;text-decoration-style:solid;text-indent:0;text-orientation:mixed;text-transform:none;white-space:normal"/>
</svg>
