<svg width="56" height="57" version="1.1" viewBox="0 0 56 57" xmlns="http://www.w3.org/2000/svg">
 <path d="m28.754 0.60156c-10.734 0.97592-19.508 8.9545-21.654 19.275l-0.00586 0.0293-0.00391 0.0293c-0.23833 1.43 0.86681 2.814 2.2168 3.0391l0.052734 0.0098 4.6504 0.44141h-0.01367c1.7069 0.1797 3.1754 0.95997 4.2402 2.291l0.0098 0.01172 1.6504 1.9824-0.01758-0.02344c0.78759 0.98453 2.0305 1.5013 3.3496 1.3145 0.0014-1.92e-4 0.0025 1.94e-4 0.0039 0l4.2148-0.54102h2e-3c1.7118-0.17972 3.4826 0.27731 4.7695 1.3926l0.01367 0.01172 3.1973 2.6465 0.0098 0.0078c0.89021 0.71213 2.1092 1.1141 3.3828 0.68945l-0.11914 0.03516 4.502-1.0977 0.01172-0.0039c1.6517-0.43466 3.2848-0.10057 4.7363 0.80664l0.0078 0.0039 2.5254 1.5371-0.28125-0.2207c0.66087 0.66102 1.7062 0.75115 2.4121 0.46875 0.70417-0.28169 1.2377-0.8451 1.4902-1.5977 1.1589-3.2557 1.6264-6.7564 1.2793-10.357-1.0513-11.563-10.36-20.99-21.924-22.158h-2e-3c-1.5999-0.16-3.1735-0.16285-4.707-0.023438zm0.26172 2.9863c1.3487-0.12225 2.7345-0.1194 4.1445 0.021484 10.113 1.0215 18.321 9.3315 19.24 19.445v0.0078c0.28611 2.956-0.10292 5.7942-0.97656 8.4863l-1.8887-1.1484c-2.05-1.2787-4.5733-1.8187-7.0781-1.1602l-4.5254 1.1035-0.05859 0.01953c-0.04006 0.01335-0.35201-0.0232-0.55664-0.18555h-2e-3l-3.1562-2.6133 0.02539 0.02344c-1.997-1.7307-4.6028-2.3671-7.0508-2.1094h-0.01758l-4.2969 0.55078-0.0098 2e-3c-0.212 0.03027-0.50049-0.1095-0.58789-0.21875l-0.0098-0.01172-1.6328-1.959c-1.5626-1.9534-3.8162-3.1421-6.2695-3.4004h-0.0059l-4.1307-0.39457c2.0358-8.8101 9.5572-15.617 18.844-16.459z" color="#000000" color-rendering="auto" dominant-baseline="auto"  image-rendering="auto" shape-rendering="auto" solid-color="#000000" style="font-feature-settings:normal;font-variant-alternates:normal;font-variant-caps:normal;font-variant-ligatures:normal;font-variant-numeric:normal;font-variant-position:normal;isolation:auto;mix-blend-mode:normal;shape-padding:0;text-decoration-color:#000000;text-decoration-line:none;text-decoration-style:solid;text-indent:0;text-orientation:mixed;text-transform:none;white-space:normal"/>
 <path d="m29.99 26.764a1.5002 1.5002 0 0 0 -1.5234 1.1348l-7.1152 26.822a1.5004 1.5004 0 1 0 2.9004 0.76953l7.1152-26.822a1.5002 1.5002 0 0 0 -1.377 -1.9043z" color="#000000" color-rendering="auto" dominant-baseline="auto" image-rendering="auto" shape-rendering="auto" solid-color="#000000" style="font-feature-settings:normal;font-variant-alternates:normal;font-variant-caps:normal;font-variant-ligatures:normal;font-variant-numeric:normal;font-variant-position:normal;isolation:auto;mix-blend-mode:normal;shape-padding:0;text-decoration-color:#000000;text-decoration-line:none;text-decoration-style:solid;text-indent:0;text-orientation:mixed;text-transform:none;white-space:normal"/>
 <path d="m13.406 45.326c-3.8508 0.05529-7.7032 0.26355-11.547 0.62305a1.5002 1.5002 0 1 0 0.28125 2.9863c15.061-1.4086 30.227-0.43327 45.072 2.9258l5.8926 1.418a1.5002 1.5002 0 1 0 0.70117 -2.916l-5.9121-1.4238a1.5002 1.5002 0 0 0 -0.019531 -0.003906c-11.364-2.5714-22.916-3.7752-34.469-3.6094z" color="#000000" color-rendering="auto" dominant-baseline="auto" image-rendering="auto" shape-rendering="auto" solid-color="#000000" style="font-feature-settings:normal;font-variant-alternates:normal;font-variant-caps:normal;font-variant-ligatures:normal;font-variant-numeric:normal;font-variant-position:normal;isolation:auto;mix-blend-mode:normal;shape-padding:0;text-decoration-color:#000000;text-decoration-line:none;text-decoration-style:solid;text-indent:0;text-orientation:mixed;text-transform:none;white-space:normal"/>
</svg>
