<svg width="24" height="14" viewBox="0 0 24 14" fill="none" xmlns="http://www.w3.org/2000/svg">
<path d="M22.6612 7.54085C22.4004 7.45245 22.1174 7.59235 22.0291 7.85321C21.7894 8.56115 21.1903 9.03674 20.5384 9.03674C19.8656 9.03674 19.4226 8.69417 19.184 7.98952C19.107 7.76217 18.882 7.62686 18.6528 7.65438C18.4234 7.62661 18.1983 7.76202 18.1213 7.98952C17.8826 8.69417 17.4396 9.03674 16.7669 9.03674C16.1149 9.03674 15.5159 8.5611 15.2761 7.85321C15.2695 7.83367 15.2615 7.81507 15.2528 7.79692C15.2362 7.75315 15.2134 7.71092 15.1837 7.67173L12.4285 4.04071C12.3126 3.88805 12.1098 3.72606 11.9352 3.64678L8.68177 2.16993C8.43975 2.06005 8.11941 2.06982 7.88443 2.19417L3.55451 4.48694C3.27221 4.63637 3.10085 4.9742 3.14702 5.29025L3.30741 6.38863C3.33822 6.59928 3.45958 6.77503 3.64041 6.87086C3.8212 6.96668 4.03484 6.96843 4.22639 6.87559L8.21893 4.9418L9.25493 5.5027C9.25493 5.5027 6.56768 7.541 6.42284 7.86667C6.18008 8.56698 5.58498 9.03674 4.93722 9.03674C4.28528 9.03674 3.68623 8.5611 3.44656 7.85321C3.35826 7.5924 3.07527 7.4525 2.81441 7.54085C2.5536 7.62915 2.41375 7.91214 2.50205 8.173C2.87893 9.28608 3.85754 10.0339 4.93722 10.0339C5.70598 10.0339 6.42329 9.65453 6.90886 9.03435C7.39443 9.65453 8.11174 10.0339 8.8805 10.0339C9.64926 10.0339 10.3666 9.65453 10.8521 9.03435C11.3377 9.65453 12.055 10.0339 12.8237 10.0339C13.5925 10.0339 14.3098 9.65453 14.7953 9.03435C15.2809 9.65453 15.9982 10.0339 16.767 10.0339C17.5653 10.0339 18.2126 9.71461 18.6527 9.11871C19.0927 9.71461 19.7401 10.0339 20.5384 10.0339C21.6181 10.0339 22.5968 9.28603 22.9736 8.173C23.0619 7.91214 22.922 7.62915 22.6612 7.54085ZM12.8237 9.03674C12.1717 9.03674 11.5727 8.5611 11.333 7.85321C11.2624 7.6449 11.0677 7.51413 10.8593 7.51477C10.8568 7.51467 10.8543 7.51462 10.8519 7.51457C10.8497 7.51462 10.8475 7.51467 10.8453 7.51472C10.6367 7.51388 10.4417 7.6447 10.3712 7.85316C10.1314 8.5611 9.53239 9.03669 8.8805 9.03669C8.31112 9.03669 7.78218 8.67383 7.49763 8.11038L10.3135 5.94679C10.4888 5.81207 10.5836 5.607 10.5669 5.39815C10.5502 5.18934 10.4243 5.00178 10.2299 4.89652L8.64432 4.03812C8.40505 3.90859 8.07968 3.90126 7.83477 4.01982L4.2246 5.76839L4.15574 5.29679L8.31097 3.0965L11.522 4.55405C11.5511 4.56846 11.6145 4.61901 11.6342 4.6433L14.2287 8.06256C13.9504 8.65298 13.4088 9.03674 12.8237 9.03674Z" fill="#111111" stroke="#111111" stroke-width="0.2"/>
<path d="M16.8589 10.918C16.5981 10.8297 16.3151 10.9696 16.2268 11.2304C15.9881 11.935 15.5452 12.2776 14.8724 12.2776C14.2204 12.2776 13.6214 11.802 13.3817 11.0941C13.3112 10.886 13.1167 10.7552 12.9085 10.7557C12.9056 10.7556 12.9028 10.7555 12.9 10.7555C12.8981 10.7555 12.8963 10.7556 12.8945 10.7556C12.6856 10.7546 12.4905 10.8855 12.4198 11.0941C12.1801 11.8021 11.581 12.2776 10.9291 12.2776C10.2772 12.2776 9.67816 11.802 9.43844 11.0941C9.36794 10.886 9.17344 10.7553 8.96524 10.7557C8.96239 10.7556 8.9596 10.7556 8.95676 10.7555C8.95492 10.7556 8.95307 10.7556 8.95123 10.7557C8.74242 10.7546 8.54722 10.8856 8.47663 11.0942C8.23691 11.8021 7.63786 12.2777 6.98597 12.2777C6.33402 12.2777 5.73498 11.8021 5.49526 11.0942C5.42481 10.8861 5.23031 10.7553 5.02206 10.7558C5.01921 10.7557 5.01642 10.7556 5.01358 10.7556C5.01174 10.7556 5.00989 10.7557 5.00805 10.7557C4.79924 10.7547 4.604 10.8856 4.5334 11.0942C4.29368 11.8022 3.69463 12.2777 3.04269 12.2777C2.39075 12.2777 1.7917 11.8021 1.55203 11.0942C1.46373 10.8334 1.18074 10.6935 0.919881 10.7819C0.659073 10.8702 0.519221 11.1531 0.60752 11.414C0.984397 12.5271 1.96301 13.2749 3.04269 13.2749C3.81145 13.2749 4.52876 12.8955 5.01433 12.2754C5.4999 12.8955 6.21721 13.2749 6.98597 13.2749C7.75473 13.2749 8.47204 12.8955 8.95756 12.2754C9.44312 12.8955 10.1604 13.2749 10.9292 13.2749C11.698 13.2749 12.4153 12.8955 12.9008 12.2754C13.3864 12.8955 14.1037 13.2749 14.8724 13.2749C15.9783 13.2749 16.7948 12.6625 17.1713 11.5503C17.2596 11.2893 17.1197 11.0063 16.8589 10.918Z" fill="#111111" stroke="#111111" stroke-width="0.2"/>
<path d="M16.4833 6.68148C16.6207 6.68148 16.7598 6.67136 16.8966 6.65137C18.4465 6.42501 19.5232 4.97997 19.2969 3.43018C19.0945 2.04473 17.8875 1 16.4891 1C16.3516 1 16.2126 1.01012 16.0757 1.03011C14.5259 1.25647 13.4492 2.70141 13.6756 4.25115C13.8779 5.63665 15.0849 6.68148 16.4833 6.68148ZM16.2198 2.01676C16.3091 2.00369 16.3997 1.99711 16.4891 1.99711C17.396 1.99711 18.1789 2.67513 18.3102 3.57422C18.457 4.57996 17.7583 5.51774 16.7525 5.66463C16.6633 5.67769 16.5727 5.68427 16.4833 5.68427C15.5764 5.68427 14.7936 5.00615 14.6622 4.10696C14.5154 3.10132 15.2141 2.16369 16.2198 2.01676Z" fill="#111111" stroke="#111111" stroke-width="0.2"/>
</svg>
