<svg width="50" height="50" viewBox="0 0 50 50" xmlns="http://www.w3.org/2000/svg">
<path d="M49.5708 8.35993C49.9897 7.94107 50.1152 7.31127 49.8886 6.76386C49.6616 6.21645 49.1276 5.85939 48.5351 5.85939H44.1406V1.46486C44.1406 0.872441 43.7839 0.338384 43.2361 0.111409C42.6891 -0.115184 42.0589 0.0103197 41.6401 0.429173L38.2889 3.78038C34.3624 1.33593 29.6913 2.00014e-05 25 2.00014e-05C11.2347 2.00014e-05 0 11.2354 0 25C0 38.7653 11.2354 50 25 50C38.7657 50 50 38.765 50 25C50 20.3087 48.6641 15.6376 46.2196 11.7111L49.5708 8.35993ZM38.2812 7.93115L41.2109 5.00147V7.32424C41.2109 8.13333 41.8667 8.78908 42.6758 8.78908H44.9989L42.0692 11.7188H38.2812V7.93115ZM37.5164 14.6485C39.9029 17.5373 41.2109 21.1876 41.2109 25C41.2109 33.8848 33.9386 41.1133 25 41.1133C16.0614 41.1133 8.78906 33.8848 8.78906 25C8.78906 16.0614 16.0614 8.78908 25 8.78908C28.8124 8.78908 32.4627 10.0971 35.3515 12.4836V12.5771L33.2756 14.653C30.9193 12.7522 28.0304 11.7188 25 11.7188C17.7368 11.7188 11.7187 17.7086 11.7187 25C11.7187 32.272 17.7174 38.1836 25 38.1836C32.2712 38.1836 38.2812 32.2826 38.2812 25C38.2812 21.9696 37.2482 19.0807 35.3474 16.7244L37.4233 14.6485H37.5164ZM23.9643 26.0357C24.5361 26.6079 25.4639 26.6079 26.0357 26.0357L29.0268 23.0446C29.3236 23.6397 29.4922 24.3042 29.4922 25C29.4922 27.3823 27.4349 29.3945 25 29.3945C22.5651 29.3945 20.5078 27.3823 20.5078 25C20.5078 22.5651 22.5651 20.5078 25 20.5078C25.6958 20.5078 26.3603 20.6764 26.9554 20.9732L23.9643 23.9643C23.3921 24.5365 23.3921 25.4639 23.9643 26.0357ZM29.0836 18.8446C27.9034 18.0481 26.495 17.5781 25 17.5781C20.977 17.5781 17.5781 20.977 17.5781 25C17.5781 29.0444 20.9553 32.3242 25 32.3242C29.0443 32.3242 32.4219 29.0447 32.4219 25C32.4219 23.505 31.9519 22.0966 31.1554 20.9164L33.2447 18.8271C34.5611 20.5643 35.3515 22.7097 35.3515 25C35.3515 30.6542 30.7079 35.2539 25 35.2539C19.2921 35.2539 14.6484 30.6542 14.6484 25C14.6484 19.389 19.389 14.6485 25 14.6485C27.2907 14.6485 29.4361 15.4389 31.1729 16.7553L29.0836 18.8446ZM47.0703 25C47.0703 37.1697 37.1696 47.0703 25 47.0703C12.8303 47.0703 2.92969 37.1697 2.92969 25C2.92969 12.8304 12.8303 2.92971 25 2.92971C28.9169 2.92971 32.8148 3.98104 36.1542 5.91471L35.7807 6.28855C35.506 6.5632 35.3515 6.9359 35.3515 7.32424V8.86499C32.2941 6.91187 28.7109 5.85939 25 5.85939C14.4871 5.85939 5.85937 14.489 5.85937 25C5.85937 35.5042 14.4813 44.043 25 44.043C35.5072 44.043 44.1406 35.5152 44.1406 25C44.1406 21.2895 43.0881 17.7063 41.135 14.6485H42.6758C43.0645 14.6485 43.4368 14.4943 43.7115 14.2193L44.0853 13.8458C46.019 17.1852 47.0703 21.0831 47.0703 25Z"/>
</svg>
