<svg width="32" height="51" viewBox="0 0 32 51" xmlns="http://www.w3.org/2000/svg">
<path d="M24.2259 20.2045H7.77432C6.09064 20.2045 4.72109 21.574 4.72109 23.2577V27.1287C4.72109 28.8124 6.09064 30.1819 7.77432 30.1819H24.2259C25.9096 30.1819 27.2792 28.8124 27.2792 27.1287V23.2577C27.2792 21.574 25.9096 20.2045 24.2259 20.2045ZM25.0437 27.1287C25.0437 27.5795 24.6767 27.9464 24.2259 27.9464H7.77432C7.32355 27.9464 6.95658 27.5795 6.95658 27.1287V23.2577C6.95658 22.8069 7.32355 22.44 7.77432 22.44H24.2259C24.6767 22.44 25.0437 22.8069 25.0437 23.2577V27.1287Z" stroke="#9AC8B1" stroke-width="0.3"/>
<path d="M21.8056 24.0756C21.1884 24.0756 20.6879 24.5774 20.6879 25.1933C20.6879 25.8093 21.1884 26.3111 21.8056 26.3111C22.4217 26.3111 22.9234 25.8094 22.9234 25.1933C22.9234 24.5773 22.4217 24.0756 21.8056 24.0756Z"  stroke="#9AC8B1" stroke-width="0.3"/>
<path d="M17.9345 24.0756C17.3185 24.0756 16.8168 24.5773 16.8168 25.1933C16.8168 25.8094 17.3185 26.3111 17.9345 26.3111C18.5506 26.3111 19.0523 25.8094 19.0523 25.1933C19.0523 24.5773 18.5506 24.0756 17.9345 24.0756Z"  stroke="#9AC8B1" stroke-width="0.3"/>
<path d="M14.0653 24.0756H10.1943C9.57824 24.0756 9.07656 24.5773 9.07656 25.1933C9.07656 25.8094 9.57824 26.3111 10.1943 26.3111H14.0653C14.6813 26.3111 15.183 25.8094 15.183 25.1933C15.183 24.5773 14.6813 24.0756 14.0653 24.0756Z"  stroke="#9AC8B1" stroke-width="0.3"/>
<path d="M26.1613 8.59194H25.3435V3.90323C25.3435 2.21954 23.974 0.85 22.2903 0.85H9.70968C8.026 0.85 6.65645 2.21954 6.65645 3.90323V8.59194H5.83871C3.0878 8.59194 0.85 10.8297 0.85 13.5806V45.7097C0.85 48.4606 3.0878 50.6984 5.83871 50.6984H26.1613C28.9122 50.6984 31.15 48.4606 31.15 45.7097V13.5806C31.15 10.8297 28.9122 8.59194 26.1613 8.59194ZM21.4726 3.08548H22.2903C22.7411 3.08548 23.1081 3.45246 23.1081 3.90323V12.4629H21.4726V3.08548ZM17.6016 3.08548H19.2371V12.4629H17.6016V3.08548ZM8.89194 3.90323C8.89194 3.45246 9.25891 3.08548 9.70968 3.08548H15.3661V12.4629H8.89194V3.90323ZM28.9145 45.7097C28.9145 47.2277 27.6793 48.4629 26.1613 48.4629H5.83871C4.32071 48.4629 3.08548 47.2277 3.08548 45.7097V21.3226C3.08548 19.8046 4.32071 18.5694 5.83871 18.5694H26.1613C27.6793 18.5694 28.9145 19.8046 28.9145 21.3226V45.7097ZM28.9145 17.1641C28.125 16.6398 27.178 16.3339 26.1613 16.3339H5.83871C4.82197 16.3339 3.87498 16.6398 3.08548 17.1641V13.5806C3.08548 12.0626 4.32071 10.8274 5.83871 10.8274H6.65645V12.4629H5.83871C5.22148 12.4629 4.72097 12.9634 4.72097 13.5806C4.72097 14.1979 5.22148 14.6984 5.83871 14.6984H26.1613C26.7785 14.6984 27.279 14.1979 27.279 13.5806C27.279 12.9634 26.7785 12.4629 26.1613 12.4629H25.3435V10.8274H26.1613C27.6793 10.8274 28.9145 12.0626 28.9145 13.5806V17.1641Z"  stroke="#9AC8B1" stroke-width="0.3"/>
<path d="M8.2568 31.9145C7.63967 31.9145 7.13906 32.4151 7.13906 33.0322C7.13906 33.6492 7.63966 34.1499 8.2568 34.1499C8.87384 34.1499 9.37455 33.6492 9.37455 33.0322C9.37455 32.4151 8.87383 31.9145 8.2568 31.9145Z"  stroke="#9AC8B1" stroke-width="0.3"/>
<path d="M16.0009 31.9145C15.3838 31.9145 14.8832 32.4151 14.8832 33.0322C14.8832 33.6492 15.3838 34.1499 16.0009 34.1499C16.618 34.1499 17.1187 33.6492 17.1187 33.0322C17.1187 32.4151 16.618 31.9145 16.0009 31.9145Z"  stroke="#9AC8B1" stroke-width="0.3"/>
<path d="M23.7412 31.9145C23.124 31.9145 22.6234 32.4151 22.6234 33.0322C22.6234 33.6492 23.124 34.1499 23.7412 34.1499C24.3582 34.1499 24.8589 33.6492 24.8589 33.0322C24.8589 32.4151 24.3582 31.9145 23.7412 31.9145Z"  stroke="#9AC8B1" stroke-width="0.3"/>
<path d="M16.0009 35.7855C15.3838 35.7855 14.8832 36.2862 14.8832 36.9033C14.8832 37.5203 15.3838 38.021 16.0009 38.021C16.618 38.021 17.1187 37.5203 17.1187 36.9033C17.1187 36.2861 16.618 35.7855 16.0009 35.7855Z"  stroke="#9AC8B1" stroke-width="0.3"/>
<path d="M8.2568 35.7855C7.63967 35.7855 7.13906 36.2862 7.13906 36.9033C7.13906 37.5203 7.63966 38.021 8.2568 38.021C8.87384 38.021 9.37455 37.5203 9.37455 36.9033C9.37455 36.2861 8.87383 35.7855 8.2568 35.7855Z"  stroke="#9AC8B1" stroke-width="0.3"/>
<path d="M23.7412 35.7855C23.124 35.7855 22.6234 36.2862 22.6234 36.9033C22.6234 37.5203 23.124 38.021 23.7412 38.021C24.3582 38.021 24.8589 37.5203 24.8589 36.9033C24.8589 36.2861 24.3582 35.7855 23.7412 35.7855Z"  stroke="#9AC8B1" stroke-width="0.3"/>
<path d="M23.7412 39.6566C23.124 39.6566 22.6234 40.1572 22.6234 40.7744C22.6234 41.3914 23.124 41.8921 23.7412 41.8921C24.3582 41.8921 24.8589 41.3914 24.8589 40.7744C24.8589 40.1572 24.3582 39.6566 23.7412 39.6566Z"  stroke="#9AC8B1" stroke-width="0.3"/>
<path d="M8.2568 39.6566C7.63967 39.6566 7.13906 40.1572 7.13906 40.7744C7.13906 41.3914 7.63966 41.8921 8.2568 41.8921C8.87384 41.8921 9.37455 41.3914 9.37455 40.7744C9.37455 40.1572 8.87383 39.6566 8.2568 39.6566Z"  stroke="#9AC8B1" stroke-width="0.3"/>
<path d="M16.0009 39.6566C15.3838 39.6566 14.8832 40.1572 14.8832 40.7744C14.8832 41.3914 15.3838 41.8921 16.0009 41.8921C16.618 41.8921 17.1187 41.3914 17.1187 40.7744C17.1187 40.1572 16.618 39.6566 16.0009 39.6566Z"  stroke="#9AC8B1" stroke-width="0.3"/>
<path d="M8.2568 43.5277C7.63967 43.5277 7.13906 44.0283 7.13906 44.6455C7.13906 45.2625 7.63966 45.7632 8.2568 45.7632C8.87384 45.7632 9.37455 45.2625 9.37455 44.6455C9.37455 44.0283 8.87383 43.5277 8.2568 43.5277Z"  stroke="#9AC8B1" stroke-width="0.3"/>
<path d="M16.0009 43.5277C15.3838 43.5277 14.8832 44.0283 14.8832 44.6455C14.8832 45.2625 15.3838 45.7632 16.0009 45.7632C16.618 45.7632 17.1187 45.2625 17.1187 44.6455C17.1187 44.0283 16.618 43.5277 16.0009 43.5277Z"  stroke="#9AC8B1" stroke-width="0.3"/>
<path d="M23.7412 43.5277C23.124 43.5277 22.6234 44.0283 22.6234 44.6455C22.6234 45.2625 23.124 45.7632 23.7412 45.7632C24.3582 45.7632 24.8589 45.2625 24.8589 44.6455C24.8589 44.0283 24.3582 43.5277 23.7412 43.5277Z"  stroke="#9AC8B1" stroke-width="0.3"/>
</svg>
