<svg width="30" height="33" version="1.1" viewBox="0 0 30 33" xmlns="http://www.w3.org/2000/svg">
 <path d="m8.5703 20.215c-4.3611 0-7.9277 3.5667-7.9277 7.9277v3.2148a1.5002 1.5002 0 1 0 3 0v-3.2148c0-2.7397 2.188-4.9277 4.9277-4.9277h12.857c2.7397 0 4.9297 2.188 4.9297 4.9277v3.2148a1.5002 1.5002 0 1 0 3 0v-3.2148c0-4.3611-3.5686-7.9277-7.9297-7.9277z" color="#000000" color-rendering="auto" dominant-baseline="auto" image-rendering="auto" shape-rendering="auto" solid-color="#000000" style="font-feature-settings:normal;font-variant-alternates:normal;font-variant-caps:normal;font-variant-ligatures:normal;font-variant-numeric:normal;font-variant-position:normal;isolation:auto;mix-blend-mode:normal;shape-padding:0;text-decoration-color:#000000;text-decoration-line:none;text-decoration-style:solid;text-indent:0;text-orientation:mixed;text-transform:none;white-space:normal"/>
 <path d="m15 0.92773c-4.3611 0-7.9277 3.5686-7.9277 7.9297 0 4.3611 3.5667 7.9277 7.9277 7.9277s7.9277-3.5667 7.9277-7.9277c0-4.361-3.5667-7.9297-7.9277-7.9297zm0 3c2.7397 0 4.9277 2.1899 4.9277 4.9297 0 2.7398-2.188 4.9277-4.9277 4.9277s-4.9277-2.188-4.9277-4.9277c0-2.7397 2.188-4.9297 4.9277-4.9297z" clip-rule="evenodd" color="#000000" color-rendering="auto" dominant-baseline="auto"  fill-rule="evenodd" image-rendering="auto" shape-rendering="auto" solid-color="#000000" style="font-feature-settings:normal;font-variant-alternates:normal;font-variant-caps:normal;font-variant-ligatures:normal;font-variant-numeric:normal;font-variant-position:normal;isolation:auto;mix-blend-mode:normal;shape-padding:0;text-decoration-color:#000000;text-decoration-line:none;text-decoration-style:solid;text-indent:0;text-orientation:mixed;text-transform:none;white-space:normal"/>
</svg>
