<svg width="18" height="16" version="1.1" viewBox="0 0 18 16" xmlns="http://www.w3.org/2000/svg">
 <path d="m3.9082 9.1816c-2.1471 0-3.9082 1.763-3.9082 3.9102v1.4531a1.0001 1.0001 0 1 0 2 0v-1.4531c0-1.0663 0.84199-1.9102 1.9082-1.9102h5.8184c1.0662 0 1.9102 0.8439 1.9102 1.9102v1.4531a1.0001 1.0001 0 1 0 2 0v-1.4531c0-2.1471-1.7631-3.9102-3.9102-3.9102z" color="#000000" color-rendering="auto" dominant-baseline="auto" image-rendering="auto" shape-rendering="auto" solid-color="#000000" style="font-feature-settings:normal;font-variant-alternates:normal;font-variant-caps:normal;font-variant-ligatures:normal;font-variant-numeric:normal;font-variant-position:normal;isolation:auto;mix-blend-mode:normal;shape-padding:0;text-decoration-color:#000000;text-decoration-line:none;text-decoration-style:solid;text-indent:0;text-orientation:mixed;text-transform:none;white-space:normal"/>
 <path d="m6.8184 0.45508c-2.1471 0-3.9082 1.7611-3.9082 3.9082 1e-7 2.1471 1.7611 3.9102 3.9082 3.9102 2.1471 0 3.9082-1.7631 3.9082-3.9102 0-2.1471-1.7611-3.9082-3.9082-3.9082zm0 2c1.0662 0 1.9082 0.84201 1.9082 1.9082 0 1.0662-0.84199 1.9102-1.9082 1.9102-1.0662 0-1.9082-0.84395-1.9082-1.9102 0-1.0662 0.84201-1.9082 1.9082-1.9082z" clip-rule="evenodd" color="#000000" color-rendering="auto" dominant-baseline="auto" fill-rule="evenodd" image-rendering="auto" shape-rendering="auto" solid-color="#000000" style="font-feature-settings:normal;font-variant-alternates:normal;font-variant-caps:normal;font-variant-ligatures:normal;font-variant-numeric:normal;font-variant-position:normal;isolation:auto;mix-blend-mode:normal;shape-padding:0;text-decoration-color:#000000;text-decoration-line:none;text-decoration-style:solid;text-indent:0;text-orientation:mixed;text-transform:none;white-space:normal"/>
 <path d="m14.771 9.2734a1.0001 1.0001 0 0 0 -0.20312 1.9707c0.84714 0.21872 1.431 0.9727 1.4316 1.8477v1.4531a1.0001 1.0001 0 1 0 2 0v-1.4531a1.0001 1.0001 0 0 0 0 -2e-3c-0.00134-1.7764-1.2116-3.3371-2.9316-3.7812a1.0001 1.0001 0 0 0 -0.29688 -0.035156z" color="#000000" color-rendering="auto" dominant-baseline="auto" image-rendering="auto" shape-rendering="auto" solid-color="#000000" style="font-feature-settings:normal;font-variant-alternates:normal;font-variant-caps:normal;font-variant-ligatures:normal;font-variant-numeric:normal;font-variant-position:normal;isolation:auto;mix-blend-mode:normal;shape-padding:0;text-decoration-color:#000000;text-decoration-line:none;text-decoration-style:solid;text-indent:0;text-orientation:mixed;text-transform:none;white-space:normal"/>
 <path d="m11.859 0.54688a1.0001 1.0001 0 0 0 -0.19727 1.9707c0.8496 0.21754 1.4355 0.97258 1.4355 1.8496 0 0.87702-0.58595 1.6321-1.4355 1.8496a1.0001 1.0001 0 1 0 0.49609 1.9375c1.7248-0.44162 2.9395-2.0067 2.9395-3.7871 0-1.7804-1.2147-3.3455-2.9395-3.7871a1.0001 1.0001 0 0 0 -0.29883 -0.033203z" color="#000000" color-rendering="auto" dominant-baseline="auto" image-rendering="auto" shape-rendering="auto" solid-color="#000000" style="font-feature-settings:normal;font-variant-alternates:normal;font-variant-caps:normal;font-variant-ligatures:normal;font-variant-numeric:normal;font-variant-position:normal;isolation:auto;mix-blend-mode:normal;shape-padding:0;text-decoration-color:#000000;text-decoration-line:none;text-decoration-style:solid;text-indent:0;text-orientation:mixed;text-transform:none;white-space:normal"/>
</svg>
