<svg width="18" height="12" viewBox="0 0 18 12" xmlns="http://www.w3.org/2000/svg">
<path fill-rule="evenodd" clip-rule="evenodd" d="M17.587 0.812561C17.7121 0.344174 17.587 0 16.9914 0H15.0222C14.5215 0 14.2907 0.297317 14.1655 0.625168C14.1655 0.625168 13.1641 3.3652 11.7455 5.14503C11.2865 5.66024 11.0779 5.82416 10.8275 5.82416C10.7024 5.82416 10.5212 5.66024 10.5212 5.19189V0.812561C10.5212 0.250497 10.3759 0 9.95857 0H6.8641C6.5512 0 6.36302 0.260866 6.36302 0.5081C6.36302 1.04093 7.0723 1.1638 7.14541 2.66264V5.91788C7.14541 6.63158 7.03059 6.76098 6.78024 6.76098C6.11267 6.76098 4.4888 4.0087 3.5257 0.85938C3.33695 0.247261 3.14764 0 2.64437 0H0.675164C0.112533 0 0 0.297317 0 0.625168C0 1.21066 0.667606 4.11462 3.10848 7.95531C4.73572 10.5782 7.02839 12 9.11462 12C10.3663 12 10.5212 11.6842 10.5212 11.1403V9.15789C10.5212 8.52632 10.6398 8.40027 11.0362 8.40027C11.3282 8.40027 11.8289 8.5642 12.9972 9.82882C14.3324 11.3276 14.5525 12 15.3036 12H17.2728C17.8354 12 18.1167 11.6842 17.9544 11.061C17.7768 10.4399 17.1394 9.53876 16.2935 8.47052C15.8345 7.86163 15.146 7.20593 14.9374 6.878C14.6453 6.45651 14.7288 6.26912 14.9374 5.89445C14.9374 5.89445 17.3366 2.10058 17.587 0.812561Z"/>
</svg>
