<svg width="21" height="16" version="1.1" viewBox="0 0 21 16" xmlns="http://www.w3.org/2000/svg">
 <path d="m10.279 4.8828c-2.413 2e-7 -4.8265 0.81877-6.791 2.4551a1.0001 1.0001 0 1 0 1.2793 1.5371c3.1974-2.6632 7.824-2.6632 11.021 0a1.0001 1.0001 0 1 0 1.2793 -1.5371c-1.9646-1.6363-4.3761-2.4551-6.7891-2.4551z" color="#000000" color-rendering="auto" dominant-baseline="auto" fill="#111" image-rendering="auto" shape-rendering="auto" solid-color="#000000" style="font-feature-settings:normal;font-variant-alternates:normal;font-variant-caps:normal;font-variant-ligatures:normal;font-variant-numeric:normal;font-variant-position:normal;isolation:auto;mix-blend-mode:normal;shape-padding:0;text-decoration-color:#000000;text-decoration-line:none;text-decoration-style:solid;text-indent:0;text-orientation:mixed;text-transform:none;white-space:normal"/>
 <path d="m10.244 0.51562c-3.5386-1.9e-7 -7.079 1.2461-9.9063 3.7383a1.0004 1.0004 0 1 0 1.3242 1.5c4.9105-4.3284 12.252-4.3284 17.162 0a1.0004 1.0004 0 1 0 1.3242 -1.5c-2.8272-2.4921-6.3657-3.7383-9.9043-3.7383z" color="#000000" color-rendering="auto" dominant-baseline="auto" fill="#111" image-rendering="auto" shape-rendering="auto" solid-color="#000000" style="font-feature-settings:normal;font-variant-alternates:normal;font-variant-caps:normal;font-variant-ligatures:normal;font-variant-numeric:normal;font-variant-position:normal;isolation:auto;mix-blend-mode:normal;shape-padding:0;text-decoration-color:#000000;text-decoration-line:none;text-decoration-style:solid;text-indent:0;text-orientation:mixed;text-transform:none;white-space:normal"/>
 <path d="m10.248 9.248c-1.2671 0-2.5344 0.38445-3.6152 1.1523a1.0001 1.0001 0 1 0 1.1582 1.6309c1.474-1.0472 3.44-1.0472 4.9141 0a1.0001 1.0001 0 1 0 1.1582 -1.6309c-1.0809-0.7679-2.3481-1.1523-3.6152-1.1523z" color="#000000" color-rendering="auto" dominant-baseline="auto" fill="#111" image-rendering="auto" shape-rendering="auto" solid-color="#000000" style="font-feature-settings:normal;font-variant-alternates:normal;font-variant-caps:normal;font-variant-ligatures:normal;font-variant-numeric:normal;font-variant-position:normal;isolation:auto;mix-blend-mode:normal;shape-padding:0;text-decoration-color:#000000;text-decoration-line:none;text-decoration-style:solid;text-indent:0;text-orientation:mixed;text-transform:none;white-space:normal"/>
</svg>
