<svg xmlns="http://www.w3.org/2000/svg" width="25" height="22" viewBox="0 0 25 22">
  <metadata><?xpacket begin="﻿" id="W5M0MpCehiHzreSzNTczkc9d"?>
<x:xmpmeta xmlns:x="adobe:ns:meta/" x:xmptk="Adobe XMP Core 5.6-c138 79.159824, 2016/09/14-01:09:01        ">
   <rdf:RDF xmlns:rdf="http://www.w3.org/1999/02/22-rdf-syntax-ns#">
      <rdf:Description rdf:about=""/>
   </rdf:RDF>
</x:xmpmeta>
                                                                                                    
                                                                                                    
                                                                                                    
                                                                                                    
                                                                                                    
                                                                                                    
                                                                                                    
                                                                                                    
                                                                                                    
                                                                                                    
                                                                                                    
                                                                                                    
                                                                                                    
                                                                                                    
                                                                                                    
                                                                                                    
                                                                                                    
                                                                                                    
                                                                                                    
                                                                                                    
                           
<?xpacket end="w"?></metadata>
<defs>
    <style>
      .cls-1 {
        fill: #3e84e1;
        fill-rule: evenodd;
      }
    </style>
  </defs>
  <path id="Forma_1" data-name="Forma 1" class="cls-1" d="M230.806,559.728c-0.89-1.584-4.786-2.593-8.226-2.784-0.311-.328-0.626-0.674-0.95-1.036-2.956-3.334-4.153-8.177-4.6-10.743-0.053-.543-0.112-1-0.161-1.332a0.778,0.778,0,0,0-.713-0.827,0.678,0.678,0,0,0-.5.222,0.883,0.883,0,0,0-.142.784c0.042,0.337.1,0.788,0.195,1.3,0.252,2.605.371,7.565-1.663,11.506q-0.318.615-.633,1.181c-3.805,1.091-6.876,3.037-7.326,4.651a1.578,1.578,0,0,0,.4,1.578,2.332,2.332,0,0,0,1.718.76c1.8,0,3.852-1.977,6.1-5.874a19.5,19.5,0,0,1,2.954-.536c0.374-.037.979-0.115,1.351-0.171a18.738,18.738,0,0,1,3.377-.18c2.759,2.827,5.014,4.26,6.7,4.26a2.358,2.358,0,0,0,2.114-1.229A1.5,1.5,0,0,0,230.806,559.728Zm-1.162.634a0.215,0.215,0,0,1,0,.255,1.042,1.042,0,0,1-.985.564h0c-1.057,0-2.681-.986-4.626-2.794C227.045,558.76,229.248,559.658,229.644,560.362Zm-17.25-.653c-1.608,2.5-3.147,3.971-4.19,3.971a1.018,1.018,0,0,1-.758-0.356,0.288,0.288,0,0,1-.078-0.324c0.232-.831,2.18-2.256,5.026-3.291h0Zm2.752-2.132,0.083-.162a18.451,18.451,0,0,0,1.844-6.9,19.221,19.221,0,0,0,3.557,6.258l0.13,0.147a18.856,18.856,0,0,0-2.355.2c-0.354.054-.927,0.127-1.282,0.164A19.715,19.715,0,0,0,215.146,557.577Z" transform="translate(-206.031 -543)"/>
</svg>
