<?xml version="1.0" encoding="UTF-8" standalone="no"?>
<svg
   xmlns:dc="http://purl.org/dc/elements/1.1/"
   xmlns:cc="http://creativecommons.org/ns#"
   xmlns:rdf="http://www.w3.org/1999/02/22-rdf-syntax-ns#"
   xmlns:svg="http://www.w3.org/2000/svg"
   xmlns="http://www.w3.org/2000/svg"
   viewBox="0 0 106.66787 128"
   height="128"
   width="106.66787"
   xml:space="preserve"
   id="svg2"
   version="1.1"><metadata
     id="metadata8"><rdf:RDF><cc:Work
         rdf:about=""><dc:format>image/svg+xml</dc:format><dc:type
           rdf:resource="http://purl.org/dc/dcmitype/StillImage" /><dc:title></dc:title></cc:Work></rdf:RDF></metadata><defs
     id="defs6"><clipPath
       id="clipPath18"
       clipPathUnits="userSpaceOnUse"><path
         id="path16"
         d="M 0,96 H 80.001 V 0 H 0 Z" /></clipPath></defs><g
     transform="matrix(1.3333333,0,0,-1.3333333,0,128)"
     id="g10"><g
       style="fill:#ff5800;fill-opacity:1"
       id="g12"><g
         style="fill:#ff5800;fill-opacity:1"
         clip-path="url(#clipPath18)"
         id="g14"><g
           style="fill:#ff5800;fill-opacity:1"
           transform="translate(59.1952,19.8486)"
           id="g20"><path
             id="path22"
             style="fill:#ff5800;fill-opacity:1;fill-rule:nonzero;stroke:none"
             d="M 0,0 C -0.253,-1.728 -1.504,-3.188 -3.188,-3.718 -3.189,-3.719 -3.192,-3.719 -3.193,-3.72 V 4.269 C -2.521,4.02 -1.91,3.739 -1.415,3.404 0.155,2.339 0.098,0.669 0,0 m 0.829,6.716 c -1.675,1.135 -3.74,1.705 -5.738,2.257 -0.436,0.12 -0.87,0.239 -1.296,0.365 -2.444,0.718 -4.011,2.136 -4.192,3.793 -0.147,1.34 0.66,2.633 2.157,3.458 0.316,0.174 0.669,0.305 1.046,0.396 v -2.974 c 0,-1.105 0.895,-2 2,-2 1.104,0 2,0.895 2,2 v 2.828 c 1.168,-0.287 2.305,-0.752 3.237,-1.316 0.944,-0.572 2.174,-0.269 2.746,0.676 0.571,0.946 0.27,2.175 -0.676,2.747 -1.479,0.896 -3.353,1.632 -5.307,1.987 v 1.437 c 0,1.105 -0.896,2 -2,2 -1.105,0 -2,-0.895 -2,-2 v -1.316 c -1.049,-0.149 -2.059,-0.456 -2.976,-0.961 -2.916,-1.608 -4.527,-4.442 -4.204,-7.397 0.363,-3.317 2.995,-6.007 7.041,-7.196 0.046,-0.014 0.093,-0.026 0.139,-0.04 v -9.417 c -1.656,0.275 -3.025,0.977 -3.463,1.821 -0.509,0.981 -1.716,1.364 -2.697,0.855 -0.98,-0.509 -1.363,-1.716 -0.854,-2.697 1.217,-2.344 4.038,-3.665 7.014,-4.002 v -2.088 c 0,-1.104 0.895,-2 2,-2 1.104,0 2,0.896 2,2 v 2.232 c 0.415,0.081 0.819,0.181 1.208,0.303 3.136,0.989 5.47,3.719 5.944,6.954 C 4.389,2.367 3.22,5.095 0.829,6.716" /></g><g
           style="fill:#ff5800;fill-opacity:1"
           transform="translate(54.0009,4)"
           id="g24"><path
             id="path26"
             style="fill:#ff5800;fill-opacity:1;fill-rule:nonzero;stroke:none"
             d="m 0,0 c -9.853,0 -18.214,6.511 -21.007,15.455 -0.034,0.109 -0.065,0.219 -0.097,0.328 -0.054,0.183 -0.106,0.367 -0.156,0.552 -0.032,0.124 -0.064,0.248 -0.095,0.373 -0.026,0.103 -0.052,0.205 -0.076,0.309 -0.048,0.21 -0.094,0.42 -0.136,0.632 -0.018,0.086 -0.035,0.173 -0.05,0.26 -0.035,0.184 -0.068,0.368 -0.098,0.553 -0.009,0.059 -0.019,0.115 -0.028,0.174 -0.036,0.235 -0.068,0.471 -0.097,0.708 -0.008,0.068 -0.015,0.137 -0.023,0.206 -0.026,0.229 -0.048,0.459 -0.067,0.689 -0.002,0.021 -0.004,0.04 -0.005,0.061 -0.019,0.249 -0.033,0.499 -0.044,0.75 -0.002,0.062 -0.004,0.125 -0.006,0.187 -0.009,0.254 -0.015,0.508 -0.015,0.762 0,0.306 0.008,0.608 0.021,0.911 10e-4,0.049 0.002,0.099 0.004,0.149 0.014,0.272 0.033,0.543 0.055,0.813 0.008,0.085 0.015,0.169 0.023,0.254 0.023,0.239 0.049,0.478 0.08,0.716 0.016,0.128 0.035,0.256 0.054,0.383 0.017,0.117 0.036,0.234 0.055,0.35 0.047,0.284 0.097,0.567 0.154,0.847 10e-4,0.003 0.002,0.007 0.002,0.01 1.65,8.029 7.687,14.476 15.486,16.716 0.032,0.01 0.063,0.019 0.095,0.028 0.181,0.051 0.363,0.099 0.545,0.146 0.208,0.053 0.417,0.103 0.628,0.149 0.08,0.018 0.161,0.036 0.242,0.053 0.277,0.058 0.554,0.112 0.834,0.16 C -2.512,43.891 -1.268,44 0.001,44 12.131,44 22,34.131 22,22 22,9.869 12.131,0 0,0 M -25.426,16.544 C -26.279,16.515 -27.14,16.5 -28,16.5 c -6.214,0 -12.029,0.747 -16.375,2.105 -4.592,1.435 -5.626,2.97 -5.626,3.394 v 4.724 c 1.146,-0.651 2.597,-1.279 4.434,-1.853 4.72,-1.474 10.96,-2.287 17.567,-2.287 0.669,0 1.339,0.009 2.007,0.026 -0.005,-0.203 -0.007,-0.406 -0.007,-0.61 0,-0.228 0.003,-0.454 0.009,-0.681 0.002,-0.07 0.005,-0.14 0.008,-0.211 0.004,-0.156 0.01,-0.311 0.018,-0.466 0.004,-0.085 0.011,-0.17 0.016,-0.255 0.009,-0.14 0.017,-0.28 0.027,-0.418 0.008,-0.095 0.018,-0.189 0.026,-0.282 0.011,-0.129 0.022,-0.259 0.036,-0.388 0.01,-0.102 0.023,-0.203 0.035,-0.305 0.013,-0.119 0.027,-0.239 0.042,-0.358 0.014,-0.112 0.031,-0.222 0.047,-0.332 0.015,-0.108 0.03,-0.217 0.047,-0.324 0.019,-0.122 0.04,-0.242 0.06,-0.362 0.016,-0.096 0.032,-0.191 0.049,-0.287 0.024,-0.132 0.051,-0.263 0.076,-0.394 0.017,-0.082 0.032,-0.164 0.049,-0.244 0.01,-0.049 0.019,-0.098 0.029,-0.148 M -44.375,85.895 C -40.029,87.252 -34.214,88 -28,88 c 6.213,0 12.028,-0.748 16.374,-2.105 C -7.034,84.459 -6,82.924 -6,82.5 -6,82.075 -7.034,80.541 -11.626,79.105 -15.972,77.748 -21.786,77 -28,77 c -6.214,0 -12.029,0.748 -16.375,2.105 -4.592,1.436 -5.626,2.97 -5.626,3.395 0,0.424 1.034,1.959 5.626,3.395 m -5.626,-39.006 c 1.146,-0.65 2.597,-1.278 4.434,-1.852 4.72,-1.475 10.959,-2.287 17.567,-2.287 5.265,0 10.293,0.517 14.509,1.473 -2.348,-1.427 -4.476,-3.226 -6.286,-5.346 -0.524,-0.612 -1.016,-1.247 -1.477,-1.901 -2.175,-0.205 -4.444,-0.31 -6.746,-0.31 -2.884,0 -5.699,0.162 -8.369,0.482 -1.096,0.132 -2.092,-0.651 -2.224,-1.748 -0.131,-1.096 0.652,-2.091 1.748,-2.223 2.826,-0.339 5.802,-0.511 8.845,-0.511 1.466,0 2.917,0.045 4.347,0.125 -0.015,-0.032 -0.031,-0.065 -0.045,-0.098 l -0.003,-0.005 c -0.07,-0.157 -0.139,-0.313 -0.206,-0.47 -0.02,-0.045 -0.039,-0.09 -0.058,-0.135 -0.031,-0.073 -0.06,-0.148 -0.092,-0.223 -0.685,-1.666 -1.204,-3.419 -1.532,-5.237 -0.801,-0.025 -1.607,-0.04 -2.412,-0.04 -6.214,0 -12.028,0.747 -16.374,2.105 -4.593,1.435 -5.626,2.97 -5.626,3.395 z m 34.865,9.073 c -0.174,1.092 -1.201,1.834 -2.289,1.661 -3.245,-0.517 -6.901,-0.79 -10.575,-0.79 -6.214,0 -12.029,0.748 -16.375,2.105 -4.592,1.436 -5.626,2.97 -5.626,3.395 V 77.14 c 1.146,-0.651 2.597,-1.279 4.434,-1.852 C -40.847,73.812 -34.607,73 -28,73 c 6.607,0 12.846,0.813 17.566,2.288 1.837,0.573 3.288,1.201 4.434,1.852 v -4.724 c 0,-0.424 -1.034,-1.959 -5.626,-3.394 -4.346,-1.358 -10.16,-2.105 -16.374,-2.105 -2.884,0 -5.699,0.162 -8.369,0.481 -1.096,0.133 -2.092,-0.65 -2.224,-1.747 -0.131,-1.097 0.652,-2.092 1.748,-2.224 2.826,-0.339 5.802,-0.51 8.845,-0.51 6.607,0 12.846,0.812 17.566,2.287 1.837,0.574 3.288,1.201 4.434,1.852 L -6,52.25 c 0,-0.425 -1.034,-1.959 -5.626,-3.395 -4.346,-1.357 -10.16,-2.105 -16.374,-2.105 -6.214,0 -12.029,0.748 -16.375,2.105 -4.592,1.436 -5.626,2.97 -5.626,3.395 v 4.723 c 1.146,-0.651 2.597,-1.279 4.434,-1.852 4.72,-1.475 10.96,-2.288 17.567,-2.288 3.936,0 7.706,0.282 11.204,0.84 1.091,0.174 1.834,1.199 1.66,2.289 M 0,48 c -0.673,0 -1.34,-0.026 -2,-0.076 V 82.5 c 0,2.088 -1.464,5.034 -8.434,7.212 C -15.154,91.188 -21.393,92 -28,92 c -6.607,0 -12.847,-0.812 -17.567,-2.288 -6.971,-2.178 -8.434,-5.124 -8.434,-7.212 V 21.999 c 0,-2.088 1.463,-5.033 8.434,-7.212 4.72,-1.474 10.96,-2.287 17.567,-2.287 1.259,0 2.519,0.031 3.762,0.091 C -20.46,2.892 -11.021,-4 0,-4 14.337,-4 26,7.663 26,21.999 26,36.336 14.337,48 0,48" /></g><g
           style="fill:#ff5800;fill-opacity:1"
           transform="translate(11.9413,72.3901)"
           id="g28"><path
             id="path30"
             style="fill:#ff5800;fill-opacity:1;fill-rule:nonzero;stroke:none"
             d="m 0,0 c -0.291,0.069 -0.576,0.141 -0.855,0.214 -1.07,0.282 -2.164,-0.355 -2.445,-1.423 -0.281,-1.068 0.356,-2.163 1.424,-2.444 0.311,-0.082 0.627,-0.161 0.95,-0.239 0.156,-0.037 0.312,-0.054 0.465,-0.054 0.904,0 1.726,0.619 1.944,1.538 C 1.738,-1.334 1.075,-0.255 0,0" /></g><g
           style="fill:#ff5800;fill-opacity:1"
           transform="translate(42.5594,58.9038)"
           id="g32"><path
             id="path34"
             style="fill:#ff5800;fill-opacity:1;fill-rule:nonzero;stroke:none"
             d="M 0,0 C 0.189,0 0.382,0.027 0.572,0.083 0.966,0.201 1.362,0.327 1.75,0.458 2.796,0.813 3.357,1.949 3.002,2.995 2.647,4.041 1.512,4.602 0.466,4.247 0.125,4.131 -0.224,4.021 -0.57,3.917 -1.629,3.602 -2.231,2.488 -1.916,1.43 -1.656,0.561 -0.861,0 0,0" /></g><g
           style="fill:#ff5800;fill-opacity:1"
           transform="translate(10.0682,38.4854)"
           id="g36"><path
             id="path38"
             style="fill:#ff5800;fill-opacity:1;fill-rule:nonzero;stroke:none"
             d="m 0,0 c 0.31,-0.081 0.626,-0.16 0.948,-0.236 0.156,-0.037 0.311,-0.055 0.464,-0.055 0.905,0 1.726,0.619 1.944,1.539 C 3.611,2.322 2.947,3.4 1.872,3.655 1.581,3.725 1.295,3.796 1.015,3.869 -0.052,4.148 -1.146,3.511 -1.428,2.442 -1.708,1.374 -1.068,0.28 0,0" /></g></g></g></g></svg>