<?xml version="1.0" encoding="UTF-8" standalone="no"?>
<svg
   xmlns:dc="http://purl.org/dc/elements/1.1/"
   xmlns:cc="http://creativecommons.org/ns#"
   xmlns:rdf="http://www.w3.org/1999/02/22-rdf-syntax-ns#"
   xmlns:svg="http://www.w3.org/2000/svg"
   xmlns="http://www.w3.org/2000/svg"
   viewBox="0 0 128.02319 128.02254"
   height="128.02254"
   width="128.02319"
   xml:space="preserve"
   id="svg2"
   version="1.1"><metadata
     id="metadata8"><rdf:RDF><cc:Work
         rdf:about=""><dc:format>image/svg+xml</dc:format><dc:type
           rdf:resource="http://purl.org/dc/dcmitype/StillImage" /><dc:title></dc:title></cc:Work></rdf:RDF></metadata><defs
     id="defs6"><clipPath
       id="clipPath18"
       clipPathUnits="userSpaceOnUse"><path
         id="path16"
         d="M 0,96.017 H 96.017 V 0 H 0 Z" /></clipPath></defs><g
     transform="matrix(1.3333333,0,0,-1.3333333,0,128.02253)"
     id="g10"><g
       id="g12"><g
         clip-path="url(#clipPath18)"
         id="g14"><g
           transform="translate(75.8914,58.3959)"
           id="g20"><path
             id="path22"
             style="fill:#ff5800;fill-opacity:1;fill-rule:nonzero;stroke:none"
             d="m 0,0 c 0,-0.621 -0.505,-1.126 -1.125,-1.126 -0.621,0 -1.125,0.505 -1.125,1.126 v 28.882 c 0,0.62 0.504,1.125 1.125,1.125 0.62,0 1.125,-0.505 1.125,-1.125 z m -46.855,-7.992 v -4.005 h -4.488 c -1.661,0 -3.013,-1.353 -3.013,-3.014 v -2.066 c 0,-0.777 0.629,-1.407 1.406,-1.407 0.777,0 1.407,0.63 1.407,1.407 v 2.066 c 0,0.383 0.411,0.118 4.688,0.2 v -16.441 h -4.316 c -0.205,0 -0.372,0.167 -0.372,0.372 v 7.238 c 0,0.778 -0.63,1.407 -1.407,1.407 -0.777,0 -1.406,-0.629 -1.406,-1.407 v -7.238 c 0,-1.756 1.428,-3.185 3.185,-3.185 h 4.316 v -0.063 c 0,-3.36 -2.734,-6.095 -6.095,-6.095 -3.361,0 -6.095,2.735 -6.095,6.095 v 26.266 c 3.915,-1.113 8.18,-1.176 12.19,-0.13 m 36.183,-26.938 v -4.334 h -11.315 v 4.503 c 0,1.895 1.541,3.437 3.435,3.437 h 4.275 c 1.988,0 3.605,-1.617 3.605,-3.606 m 1.516,-9.398 h -14.347 c -0.621,0 -1.125,0.505 -1.125,1.126 0,0.62 0.504,1.125 1.125,1.125 h 14.237 0.11 c 0.62,0 1.125,-0.505 1.125,-1.125 0,-0.621 -0.505,-1.126 -1.125,-1.126 m 8.031,77.148 c -1.742,0 -3.221,-1.137 -3.739,-2.708 -0.37,-0.093 -5.184,-1.637 -9.991,-2.047 -0.774,-0.066 -1.348,-0.747 -1.282,-1.52 0.066,-0.774 0.747,-1.349 1.521,-1.282 2.916,0.248 5.965,0.841 9.552,1.862 V 1.756 C -15.891,4.839 -23.038,4.417 -34.131,0.109 l -8.04,-3.122 c -0.381,-0.147 -5.714,-3.817 -13.446,-2.705 -9.813,1.403 -17.461,9.874 -17.461,20.158 0,15.772 17.228,25.503 30.701,17.554 0.065,-0.039 0.134,-0.072 0.206,-0.1 6.477,-2.338 12.995,-5.661 20.712,-6.541 0.772,-0.09 1.469,0.466 1.557,1.238 0.088,0.771 -0.466,1.469 -1.238,1.556 -3.537,0.405 -7.23,1.406 -11.973,3.248 l -7.935,3.081 c -3.529,2.058 -7.559,3.145 -11.663,3.145 -12.782,0 -23.181,-10.398 -23.181,-23.181 0,-9.534 5.788,-17.742 14.034,-21.296 v -27.272 c 0,-4.434 3.255,-8.119 7.502,-8.796 v -4.91 c 0,-5.824 4.737,-10.562 10.561,-10.562 5.824,0 10.562,4.738 10.562,10.562 v 28.292 c 0,4.272 3.476,7.748 7.748,7.748 4.273,0 7.749,-3.476 7.749,-7.748 v -8.97 h -0.816 c -3.446,0 -6.249,-2.802 -6.249,-6.248 v -4.727 c -1.535,-0.538 -2.641,-1.998 -2.641,-3.715 0,-2.172 1.767,-3.939 3.939,-3.939 h 0.796 v -3.844 c 0,-0.777 0.63,-1.407 1.407,-1.407 0.777,0 1.407,0.63 1.407,1.407 v 3.844 h 7.126 v -3.844 c 0,-0.777 0.63,-1.407 1.407,-1.407 0.777,0 1.407,0.63 1.407,1.407 v 3.844 h 0.797 c 2.171,0 3.938,1.767 3.938,3.939 0,1.717 -1.106,3.177 -2.641,3.715 v 4.558 c 0,3.539 -2.879,6.418 -6.418,6.418 h -0.646 v 8.969 c 0,5.824 -4.738,10.562 -10.562,10.562 -5.824,0 -10.561,-4.739 -10.561,-10.562 v -28.292 c 0,-4.272 -3.476,-7.748 -7.749,-7.748 -4.272,0 -7.748,3.476 -7.748,7.748 v 4.91 c 4.246,0.677 7.501,4.363 7.501,8.797 v 27.07 c 1.029,0.414 2.031,0.902 2.994,1.463 l 7.935,3.081 c 10.742,4.171 17.243,4.5 27.824,1.407 l 0.425,-0.124 c 0.518,-1.571 1.997,-2.708 3.739,-2.708 2.171,0 3.938,1.767 3.938,3.938 v 28.882 c 0,2.172 -1.767,3.938 -3.938,3.938" /></g><g
           transform="translate(35.5901,73.2386)"
           id="g24"><path
             id="path26"
             style="fill:#ff5800;fill-opacity:1;fill-rule:nonzero;stroke:none"
             d="M 0,0 -12.247,12.247 C -5.586,12.037 -0.209,6.661 0,0 m -25.298,-0.019 13.033,-13.032 c -7.286,-0.217 -13.251,5.741 -13.033,13.032 m 22.733,-8.025 -4.851,4.85 c -0.549,0.549 -1.439,0.549 -1.989,0 -0.549,-0.549 -0.549,-1.44 0,-1.99 l 4.9,-4.899 c -1.265,-1.065 -2.739,-1.89 -4.352,-2.397 l -15.87,15.87 c 0.508,1.613 1.331,3.088 2.397,4.352 l 8.249,-8.249 c 0.55,-0.55 1.44,-0.55 1.99,0 0.549,0.549 0.549,1.44 0,1.989 l -8.2,8.2 c 1.305,0.991 2.81,1.741 4.461,2.17 L -0.396,-3.583 c -0.41,-1.579 -1.134,-3.099 -2.169,-4.461 m -20.77,18.825 c -3.097,-2.959 -4.786,-7.036 -4.786,-11.183 0,-8.776 7.371,-15.934 16.328,-15.448 8.276,0.46 14.616,7.334 14.616,15.448 0,13.592 -16.371,20.537 -26.158,11.183" /></g><g
           transform="translate(94.2381,91.2591)"
           id="g28"><path
             id="path30"
             style="fill:#ff5800;fill-opacity:1;fill-rule:nonzero;stroke:none"
             d="m 0,0 -10.935,-3.001 c -0.749,-0.205 -1.19,-0.979 -0.984,-1.728 0.171,-0.625 0.738,-1.035 1.356,-1.035 0.342,0 -0.21,-0.09 11.308,3.051 0.749,0.206 1.19,0.98 0.984,1.729 C 1.523,-0.234 0.75,0.206 0,0" /></g><g
           transform="translate(94.2381,84.2269)"
           id="g32"><path
             id="path34"
             style="fill:#ff5800;fill-opacity:1;fill-rule:nonzero;stroke:none"
             d="m 0,0 -10.935,-3.001 c -0.749,-0.206 -1.19,-0.979 -0.984,-1.728 0.205,-0.75 0.979,-1.191 1.729,-0.985 l 10.935,3.001 c 0.749,0.205 1.19,0.98 0.984,1.729 C 1.523,-0.235 0.75,0.206 0,0" /></g><g
           transform="translate(94.2381,77.1937)"
           id="g36"><path
             id="path38"
             style="fill:#ff5800;fill-opacity:1;fill-rule:nonzero;stroke:none"
             d="m 0,0 -10.935,-3.001 c -1.574,-0.432 -1.259,-2.763 0.372,-2.763 0.123,0 0.248,0.016 0.373,0.051 l 10.934,3 c 0.75,0.206 1.19,0.98 0.985,1.729 C 1.523,-0.235 0.75,0.207 0,0" /></g><g
           transform="translate(94.2381,70.1615)"
           id="g40"><path
             id="path42"
             style="fill:#ff5800;fill-opacity:1;fill-rule:nonzero;stroke:none"
             d="m 0,0 -10.935,-3.001 c -0.749,-0.206 -1.19,-0.979 -0.984,-1.728 0.205,-0.75 0.979,-1.191 1.729,-0.985 l 10.935,3.001 c 0.749,0.205 1.19,0.98 0.984,1.729 C 1.523,-0.235 0.75,0.206 0,0" /></g><g
           transform="translate(94.2381,63.1283)"
           id="g44"><path
             id="path46"
             style="fill:#ff5800;fill-opacity:1;fill-rule:nonzero;stroke:none"
             d="m 0,0 -10.935,-3.001 c -0.749,-0.205 -1.19,-0.979 -0.984,-1.728 0.171,-0.625 0.738,-1.035 1.356,-1.035 0.123,0 0.248,0.016 0.373,0.05 l 10.935,3.001 c 0.749,0.206 1.19,0.98 0.984,1.729 C 1.523,-0.235 0.75,0.206 0,0" /></g></g></g></g></svg>