<?xml version="1.0" encoding="UTF-8" standalone="no"?>
<svg
   xmlns:dc="http://purl.org/dc/elements/1.1/"
   xmlns:cc="http://creativecommons.org/ns#"
   xmlns:rdf="http://www.w3.org/1999/02/22-rdf-syntax-ns#"
   xmlns:svg="http://www.w3.org/2000/svg"
   xmlns="http://www.w3.org/2000/svg"
   viewBox="0 0 126.09093 126"
   height="126"
   width="126.09093"
   xml:space="preserve"
   id="svg2"
   version="1.1"><metadata
     id="metadata8"><rdf:RDF><cc:Work
         rdf:about=""><dc:format>image/svg+xml</dc:format><dc:type
           rdf:resource="http://purl.org/dc/dcmitype/StillImage" /><dc:title></dc:title></cc:Work></rdf:RDF></metadata><defs
     id="defs6"><clipPath
       id="clipPath18"
       clipPathUnits="userSpaceOnUse"><path
         id="path16"
         d="M 0,94.5 H 94.568 V 0 H 0 Z" /></clipPath></defs><g
     transform="matrix(1.3333333,0,0,-1.3333333,0,126)"
     id="g10"><g
       id="g12"><g
         clip-path="url(#clipPath18)"
         id="g14"><g
           transform="translate(9,85.5)"
           id="g20"><path
             id="path22"
             style="fill:none;stroke:#ff5800;stroke-width:4;stroke-linecap:round;stroke-linejoin:miter;stroke-miterlimit:10;stroke-dasharray:none;stroke-opacity:1"
             d="M 0,0 -7,7" /></g><g
           transform="translate(6.5,78)"
           id="g24"><path
             id="path26"
             style="fill:none;stroke:#ff5800;stroke-width:4;stroke-linecap:round;stroke-linejoin:miter;stroke-miterlimit:10;stroke-dasharray:none;stroke-opacity:1"
             d="M 0,0 H -4" /></g><g
           transform="translate(16.5,88)"
           id="g28"><path
             id="path30"
             style="fill:none;stroke:#ff5800;stroke-width:4;stroke-linecap:round;stroke-linejoin:miter;stroke-miterlimit:10;stroke-dasharray:none;stroke-opacity:1"
             d="M 0,0 V 4" /></g><g
           transform="translate(51.9995,80.3623)"
           id="g32"><path
             id="path34"
             style="fill:none;stroke:#ff5800;stroke-width:4;stroke-linecap:round;stroke-linejoin:miter;stroke-miterlimit:10;stroke-dasharray:none;stroke-opacity:1"
             d="m 0,0 c 4.285,3.522 9.771,5.638 15.75,5.638 13.707,0 24.819,-11.112 24.819,-24.819" /></g><g
           transform="translate(92.5684,61.1816)"
           id="g36"><path
             id="path38"
             style="fill:none;stroke:#ff5800;stroke-width:4;stroke-linecap:round;stroke-linejoin:miter;stroke-miterlimit:10;stroke-dasharray:none;stroke-opacity:1"
             d="m 0,0 c 0,-26.011 -11.455,-51.545 -11.455,-51.545 -1.75,-4.137 -3.419,-7.637 -7.636,-7.637 -4.218,0 -6.841,2.944 -7.637,7.637 0,0 -3.818,23.863 -14.318,23.863 -10.5,0 -14.318,-23.863 -14.318,-23.863 -0.477,-4.693 -3.419,-7.637 -7.636,-7.637 -4.218,0 -6.414,3.819 -7.637,7.637 0,0 -10.5,25.534 -10.5,51.545" /></g><g
           transform="translate(11.4316,61.1816)"
           id="g40"><path
             id="path42"
             style="fill:none;stroke:#ff5800;stroke-width:4;stroke-linecap:round;stroke-linejoin:miter;stroke-miterlimit:10;stroke-dasharray:none;stroke-opacity:1"
             d="m 0,0 c 0,13.707 11.112,24.818 24.818,24.818 5.98,0 11.466,-2.115 15.751,-5.637" /></g><g
           transform="translate(20.5,60.7041)"
           id="g44"><path
             id="path46"
             style="fill:none;stroke:#ff5800;stroke-width:4;stroke-linecap:round;stroke-linejoin:miter;stroke-miterlimit:10;stroke-dasharray:none;stroke-opacity:1"
             d="M 0,0 C 0,8.963 7.265,16.228 16.228,16.228" /></g><g
           transform="translate(64.0498,74.3848)"
           id="g48"><path
             id="path50"
             style="fill:none;stroke:#ff5800;stroke-width:4;stroke-linecap:round;stroke-linejoin:miter;stroke-miterlimit:10;stroke-dasharray:none;stroke-opacity:1"
             d="M 0,0 C 2.433,-0.834 5.116,-1.542 7.996,-1.987" /></g><g
           transform="translate(49.894,81.916)"
           id="g52"><path
             id="path54"
             style="fill:none;stroke:#ff5800;stroke-width:4;stroke-linecap:round;stroke-linejoin:miter;stroke-miterlimit:10;stroke-dasharray:none;stroke-opacity:1"
             d="M 0,0 C 0,0 3.081,-2.557 8.26,-5.087" /></g></g></g></g></svg>