<?xml version="1.0" encoding="UTF-8" standalone="no"?>
<svg
   xmlns:dc="http://purl.org/dc/elements/1.1/"
   xmlns:cc="http://creativecommons.org/ns#"
   xmlns:rdf="http://www.w3.org/1999/02/22-rdf-syntax-ns#"
   xmlns:svg="http://www.w3.org/2000/svg"
   xmlns="http://www.w3.org/2000/svg"
   viewBox="0 0 101.31133 131.69479"
   height="131.69479"
   width="101.31133"
   xml:space="preserve"
   id="svg2"
   version="1.1"><metadata
     id="metadata8"><rdf:RDF><cc:Work
         rdf:about=""><dc:format>image/svg+xml</dc:format><dc:type
           rdf:resource="http://purl.org/dc/dcmitype/StillImage" /><dc:title></dc:title></cc:Work></rdf:RDF></metadata><defs
     id="defs6"><clipPath
       id="clipPath18"
       clipPathUnits="userSpaceOnUse"><path
         id="path16"
         d="M 0,98.771 H 75.984 V 0 H 0 Z" /></clipPath><clipPath
       id="clipPath34"
       clipPathUnits="userSpaceOnUse"><path
         id="path32"
         d="M 0.003,0 H 75.981 V 98.771 H 0.003 Z" /></clipPath><clipPath
       id="clipPath50"
       clipPathUnits="userSpaceOnUse"><path
         id="path48"
         d="M 0,98.771 H 75.984 V 0 H 0 Z" /></clipPath></defs><g
     transform="matrix(1.3333333,0,0,-1.3333333,0,131.6948)"
     id="g10"><g
       id="g12"><g
         clip-path="url(#clipPath18)"
         id="g14"><g
           transform="translate(51.2646,55.238)"
           id="g20"><path
             id="path22"
             style="fill:#ff5800;fill-opacity:1;fill-rule:nonzero;stroke:none"
             d="m 0,0 c 0.182,-0.057 0.362,-0.091 0.544,-0.091 0.701,0 1.359,0.445 1.601,1.146 C 2.672,2.606 4.36,3.438 5.911,2.91 9.225,1.79 12.836,3.571 13.956,6.884 14.263,7.767 13.792,8.731 12.901,9.029 12.02,9.324 11.063,8.855 10.768,7.973 10.24,6.422 8.55,5.591 6.992,6.11 3.685,7.23 0.065,5.458 -1.056,2.144 -1.354,1.262 -0.883,0.297 0,0" /></g><g
           transform="translate(55.2636,67.0017)"
           id="g24"><path
             id="path26"
             style="fill:#ff5800;fill-opacity:1;fill-rule:nonzero;stroke:none"
             d="m 0,0 c 0.173,-0.057 0.361,-0.091 0.536,-0.091 0.707,0 1.367,0.445 1.598,1.146 0.256,0.752 0.791,1.362 1.501,1.716 0.717,0.346 1.517,0.395 2.274,0.14 3.308,-1.121 6.927,0.66 8.048,3.974 0.298,0.882 -0.173,1.846 -1.056,2.144 C 12.02,9.333 11.063,8.856 10.758,7.974 10.229,6.422 8.548,5.591 6.99,6.119 5.382,6.663 3.668,6.547 2.143,5.798 0.625,5.046 -0.513,3.752 -1.055,2.145 -1.361,1.262 -0.882,0.298 0,0" /></g></g></g><g
       id="g28"><g
         clip-path="url(#clipPath34)"
         id="g30"><g
           transform="translate(59.2529,78.7678)"
           id="g36"><path
             id="path38"
             style="fill:#ff5800;fill-opacity:1;fill-rule:nonzero;stroke:none"
             d="m 0,0 c 0.182,-0.059 0.362,-0.091 0.544,-0.091 0.701,0 1.361,0.445 1.6,1.146 C 2.53,2.201 3.784,2.82 4.922,2.431 6.331,1.952 7.849,2.051 9.185,2.704 10.512,3.362 11.508,4.5 11.996,5.91 12.291,6.792 11.822,7.756 10.94,8.054 10.05,8.36 9.094,7.88 8.796,6.999 8.606,6.445 8.212,5.992 7.684,5.736 7.165,5.473 6.572,5.441 6.011,5.631 3.1,6.61 -0.074,5.053 -1.056,2.142 -1.351,1.26 -0.883,0.295 0,0" /></g><g
           transform="translate(66.1289,11.3313)"
           id="g40"><path
             id="path42"
             style="fill:#ff5800;fill-opacity:1;fill-rule:nonzero;stroke:none"
             d="m 0,0 c -0.173,-3.324 -2.91,-5.929 -6.241,-5.929 h -47.396 c -3.33,0 -6.067,2.605 -6.24,5.96 l -2.803,39.919 1.467,-0.883 c 1.591,-0.956 3.381,-1.426 5.16,-1.418 1.79,-0.008 3.572,0.462 5.162,1.418 l 0.585,0.355 c 0.833,0.496 1.764,0.743 2.696,0.751 0.932,-0.008 1.863,-0.255 2.696,-0.751 l 1.203,-0.726 c 1.526,-0.914 3.248,-1.302 4.956,-1.212 0.148,0.009 0.304,0.009 0.453,0.017 0.024,0.009 0.04,0.018 0.058,0.018 1.154,0.13 2.283,0.493 3.33,1.086 0.1,0.034 0.198,0.034 0.289,0.091 l 1.203,0.726 c 0.834,0.496 1.765,0.743 2.695,0.751 0.933,-0.008 1.864,-0.255 2.698,-0.751 l 1.202,-0.726 c 1.279,-0.766 2.695,-1.161 4.131,-1.22 0.025,0 0.056,-0.008 0.091,-0.008 0.487,-0.015 0.981,0 1.474,0.076 0.281,0.031 0.554,0.105 0.825,0.164 0.131,0.032 0.264,0.057 0.396,0.099 0.751,0.205 1.485,0.477 2.169,0.889 l 1.203,0.726 c 0.834,0.496 1.765,0.743 2.695,0.751 0.933,-0.008 1.864,-0.255 2.697,-0.751 l 1.204,-0.726 c 1.392,-0.832 2.959,-1.243 4.518,-1.235 0.023,0 0.057,-0.008 0.082,-0.008 1.518,0 3.032,0.395 4.394,1.186 l 3.313,1.475 c 0.066,0.034 0.116,0.091 0.182,0.133 l 0.264,0.116 z m -62.309,46.965 c 0.716,1.344 2.449,2.374 5.464,3.233 1.402,0.403 2.715,1.155 3.779,2.168 0.476,0.462 0.93,0.848 1.359,1.202 1.367,1.115 2.539,1.708 3.603,1.847 0.025,0 0.041,0.009 0.065,0.009 0.338,0.042 0.669,0.025 0.981,-0.024 0.082,-0.016 0.164,-0.05 0.247,-0.067 0.159,-0.04 0.315,-0.083 0.471,-0.139 0.108,-0.043 0.206,-0.1 0.306,-0.148 0.147,-0.076 0.295,-0.133 0.443,-0.224 0.116,-0.073 0.224,-0.164 0.34,-0.239 0.139,-0.099 0.278,-0.181 0.411,-0.297 0.131,-0.099 0.256,-0.23 0.389,-0.346 0.131,-0.116 0.255,-0.222 0.386,-0.355 0.141,-0.139 0.281,-0.303 0.428,-0.47 0.116,-0.123 0.233,-0.247 0.346,-0.386 0.165,-0.19 0.323,-0.412 0.488,-0.627 0.108,-0.131 0.204,-0.256 0.304,-0.395 0.189,-0.257 0.371,-0.544 0.561,-0.825 0.083,-0.133 0.165,-0.238 0.239,-0.372 0.272,-0.42 0.544,-0.873 0.816,-1.352 1.245,-2.193 1.649,-5.433 1.112,-8.252 -0.09,0.008 -0.181,0.016 -0.263,0.033 -0.642,0.108 -1.269,0.312 -1.83,0.652 l -1.203,0.724 c -1.384,0.834 -2.936,1.246 -4.485,1.246 h -0.058 c -1.576,0.008 -3.15,-0.404 -4.551,-1.246 l -0.585,-0.354 c -1.024,-0.61 -2.161,-0.914 -3.307,-0.931 -1.146,0.017 -2.29,0.321 -3.313,0.931 l -2.267,1.37 h -0.009 c -0.296,0.181 -0.618,0.295 -0.947,0.362 -0.264,1.334 -0.173,2.415 0.28,3.272 m 10.849,14.024 1.106,0.907 -0.718,1.237 c -0.446,0.784 -0.684,1.657 -0.684,2.548 0,2.735 2.143,4.962 4.88,5.077 l 2.045,0.083 -0.48,2.003 c -0.074,0.329 -0.114,0.66 -0.114,0.972 0,2.177 1.697,4.008 3.867,4.173 L -40,78.103 v 1.682 c 0.048,1.517 1.302,2.737 2.828,2.737 0.882,0 1.517,-0.395 1.887,-0.734 l 1.187,-1.07 1.13,1.12 c 0.519,0.511 1.237,0.75 1.971,0.667 0.905,-0.107 1.723,-0.808 1.986,-1.713 0.091,-0.306 0.116,-0.602 0.082,-0.899 l -0.198,-1.889 h 1.898 c 2.43,0 4.458,-1.896 4.624,-4.318 l 0.073,-1.106 1.055,-0.372 c 2.638,-0.922 4.372,-3.421 4.312,-6.215 -0.023,-1.195 -0.411,-2.341 -1.104,-3.356 -1.128,0.965 -2.351,1.609 -3.373,2.145 -0.263,0.139 -0.518,0.28 -0.782,0.42 -0.074,0.042 -0.156,0.115 -0.19,0.289 -0.04,0.247 0.051,0.536 0.238,0.749 0.734,0.857 1.032,2.02 0.792,3.117 l -0.205,0.931 c -0.207,0.941 -0.766,1.739 -1.574,2.267 -0.809,0.512 -1.773,0.694 -2.706,0.487 l -0.452,-0.107 h -0.016 l -4.956,-1.081 -4.839,-1.056 c -0.939,-0.204 -1.739,-0.766 -2.259,-1.574 -0.518,-0.808 -0.692,-1.773 -0.487,-2.712 l 0.099,-0.462 v -0.008 l 0.108,-0.46 c 0.238,-1.124 1.021,-2.071 2.085,-2.525 0.264,-0.114 0.479,-0.329 0.561,-0.542 0.042,-0.133 0.017,-0.19 -0.082,-0.355 -0.165,-0.223 -0.346,-0.453 -0.536,-0.692 -0.181,-0.232 -0.372,-0.479 -0.57,-0.734 -0.066,-0.091 -0.131,-0.182 -0.196,-0.264 -0.142,-0.199 -0.281,-0.388 -0.413,-0.593 -0.083,-0.108 -0.157,-0.224 -0.231,-0.34 -0.125,-0.196 -0.247,-0.395 -0.371,-0.61 -0.065,-0.122 -0.14,-0.239 -0.205,-0.361 -0.124,-0.24 -0.24,-0.487 -0.355,-0.743 -0.05,-0.107 -0.099,-0.215 -0.149,-0.321 -0.148,-0.371 -0.281,-0.759 -0.378,-1.163 -0.018,-0.065 -0.025,-0.132 -0.043,-0.198 -0.082,-0.346 -0.147,-0.701 -0.189,-1.072 -0.017,-0.148 -0.017,-0.304 -0.032,-0.454 -0.008,-0.204 -0.034,-0.394 -0.034,-0.601 l -0.025,0.025 c -0.024,0.034 -0.049,0.057 -0.066,0.091 -0.297,0.388 -0.585,0.743 -0.881,1.08 -0.1,0.106 -0.191,0.205 -0.282,0.313 -0.255,0.264 -0.502,0.519 -0.749,0.751 -0.082,0.082 -0.165,0.165 -0.247,0.239 -0.314,0.28 -0.635,0.536 -0.949,0.766 -0.091,0.065 -0.182,0.116 -0.272,0.181 -0.239,0.156 -0.478,0.306 -0.724,0.437 -0.116,0.065 -0.233,0.133 -0.356,0.19 -0.246,0.124 -0.503,0.222 -0.758,0.312 -0.083,0.034 -0.165,0.077 -0.256,0.1 -0.273,0.09 -0.551,0.156 -0.831,0.215 -0.034,0.008 -0.069,0 -0.1,0.008 -0.057,0.009 -0.107,0.032 -0.165,0.04 -0.198,0.026 -0.388,0.017 -0.578,0.026 -0.131,0.008 -0.264,0.042 -0.403,0.042 -0.042,0 -0.082,-0.008 -0.124,-0.008 -0.264,-0.009 -0.511,-0.034 -0.767,-0.068 -0.131,-0.015 -0.255,-0.032 -0.38,-0.048 -0.337,-0.066 -0.658,-0.148 -0.978,-0.248 -0.051,-0.017 -0.091,-0.033 -0.142,-0.05 -0.84,-0.281 -1.64,-0.684 -2.383,-1.169 -0.156,0.377 -0.238,0.782 -0.238,1.202 0,0.991 0.445,1.913 1.203,2.548 m 20.199,-17.46 c -0.133,-0.008 -0.258,-0.017 -0.388,-0.026 -0.924,-0.099 -1.83,-0.329 -2.689,-0.717 l -0.329,1.475 c 0.487,-0.04 0.973,-0.082 1.427,-0.082 2.95,0 5.318,0.882 8.047,2.82 0.857,0.609 1.614,1.072 2.332,1.458 -0.148,-0.443 -0.306,-0.882 -0.453,-1.326 -0.109,-0.314 -0.222,-0.626 -0.331,-0.949 -0.493,-1.501 -0.972,-3.016 -1.409,-4.542 l -1.121,0.667 c -1.387,0.834 -2.944,1.254 -4.493,1.254 -0.017,0 -0.042,-0.009 -0.059,-0.009 -0.179,0.009 -0.361,-0.017 -0.534,-0.023 m 5.455,26.109 c 0.043,0.008 0.091,0.014 0.134,0.014 0.32,0 0.618,-0.23 0.684,-0.542 0.058,-0.249 -0.033,-0.437 -0.1,-0.527 -0.057,-0.091 -0.189,-0.256 -0.428,-0.307 l -9.333,-2.045 c -0.369,-0.082 -0.749,0.165 -0.823,0.537 -0.082,0.371 0.156,0.751 0.527,0.833 l 4.955,1.079 z M -34.18,59.389 c 0.197,0.247 0.395,0.496 0.576,0.735 v 0.008 c 0.133,0.181 0.248,0.363 0.346,0.545 0.42,0.782 0.52,1.665 0.323,2.522 l 7.047,1.54 c 0.051,-0.213 0.1,-0.437 0.182,-0.633 0.314,-0.768 0.874,-1.41 1.665,-1.863 0.256,-0.142 0.521,-0.281 0.8,-0.429 0.232,-0.125 0.454,-0.249 0.686,-0.371 0.106,-0.059 0.222,-0.116 0.329,-0.182 0.205,-0.107 0.395,-0.238 0.593,-0.363 0.165,-0.099 0.329,-0.207 0.494,-0.32 0.19,-0.125 0.363,-0.273 0.544,-0.414 0.157,-0.131 0.307,-0.272 0.454,-0.412 0.165,-0.165 0.321,-0.32 0.471,-0.494 0.255,-0.314 0.511,-0.635 0.718,-1.023 -0.718,-1.583 -1.396,-3.189 -2.045,-4.814 -0.1,-0.255 -0.207,-0.503 -0.315,-0.75 -1.847,-0.47 -3.634,-1.352 -5.844,-2.918 -2.78,-1.98 -4.857,-2.507 -8.269,-2.011 l -1.023,4.689 c -0.693,3.174 0.816,5.095 2.268,6.958 m 21.526,4 c 0.666,1.251 1.401,2.794 2.167,4.434 2.539,5.392 6.019,12.77 10.042,14.847 1.466,0.76 2.737,0.777 3.866,0.068 1.963,-1.229 3.108,-4.329 3.05,-6.505 C 6.215,66.249 4.394,55.747 1.055,45.013 0.947,44.658 0.7,43.94 0.354,42.967 l -2.876,-1.279 c -0.068,-0.031 -0.124,-0.057 -0.182,-0.097 -0.833,-0.495 -1.764,-0.742 -2.697,-0.751 -0.931,0.009 -1.862,0.256 -2.695,0.751 l -1.203,0.724 c -1.385,0.834 -2.935,1.246 -4.485,1.246 h -0.059 c -1.566,0.008 -3.14,-0.404 -4.542,-1.246 l -1.203,-0.724 c -0.669,-0.405 -1.409,-0.595 -2.161,-0.685 0.042,0.15 0.091,0.297 0.133,0.436 0.463,1.575 0.965,3.126 1.484,4.658 0.198,0.587 0.403,1.171 0.61,1.75 0.428,1.22 0.882,2.423 1.352,3.625 0.214,0.528 0.412,1.073 0.634,1.601 1.469,3.594 3.092,7.074 4.882,10.413 M 5.35,44.031 c -0.289,0.198 -0.619,0.313 -0.956,0.363 3.355,10.899 5.194,21.582 5.458,31.757 0.082,3.197 -1.484,7.469 -4.633,9.447 -1.518,0.947 -3.991,1.73 -7.214,0.073 -5.037,-2.604 -8.649,-10.254 -11.542,-16.404 -0.173,-0.355 -0.329,-0.701 -0.494,-1.047 -0.644,2.942 -2.589,5.466 -5.352,6.777 -0.65,3.131 -3.14,5.588 -6.256,6.223 -0.042,0.173 -0.082,0.346 -0.132,0.519 -0.644,2.201 -2.582,3.859 -4.832,4.122 -1.261,0.148 -2.513,-0.116 -3.585,-0.74 -0.908,0.51 -1.929,0.782 -2.984,0.782 -2.936,0 -5.401,-2.053 -6.045,-4.79 -3.214,-0.874 -5.563,-3.816 -5.589,-7.246 -3.659,-0.941 -6.331,-4.255 -6.331,-8.186 0,-1.047 0.199,-2.079 0.576,-3.052 -0.956,-1.178 -1.483,-2.647 -1.483,-4.188 0,-0.924 0.19,-1.812 0.553,-2.637 -1.691,1.838 -4.057,3.347 -6.727,3.248 -0.932,-0.034 -1.667,-0.809 -1.634,-1.739 0.026,-0.917 0.776,-1.643 1.683,-1.643 0.057,0 0.116,0.009 0.164,0.009 1.583,0 3.05,-1.047 4.122,-2.267 -2.678,-0.766 -5.903,-2.028 -7.41,-4.864 -0.907,-1.714 -1.015,-3.816 -0.405,-6.224 -0.297,-0.486 -0.453,-1.055 -0.428,-1.665 l 2.876,-40.834 c 0.265,-5.118 4.485,-9.135 9.613,-9.135 h 47.388 c 5.128,0 9.349,4.017 9.613,9.103 l 2.942,42.259 v 0.033 c 0.05,0.775 -0.313,1.501 -0.956,1.946" /></g></g></g><g
       id="g44"><g
         clip-path="url(#clipPath50)"
         id="g46"><g
           transform="translate(10.1347,25.3616)"
           id="g52"><path
             id="path54"
             style="fill:#ff5800;fill-opacity:1;fill-rule:nonzero;stroke:none"
             d="m 0,0 h 11.821 c 0.933,0 1.682,0.749 1.682,1.69 0,0.931 -0.749,1.683 -1.682,1.683 H 0 C -0.933,3.373 -1.69,2.621 -1.69,1.69 -1.69,0.749 -0.933,0 0,0" /></g><g
           transform="translate(10.1347,18.6106)"
           id="g56"><path
             id="path58"
             style="fill:#ff5800;fill-opacity:1;fill-rule:nonzero;stroke:none"
             d="m 0,0 h 15.194 c 0.931,0 1.691,0.749 1.691,1.682 0,0.939 -0.76,1.688 -1.691,1.688 H 0 C -0.933,3.37 -1.69,2.621 -1.69,1.682 -1.69,0.749 -0.933,0 0,0" /></g><g
           transform="translate(28.7099,15.2297)"
           id="g60"><path
             id="path62"
             style="fill:#ff5800;fill-opacity:1;fill-rule:nonzero;stroke:none"
             d="m 0,0 h -18.575 c -0.933,0 -1.691,-0.758 -1.691,-1.69 0,-0.931 0.758,-1.689 1.691,-1.689 H 0 c 0.931,0 1.688,0.758 1.688,1.689 C 1.688,-0.758 0.931,0 0,0" /></g><g
           transform="translate(38.8398,15.2297)"
           id="g64"><path
             id="path66"
             style="fill:#ff5800;fill-opacity:1;fill-rule:nonzero;stroke:none"
             d="m 0,0 h -3.379 c -0.933,0 -1.69,-0.758 -1.69,-1.69 0,-0.931 0.757,-1.689 1.69,-1.689 H 0 c 0.933,0 1.683,0.758 1.683,1.689 C 1.683,-0.758 0.933,0 0,0" /></g></g></g></g></svg>