<?xml version="1.0" encoding="UTF-8" standalone="no"?>
<svg
   xmlns:dc="http://purl.org/dc/elements/1.1/"
   xmlns:cc="http://creativecommons.org/ns#"
   xmlns:rdf="http://www.w3.org/1999/02/22-rdf-syntax-ns#"
   xmlns:svg="http://www.w3.org/2000/svg"
   xmlns="http://www.w3.org/2000/svg"
   viewBox="0 0 125.33333 128"
   height="128"
   width="125.33333"
   xml:space="preserve"
   id="svg2"
   version="1.1"><metadata
     id="metadata8"><rdf:RDF><cc:Work
         rdf:about=""><dc:format>image/svg+xml</dc:format><dc:type
           rdf:resource="http://purl.org/dc/dcmitype/StillImage" /><dc:title></dc:title></cc:Work></rdf:RDF></metadata><defs
     id="defs6"><clipPath
       id="clipPath18"
       clipPathUnits="userSpaceOnUse"><path
         id="path16"
         d="M 0,96 H 94 V 0 H 0 Z" /></clipPath></defs><g
     transform="matrix(1.3333333,0,0,-1.3333333,0,128)"
     id="g10"><g
       id="g12"><g
         clip-path="url(#clipPath18)"
         id="g14"><g
           transform="translate(34.4268,44.3481)"
           id="g20"><path
             id="path22"
             style="fill:none;stroke:#ff5800;stroke-width:4;stroke-linecap:round;stroke-linejoin:miter;stroke-miterlimit:10;stroke-dasharray:none;stroke-opacity:1"
             d="m 0,0 c -1.441,-0.229 -2.92,-0.348 -4.427,-0.348 -15.464,0 -28,12.536 -28,28" /></g><g
           transform="translate(42.5244,46.9507)"
           id="g24"><path
             id="path26"
             style="fill:none;stroke:#ff5800;stroke-width:4;stroke-linecap:round;stroke-linejoin:miter;stroke-miterlimit:10;stroke-dasharray:none;stroke-opacity:1"
             d="M 0,0 C -0.715,-0.358 -1.446,-0.687 -2.194,-0.983" /></g><g
           transform="translate(58,72)"
           id="g28"><path
             id="path30"
             style="fill:none;stroke:#ff5800;stroke-width:4;stroke-linecap:round;stroke-linejoin:miter;stroke-miterlimit:10;stroke-dasharray:none;stroke-opacity:1"
             d="M 0,0 C 0,-7.859 -3.237,-14.961 -8.452,-20.047" /></g><g
           transform="translate(11,80)"
           id="g32"><path
             id="path34"
             style="fill:none;stroke:#ff5800;stroke-width:4;stroke-linecap:round;stroke-linejoin:miter;stroke-miterlimit:10;stroke-dasharray:none;stroke-opacity:1"
             d="m 0,0 v 0 c -1.65,0 -3,1.35 -3,3 v 8 c 0,1.65 1.35,3 3,3 1.65,0 3,-1.35 3,-3 V 3 C 3,1.35 1.65,0 0,0 Z" /></g><g
           transform="translate(49,80)"
           id="g36"><path
             id="path38"
             style="fill:none;stroke:#ff5800;stroke-width:4;stroke-linecap:round;stroke-linejoin:miter;stroke-miterlimit:10;stroke-dasharray:none;stroke-opacity:1"
             d="m 0,0 v 0 c -1.65,0 -3,1.35 -3,3 v 8 c 0,1.65 1.35,3 3,3 1.65,0 3,-1.35 3,-3 V 3 C 3,1.35 1.65,0 0,0 Z" /></g><g
           transform="translate(92,57)"
           id="g40"><path
             id="path42"
             style="fill:none;stroke:#ff5800;stroke-width:4;stroke-linecap:round;stroke-linejoin:miter;stroke-miterlimit:10;stroke-dasharray:none;stroke-opacity:1"
             d="m 0,0 c 0,-6.075 -4.925,-11 -11,-11 -6.075,0 -11,4.925 -11,11 0,6.075 4.925,11 11,11 C -4.925,11 0,6.075 0,0 Z" /></g><g
           transform="translate(83,57)"
           id="g44"><path
             id="path46"
             style="fill:none;stroke:#ff5800;stroke-width:4;stroke-linecap:round;stroke-linejoin:miter;stroke-miterlimit:10;stroke-dasharray:none;stroke-opacity:1"
             d="m 0,0 c 0,-1.104 -0.896,-2 -2,-2 -1.104,0 -2,0.896 -2,2 0,1.104 0.896,2 2,2 1.104,0 2,-0.896 2,-2 z" /></g><g
           transform="translate(30,34)"
           id="g48"><path
             id="path50"
             style="fill:none;stroke:#ff5800;stroke-width:4;stroke-linecap:round;stroke-linejoin:miter;stroke-miterlimit:10;stroke-dasharray:none;stroke-opacity:1"
             d="m 0,0 v -24 c 0,-4.418 3.582,-8 8,-8 4.418,0 8,3.582 8,8 v 8 c 0,5.523 4.478,10 10,10 5.522,0 10,-4.477 10,-10 v -8 c 0,-4.418 3.582,-8 8,-8 4.418,0 8,3.582 8,8 v 36" /></g><g
           transform="translate(52,87)"
           id="g52"><path
             id="path54"
             style="fill:none;stroke:#ff5800;stroke-width:4;stroke-linecap:round;stroke-linejoin:miter;stroke-miterlimit:10;stroke-dasharray:none;stroke-opacity:1"
             d="m 0,0 h 2 c 2.209,0 4,-1.791 4,-4 v -21 c 0,-15.464 -12.536,-28 -28,-28 -15.464,0 -28,12.536 -28,28 v 21 c 0,2.209 1.791,4 4,4 h 2" /></g></g></g></g></svg>