<?xml version="1.0" encoding="UTF-8" standalone="no"?>
<svg
   xmlns:dc="http://purl.org/dc/elements/1.1/"
   xmlns:cc="http://creativecommons.org/ns#"
   xmlns:rdf="http://www.w3.org/1999/02/22-rdf-syntax-ns#"
   xmlns:svg="http://www.w3.org/2000/svg"
   xmlns="http://www.w3.org/2000/svg"
   viewBox="0 0 127.97667 128"
   height="128"
   width="127.97667"
   xml:space="preserve"
   id="svg2"
   version="1.1"><metadata
     id="metadata8"><rdf:RDF><cc:Work
         rdf:about=""><dc:format>image/svg+xml</dc:format><dc:type
           rdf:resource="http://purl.org/dc/dcmitype/StillImage" /><dc:title></dc:title></cc:Work></rdf:RDF></metadata><defs
     id="defs6"><clipPath
       id="clipPath18"
       clipPathUnits="userSpaceOnUse"><path
         id="path16"
         d="M 0,96 H 95.982 V 0 H 0 Z" /></clipPath></defs><g
     transform="matrix(1.3333333,0,0,-1.3333333,0,128)"
     id="g10"><g
       id="g12"><g
         clip-path="url(#clipPath18)"
         id="g14"><g
           transform="translate(83.0488,28.9663)"
           id="g20"><path
             id="path22"
             style="fill:#ff5800;fill-opacity:1;fill-rule:nonzero;stroke:none"
             d="M 0,0 H -1.107 C -6.655,0 -11.169,4.375 -11.183,9.759 H 10.076 C 10.062,4.375 5.547,0 0,0 M -0.568,33.768 9.293,12.533 h -19.696 z m -2.709,4.673 c -4.003,0 -7.74,1.545 -10.521,4.35 -1.982,1.999 -4.734,3.146 -7.551,3.146 h -26.852 c -3.285,0 -6.334,-1.284 -8.586,-3.614 -2.383,-2.467 -5.851,-3.882 -9.513,-3.882 h -13.357 v 2.748 h 12.819 c 3.284,0 6.334,1.284 8.585,3.614 2.384,2.467 5.852,3.882 9.514,3.882 10e-4,0 0,0 0,0 h 27.363 c 0,0 -10e-4,0 0,0 3.662,0 7.129,-1.415 9.513,-3.882 2.252,-2.33 5.301,-3.614 8.586,-3.614 H 9.542 V 38.441 Z M -15.706,-14.91 v 0 c 0.832,0 1.509,-0.657 1.509,-1.465 v -2.47 h -29.836 c -0.789,0 -1.429,-0.621 -1.429,-1.387 0,-0.767 0.64,-1.388 1.429,-1.388 h 35.187 c 0.873,0 1.584,-0.69 1.584,-1.537 v -3.034 h -55.591 v 3.034 c 0,0.847 0.71,1.537 1.583,1.537 h 8.111 c 0.789,0 1.429,0.621 1.429,1.388 0,0.766 -0.64,1.387 -1.429,1.387 h -2.759 v 2.47 c 0,0.808 0.676,1.465 1.508,1.465 z m -44.009,27.443 h -19.696 l 9.835,21.235 z M -69.008,0 h -1.107 c -5.548,0 -10.062,4.375 -10.076,9.759 h 21.259 C -58.946,4.375 -63.461,0 -69.008,0 m 35.735,53.129 V 51.46 h -3.569 v 1.669 c 0.023,-0.006 0.047,-0.01 0.071,-0.015 0.107,-0.026 0.216,-0.049 0.326,-0.07 0.036,-0.006 0.072,-0.012 0.108,-0.018 0.11,-0.019 0.222,-0.036 0.334,-0.05 0.026,-0.003 0.051,-0.007 0.077,-0.01 0.285,-0.033 0.574,-0.052 0.868,-0.052 0.152,0 0.302,0.006 0.451,0.015 h 0.003 c 0.138,0.009 0.276,0.021 0.413,0.037 0.026,0.003 0.054,0.007 0.081,0.01 0.11,0.014 0.22,0.031 0.33,0.049 0.037,0.007 0.073,0.013 0.111,0.02 0.109,0.02 0.218,0.044 0.326,0.069 0.023,0.006 0.047,0.009 0.07,0.015 m -1.785,11.13 c 2.434,0 4.413,-1.923 4.413,-4.285 0,-1.517 -0.816,-2.851 -2.044,-3.613 -0.054,-0.033 -0.108,-0.065 -0.163,-0.096 -0.028,-0.016 -0.056,-0.032 -0.085,-0.047 -0.075,-0.041 -0.151,-0.079 -0.229,-0.115 -0.027,-0.012 -0.055,-0.024 -0.083,-0.036 -0.061,-0.027 -0.124,-0.053 -0.186,-0.077 -0.027,-0.01 -0.053,-0.021 -0.08,-0.031 -0.084,-0.03 -0.169,-0.058 -0.254,-0.084 -0.023,-0.006 -0.046,-0.012 -0.069,-0.019 -0.072,-0.02 -0.143,-0.038 -0.216,-0.054 -0.025,-0.006 -0.049,-0.011 -0.073,-0.016 -0.092,-0.019 -0.184,-0.036 -0.276,-0.05 -0.015,-0.002 -0.031,-0.004 -0.046,-0.006 -0.081,-0.01 -0.162,-0.019 -0.243,-0.025 -0.026,-0.002 -0.051,-0.004 -0.077,-0.006 -0.096,-0.006 -0.192,-0.01 -0.289,-0.01 -0.096,0 -0.192,0.004 -0.288,0.01 -0.026,0.002 -0.051,0.004 -0.077,0.006 -0.081,0.006 -0.162,0.015 -0.243,0.025 -0.015,0.003 -0.03,0.004 -0.046,0.006 -0.093,0.014 -0.184,0.031 -0.276,0.05 -0.025,0.005 -0.049,0.011 -0.074,0.016 -0.072,0.016 -0.144,0.035 -0.214,0.054 -0.024,0.007 -0.047,0.013 -0.071,0.02 -0.085,0.025 -0.169,0.053 -0.253,0.083 -0.027,0.011 -0.054,0.021 -0.082,0.032 -0.062,0.024 -0.123,0.049 -0.183,0.075 -0.029,0.013 -0.057,0.025 -0.085,0.038 -0.077,0.036 -0.153,0.073 -0.228,0.113 -0.03,0.016 -0.058,0.033 -0.088,0.05 -0.053,0.029 -0.106,0.061 -0.158,0.093 -1.229,0.761 -2.047,2.097 -2.047,3.614 0,2.362 1.98,4.285 4.413,4.285 M 12.933,11.158 c 0,0.031 -0.002,0.063 -0.005,0.094 -0.001,0.016 -0.002,0.031 -0.003,0.046 -0.004,0.026 -0.008,0.053 -0.013,0.08 -0.003,0.02 -0.006,0.04 -0.011,0.06 -0.004,0.019 -0.01,0.038 -0.015,0.058 -0.007,0.026 -0.014,0.053 -0.023,0.079 -0.004,0.013 -0.01,0.028 -0.015,0.041 -0.012,0.03 -0.023,0.061 -0.036,0.09 -0.002,0.003 -0.003,0.007 -0.005,0.01 L 1.686,35.666 h 8.145 c 1.416,0 2.568,1.119 2.568,2.494 v 3.31 c 0,1.375 -1.152,2.494 -2.568,2.494 H -3.277 c -2.487,0 -4.796,0.973 -6.502,2.738 -2.922,3.024 -7.149,4.758 -11.597,4.758 h -9.04 v 3.085 c 1.605,1.296 2.629,3.248 2.629,5.429 0,3.893 -3.262,7.06 -7.271,7.06 -4.009,0 -7.271,-3.167 -7.271,-7.06 0,-2.181 1.024,-4.133 2.629,-5.429 V 51.46 h -9.039 c -4.449,0 -8.676,-1.734 -11.598,-4.758 -1.705,-1.766 -4.015,-2.738 -6.501,-2.738 h -13.108 c -1.416,0 -2.569,-1.119 -2.569,-2.494 v -3.31 c 0,-1.375 1.153,-2.494 2.569,-2.494 h 8.116 L -82.923,11.715 c -0.002,-0.004 -0.003,-0.007 -0.005,-0.011 -0.012,-0.028 -0.024,-0.057 -0.034,-0.087 -0.006,-0.014 -0.012,-0.029 -0.017,-0.044 -0.008,-0.025 -0.015,-0.051 -0.022,-0.076 -0.005,-0.02 -0.012,-0.04 -0.016,-0.06 -0.004,-0.02 -0.007,-0.039 -0.01,-0.058 -0.005,-0.027 -0.01,-0.055 -0.013,-0.082 -0.002,-0.014 -0.002,-0.029 -0.003,-0.044 -0.003,-0.032 -0.005,-0.064 -0.005,-0.096 0,-0.004 -0.001,-0.007 -0.001,-0.011 V 9.784 c 0,-6.925 5.802,-12.559 12.934,-12.559 h 1.107 c 7.132,0 12.934,5.634 12.934,12.559 v 1.362 c 0,0.004 -0.001,0.008 -0.001,0.012 0,0.031 -0.003,0.062 -0.005,0.093 -0.001,0.016 -0.002,0.032 -0.003,0.047 -0.003,0.026 -0.008,0.053 -0.013,0.079 -0.003,0.02 -0.006,0.041 -0.01,0.061 -0.005,0.019 -0.011,0.038 -0.016,0.058 -0.007,0.026 -0.014,0.053 -0.023,0.079 -0.004,0.014 -0.01,0.028 -0.016,0.042 -0.011,0.03 -0.022,0.06 -0.035,0.089 l -0.005,0.01 -11.121,23.95 h 1.022 c 4.448,0 8.675,1.734 11.598,4.758 1.705,1.765 4.014,2.738 6.501,2.738 h 8.501 v -55.297 h -14.71 c -2.407,0 -4.366,-1.902 -4.366,-4.24 v -2.47 h -2.494 c -2.449,0 -4.441,-1.934 -4.441,-4.312 v -4.422 c 0,-0.766 0.64,-1.387 1.429,-1.387 h 58.449 c 0.789,0 1.429,0.621 1.429,1.387 v 4.422 c 0,2.378 -1.993,4.312 -4.442,4.312 h -2.493 v 2.47 c 0,2.338 -1.959,4.24 -4.367,4.24 h -14.71 v 40.109 c 0,0.766 -0.639,1.387 -1.428,1.387 -0.79,0 -1.429,-0.621 -1.429,-1.387 v -40.109 h -3.569 v 55.297 h 3.569 v -6.41 c 0,-0.766 0.639,-1.387 1.429,-1.387 0.789,0 1.428,0.621 1.428,1.387 v 6.41 h 9.067 c 2.044,0 4.046,-0.837 5.492,-2.296 3.325,-3.353 7.793,-5.2 12.58,-5.2 h 0.455 L -13.916,11.715 c -10e-4,-0.003 -0.002,-0.007 -0.003,-0.009 -0.014,-0.031 -0.026,-0.061 -0.037,-0.092 -0.005,-0.013 -0.01,-0.027 -0.015,-0.04 -0.009,-0.027 -0.016,-0.053 -0.023,-0.081 -0.005,-0.018 -0.011,-0.037 -0.015,-0.055 -0.004,-0.021 -0.007,-0.042 -0.011,-0.062 -0.004,-0.026 -0.009,-0.052 -0.012,-0.078 -0.002,-0.016 -0.003,-0.031 -0.004,-0.047 -0.002,-0.031 -0.004,-0.063 -0.005,-0.094 0,-0.003 0,-0.007 0,-0.011 V 9.784 c 0,-6.925 5.802,-12.559 12.934,-12.559 H 0 c 7.132,0 12.934,5.634 12.934,12.559 v 1.362 c 0,0.004 -10e-4,0.008 -10e-4,0.012" /></g></g></g></g></svg>