<?xml version="1.0" encoding="UTF-8" standalone="no"?>
<svg
   xmlns:dc="http://purl.org/dc/elements/1.1/"
   xmlns:cc="http://creativecommons.org/ns#"
   xmlns:rdf="http://www.w3.org/1999/02/22-rdf-syntax-ns#"
   xmlns:svg="http://www.w3.org/2000/svg"
   xmlns="http://www.w3.org/2000/svg"
   viewBox="0 0 128 128"
   height="128"
   width="128"
   xml:space="preserve"
   id="svg2"
   version="1.1"><metadata
     id="metadata8"><rdf:RDF><cc:Work
         rdf:about=""><dc:format>image/svg+xml</dc:format><dc:type
           rdf:resource="http://purl.org/dc/dcmitype/StillImage" /><dc:title></dc:title></cc:Work></rdf:RDF></metadata><defs
     id="defs6"><clipPath
       id="clipPath18"
       clipPathUnits="userSpaceOnUse"><path
         id="path16"
         d="M 0,96 H 96 V 0 H 0 Z" /></clipPath></defs><g
     transform="matrix(1.3333333,0,0,-1.3333333,0,128)"
     id="g10"><g
       id="g12"><g
         clip-path="url(#clipPath18)"
         id="g14"><g
           transform="translate(79.7423,16.2578)"
           id="g20"><path
             id="path22"
             style="fill:#ff5800;fill-opacity:1;fill-rule:nonzero;stroke:none"
             d="m 0,0 c -8.479,-8.479 -19.751,-13.147 -31.742,-13.147 -11.99,0 -23.264,4.668 -31.741,13.147 -8.48,8.479 -13.149,19.751 -13.149,31.742 0,11.99 4.669,23.264 13.149,31.741 8.477,8.48 19.751,13.149 31.741,13.149 C -19.751,76.632 -8.479,71.963 0,63.483 8.479,55.006 13.147,43.732 13.147,31.742 13.147,19.751 8.479,8.479 0,0 m 2.199,65.684 c -9.066,9.065 -21.12,14.058 -33.941,14.058 -12.821,0 -24.875,-4.993 -33.942,-14.058 -9.065,-9.067 -14.058,-21.121 -14.058,-33.942 0,-12.821 4.993,-24.875 14.058,-33.941 9.067,-9.067 21.121,-14.059 33.942,-14.059 12.821,0 24.875,4.992 33.941,14.059 9.067,9.066 14.059,21.12 14.059,33.941 0,12.821 -4.992,24.875 -14.059,33.942" /></g><g
           transform="translate(58.0567,18.1426)"
           id="g24"><path
             id="path26"
             style="fill:#ff5800;fill-opacity:1;fill-rule:nonzero;stroke:none"
             d="m 0,0 c 0,-0.972 -0.791,-1.763 -1.763,-1.763 -0.972,0 -1.762,0.791 -1.762,1.763 v 21.563 c 0,0.859 -0.696,1.556 -1.556,1.556 h -1.775 c 10e-4,2.696 0.112,8.67 0.934,15.254 1.121,8.962 3.144,15.862 5.922,20.291 z m -10.057,3.214 c -1.71,0 -3.413,0.165 -5.079,0.485 v 34.81 c 1.927,0.65 3.317,2.474 3.317,4.618 V 56.44 c 0.583,0.039 1.17,0.06 1.762,0.06 1.757,0 3.505,-0.173 5.213,-0.512 -5.58,-13.262 -5.135,-33.411 -5.108,-34.466 0.022,-0.842 0.712,-1.513 1.555,-1.513 h 1.762 V 3.433 C -7.767,3.287 -8.912,3.214 -10.057,3.214 M -18.246,0 c 0,-0.972 -0.791,-1.763 -1.763,-1.763 -0.971,0 -1.762,0.791 -1.762,1.763 v 39.81 c 0,0.859 -0.697,1.554 -1.555,1.554 -0.973,0 -1.763,0.791 -1.763,1.763 v 1.763 h 5.076 0.004 0.004 5.075 v -1.763 c 0,-0.972 -0.79,-1.763 -1.761,-1.763 -0.86,0 -1.555,-0.695 -1.555,-1.554 z m -3.317,53.886 V 48 h -3.526 v 3.843 c 1.117,0.766 2.295,1.451 3.526,2.043 m 6.633,2.167 V 48 h -3.524 v 7.144 c 1.143,0.38 2.32,0.685 3.524,0.909 M 15.005,42.891 c -0.782,-0.354 -1.13,-1.276 -0.776,-2.058 1.565,-3.456 2.358,-7.149 2.358,-10.976 0,-9.619 -5.218,-18.461 -13.477,-23.164 v 56.339 c 0,0.618 -0.366,1.177 -0.931,1.425 -0.567,0.248 -1.226,0.137 -1.679,-0.282 -1.536,-1.418 -2.847,-3.229 -3.967,-5.299 -2.151,0.485 -4.365,0.735 -6.59,0.735 -0.59,0 -1.178,-0.02 -1.762,-0.053 v 3.474 c 0,0.859 -0.696,1.556 -1.556,1.556 -0.858,0 -1.555,-0.697 -1.555,-1.556 V 59.21 c -1.199,-0.199 -2.376,-0.469 -3.524,-0.808 v 4.63 c 0,0.859 -0.696,1.556 -1.555,1.556 -0.858,0 -1.554,-0.697 -1.554,-1.556 v -5.737 c -1.22,-0.513 -2.396,-1.106 -3.526,-1.771 v 7.508 c 0,0.859 -0.696,1.556 -1.556,1.556 -0.858,0 -1.554,-0.697 -1.554,-1.556 v -9.609 c -7.057,-5.446 -11.612,-13.984 -11.612,-23.566 0,-7.929 3.083,-15.387 8.68,-21.003 0.304,-0.305 0.702,-0.458 1.102,-0.458 0.396,0 0.794,0.151 1.096,0.454 0.609,0.606 0.612,1.591 0.005,2.2 -5.011,5.027 -7.773,11.707 -7.773,18.807 0,7.689 3.275,14.625 8.502,19.494 v -6.224 c 0,-2.144 1.39,-3.968 3.317,-4.618 V 0 c 0,-2.688 2.187,-4.873 4.873,-4.873 2.687,0 4.873,2.185 4.873,4.873 v 0.538 c 1.671,-0.287 3.372,-0.434 5.079,-0.434 1.143,0 2.288,0.066 3.421,0.196 V 0 c 0,-2.688 2.186,-4.873 4.873,-4.873 2.687,0 4.873,2.185 4.873,4.873 v 3.17 c 10.109,4.994 16.587,15.359 16.587,26.687 0,4.272 -0.886,8.396 -2.635,12.259 -0.353,0.782 -1.275,1.13 -2.057,0.775" /></g><g
           transform="translate(65.2384,68.3164)"
           id="g28"><path
             id="path30"
             style="fill:#ff5800;fill-opacity:1;fill-rule:nonzero;stroke:none"
             d="m 0,0 c 1.104,-0.937 2.14,-1.974 3.078,-3.078 0.308,-0.362 0.745,-0.549 1.186,-0.549 0.356,0 0.714,0.122 1.006,0.371 0.654,0.556 0.734,1.537 0.178,2.192 C 4.401,0.168 3.246,1.323 2.014,2.37 1.358,2.926 0.378,2.846 -0.178,2.19 -0.733,1.537 -0.653,0.556 0,0" /></g><g
           transform="translate(29.463,14.5283)"
           id="g32"><path
             id="path34"
             style="fill:#ff5800;fill-opacity:1;fill-rule:nonzero;stroke:none"
             d="m 0,0 c -6.073,3.37 -11.121,8.33 -14.6,14.343 -0.429,0.743 -1.381,0.997 -2.125,0.568 -0.743,-0.431 -0.997,-1.383 -0.567,-2.125 3.761,-6.501 9.219,-11.862 15.782,-15.506 0.239,-0.133 0.498,-0.195 0.753,-0.195 0.547,0 1.077,0.288 1.361,0.8 C 1.021,-1.363 0.751,-0.417 0,0" /></g><g
           transform="translate(67.129,81.1367)"
           id="g36"><path
             id="path38"
             style="fill:#ff5800;fill-opacity:1;fill-rule:nonzero;stroke:none"
             d="m 0,0 c 1.09,-0.631 2.161,-1.323 3.184,-2.06 0.274,-0.197 0.592,-0.292 0.907,-0.292 0.483,0 0.96,0.225 1.263,0.647 C 5.855,-1.008 5.697,-0.035 5,0.466 3.895,1.262 2.736,2.01 1.557,2.692 0.813,3.121 -0.138,2.868 -0.568,2.125 -0.997,1.382 -0.744,0.43 0,0" /></g><g
           transform="translate(88.4669,56.6152)"
           id="g40"><path
             id="path42"
             style="fill:#ff5800;fill-opacity:1;fill-rule:nonzero;stroke:none"
             d="m 0,0 c -1.651,7.794 -5.514,14.912 -11.168,20.586 -0.606,0.607 -1.592,0.609 -2.199,0.003 -0.609,-0.607 -0.611,-1.59 -0.004,-2.199 5.23,-5.247 8.801,-11.829 10.328,-19.034 0.155,-0.732 0.801,-1.233 1.521,-1.233 0.105,0 0.213,0.012 0.323,0.035 C -0.359,-1.665 0.178,-0.839 0,0" /></g></g></g></g></svg>