<?xml version="1.0" encoding="UTF-8" standalone="no"?>
<svg
   xmlns:dc="http://purl.org/dc/elements/1.1/"
   xmlns:cc="http://creativecommons.org/ns#"
   xmlns:rdf="http://www.w3.org/1999/02/22-rdf-syntax-ns#"
   xmlns:svg="http://www.w3.org/2000/svg"
   xmlns="http://www.w3.org/2000/svg"
   viewBox="0 0 127.97667 127.84933"
   height="127.84933"
   width="127.97667"
   xml:space="preserve"
   id="svg2"
   version="1.1"><metadata
     id="metadata8"><rdf:RDF><cc:Work
         rdf:about=""><dc:format>image/svg+xml</dc:format><dc:type
           rdf:resource="http://purl.org/dc/dcmitype/StillImage" /><dc:title></dc:title></cc:Work></rdf:RDF></metadata><defs
     id="defs6"><clipPath
       id="clipPath18"
       clipPathUnits="userSpaceOnUse"><path
         id="path16"
         d="M 0,95.887 H 95.982 V 0 H 0 Z" /></clipPath></defs><g
     transform="matrix(1.3333333,0,0,-1.3333333,0,127.84933)"
     id="g10"><g
       id="g12"><g
         clip-path="url(#clipPath18)"
         id="g14"><g
           transform="translate(79.1768,14.5205)"
           id="g20"><path
             id="path22"
             style="fill:#ff5800;fill-opacity:1;fill-rule:nonzero;stroke:none"
             d="m 0,0 c -0.707,0.595 -1.732,0.567 -2.433,-0.034 -7.733,-6.645 -17.775,-10.676 -28.753,-10.676 -24.361,0 -44.181,19.798 -44.181,44.133 0,24.335 19.82,44.133 44.181,44.133 8.665,0 17.049,-2.502 24.253,-7.238 0.797,-0.523 1.887,-0.48 2.535,0.219 0.824,0.889 0.629,2.257 -0.337,2.897 -7.851,5.189 -16.997,7.933 -26.451,7.933 -26.462,0 -47.991,-21.508 -47.991,-47.944 0,-26.436 21.529,-47.944 47.991,-47.944 11.936,0 22.852,4.391 31.253,11.625 0.873,0.75 0.875,2.102 -0.005,2.843 z" /></g><g
           transform="translate(81.3179,82.4414)"
           id="g24"><path
             id="path26"
             style="fill:#ff5800;fill-opacity:1;fill-rule:nonzero;stroke:none"
             d="m 0,0 c -0.833,0.805 -2.211,0.697 -2.899,-0.301 -0.541,-0.784 -0.347,-1.858 0.337,-2.521 8.653,-8.386 13.416,-19.631 13.416,-31.676 0,-9.8 -3.216,-18.861 -8.647,-26.192 -0.756,-1.021 -0.328,-2.476 0.865,-2.914 h 0.003 c 0.783,-0.287 1.673,-0.038 2.17,0.632 5.911,7.968 9.42,17.817 9.42,28.474 C 14.665,-21.371 9.457,-9.12 0,0" /></g><g
           transform="translate(46.0859,50.0894)"
           id="g28"><path
             id="path30"
             style="fill:#ff5800;fill-opacity:1;fill-rule:nonzero;stroke:none"
             d="M 0,0 C -1.013,0.419 -2.108,0.645 -3.226,0.645 -4.258,0.645 -5.27,0.454 -6.216,0.094 -5.557,11.86 -2.665,19.91 0,22.646 Z m -6.845,17.972 c -1.726,-4.857 -2.841,-11.195 -3.196,-18.068 -1.074,0.482 -2.249,0.741 -3.449,0.741 -1,0 -1.982,-0.181 -2.904,-0.519 1.113,9.577 5.344,17.468 10.963,21.209 -0.485,-0.97 -0.959,-2.083 -1.414,-3.363 M -20.25,-0.121 c -1.089,0.497 -2.283,0.766 -3.503,0.766 -0.996,0 -1.968,-0.173 -2.881,-0.505 1.076,6.132 4.107,11.756 8.715,16.076 1.784,1.673 3.751,3.095 5.85,4.252 -0.551,-0.635 -1.083,-1.31 -1.595,-2.024 -3.572,-4.984 -5.868,-11.5 -6.586,-18.565 m 24.061,22.77 c 1.871,-1.9 3.905,-6.418 5.164,-13.385 0.187,-1.035 1.179,-1.723 2.213,-1.536 1.036,0.187 1.723,1.178 1.537,2.213 -0.845,4.673 -2.029,8.507 -3.476,11.39 C 14.864,17.588 19.092,9.699 20.205,0.126 19.283,0.464 18.301,0.645 17.3,0.645 16.101,0.645 14.927,0.386 13.853,-0.095 13.81,0.742 13.756,1.572 13.69,2.389 13.606,3.438 12.686,4.22 11.64,4.136 10.591,4.052 9.808,3.134 9.892,2.085 9.945,1.429 9.988,0.764 10.025,0.095 9.079,0.454 8.067,0.645 7.037,0.645 5.918,0.645 4.823,0.419 3.81,0 V 22.649 Z M 7.037,-3.166 c 1.309,0 2.562,-0.558 3.438,-1.529 0.431,-0.479 1.048,-0.755 1.693,-0.755 0.646,0 1.264,0.276 1.693,0.753 0.877,0.973 2.131,1.531 3.439,1.531 1.309,0 2.563,-0.558 3.44,-1.531 0.431,-0.478 1.048,-0.753 1.692,-0.753 0.644,0 1.261,0.275 1.693,0.753 0.876,0.973 2.13,1.531 3.438,1.531 1.199,0 2.336,-0.458 3.206,-1.291 0.426,-0.407 0.985,-0.63 1.574,-0.63 0.33,0 0.662,0.073 0.963,0.212 0.846,0.396 1.373,1.288 1.31,2.219 -0.376,5.548 -2.172,10.937 -5.196,15.585 -0.573,0.882 -1.753,1.132 -2.635,0.558 -0.882,-0.574 -1.132,-1.754 -0.558,-2.636 2.11,-3.245 3.544,-6.9 4.216,-10.71 -0.913,0.331 -1.884,0.503 -2.88,0.503 -1.22,0 -2.414,-0.268 -3.503,-0.765 -0.717,7.064 -3.014,13.58 -6.585,18.564 -0.513,0.715 -1.045,1.39 -1.595,2.024 2.099,-1.156 4.065,-2.578 5.849,-4.252 0.127,-0.118 0.253,-0.238 0.377,-0.359 0.756,-0.732 1.962,-0.714 2.694,0.041 0.733,0.755 0.714,1.961 -0.041,2.694 -0.14,0.136 -0.281,0.271 -0.424,0.404 -5.633,5.281 -12.86,8.368 -20.525,8.809 v 2.718 c 0,1.053 -0.853,1.906 -1.905,1.906 C 0.853,32.428 0,31.575 0,30.522 v -2.718 c -7.665,-0.441 -14.893,-3.528 -20.525,-8.809 -6.07,-5.69 -9.721,-13.38 -10.281,-21.651 -0.063,-0.931 0.463,-1.823 1.311,-2.219 0.3,-0.139 0.632,-0.213 0.962,-0.213 0.589,0 1.148,0.224 1.577,0.633 0.866,0.831 2.003,1.288 3.202,1.288 1.308,0 2.562,-0.557 3.442,-1.533 0.431,-0.476 1.047,-0.75 1.69,-0.75 0.643,0 1.26,0.275 1.692,0.753 0.877,0.973 2.131,1.53 3.439,1.53 1.309,0 2.563,-0.557 3.438,-1.529 0.431,-0.479 1.049,-0.754 1.694,-0.754 0.646,0 1.263,0.275 1.692,0.752 0.877,0.974 2.131,1.531 3.44,1.531 1.207,0 2.365,-0.48 3.226,-1.318 v -24.091 c 0,-3.672 2.99,-6.658 6.664,-6.658 3.674,0 6.663,2.986 6.663,6.658 v 3.729 c 0,1.052 -0.852,1.905 -1.905,1.905 -1.052,0 -1.905,-0.853 -1.905,-1.905 v -3.729 c 0,-1.57 -1.28,-2.848 -2.853,-2.848 -1.574,0 -2.853,1.278 -2.853,2.848 v 24.091 c 0.862,0.839 2.019,1.319 3.227,1.319" /></g></g></g></g></svg>