<?xml version="1.0" encoding="UTF-8" standalone="no"?>
<svg
   xmlns:dc="http://purl.org/dc/elements/1.1/"
   xmlns:cc="http://creativecommons.org/ns#"
   xmlns:rdf="http://www.w3.org/1999/02/22-rdf-syntax-ns#"
   xmlns:svg="http://www.w3.org/2000/svg"
   xmlns="http://www.w3.org/2000/svg"
   viewBox="0 0 127.3288 96.255333"
   height="96.255333"
   width="127.3288"
   xml:space="preserve"
   id="svg2"
   version="1.1"><metadata
     id="metadata8"><rdf:RDF><cc:Work
         rdf:about=""><dc:format>image/svg+xml</dc:format><dc:type
           rdf:resource="http://purl.org/dc/dcmitype/StillImage" /><dc:title></dc:title></cc:Work></rdf:RDF></metadata><defs
     id="defs6"><clipPath
       id="clipPath18"
       clipPathUnits="userSpaceOnUse"><path
         id="path16"
         d="M 0,72.192 H 95.497 V 0 H 0 Z" /></clipPath></defs><g
     transform="matrix(1.3333333,0,0,-1.3333333,0,96.255333)"
     id="g10"><g
       id="g12"><g
         clip-path="url(#clipPath18)"
         id="g14"><g
           transform="translate(89.4818,12.3194)"
           id="g20"><path
             id="path22"
             style="fill:#ff5800;fill-opacity:1;fill-rule:nonzero;stroke:none"
             d="m 0,0 h -5.152 c 0.001,0.065 0.005,0.13 0.005,0.196 0,2.239 -0.594,4.34 -1.627,6.16 H 0 C 1.753,6.356 3.179,4.93 3.179,3.178 3.179,1.426 1.753,0 0,0 m -17.663,-9.483 c -5.337,0 -9.68,4.342 -9.68,9.679 0,5.338 4.343,9.679 9.68,9.679 5.337,0 9.679,-4.341 9.679,-9.679 0,-5.337 -4.342,-9.679 -9.679,-9.679 M 3.021,8.376 1.824,22.312 c -0.38,4.426 -3.2,8.277 -7.258,9.994 l -0.848,2.457 c -0.256,0.74 -1.063,1.133 -1.804,0.878 -0.74,-0.256 -1.133,-1.063 -0.878,-1.804 l 1.063,-3.077 c 0.138,-0.402 0.447,-0.726 0.847,-0.867 3.37,-1.19 5.746,-4.263 6.052,-7.823 L 0.104,9.19 C 0.069,9.19 0.035,9.192 0,9.192 H -8.847 V 9.07 c -2.263,2.249 -5.381,3.642 -8.816,3.642 -6.901,0 -12.516,-5.614 -12.516,-12.516 0,-0.066 0.004,-0.13 0.005,-0.196 L -43.15,0 c -0.784,0 -1.419,-0.635 -1.419,-1.418 0,-0.783 0.635,-1.418 1.419,-1.418 h 13.344 c 1.36,-5.441 6.287,-9.483 12.143,-9.483 5.855,0 10.782,4.042 12.142,9.483 h 5.401 c 3.304,0 6.082,2.614 6.134,5.918 C 6.05,5.338 4.835,7.318 3.021,8.376" /></g><g
           transform="translate(18.5326,30.3052)"
           id="g24"><path
             id="path26"
             style="fill:#ff5800;fill-opacity:1;fill-rule:nonzero;stroke:none"
             d="m 0,0 c 0,-1.199 -0.976,-2.175 -2.175,-2.175 -1.199,0 -2.175,0.976 -2.175,2.175 0,1.199 0.976,2.174 2.175,2.174 C -0.976,2.174 0,1.199 0,0 m -7.187,0 c 0,-2.763 2.249,-5.011 5.012,-5.011 2.763,0 5.011,2.248 5.011,5.011 0,2.763 -2.248,5.011 -5.011,5.011 -2.763,0 -5.012,-2.248 -5.012,-5.011" /></g><g
           transform="translate(42.3383,50.9566)"
           id="g28"><path
             id="path30"
             style="fill:#ff5800;fill-opacity:1;fill-rule:nonzero;stroke:none"
             d="M 0,0 C 0.256,0.825 1.007,1.379 1.87,1.379 H 9.476 V -9.265 H -2.867 Z m 29.494,-1.02 2.082,-8.245 H 26.495 V 1.375 C 27.917,1.34 29.145,0.367 29.494,-1.02 M 23.658,-9.265 H 12.312 V 1.379 h 11.346 z m 9.739,-2.837 c 0.438,0 0.85,0.202 1.12,0.547 0.268,0.345 0.363,0.795 0.255,1.219 l -2.528,10.011 c -0.675,2.673 -3.072,4.54 -5.829,4.54 H 1.87 c -2.114,0 -3.954,-1.357 -4.579,-3.376 l -3.437,-11.103 c -0.133,-0.431 -0.054,-0.899 0.213,-1.261 0.268,-0.363 0.692,-0.577 1.142,-0.577 z" /></g><g
           transform="translate(24.6478,2.8365)"
           id="g32"><path
             id="path34"
             style="fill:#ff5800;fill-opacity:1;fill-rule:nonzero;stroke:none"
             d="m 0,0 c -5.337,0 -9.68,4.342 -9.68,9.679 0,5.338 4.343,9.679 9.68,9.679 5.337,0 9.679,-4.341 9.679,-9.679 C 9.679,4.342 5.337,0 0,0 m -18.633,9.483 c -1.753,0 -3.178,1.426 -3.178,3.178 0,1.752 1.425,3.178 3.178,3.178 h 7.744 c -1.033,-1.82 -1.627,-3.922 -1.627,-6.16 0,-0.066 0.004,-0.13 0.005,-0.196 z m 44.47,57.035 h 3.982 l 1.119,-8.509 h -6.22 z M 12.516,9.679 c 0,6.901 -5.615,12.516 -12.516,12.516 -3.437,0 -6.554,-1.393 -8.817,-3.643 v 0.123 h -9.473 l 0.608,3.704 c 1.46,8.895 8.757,15.595 17.744,16.291 l 8.02,0.622 c 0.58,0.045 1.073,0.439 1.245,0.995 l 2.944,9.511 c 0.99,3.196 3.945,5.374 7.29,5.374 h 3.54 9.455 15.512 c 2.221,0 4.198,-1.408 4.922,-3.507 L 53.6,49.9 c 0.254,-0.74 1.062,-1.133 1.802,-0.878 0.741,0.256 1.134,1.063 0.878,1.804 l -0.609,1.765 c -1.119,3.242 -4.172,5.418 -7.603,5.418 H 33.8 l -1.331,10.113 c -0.093,0.706 -0.695,1.233 -1.407,1.233 h -6.468 c -0.712,0 -1.314,-0.527 -1.407,-1.233 L 21.856,58.009 h -2.295 c -4.589,0 -8.642,-2.988 -9.999,-7.372 L 6.902,42.046 -0.157,41.499 C -10.451,40.701 -18.809,33.027 -20.481,22.838 l -0.783,-4.769 c -2.045,-0.999 -3.442,-3.122 -3.382,-5.56 0.082,-3.282 2.853,-5.862 6.136,-5.862 h 6.367 c 1.36,-5.44 6.287,-9.483 12.142,-9.483 5.856,0 10.783,4.043 12.143,9.483 h 2.922 c 0.784,0 1.418,0.635 1.418,1.418 0,0.784 -0.634,1.419 -1.418,1.419 H 12.51 c 0.002,0.065 0.006,0.129 0.006,0.195" /></g><g
           transform="translate(24.6478,8.96)"
           id="g36"><path
             id="path38"
             style="fill:#ff5800;fill-opacity:1;fill-rule:nonzero;stroke:none"
             d="m 0,0 c -1.961,0 -3.556,1.595 -3.556,3.556 0,1.96 1.595,3.555 3.556,3.555 1.96,0 3.556,-1.595 3.556,-3.555 C 3.556,1.595 1.96,0 0,0 m 0,9.948 c -3.524,0 -6.393,-2.867 -6.393,-6.392 0,-3.525 2.869,-6.392 6.393,-6.392 3.524,0 6.392,2.867 6.392,6.392 0,3.525 -2.868,6.392 -6.392,6.392" /></g><g
           transform="translate(71.8187,8.96)"
           id="g40"><path
             id="path42"
             style="fill:#ff5800;fill-opacity:1;fill-rule:nonzero;stroke:none"
             d="m 0,0 c -1.961,0 -3.556,1.595 -3.556,3.556 0,1.96 1.595,3.555 3.556,3.555 1.96,0 3.556,-1.595 3.556,-3.555 C 3.556,1.595 1.96,0 0,0 m 0,9.948 c -3.524,0 -6.392,-2.867 -6.392,-6.392 0,-3.525 2.868,-6.392 6.392,-6.392 3.524,0 6.392,2.867 6.392,6.392 0,3.525 -2.868,6.392 -6.392,6.392" /></g><g
           transform="translate(39.9955,18.8643)"
           id="g44"><path
             id="path46"
             style="fill:#ff5800;fill-opacity:1;fill-rule:nonzero;stroke:none"
             d="m 0,0 c -0.783,0 -1.418,-0.635 -1.418,-1.418 0,-0.784 0.635,-1.418 1.418,-1.418 h 16.263 c 0.783,0 1.418,0.634 1.418,1.418 0,0.783 -0.635,1.418 -1.418,1.418 z" /></g><g
           transform="translate(86.6293,27.877)"
           id="g48"><path
             id="path50"
             style="fill:#ff5800;fill-opacity:1;fill-rule:nonzero;stroke:none"
             d="m 0,0 v 4.538 c 0,0.783 -0.635,1.418 -1.418,1.418 -0.784,0 -1.419,-0.635 -1.419,-1.418 V 0 c 0,-0.784 0.635,-1.418 1.419,-1.418 C -0.635,-1.418 0,-0.784 0,0" /></g><path
           id="path52"
           style="fill:#ff5800;fill-opacity:1;fill-rule:nonzero;stroke:none"
           d="m 40.654,34.6 h 4.37 v -4.37 h -4.37 z" /><path
           id="path54"
           style="fill:#ff5800;fill-opacity:1;fill-rule:nonzero;stroke:none"
           d="m 45.022,30.231 h 4.37 v -4.37 h -4.37 z" /><path
           id="path56"
           style="fill:#ff5800;fill-opacity:1;fill-rule:nonzero;stroke:none"
           d="m 49.392,34.6 h 4.37 v -4.37 h -4.37 z" /><path
           id="path58"
           style="fill:#ff5800;fill-opacity:1;fill-rule:nonzero;stroke:none"
           d="m 53.76,30.231 h 4.37 v -4.37 h -4.37 z" /><path
           id="path60"
           style="fill:#ff5800;fill-opacity:1;fill-rule:nonzero;stroke:none"
           d="m 58.128,34.6 h 4.37 v -4.37 h -4.37 z" /></g></g></g></svg>