<?xml version="1.0" encoding="UTF-8" standalone="no"?>
<svg
   xmlns:dc="http://purl.org/dc/elements/1.1/"
   xmlns:cc="http://creativecommons.org/ns#"
   xmlns:rdf="http://www.w3.org/1999/02/22-rdf-syntax-ns#"
   xmlns:svg="http://www.w3.org/2000/svg"
   xmlns="http://www.w3.org/2000/svg"
   viewBox="0 0 127.96147 128.07401"
   height="128.07401"
   width="127.96147"
   xml:space="preserve"
   id="svg2"
   version="1.1"><metadata
     id="metadata8"><rdf:RDF><cc:Work
         rdf:about=""><dc:format>image/svg+xml</dc:format><dc:type
           rdf:resource="http://purl.org/dc/dcmitype/StillImage" /><dc:title></dc:title></cc:Work></rdf:RDF></metadata><defs
     id="defs6"><clipPath
       id="clipPath18"
       clipPathUnits="userSpaceOnUse"><path
         id="path16"
         d="M 0,96.056 H 95.971 V 0 H 0 Z" /></clipPath></defs><g
     transform="matrix(1.3333333,0,0,-1.3333333,0,128.074)"
     id="g10"><g
       id="g12"><g
         clip-path="url(#clipPath18)"
         id="g14"><g
           transform="translate(32.829,92.3032)"
           id="g20"><path
             id="path22"
             style="fill:#ff5800;fill-opacity:1;fill-rule:nonzero;stroke:none"
             d="m 0,0 c -5.347,0 -9.697,-4.35 -9.697,-9.697 0,-5.347 4.35,-9.697 9.697,-9.697 5.347,0 9.697,4.35 9.697,9.697 C 9.697,-4.35 5.347,0 0,0 m 0,-23.146 c -7.416,0 -13.449,6.033 -13.449,13.449 0,7.416 6.033,13.449 13.449,13.449 7.416,0 13.449,-6.033 13.449,-13.449 0,-7.416 -6.033,-13.449 -13.449,-13.449" /></g><g
           transform="translate(63.142,92.3032)"
           id="g24"><path
             id="path26"
             style="fill:#ff5800;fill-opacity:1;fill-rule:nonzero;stroke:none"
             d="m 0,0 c -5.347,0 -9.697,-4.35 -9.697,-9.697 0,-5.347 4.35,-9.697 9.697,-9.697 5.347,0 9.697,4.35 9.697,9.697 C 9.697,-4.35 5.347,0 0,0 m 0,-23.146 c -7.416,0 -13.449,6.033 -13.449,13.449 0,7.416 6.033,13.449 13.449,13.449 7.416,0 13.449,-6.033 13.449,-13.449 0,-7.416 -6.033,-13.449 -13.449,-13.449" /></g><g
           transform="translate(84.3842,70.0278)"
           id="g28"><path
             id="path30"
             style="fill:#ff5800;fill-opacity:1;fill-rule:nonzero;stroke:none"
             d="m 0,0 c -4.32,0 -7.834,-3.515 -7.834,-7.834 0,-4.32 3.514,-7.835 7.834,-7.835 4.32,0 7.835,3.514 7.835,7.835 C 7.834,-3.515 4.32,0 0,0 m 0,-19.421 c -6.389,0 -11.587,5.198 -11.587,11.587 0,6.389 5.198,11.586 11.587,11.586 6.389,0 11.587,-5.197 11.587,-11.586 0,-6.389 -5.198,-11.587 -11.587,-11.587" /></g><g
           transform="translate(11.5869,70.0278)"
           id="g32"><path
             id="path34"
             style="fill:#ff5800;fill-opacity:1;fill-rule:nonzero;stroke:none"
             d="m 0,0 c -4.32,0 -7.834,-3.515 -7.834,-7.834 0,-4.32 3.514,-7.835 7.834,-7.835 4.32,0 7.834,3.514 7.834,7.835 C 7.835,-3.515 4.32,0 0,0 m 0,-19.421 c -6.389,0 -11.587,5.198 -11.587,11.587 0,6.389 5.198,11.586 11.587,11.586 6.389,0 11.587,-5.197 11.587,-11.586 0,-6.389 -5.198,-11.587 -11.587,-11.587" /></g><g
           transform="translate(47.9858,60.4731)"
           id="g36"><path
             id="path38"
             style="fill:#ff5800;fill-opacity:1;fill-rule:nonzero;stroke:none"
             d="m 0,0 c -15.638,0 -28.361,-12.723 -28.361,-28.36 0,-15.639 12.723,-28.361 28.361,-28.361 15.638,0 28.36,12.722 28.36,28.361 C 28.36,-12.723 15.638,0 0,0 m 0,-60.473 c -17.707,0 -32.113,14.406 -32.113,32.113 0,17.706 14.406,32.112 32.113,32.112 17.707,0 32.112,-14.405 32.112,-32.112 0,-17.707 -14.405,-32.113 -32.112,-32.113" /></g><g
           transform="translate(47.9858,7.5044)"
           id="g40"><path
             id="path42"
             style="fill:#ff5800;fill-opacity:1;fill-rule:nonzero;stroke:none"
             d="m 0,0 c -13.569,0 -24.608,11.039 -24.608,24.608 0,13.569 11.039,24.609 24.608,24.609 1.036,0 1.876,-0.841 1.876,-1.877 0,-1.036 -0.84,-1.876 -1.876,-1.876 -11.5,0 -20.856,-9.356 -20.856,-20.856 0,-11.5 9.356,-20.856 20.856,-20.856 7.96,0 15.118,4.44 18.68,11.586 0.244,0.491 0.471,0.995 0.675,1.501 0.387,0.961 1.48,1.427 2.442,1.039 0.961,-0.387 1.426,-1.48 1.038,-2.441 -0.24,-0.598 -0.508,-1.194 -0.796,-1.772 C 20.026,9.627 16.944,6.216 13.125,3.799 9.197,1.314 4.659,0 0,0" /></g><g
           transform="translate(70.7089,29.5576)"
           id="g44"><path
             id="path46"
             style="fill:#ff5800;fill-opacity:1;fill-rule:nonzero;stroke:none"
             d="m 0,0 c -0.124,0 -0.246,0.011 -0.368,0.036 -0.12,0.024 -0.238,0.06 -0.351,0.107 -0.113,0.046 -0.221,0.105 -0.324,0.172 -0.102,0.07 -0.199,0.148 -0.286,0.235 -0.086,0.086 -0.165,0.182 -0.232,0.285 -0.067,0.101 -0.126,0.21 -0.173,0.323 -0.047,0.114 -0.082,0.232 -0.107,0.35 -0.024,0.122 -0.035,0.246 -0.035,0.368 0,0.122 0.011,0.246 0.035,0.366 0.025,0.12 0.06,0.238 0.107,0.351 0.047,0.115 0.106,0.223 0.173,0.324 0.067,0.104 0.146,0.199 0.232,0.286 0.087,0.086 0.184,0.165 0.286,0.232 0.103,0.068 0.211,0.126 0.324,0.173 0.113,0.047 0.231,0.082 0.351,0.107 C 0.242,3.838 0.889,3.638 1.326,3.203 1.413,3.116 1.491,3.021 1.559,2.917 1.626,2.816 1.685,2.708 1.731,2.593 1.778,2.48 1.814,2.362 1.838,2.242 1.863,2.122 1.874,1.998 1.874,1.876 1.874,1.754 1.863,1.63 1.838,1.508 1.814,1.39 1.778,1.272 1.731,1.158 1.685,1.045 1.626,0.936 1.559,0.835 1.491,0.732 1.413,0.636 1.326,0.55 0.977,0.199 0.493,0 0,0" /></g><g
           transform="translate(44.8535,20.5723)"
           id="g48"><path
             id="path50"
             style="fill:#ff5800;fill-opacity:1;fill-rule:nonzero;stroke:none"
             d="m 0,0 h 6.264 v 6.532 c 0,1.036 0.84,1.876 1.876,1.876 h 6.532 v 6.264 H 8.14 c -1.036,0 -1.876,0.84 -1.876,1.876 v 6.533 H 0 V 16.548 C 0,15.512 -0.84,14.672 -1.876,14.672 H -8.408 V 8.408 h 6.532 C -0.84,8.408 0,7.568 0,6.532 Z M 8.14,-3.752 H -1.876 c -1.036,0 -1.876,0.84 -1.876,1.876 v 6.532 h -6.532 c -1.036,0 -1.876,0.84 -1.876,1.876 v 10.016 c 0,1.036 0.84,1.876 1.876,1.876 h 6.532 v 6.533 c 0,1.036 0.84,1.876 1.876,1.876 H 8.14 c 1.036,0 1.876,-0.84 1.876,-1.876 v -6.533 h 6.532 c 1.036,0 1.876,-0.84 1.876,-1.876 V 6.532 c 0,-1.036 -0.84,-1.876 -1.876,-1.876 h -6.532 v -6.532 c 0,-1.036 -0.84,-1.876 -1.876,-1.876" /></g></g></g></g></svg>