<?xml version="1.0" encoding="UTF-8"?>
<!DOCTYPE svg PUBLIC "-//W3C//DTD SVG 1.1//EN" "http://www.w3.org/Graphics/SVG/1.1/DTD/svg11.dtd">
<!-- Creator: CorelDRAW X6 -->
<svg xmlns="http://www.w3.org/2000/svg" xml:space="preserve" width="300px" height="291px" version="1.1" style="shape-rendering:geometricPrecision; text-rendering:geometricPrecision; image-rendering:optimizeQuality; fill-rule:evenodd; clip-rule:evenodd"
viewBox="0 0 35623 34510"
 xmlns:xlink="http://www.w3.org/1999/xlink">
 <defs>
  <style type="text/css">
   <![CDATA[
    .fil0 {fill:url(#id0)}
   ]]>
  </style>
  <linearGradient id="id0" gradientUnits="userSpaceOnUse" x1="17811.7" y1="30714" x2="17811.7" y2="3796.1">
   <stop offset="0" style="stop-color:#C5221B"/>
   <stop offset="1" style="stop-color:#FCB825"/>
  </linearGradient>
 </defs>
 <g id="Слой_x0020_1">
  <metadata id="CorelCorpID_0Corel-Layer"/>
  <path class="fil0" d="M33536 6958l-7515 0 0 -2088c0,-2685 -2185,-4870 -4871,-4870l-6675 0c-2686,0 -4871,2185 -4871,4870l0 2088 -7517 0c-1151,0 -2087,936 -2087,2087l0 7375c0,1051 558,1974 1392,2489l0 13514c0,1151 937,2087 2088,2087l11828 0c384,0 695,-311 695,-696 0,-384 -311,-695 -695,-695l-11828 0c-384,0 -696,-313 -696,-696l0 -13084c46,2 92,3 138,3l4432 0c105,1534 1386,2751 2946,2751 1560,0 2841,-1217 2946,-2751l9133 0c105,1534 1386,2751 2946,2751 1560,0 2841,-1217 2946,-2751l4430 0c47,0 94,-1 140,-3l0 13084c0,383 -312,696 -696,696l-11271 0c-384,0 -696,311 -696,695 0,385 312,696 696,696l11271 0c1151,0 2088,-936 2088,-2087l0 -13515c833,-516 1390,-1438 1390,-2488l0 -7375c0,-1151 -936,-2087 -2087,-2087zm696 3374l-8901 0c-384,0 -696,312 -696,696 0,384 312,696 696,696l8901 0 0 4696c0,844 -687,1531 -1531,1531l-4422 0 0 -1253c0,-384 -312,-695 -696,-695l-4516 0c-384,0 -696,311 -696,695l0 1253 -9117 0 0 -1253c0,-384 -312,-695 -696,-695l-4516 0c-384,0 -696,311 -696,695l0 1253 -4424 0c-844,0 -1530,-687 -1530,-1531l0 -7375c0,-384 312,-696 695,-696l8213 0 2783 0 9459 0 2783 0 8211 0c384,0 696,312 696,696l0 1287zm-11336 204c-129,-129 -308,-204 -491,-204 -183,0 -363,75 -492,204 -130,129 -204,309 -204,492 0,183 74,362 204,492 129,129 309,204 492,204 183,0 362,-75 491,-204 130,-130 204,-309 204,-492 0,-183 -74,-363 -204,-492zm-4276 22786c-131,-129 -309,-203 -493,-203 -183,0 -362,74 -492,203 -129,130 -203,309 -203,492 0,183 74,363 203,492 130,130 310,204 492,204 183,0 362,-74 493,-204 129,-129 203,-309 203,-492 0,-183 -74,-362 -203,-492zm-7624 -28452c0,-1918 1560,-3478 3479,-3478l6675 0c1919,0 3479,1560 3479,3478l0 2088 -1391 0 0 -2088c0,-1151 -937,-2087 -2088,-2087l-6675 0c-1151,0 -2088,936 -2088,2087l0 2088 -1391 0 0 -2088zm10850 0l0 2088 -8067 0 0 -2088c0,-383 312,-695 696,-695l6675 0c384,0 696,312 696,695zm-9984 13775c0,1 0,1 0,2 0,0 0,0 0,1l0 491c0,861 -701,1562 -1562,1562 -861,0 -1562,-701 -1562,-1562l0 -1745 3124 0 0 1251zm15025 494l0 0c0,861 -701,1562 -1562,1562 -861,0 -1562,-701 -1562,-1562l0 -1745 3124 0 0 1745z"/>
 </g>
</svg>
