<?xml version="1.0" encoding="UTF-8"?>
<!DOCTYPE svg PUBLIC "-//W3C//DTD SVG 1.1//EN" "http://www.w3.org/Graphics/SVG/1.1/DTD/svg11.dtd">
<!-- Creator: CorelDRAW X6 -->
<svg xmlns="http://www.w3.org/2000/svg" xml:space="preserve" width="300px" height="178px" version="1.1" style="shape-rendering:geometricPrecision; text-rendering:geometricPrecision; image-rendering:optimizeQuality; fill-rule:evenodd; clip-rule:evenodd"
viewBox="0 0 7203 4282"
 xmlns:xlink="http://www.w3.org/1999/xlink">
 <defs>
  <style type="text/css">
   <![CDATA[
    .fil0 {fill:url(#id0)}
   ]]>
  </style>
  <linearGradient id="id0" gradientUnits="userSpaceOnUse" x1="3601.42" y1="4239.31" x2="3601.42" y2="42.824">
   <stop offset="0" style="stop-color:#C5221B"/>
   <stop offset="1" style="stop-color:#FCB825"/>
  </linearGradient>
 </defs>
 <g id="Слой_x0020_1">
  <metadata id="CorelCorpID_0Corel-Layer"/>
  <path class="fil0" d="M2640 2906l-121 0c-79,0 -143,64 -143,143 0,79 64,144 143,144l121 0c80,0 144,-65 144,-144 0,-79 -64,-143 -144,-143zm4491 -859l-415 -241 -238 -1014c-63,-270 -301,-459 -578,-459l-1194 0 0 -190c0,-79 -64,-143 -144,-143l-4419 0c-79,0 -143,64 -143,143l0 3421c0,79 64,143 143,143l462 0c66,328 357,575 704,575 347,0 637,-247 704,-575l2905 0 0 0c66,328 357,575 704,575 347,0 637,-247 704,-575l733 0c80,0 144,-64 144,-143l0 -1393c0,-51 -27,-98 -72,-124zm-5822 1948c-238,0 -432,-193 -432,-431 0,-238 194,-432 432,-432 238,0 431,194 431,432 0,238 -193,431 -431,431zm3110 -1089l-1294 0c-80,0 -144,64 -144,143 0,79 64,144 144,144l1294 0 0 227 -2406 0c-67,-328 -357,-575 -704,-575 -347,0 -638,247 -704,575l-318 0 0 -742 4132 0 0 228zm0 -2430l0 1915 -4132 0 0 -2104 4132 0 0 189zm1119 144l362 0c143,0 266,97 299,237l210 898 -871 0 0 -1135 0 0zm84 3375c-229,0 -416,-178 -431,-403 2,-9 3,-19 3,-28 0,-10 -1,-20 -3,-29 15,-225 202,-403 431,-403 238,0 431,194 431,432 0,238 -193,431 -431,431zm1294 -1256l-273 0 0 -152 273 0 0 152zm0 -439l-417 0c-79,0 -143,65 -143,144l0 439c0,79 64,143 143,143l417 0 0 394 -590 0c-67,-328 -357,-575 -704,-575 -347,0 -638,247 -704,575l-212 0 0 -2800 545 0 0 1279c0,79 64,143 144,143l1157 0 364 212 0 46 0 0z"/>
 </g>
</svg>
