<?xml version="1.0" encoding="UTF-8"?>
<!DOCTYPE svg PUBLIC "-//W3C//DTD SVG 1.1//EN" "http://www.w3.org/Graphics/SVG/1.1/DTD/svg11.dtd">
<!-- Creator: CorelDRAW X6 -->
<svg xmlns="http://www.w3.org/2000/svg" xml:space="preserve" width="300px" height="300px" version="1.1" style="shape-rendering:geometricPrecision; text-rendering:geometricPrecision; image-rendering:optimizeQuality; fill-rule:evenodd; clip-rule:evenodd"
viewBox="0 0 1176 1176"
 xmlns:xlink="http://www.w3.org/1999/xlink">
 <defs>
  <style type="text/css">
   <![CDATA[
    .fil0 {fill:#C5221B}
    .fil1 {fill:#C5221B;fill-rule:nonzero}
   ]]>
  </style>
 </defs>
 <g id="Слой_x0020_1">
  <metadata id="CorelCorpID_0Corel-Layer"/>
  <path id="Fill-121" class="fil0" d="M641 483l0 -63c0,-28 6,-43 50,-43l55 0 0 -105 -84 0c-105,0 -148,70 -148,147l0 64 -84 0 0 105 84 0 0 317 127 0 0 -317 93 0 12 -105 -105 0z"/>
  <path class="fil1" d="M588 87c-138,0 -264,56 -354,147 -91,90 -147,216 -147,354 0,139 56,264 147,355 90,90 216,146 354,146 139,0 264,-56 355,-146 90,-91 146,-216 146,-355 0,-138 -56,-264 -146,-354 -91,-91 -216,-147 -355,-147zm-416 85c107,-106 254,-172 416,-172 163,0 310,66 416,172 107,107 172,254 172,416 0,163 -65,310 -172,416 -106,107 -253,172 -416,172 -162,0 -309,-65 -416,-172 -106,-106 -172,-253 -172,-416 0,-162 66,-309 172,-416z"/>
 </g>
</svg>
