<?xml version="1.0" encoding="UTF-8"?>
<!DOCTYPE svg PUBLIC "-//W3C//DTD SVG 1.1//EN" "http://www.w3.org/Graphics/SVG/1.1/DTD/svg11.dtd">
<!-- Creator: CorelDRAW X6 -->
<svg xmlns="http://www.w3.org/2000/svg" xml:space="preserve" width="300px" height="300px" version="1.1" style="shape-rendering:geometricPrecision; text-rendering:geometricPrecision; image-rendering:optimizeQuality; fill-rule:evenodd; clip-rule:evenodd"
viewBox="0 0 33912 33912"
 xmlns:xlink="http://www.w3.org/1999/xlink">
 <defs>
  <style type="text/css">
   <![CDATA[
    .fil0 {fill:url(#id0)}
   ]]>
  </style>
  <linearGradient id="id0" gradientUnits="userSpaceOnUse" x1="16956.2" y1="32895.1" x2="16956.2" y2="1017.37">
   <stop offset="0" style="stop-color:#C5221B"/>
   <stop offset="1" style="stop-color:#FCB825"/>
  </linearGradient>
 </defs>
 <g id="Слой_x0020_1">
  <metadata id="CorelCorpID_0Corel-Layer"/>
  <path class="fil0" d="M14875 6424c-123,-123 -294,-194 -468,-194 -174,0 -345,71 -468,194 -124,123 -195,294 -195,468 0,175 71,346 195,469 123,124 294,194 468,194 174,0 345,-70 468,-194 123,-123 194,-294 194,-469 0,-174 -71,-345 -194,-468zm-4640 3229l-3180 0c-366,0 -662,296 -662,662l0 3709c0,366 296,663 662,663l3180 0c365,0 662,-297 662,-663l0 -3709c0,-366 -297,-662 -662,-662zm-663 3709l-1854 0 0 -2385 1854 0 0 2385zm663 3709l-3180 0c-366,0 -662,297 -662,662l0 3710c0,365 296,662 662,662l3180 0c365,0 662,-297 662,-662l0 -3710c0,-365 -297,-662 -662,-662zm-663 3709l-1854 0 0 -2384 1854 0 0 2384zm663 3709l-3180 0c-366,0 -662,297 -662,663l0 3709c0,366 296,662 662,662l3180 0c365,0 662,-296 662,-662l0 -3709c0,-366 -297,-663 -662,-663zm-663 3710l-1854 0 0 -2385 1854 0 0 2385zm17949 -3710l-3180 0c-366,0 -662,297 -662,663l0 3709c0,366 296,662 662,662l3180 0c365,0 662,-296 662,-662l0 -3709c0,-366 -297,-663 -662,-663zm-663 3710l-1854 0 0 -2385 1854 0 0 2385zm-10861 -18546l-3180 0c-366,0 -662,296 -662,662l0 3709c0,366 296,663 662,663l3180 0c365,0 662,-297 662,-663l0 -3709c0,-366 -297,-662 -662,-662zm-663 3709l-1854 0 0 -2385 1854 0 0 2385zm6424 -3709l-3179 0c-366,0 -662,296 -662,662l0 3709c0,366 296,663 662,663l3179 0c366,0 663,-297 663,-663l0 -3709c0,-366 -297,-662 -663,-662zm-662 3709l-1854 0 0 -2385 1854 0 0 2385zm-5099 3709l-3180 0c-366,0 -662,297 -662,662l0 3710c0,365 296,662 662,662l3180 0c365,0 662,-297 662,-662l0 -3710c0,-365 -297,-662 -662,-662zm-663 3709l-1854 0 0 -2384 1854 0 0 2384zm6424 -3709l-3179 0c-366,0 -662,297 -662,662l0 3710c0,365 296,662 662,662l3179 0c366,0 663,-297 663,-662l0 -3710c0,-365 -297,-662 -663,-662zm-662 3709l-1854 0 0 -2384 1854 0 0 2384zm6425 -11127l-3180 0c-366,0 -662,296 -662,662l0 3709c0,366 296,663 662,663l3180 0c365,0 662,-297 662,-663l0 -3709c0,-366 -297,-662 -662,-662zm-663 3709l-1854 0 0 -2385 1854 0 0 2385zm663 3709l-3180 0c-366,0 -662,297 -662,662l0 3710c0,365 296,662 662,662l3180 0c365,0 662,-297 662,-662l0 -3710c0,-365 -297,-662 -662,-662zm-663 3709l-1854 0 0 -2384 1854 0 0 2384zm6392 11808l-2484 0 0 -25695c0,-366 -297,-663 -663,-663l-3676 0 0 -2388c0,-366 -297,-663 -662,-663l-3642 0 0 -2517c0,-365 -297,-662 -663,-662l-9008 0c-366,0 -662,297 -662,662l0 2517 -3642 0c-366,0 -663,297 -663,663l0 2388 -3676 0c-366,0 -662,297 -662,663l0 25695 -2485 0c-365,0 -662,296 -662,662 0,366 297,662 662,662l32588 0c366,0 662,-296 662,-662 0,-366 -296,-662 -662,-662zm-20135 -31263l7683 0 0 1854 -7683 0 0 -1854zm6623 31263l-4583 0 4583 -4583 0 4583zm0 -6452c-15,12 -29,25 -43,39l-5521 5520 0 -2807 4249 -4248 1315 0 0 1496zm-5564 879l0 -2375 2375 0 -2375 2375zm15267 5573l-4437 0 -3941 0 0 -7948 232 0c365,0 662,-297 662,-663 0,-366 -297,-662 -662,-662l-8677 0c-366,0 -663,296 -663,662 0,366 297,663 663,663l232 0 0 7948 -8378 0 0 -25033 7352 0c366,0 663,-297 663,-662 0,-366 -297,-663 -663,-663l-3014 0 0 -1726 16292 0 0 1726 -8045 0c-366,0 -662,297 -662,663 0,365 296,662 662,662l12384 0 0 25033z"/>
 </g>
</svg>
