<?xml version="1.0" encoding="UTF-8"?>
<!DOCTYPE svg PUBLIC "-//W3C//DTD SVG 1.1//EN" "http://www.w3.org/Graphics/SVG/1.1/DTD/svg11.dtd">
<!-- Creator: CorelDRAW X6 -->
<svg xmlns="http://www.w3.org/2000/svg" xml:space="preserve" width="300px" height="300px" version="1.1" style="shape-rendering:geometricPrecision; text-rendering:geometricPrecision; image-rendering:optimizeQuality; fill-rule:evenodd; clip-rule:evenodd"
viewBox="0 0 1873 1873"
 xmlns:xlink="http://www.w3.org/1999/xlink">
 <defs>
  <style type="text/css">
   <![CDATA[
    .fil0 {fill:#E11B80}
    .fil1 {fill:white}
   ]]>
  </style>
 </defs>
 <g id="Слой_x0020_1">
  <metadata id="CorelCorpID_0Corel-Layer"/>
  <circle class="fil0" cx="937" cy="937" r="937"/>
  <g id="_184753088">
   <path id="Fill-1" class="fil1" d="M937 381c-151,0 -170,1 -229,3 -60,3 -100,12 -135,26 -37,14 -68,33 -99,64 -31,31 -50,62 -64,99 -14,35 -23,75 -26,135 -2,59 -3,78 -3,229 0,150 1,169 3,229 3,59 12,99 26,134 14,37 33,68 64,99 31,31 62,50 99,64 35,14 75,23 135,26 59,2 78,3 229,3 150,0 169,-1 229,-3 59,-3 99,-12 134,-26 37,-14 68,-33 99,-64 31,-31 50,-62 64,-99 14,-35 23,-75 26,-134 2,-60 3,-79 3,-229 0,-151 -1,-170 -3,-229 -3,-60 -12,-100 -26,-135 -14,-37 -33,-68 -64,-99 -31,-31 -62,-50 -99,-64 -35,-14 -75,-23 -134,-26 -60,-2 -79,-3 -229,-3m0 100c148,0 165,1 224,3 54,3 84,12 103,20 26,10 45,22 64,41 19,20 31,38 42,64 7,20 16,49 19,103 2,59 3,76 3,225 0,148 -1,165 -3,224 -3,54 -12,84 -19,103 -11,26 -23,45 -42,64 -19,19 -38,31 -64,42 -19,7 -49,16 -103,19 -59,2 -76,3 -224,3 -149,0 -166,-1 -225,-3 -54,-3 -84,-12 -103,-19 -26,-11 -45,-23 -64,-42 -19,-19 -31,-38 -41,-64 -8,-19 -17,-49 -20,-103 -2,-59 -3,-76 -3,-224 0,-149 1,-166 3,-225 3,-54 12,-83 20,-103 10,-26 22,-44 41,-64 19,-19 38,-31 64,-41 19,-8 49,-17 103,-20 59,-2 76,-3 225,-3z"/>
   <path id="Fill-4" class="fil1" d="M937 637c-166,0 -300,134 -300,300 0,165 134,299 300,299 165,0 299,-134 299,-299 0,-166 -134,-300 -299,-300m0 492c-107,0 -193,-86 -193,-192 0,-107 86,-193 193,-193 106,0 192,86 192,193 0,106 -86,192 -192,192z"/>
   <path id="Fill-6" class="fil1" d="M1308 642c0,37 -30,68 -68,68 -38,0 -68,-31 -68,-68 0,-38 30,-69 68,-69 38,0 68,31 68,69z"/>
  </g>
 </g>
</svg>
