<?xml version="1.0" encoding="UTF-8"?>
<!DOCTYPE svg PUBLIC "-//W3C//DTD SVG 1.1//EN" "http://www.w3.org/Graphics/SVG/1.1/DTD/svg11.dtd">
<!-- Creator: CorelDRAW X6 -->
<svg xmlns="http://www.w3.org/2000/svg" xml:space="preserve" width="300px" height="300px" version="1.1" style="shape-rendering:geometricPrecision; text-rendering:geometricPrecision; image-rendering:optimizeQuality; fill-rule:evenodd; clip-rule:evenodd"
viewBox="0 0 1871 1871"
 xmlns:xlink="http://www.w3.org/1999/xlink">
 <defs>
  <style type="text/css">
   <![CDATA[
    .fil0 {fill:#C5221B}
    .fil1 {fill:#C5221B;fill-rule:nonzero}
   ]]>
  </style>
 </defs>
 <g id="Слой_x0020_1">
  <metadata id="CorelCorpID_0Corel-Layer"/>
  <g id="_187487408">
   <path id="Fill-1" class="fil0" d="M935 380c-151,0 -170,0 -229,3 -59,3 -99,12 -135,26 -36,14 -67,33 -98,64 -31,31 -50,62 -64,98 -14,36 -23,76 -26,135 -3,59 -3,78 -3,229 0,151 0,170 3,229 3,59 12,100 26,135 14,37 33,68 64,99 31,30 62,49 98,64 36,13 76,23 135,25 59,3 78,4 229,4 151,0 170,-1 229,-4 59,-2 100,-12 135,-25 37,-15 68,-34 99,-64 30,-31 49,-62 64,-99 13,-35 23,-76 25,-135 3,-59 4,-78 4,-229 0,-151 -1,-170 -4,-229 -2,-59 -12,-99 -25,-135 -15,-36 -34,-67 -64,-98 -31,-31 -62,-50 -99,-64 -35,-14 -76,-23 -135,-26 -59,-3 -78,-3 -229,-3m0 100c149,0 166,0 225,3 54,3 83,12 103,19 26,10 44,22 64,42 19,19 31,38 41,64 8,19 17,49 19,103 3,58 4,76 4,224 0,149 -1,166 -4,225 -2,54 -11,83 -19,103 -10,26 -22,44 -41,64 -20,19 -38,31 -64,41 -20,8 -49,17 -103,19 -59,3 -76,4 -225,4 -148,0 -166,-1 -224,-4 -54,-2 -84,-11 -103,-19 -26,-10 -45,-22 -64,-41 -20,-20 -32,-38 -42,-64 -7,-20 -16,-49 -19,-103 -3,-59 -3,-76 -3,-225 0,-148 0,-166 3,-224 3,-54 12,-84 19,-103 10,-26 22,-45 42,-64 19,-20 38,-32 64,-42 19,-7 49,-16 103,-19 58,-3 76,-3 224,-3z"/>
   <path id="Fill-4" class="fil0" d="M935 636c-165,0 -299,134 -299,299 0,165 134,299 299,299 165,0 299,-134 299,-299 0,-165 -134,-299 -299,-299m0 492c-106,0 -192,-87 -192,-193 0,-106 86,-192 192,-192 106,0 193,86 193,192 0,106 -87,193 -193,193z"/>
   <path id="Fill-6" class="fil0" d="M1307 640c0,38 -31,69 -68,69 -38,0 -69,-31 -69,-69 0,-37 31,-68 69,-68 37,0 68,31 68,68z"/>
  </g>
  <path class="fil1" d="M935 138c-220,0 -419,89 -563,234 -145,144 -234,343 -234,563 0,220 89,420 234,564 144,144 343,233 563,233 220,0 420,-89 564,-233 144,-144 233,-344 233,-564 0,-220 -89,-419 -233,-563 -144,-145 -344,-234 -564,-234zm-661 136c169,-169 403,-274 661,-274 259,0 492,105 662,274 169,169 274,403 274,661 0,259 -105,492 -274,662 -170,169 -403,274 -662,274 -258,0 -492,-105 -661,-274 -169,-170 -274,-403 -274,-662 0,-258 105,-492 274,-661z"/>
 </g>
</svg>
