<svg xmlns="http://www.w3.org/2000/svg" width="22" height="21" viewBox="0 0 22 21">
  <metadata><?xpacket begin="﻿" id="W5M0MpCehiHzreSzNTczkc9d"?>
<x:xmpmeta xmlns:x="adobe:ns:meta/" x:xmptk="Adobe XMP Core 5.6-c138 79.159824, 2016/09/14-01:09:01        ">
   <rdf:RDF xmlns:rdf="http://www.w3.org/1999/02/22-rdf-syntax-ns#">
      <rdf:Description rdf:about=""/>
   </rdf:RDF>
</x:xmpmeta>
                                                                                                    
                                                                                                    
                                                                                                    
                                                                                                    
                                                                                                    
                                                                                                    
                                                                                                    
                                                                                                    
                                                                                                    
                                                                                                    
                                                                                                    
                                                                                                    
                                                                                                    
                                                                                                    
                                                                                                    
                                                                                                    
                                                                                                    
                                                                                                    
                                                                                                    
                                                                                                    
                           
<?xpacket end="w"?></metadata>
<defs>
    <style>
      .cls-1 {
        fill: #c40e26;
        stroke: #c40e26;
        stroke-linejoin: round;
        stroke-width: 1px;
        fill-rule: evenodd;
      }
    </style>
  </defs>
  <path id="сердце" class="cls-1" d="M668.01,292.991a0.5,0.5,0,0,1-.373-0.166c-1.53-1.706-6.53-7.28-6.594-7.357A4.546,4.546,0,0,1,660,282.582a4.634,4.634,0,0,1,4.679-4.577,4.753,4.753,0,0,0,6.659,0,4.634,4.634,0,0,1,4.679,4.577,4.525,4.525,0,0,1-1.03,2.864l-6.6,7.378a0.5,0.5,0,0,1-.373.167h0ZM664.674,279A3.633,3.633,0,0,0,661,282.582a3.483,3.483,0,0,0,.8,2.232c0.12,0.139,3.919,4.375,6.209,6.928l6.213-6.946a3.47,3.47,0,0,0,.789-2.214A3.633,3.633,0,0,0,671.333,279a3.686,3.686,0,0,0-2.934,1.422,0.519,0.519,0,0,1-.791,0A3.686,3.686,0,0,0,664.674,279Z" transform="translate(-657 -275)"/>
</svg>
