<?xml version="1.0" encoding="UTF-8"?>
<!DOCTYPE svg PUBLIC "-//W3C//DTD SVG 1.1//EN" "http://www.w3.org/Graphics/SVG/1.1/DTD/svg11.dtd">
<!-- Creator: CorelDRAW X6 -->
<svg xmlns="http://www.w3.org/2000/svg" xml:space="preserve" width="299px" height="90px" version="1.1" style="shape-rendering:geometricPrecision; text-rendering:geometricPrecision; image-rendering:optimizeQuality; fill-rule:evenodd; clip-rule:evenodd"
viewBox="0 0 24406 7331"
 xmlns:xlink="http://www.w3.org/1999/xlink">
 <defs>
  <style type="text/css">
   <![CDATA[
    .fil3 {fill:#C40D24}
    .fil6 {fill:#E8462C}
    .fil4 {fill:#F9B72D}
    .fil5 {fill:#FABD53}
    .fil2 {fill:black;fill-rule:nonzero}
    .fil0 {fill:#C40E26;fill-rule:nonzero}
    .fil1 {fill:#F8B62C;fill-rule:nonzero}
   ]]>
  </style>
 </defs>
 <g id="Слой_x0020_1">
  <metadata id="CorelCorpID_0Corel-Layer"/>
  <g id="_1386529088">
   <path class="fil0" d="M7344 5221l0 -3303 745 0 0 2675 1307 0 0 628 -2052 0zm2564 0l0 -2512 744 0 0 2512 -744 0zm369 -2882c-125,0 -227,-36 -309,-109 -81,-73 -121,-166 -121,-281 0,-115 40,-208 121,-279 82,-71 184,-106 309,-106 129,0 233,35 312,106 79,71 119,164 119,279 0,115 -40,208 -119,281 -79,73 -183,109 -312,109zm1029 2882l0 -2512 608 0 50 319 21 0c108,-102 226,-190 354,-266 129,-76 279,-114 451,-114 274,0 472,89 595,268 124,179 185,428 185,745l0 1560 -745 0 0 -1464c0,-182 -24,-307 -73,-375 -49,-67 -127,-101 -236,-101 -94,0 -175,21 -243,63 -67,43 -142,103 -223,180l0 1697 -744 0zm4022 61c-179,0 -346,-30 -502,-89 -155,-59 -290,-145 -405,-258 -115,-113 -204,-251 -268,-413 -64,-162 -97,-348 -97,-557 0,-203 34,-386 102,-550 67,-163 156,-302 266,-415 109,-113 235,-200 377,-261 142,-61 289,-91 441,-91 179,0 335,30 468,91 134,61 245,145 335,253 89,108 156,236 200,383 44,147 66,306 66,478 0,68 -4,132 -10,193 -7,61 -14,106 -21,137l-1504 0c34,182 109,316 225,402 117,87 259,130 428,130 168,0 554,-113 743,-186 0,0 0,1 0,2 -2,4 -5,14 -9,28 -16,53 -53,168 -88,282 -8,24 -14,46 -22,70 -16,51 -30,99 -43,138 -5,14 -9,27 -12,39 -8,26 -14,45 -17,54 -1,3 -2,5 -2,5 -165,75 -476,135 -651,135zm-557 -1591l906 0c0,-141 -32,-256 -96,-344 -64,-88 -172,-132 -324,-132 -118,0 -222,39 -312,117 -89,77 -147,197 -174,359z"/>
   <path class="fil1" d="M17663 3550l-81 303 704 0 -76 -303c-47,-166 -93,-342 -136,-527 -44,-186 -88,-365 -132,-537l-20 0c-41,175 -82,355 -125,539 -42,184 -87,359 -134,525zm-1195 1671l1033 -3303 897 0 1033 3303 -790 0 -203 -785 -1008 0 -202 785 -760 0zm4159 61c-156,0 -297,-30 -423,-91 -127,-61 -235,-148 -325,-261 -89,-113 -158,-251 -207,-413 -49,-162 -74,-346 -74,-552 0,-206 30,-390 89,-552 59,-162 137,-300 233,-413 96,-113 208,-200 334,-261 127,-61 256,-91 388,-91 142,0 258,23 349,71 92,47 181,111 269,192l-31 -385 0 -856 745 0 0 3551 -608 0 -50 -248 -21 0c-88,88 -191,161 -309,220 -118,59 -238,89 -359,89zm192 -608c81,0 155,-17 221,-51 65,-33 129,-92 189,-177l0 -1028c-67,-61 -136,-103 -207,-127 -71,-23 -140,-35 -208,-35 -118,0 -223,56 -314,169 -91,114 -137,290 -137,530 0,250 40,432 119,547 80,115 192,172 337,172zm2553 608c-165,0 -335,-32 -509,-96 -108,-40 -208,-88 -298,-144 0,0 -1,0 -1,0 180,-575 -5,13 176,-566 115,87 229,144 333,188 105,44 211,66 319,66 112,0 193,-19 244,-56 50,-37 76,-89 76,-157 0,-40 -15,-77 -43,-109 -29,-32 -68,-61 -117,-88 -49,-27 -104,-52 -165,-74 -60,-22 -123,-46 -187,-73 -78,-31 -155,-66 -233,-107 -78,-40 -149,-90 -213,-149 -64,-59 -116,-129 -157,-208 -40,-79 -61,-171 -61,-276 0,-115 23,-221 69,-319 45,-98 110,-181 195,-248 84,-68 186,-121 304,-160 118,-39 250,-58 395,-58 192,0 361,33 506,99 75,33 148,71 219,112 0,0 0,0 -173,554 -91,-68 -181,-120 -268,-157 -88,-37 -176,-56 -264,-56 -189,0 -284,66 -284,198 0,40 14,75 41,103 27,29 63,55 109,79 45,24 98,46 157,68 59,22 121,45 185,69 81,30 161,65 240,104 80,38 152,87 218,144 66,57 119,127 160,210 40,83 61,182 61,296 0,115 -22,222 -66,320 -44,98 -110,183 -198,255 -88,73 -196,130 -324,173 -128,42 -277,63 -446,63z"/>
   <path class="fil2" d="M8026 6443l0 872 -120 0 0 -769 -361 0 0 769 -120 0 0 -872 601 0zm880 -15c73,0 138,17 193,52 55,35 98,87 129,154 31,68 46,150 46,246 0,94 -15,175 -46,243 -31,68 -74,119 -129,154 -55,36 -120,54 -193,54 -74,0 -138,-18 -193,-52 -56,-35 -99,-86 -129,-153 -31,-68 -47,-150 -47,-245 0,-94 16,-175 47,-243 30,-68 74,-121 129,-156 56,-36 120,-54 193,-54zm0 99c-76,0 -135,28 -177,86 -43,57 -64,147 -64,268 0,121 22,209 64,266 43,57 102,85 177,85 160,0 241,-117 241,-352 0,-236 -81,-353 -241,-353zm1491 788l-120 0 0 -425c0,-99 5,-203 16,-313l-353 738 -155 0 0 -872 121 0 0 425c0,119 -6,224 -17,317l357 -742 151 0 0 872zm873 -887c53,0 97,6 133,20 36,14 72,35 109,66l-66 77c-53,-43 -109,-64 -168,-64 -73,0 -131,27 -175,83 -45,56 -67,145 -67,269 0,119 22,208 66,265 44,57 102,85 175,85 37,0 69,-6 97,-19 28,-12 58,-30 89,-53l59 76c-27,28 -61,51 -104,70 -42,18 -90,28 -145,28 -71,0 -134,-18 -189,-53 -56,-35 -99,-86 -130,-154 -30,-68 -46,-150 -46,-245 0,-96 16,-178 48,-245 32,-68 76,-120 131,-154 55,-35 116,-52 183,-52zm1302 15l-242 409 266 463 -140 0 -228 -409 -119 0 0 409 -120 0 0 -872 120 0 0 365 121 0 215 -365 127 0zm1494 -15c73,0 138,17 193,52 55,35 98,87 129,154 31,68 46,150 46,246 0,94 -15,175 -46,243 -31,68 -74,119 -129,154 -55,36 -120,54 -193,54 -74,0 -138,-18 -193,-52 -56,-35 -99,-86 -129,-153 -31,-68 -47,-150 -47,-245 0,-94 16,-175 47,-243 30,-68 74,-121 129,-156 56,-36 120,-54 193,-54zm0 99c-76,0 -135,28 -177,86 -43,57 -64,147 -64,268 0,121 22,209 64,266 43,57 102,85 177,85 160,0 241,-117 241,-352 0,-236 -81,-353 -241,-353zm1115 244c105,0 186,22 245,67 59,45 88,111 88,199 0,96 -30,167 -91,211 -60,45 -142,67 -247,67l-231 0 0 -872 475 0 -15 99 -339 0 0 229 115 0zm5 448c64,0 114,-13 148,-39 35,-26 52,-73 52,-141 0,-62 -17,-107 -52,-134 -34,-27 -85,-40 -152,-40l-116 0 0 354 120 0zm1140 -456c105,0 187,23 246,68 58,45 88,113 88,202 0,98 -31,170 -91,215 -60,45 -143,67 -248,67l-230 0 0 -769 -248 0 0 -103 368 0 0 320 115 0zm6 456c64,0 113,-13 148,-40 34,-26 52,-74 52,-143 0,-65 -17,-110 -52,-138 -34,-27 -85,-41 -152,-41l-117 0 0 362 121 0zm1307 -776l0 872 -120 0 0 -343 -178 0 -168 343 -137 0 190 -364c-55,-21 -96,-53 -124,-94 -29,-41 -43,-90 -43,-146 0,-85 28,-151 85,-198 56,-47 139,-70 248,-70l247 0zm-120 434l0 -340 -119 0c-75,0 -130,14 -163,43 -33,28 -50,72 -50,131 0,55 16,97 47,125 32,27 75,41 128,41l157 0zm1073 -22c60,10 109,31 146,63 37,32 55,82 55,149 0,166 -115,248 -345,248l-241 0 0 -872 207 0c110,0 195,18 253,54 59,37 88,92 88,166 0,51 -15,93 -47,127 -32,34 -70,55 -116,65zm-265 -317l0 275 132 0c51,0 92,-13 125,-37 32,-24 49,-59 49,-104 0,-51 -17,-86 -52,-105 -34,-19 -86,-29 -155,-29l-99 0zm121 681c71,0 125,-10 162,-31 38,-22 57,-62 57,-121 0,-57 -18,-99 -55,-124 -36,-25 -83,-38 -141,-38l-144 0 0 314 121 0zm1425 -776l0 872 -120 0 0 -771 -274 0 -42 376c-11,105 -25,183 -41,235 -16,52 -38,90 -65,114 -27,24 -67,45 -119,62l-29 -94c32,-12 56,-27 71,-46 16,-18 28,-46 36,-83 9,-37 18,-97 27,-179l57 -486 499 0zm1040 0l-14 96 -338 0 0 285 294 0 0 96 -294 0 0 299 363 0 0 96 -483 0 0 -872 472 0zm1008 872l0 -409 -367 0 0 409 -121 0 0 -872 121 0 0 365 367 0 0 -365 120 0 0 872 -120 0zm1300 0l-120 0 0 -425c0,-99 5,-203 16,-313l-353 738 -155 0 0 -872 120 0 0 425c0,119 -5,224 -16,317l357 -742 151 0 0 872zm1179 0l-120 0 0 -425c0,-99 6,-203 17,-313l-354 738 -154 0 0 -872 120 0 0 425c0,119 -5,224 -16,317l357 -742 150 0 0 872zm-307 -959c-52,0 -95,-14 -130,-40 -35,-27 -55,-63 -60,-109l77 -16c8,27 22,46 40,58 18,12 42,18 73,18 30,0 55,-6 74,-18 20,-13 34,-32 42,-58l78 16c-6,46 -26,82 -62,109 -36,26 -80,40 -132,40z"/>
   <g>
    <path class="fil3" d="M3533 4483c-959,-266 -1409,856 -1703,1534 395,178 833,277 1294,277 1331,0 2469,-826 2929,-1993 -7,-10 -13,-20 -20,-30 -494,498 -989,1096 -1418,982 -352,-94 -702,-664 -1082,-770z"/>
    <path class="fil4" d="M3793 2986c717,-266 1603,-978 2040,-1441 -168,-284 -380,-539 -626,-757 -277,354 -898,996 -1519,1324 -1758,850 -1377,-2453 -3338,699 -209,354 -306,589 -350,720 35,292 111,571 220,832 203,-386 1090,-2003 1960,-1945 634,43 763,883 1613,568z"/>
    <path class="fil5" d="M2651 1613c749,139 1477,-738 1970,-1207 -125,-81 -329,-183 -579,-270 -291,-88 -599,-136 -918,-136 -882,0 -1678,363 -2250,946 928,-326 1047,531 1777,667z"/>
    <path class="fil6" d="M4524 4323c425,-268 1216,-828 1746,-1255 -8,-317 -63,-622 -157,-909 -461,409 -1429,1110 -1901,1370 -1509,844 -1717,-2154 -3257,680 -123,214 -283,519 -390,771 190,265 420,498 680,692 204,-462 934,-1842 1634,-1846 563,-3 966,924 1645,497z"/>
   </g>
  </g>
 </g>
</svg>
