<?xml version="1.0" encoding="UTF-8"?>
<!DOCTYPE svg PUBLIC "-//W3C//DTD SVG 1.1//EN" "http://www.w3.org/Graphics/SVG/1.1/DTD/svg11.dtd">
<!-- Creator: CorelDRAW X6 -->
<svg xmlns="http://www.w3.org/2000/svg" xml:space="preserve" width="300px" height="300px" version="1.1" style="shape-rendering:geometricPrecision; text-rendering:geometricPrecision; image-rendering:optimizeQuality; fill-rule:evenodd; clip-rule:evenodd"
viewBox="0 0 1629 1629"
 xmlns:xlink="http://www.w3.org/1999/xlink">
 <defs>
  <style type="text/css">
   <![CDATA[
    .fil0 {fill:#C5221B}
    .fil1 {fill:#C5221B;fill-rule:nonzero}
   ]]>
  </style>
 </defs>
 <g id="Слой_x0020_1">
  <metadata id="CorelCorpID_0Corel-Layer"/>
  <g id="_954238032">
   <path id="Fill-1" class="fil0" d="M815 821c-129,0 -234,-105 -234,-233 0,-129 105,-234 234,-234 129,0 234,105 234,234 0,128 -105,233 -234,233l0 0zm0 -356c-68,0 -123,55 -123,123 0,67 55,122 123,122 68,0 123,-55 123,-122 0,-68 -55,-123 -123,-123l0 0z"/>
   <path id="Fill-2" class="fil0" d="M1065 871c-20,-25 -56,-30 -82,-10 0,1 -64,47 -168,47 -104,0 -169,-47 -169,-47 -26,-20 -63,-15 -82,11 -20,25 -15,62 10,82 4,2 65,48 166,65l-155 157c-22,23 -22,60 1,82 11,12 26,17 41,17 15,0 30,-6 41,-17l147 -148 146 148c12,11 27,17 42,17 15,0 30,-5 41,-17 23,-22 23,-59 0,-82l-155 -157c102,-17 163,-63 166,-66 25,-19 30,-56 10,-82z"/>
  </g>
  <path class="fil1" d="M815 120c-192,0 -366,78 -491,204 -126,125 -204,299 -204,491 0,191 78,365 204,490 125,126 299,204 491,204 191,0 365,-78 490,-204 126,-125 204,-299 204,-490 0,-192 -78,-366 -204,-491 -125,-126 -299,-204 -490,-204zm-576 119c147,-148 351,-239 576,-239 224,0 428,91 576,239 147,147 238,351 238,576 0,224 -91,428 -238,576 -148,147 -352,238 -576,238 -225,0 -429,-91 -576,-238 -148,-148 -239,-352 -239,-576 0,-225 91,-429 239,-576z"/>
 </g>
</svg>
