<?xml version="1.0" encoding="UTF-8"?>
<!DOCTYPE svg PUBLIC "-//W3C//DTD SVG 1.1//EN" "http://www.w3.org/Graphics/SVG/1.1/DTD/svg11.dtd">
<!-- Creator: CorelDRAW X6 -->
<svg xmlns="http://www.w3.org/2000/svg" xml:space="preserve" width="300px" height="300px" version="1.1" style="shape-rendering:geometricPrecision; text-rendering:geometricPrecision; image-rendering:optimizeQuality; fill-rule:evenodd; clip-rule:evenodd"
viewBox="0 0 1631 1631"
 xmlns:xlink="http://www.w3.org/1999/xlink">
 <defs>
  <style type="text/css">
   <![CDATA[
    .fil0 {fill:#ED953B}
    .fil1 {fill:white}
   ]]>
  </style>
 </defs>
 <g id="Слой_x0020_1">
  <metadata id="CorelCorpID_0Corel-Layer"/>
  <circle class="fil0" cx="816" cy="816" r="816"/>
  <g id="_184757824">
   <path id="Fill-1" class="fil1" d="M816 822c-129,0 -234,-105 -234,-233 0,-129 105,-234 234,-234 129,0 234,105 234,234 0,128 -105,233 -234,233l0 0zm0 -356c-68,0 -123,55 -123,123 0,67 55,122 123,122 68,0 123,-55 123,-122 0,-68 -55,-123 -123,-123l0 0z"/>
   <path id="Fill-2" class="fil1" d="M1066 873c-19,-26 -56,-31 -82,-11 0,1 -63,47 -168,47 -104,0 -169,-47 -169,-47 -26,-20 -62,-15 -82,11 -20,25 -15,62 11,82 3,2 64,48 165,65l-155 157c-22,23 -22,60 1,82 11,12 26,17 41,17 15,0 30,-5 41,-17l147 -148 146 148c12,12 27,17 42,17 15,0 30,-5 41,-17 23,-22 23,-59 1,-82l-156 -157c102,-17 163,-63 166,-65 25,-20 30,-57 10,-82z"/>
  </g>
 </g>
</svg>
