<?xml version="1.0" encoding="UTF-8"?>
<!DOCTYPE svg PUBLIC "-//W3C//DTD SVG 1.1//EN" "http://www.w3.org/Graphics/SVG/1.1/DTD/svg11.dtd">
<!-- Creator: CorelDRAW X6 -->
<svg xmlns="http://www.w3.org/2000/svg" xml:space="preserve" width="301px" height="211px" version="1.1" style="shape-rendering:geometricPrecision; text-rendering:geometricPrecision; image-rendering:optimizeQuality; fill-rule:evenodd; clip-rule:evenodd"
viewBox="0 0 1933 1356"
 xmlns:xlink="http://www.w3.org/1999/xlink">
 <defs>
  <style type="text/css">
   <![CDATA[
    .fil0 {fill:url(#id0)}
   ]]>
  </style>
  <linearGradient id="id0" gradientUnits="userSpaceOnUse" x1="966.302" y1="1288.56" x2="966.302" y2="67.8186">
   <stop offset="0" style="stop-color:#C5221B"/>
   <stop offset="1" style="stop-color:#FCB825"/>
  </linearGradient>
 </defs>
 <g id="Слой_x0020_1">
  <metadata id="CorelCorpID_0Corel-Layer"/>
  <path class="fil0" d="M1895 0l-479 0c-100,0 -182,82 -182,182 0,59 -48,107 -107,107l-56 0c-59,0 -107,-48 -107,-107 0,-48 -19,-94 -53,-129 -35,-34 -81,-53 -130,-53l-743 0c-21,0 -38,17 -38,38l0 289 0 991c0,21 17,38 38,38l1857 0c21,0 38,-17 38,-38l0 -1280c0,-21 -17,-38 -38,-38zm-162 1114c-49,0 -49,76 0,76 49,0 49,-76 0,-76zm-99 0l-279 0c-20,0 -37,17 -37,38 0,21 17,38 37,38l279 0c21,0 38,-17 38,-38 0,-21 -17,-38 -38,-38zm-1558 -1038l705 0c29,0 56,11 76,31 20,20 31,47 31,75 0,40 13,77 35,107l-847 0 0 -213zm1781 1205l-1781 0 0 -916 1051 0c101,0 183,-82 183,-183 0,-58 48,-106 106,-106l441 0 0 1205 0 0z"/>
 </g>
</svg>
