<?xml version="1.0" encoding="UTF-8"?>
<!DOCTYPE svg PUBLIC "-//W3C//DTD SVG 1.1//EN" "http://www.w3.org/Graphics/SVG/1.1/DTD/svg11.dtd">
<!-- Creator: CorelDRAW X6 -->
<svg xmlns="http://www.w3.org/2000/svg" xml:space="preserve" width="300px" height="300px" version="1.1" style="shape-rendering:geometricPrecision; text-rendering:geometricPrecision; image-rendering:optimizeQuality; fill-rule:evenodd; clip-rule:evenodd"
viewBox="0 0 1945 1945"
 xmlns:xlink="http://www.w3.org/1999/xlink">
 <defs>
  <style type="text/css">
   <![CDATA[
    .fil0 {fill:url(#id0)}
   ]]>
  </style>
  <linearGradient id="id0" gradientUnits="userSpaceOnUse" x1="973.654" y1="1886.47" x2="973.654" y2="57.5435">
   <stop offset="0" style="stop-color:#C5221B"/>
   <stop offset="1" style="stop-color:#FCB825"/>
  </linearGradient>
 </defs>
 <g id="Слой_x0020_1">
  <metadata id="CorelCorpID_0Corel-Layer"/>
  <path class="fil0" d="M1528 342c0,-1 0,-1 -1,-1 -2,-3 -4,-5 -6,-8 0,-1 -1,-1 -1,-2 -3,-3 -6,-6 -8,-9 -44,-48 -104,-76 -169,-79 -65,-4 -127,19 -175,63 -48,43 -77,103 -80,168 -3,65 20,127 63,176 3,3 6,6 9,9 1,1 2,1 2,2 3,2 5,5 8,7 0,0 1,1 2,2 2,2 5,4 8,6 0,1 1,1 1,1 3,3 6,5 9,7 0,0 1,0 1,1 37,26 82,42 129,44 4,0 8,0 12,0 53,0 103,-17 145,-48 0,0 0,0 0,0 3,-2 6,-4 8,-6 1,-1 1,-1 1,-1 3,-3 6,-5 9,-8 3,-3 6,-6 9,-9 1,0 1,0 1,-1 3,-2 5,-5 8,-8 0,0 0,0 0,0 37,-41 59,-94 62,-150 2,-57 -14,-112 -47,-156zm-1170 1020c-94,0 -170,77 -170,171 0,94 76,170 170,170 95,0 171,-76 171,-170 0,-94 -76,-171 -171,-171zm0 266c-52,0 -94,-43 -94,-95 0,-52 42,-95 94,-95 53,0 95,43 95,95 0,52 -42,95 -95,95zm851 -103c-1,-2 -2,-4 -3,-7 0,-2 -2,-4 -3,-6 -1,-2 -3,-4 -5,-6 -2,-2 -3,-3 -6,-5 -2,-1 -4,-2 -6,-3 -2,-1 -5,-2 -7,-2 -5,-1 -10,-1 -15,0 -2,0 -5,1 -7,2 -2,1 -5,2 -7,3 -2,2 -4,3 -5,5 -2,2 -4,4 -5,6 -2,2 -3,4 -4,6 -1,3 -1,5 -2,7 0,3 -1,5 -1,8 0,2 1,5 1,7 1,3 1,5 2,7 1,3 2,5 4,7 1,2 3,4 5,6 1,1 3,3 5,4 2,2 5,3 7,4 2,1 5,2 7,2 2,1 5,1 7,1 3,0 5,0 8,-1 2,0 5,-1 7,-2 2,-1 4,-2 6,-4 3,-1 4,-3 6,-4 2,-2 4,-4 5,-6 1,-2 3,-4 3,-7 1,-2 2,-4 3,-7 0,-2 0,-5 0,-7 0,-3 0,-5 0,-8zm684 136c-4,0 -205,-1 -271,-1 -4,0 -11,-5 -14,-9 -1,-2 -1,-2 -2,-3 -34,-41 -74,-94 -84,-115 10,-22 50,-75 85,-117 1,-1 2,-2 3,-3 0,0 6,-8 18,-8 70,0 263,0 264,0 20,0 37,-9 46,-25 9,-16 9,-35 0,-52 -74,-128 -211,-207 -358,-207 -167,0 -317,101 -380,254l-520 0c-58,-119 -181,-201 -322,-201 -197,0 -358,161 -358,359 0,198 161,358 358,358 141,0 264,-81 322,-200l520 0c63,153 213,254 380,254 148,0 285,-80 358,-208 9,-15 9,-35 0,-51 -9,-16 -26,-25 -45,-25zm-1252 -114c0,1 -1,3 -1,4 0,4 0,7 0,10 -1,2 -1,3 -1,5 0,3 -1,6 -1,9 0,2 -1,4 -1,6 -1,2 -1,5 -2,7 0,2 0,5 -1,7 0,2 -1,4 -2,7 0,2 -1,4 -1,6 -1,3 -2,5 -2,7 -1,2 -2,4 -2,7 -1,2 -2,4 -3,6 0,2 -1,4 -2,7 -41,105 -144,180 -264,180 -155,0 -282,-126 -282,-282 0,-156 127,-283 282,-283 120,0 223,75 264,181 1,2 2,5 3,7 0,2 1,4 1,6 1,2 2,5 3,7 0,2 1,4 2,6 0,3 1,5 1,7 1,2 2,5 2,7 1,2 1,4 1,6 1,3 1,6 2,8 0,2 1,4 1,6 0,3 1,6 1,8 0,2 0,4 1,6 0,3 0,6 0,9 0,2 1,3 1,5 0,4 0,9 0,14 0,5 0,9 0,14zm939 322c-144,0 -272,-92 -318,-228 -5,-16 -20,-26 -36,-26 0,0 -1,0 -1,0l-2 0 -516 0c0,0 0,0 1,0 1,-7 2,-13 3,-19 1,-2 1,-3 1,-4 0,-2 1,-4 1,-6 0,-1 0,-3 1,-4 0,-2 0,-4 0,-6 0,-1 1,-2 1,-4 0,0 0,-1 0,-1l331 0c21,0 38,-17 38,-38 0,-21 -17,-38 -38,-38l-331 0c0,-1 0,-1 0,-1 0,-2 -1,-3 -1,-5 0,-1 0,-3 0,-5 -1,-2 -1,-3 -1,-4 0,-2 -1,-4 -1,-6 0,-2 0,-3 -1,-4 -1,-6 -2,-13 -3,-19 -1,0 -1,0 -1,0l516 0 2 0c17,0 31,-10 37,-26 46,-136 174,-228 318,-228 105,0 204,50 267,132 -62,0 -170,0 -219,0 -47,0 -73,30 -80,39 -4,5 -26,32 -48,61 -46,62 -55,86 -55,104 0,11 0,40 102,162 6,9 33,41 75,41 47,0 161,1 225,1 -63,82 -162,132 -267,132zm209 -1469l-64 -18c-6,-23 -14,-46 -24,-68l29 -45c10,-15 8,-34 -3,-47l-96 -104c-11,-13 -30,-17 -45,-9l-48 26c-21,-13 -43,-23 -66,-31l-11 -66c-3,-17 -18,-30 -36,-31l-141 -7c-18,-1 -34,11 -39,28l-17 64c-23,6 -46,14 -68,25l-46 -30c-14,-10 -33,-8 -46,4l-105 95c-13,12 -16,30 -8,46l25 48c-4,7 -9,15 -13,23l-54 -59c-11,-13 -30,-16 -45,-8l-48 25c-21,-12 -43,-23 -66,-31l-11 -65c-3,-18 -18,-31 -36,-32l-141 -7c-18,0 -34,11 -39,28l-17 64c-23,6 -46,15 -68,25l-46 -30c-14,-9 -33,-8 -46,4l-105 95c-13,12 -16,31 -8,46l25 48c-12,21 -23,43 -31,66l-65 11c-18,3 -31,17 -32,35l-6 142c-1,18 10,34 28,38l63 18c7,23 15,46 25,68l-30 45c-9,15 -8,34 4,47l95 104c12,13 31,17 46,9l48 -26c21,13 43,23 66,31l11 66c3,17 18,30 35,31l142 7c1,0 1,0 2,0 17,0 32,-11 37,-28l17 -64c23,-6 46,-14 68,-25l45 30c15,10 34,8 47,-3l105 -96c12,-11 16,-30 8,-46l-25 -47c4,-8 8,-16 12,-24l54 59c12,13 31,16 46,8l48 -25c21,12 43,23 66,31l11 65c3,18 18,31 36,32l141 7c1,0 1,0 2,0 17,0 32,-12 37,-28l17 -64c23,-6 46,-15 68,-25l45 30c15,9 34,8 47,-4l105 -95c13,-12 16,-31 8,-46l-25 -48c12,-21 22,-43 31,-66l65 -11c17,-3 31,-17 31,-35l7 -142c1,-18 -11,-34 -28,-38zm-851 294c-2,3 -4,6 -5,9l0 0c0,0 -1,0 -1,0 0,1 -1,2 -2,4 0,0 0,0 0,1 -1,1 -1,2 -2,3 0,0 0,0 0,0 0,2 0,3 -1,4 0,1 0,1 0,1 0,2 0,3 -1,5 0,0 0,0 0,0 -9,26 -21,51 -37,75 -8,11 -8,26 -2,39l22 41 -62 55 -38 -25c-12,-8 -27,-8 -39,-2 -29,16 -60,27 -91,33 -15,3 -26,13 -30,27l-15 57 -80 -4 -10 -58c-3,-14 -13,-26 -27,-30 -31,-9 -60,-23 -87,-41 -12,-8 -27,-9 -39,-2l-41 22 -56 -62 26 -39c7,-11 8,-26 1,-38 -15,-29 -26,-60 -32,-92 -3,-14 -14,-25 -28,-29l-56 -15 4 -81 57 -9c14,-3 26,-13 30,-27 10,-31 24,-60 42,-87 7,-12 8,-27 2,-39l-22 -41 61 -56 39 25c12,8 27,9 39,2 29,-15 59,-26 91,-33 14,-2 26,-13 29,-27l16 -56 80 4 10 57c2,14 13,26 26,30 31,9 61,23 88,41 12,8 26,9 39,2l41 -21 32 35 -25 4c-18,3 -31,18 -32,36l-6 141c0,3 0,5 0,7 -4,-13 -9,-26 -15,-38 -1,0 -1,-1 -1,-1 -1,-3 -2,-5 -4,-7 0,-1 -1,-2 -1,-3 -1,-2 -2,-4 -4,-6 -1,-1 -2,-2 -2,-4 -2,-2 -4,-5 -5,-7 -1,-2 -3,-4 -4,-5 -1,-2 -2,-3 -3,-4 -1,-2 -2,-4 -4,-5 -1,-1 -1,-2 -2,-3 -3,-3 -5,-6 -7,-9 -3,-2 -5,-5 -8,-7 -1,-1 -2,-2 -2,-3 -2,-2 -4,-3 -6,-5 -1,-1 -2,-2 -3,-3 -2,-1 -4,-3 -5,-5 -2,-1 -4,-2 -6,-4 -1,-1 -3,-2 -4,-4 -2,-1 -4,-2 -5,-3 -1,-1 -2,-2 -4,-2 -1,-2 -3,-3 -5,-4 -1,-1 -1,-1 -2,-1 -7,-5 -14,-9 -22,-13 0,0 0,0 0,0 -11,-5 -22,-10 -33,-13 0,0 0,0 0,0 -3,-1 -6,-2 -9,-3 0,0 0,0 0,0 -8,-2 -15,-4 -23,-5 -2,-1 -4,-1 -6,-1 -2,-1 -3,-1 -5,-1 -2,0 -4,-1 -7,-1 -1,0 -2,0 -3,0 -4,-1 -7,-1 -11,-1 -4,0 -8,0 -12,0 -38,0 -76,9 -110,26 0,0 -1,1 -1,1 -3,1 -5,2 -8,4 -1,0 -2,1 -3,1 -2,2 -4,3 -6,4 -1,1 -2,2 -4,3 -1,1 -3,2 -5,3 -1,1 -3,2 -5,3 -1,1 -2,2 -4,3 -2,2 -4,3 -5,5 -2,1 -3,2 -4,2 -3,3 -5,5 -8,8 0,0 0,0 0,0 -4,3 -7,6 -11,10 0,1 -1,2 -2,2 -3,3 -5,6 -8,9 0,1 -1,1 -2,2 -3,4 -6,7 -8,11 0,0 0,0 0,0 -30,39 -46,85 -49,135 -2,42 7,84 26,122 0,0 1,0 1,1 1,2 2,4 3,6 1,1 1,2 2,3 1,2 2,4 3,6 1,1 2,2 3,4 1,2 3,5 5,8 1,1 2,3 4,5 1,1 1,2 2,3 2,2 3,4 5,6 0,1 1,2 2,3 2,3 5,5 7,8 3,3 5,5 7,8 1,0 2,1 3,2 2,2 3,3 5,5 1,1 3,2 4,3 2,2 4,4 6,5 1,2 3,3 5,4 0,1 1,2 2,2 31,24 66,40 105,47 2,0 4,0 6,1 2,0 3,0 5,0 2,1 4,1 6,1 2,0 3,1 4,1 4,0 7,0 11,0 4,1 7,1 11,1 0,0 0,0 0,0 1,0 1,0 1,0 39,0 76,-10 110,-27 1,0 1,0 1,0 3,-2 6,-3 9,-5 0,0 1,-1 1,-1 3,-1 5,-3 8,-4 1,-1 1,-2 2,-2 2,-1 4,-3 6,-4 2,-1 3,-2 4,-3 2,-1 4,-2 5,-4 2,-1 4,-2 5,-4 1,-1 3,-1 4,-2 3,-3 5,-5 8,-8 3,-2 5,-4 8,-7 1,-1 2,-2 3,-3 1,-1 2,-3 3,-4 2,-1 3,-3 5,-4 0,0 0,0 0,0 34,-39 55,-87 60,-139l0 0c0,-3 0,-6 0,-9 0,-1 1,-2 1,-2 0,-1 0,-1 0,-2 0,-3 0,-6 0,-9 0,-1 0,-3 0,-5 0,-1 0,-3 0,-4 -1,-18 -3,-36 -8,-52 5,9 14,17 25,20l63 17c7,24 15,47 25,69l-24 36zm-157 -86c0,3 0,6 0,8 0,1 0,2 0,2 0,3 -1,6 -1,9 0,0 0,1 0,1l0 1c0,5 -1,9 -2,14l0 3c-3,14 -8,28 -15,42 -1,2 -2,4 -3,6 -3,4 -5,8 -8,12 -2,4 -5,7 -7,10 -1,1 -1,2 -2,3 -2,2 -5,5 -7,7 -1,1 -2,2 -3,3 0,1 -1,2 -2,2 -1,2 -3,4 -5,5 -2,2 -4,4 -6,6 -1,0 -1,0 -2,1 -1,1 -3,2 -5,4 0,0 -1,0 -1,1 -2,1 -4,2 -5,3 -1,1 -1,1 -2,1 -2,2 -4,3 -6,4 0,0 0,0 -1,1 -42,25 -93,29 -138,14 -1,0 -2,-1 -2,-1 -2,-1 -4,-1 -6,-2 -1,-1 -3,-1 -4,-2 -2,0 -3,-1 -5,-2 -3,-1 -5,-2 -8,-4 -1,0 -2,-1 -3,-2 -2,-1 -4,-2 -6,-3 -1,0 -2,-1 -3,-2 -2,-1 -5,-3 -7,-5 -1,0 -1,0 -1,0 -3,-2 -6,-4 -8,-7 -1,0 -2,-1 -2,-1 -2,-2 -4,-4 -6,-6 -1,0 -2,-1 -2,-2 -3,-2 -5,-5 -8,-7 -2,-3 -5,-6 -7,-9 0,-1 -1,-1 -2,-2 -2,-3 -4,-6 -6,-9l0 0c-2,-3 -4,-7 -6,-10 -1,-1 -1,-1 -1,-1 -2,-4 -4,-7 -6,-11 -1,-3 -2,-6 -4,-10 0,0 0,0 0,0 -18,-47 -14,-100 10,-143 1,0 1,-1 1,-1 2,-3 3,-6 5,-9 0,0 0,0 0,0 2,-3 4,-5 6,-8 0,0 1,-1 1,-1 2,-2 3,-4 5,-7 1,0 1,-1 2,-2 2,-2 3,-3 5,-5 0,-1 1,-1 2,-2 2,-2 4,-5 7,-7 2,-2 4,-3 6,-5 0,0 1,-1 1,-1 2,-1 3,-2 4,-4 1,0 2,-1 3,-1 1,-1 2,-2 4,-3 1,-1 2,-1 3,-2 1,-1 2,-1 3,-2 1,-1 2,-2 4,-2 0,-1 1,-1 2,-2 2,-1 3,-1 5,-2 0,-1 1,-1 1,-1 2,-1 4,-2 6,-3 0,0 0,0 1,0 2,-1 4,-2 6,-3 0,0 0,0 0,0 6,-2 12,-4 18,-6 5,-1 9,-2 13,-3 3,-1 6,-1 9,-2 5,0 10,-1 15,-1 3,0 6,0 8,0 3,0 6,0 8,0 0,0 0,0 1,0 2,0 4,0 7,0 1,0 2,1 2,1 2,0 3,0 5,0 1,0 2,0 3,1 2,0 3,0 5,0 0,1 1,1 1,1 3,0 6,1 8,1 2,1 4,1 5,2 1,0 1,0 2,0 1,1 3,1 5,2 0,0 1,0 1,0 6,2 11,4 16,6 0,0 1,1 1,1 1,0 3,1 5,2 0,0 1,0 1,1 2,0 3,1 5,2 0,0 0,0 0,0 3,2 6,4 9,5 0,1 1,1 2,2 1,0 2,1 3,2 1,1 2,1 3,2 1,1 2,1 3,2 1,1 3,2 4,3 1,1 2,2 3,2 1,2 2,3 4,4 0,1 1,1 2,2 1,1 2,2 4,3 0,1 1,2 1,2 2,2 4,4 5,6 0,0 0,0 0,0 0,0 0,0 0,0 2,1 4,3 5,5 1,1 1,1 2,2 1,1 2,3 3,4 1,1 1,2 2,2 1,2 2,3 3,5 0,0 1,1 1,1 1,2 2,4 4,6 0,1 1,2 1,3 1,1 2,2 2,3 1,2 1,3 2,4 1,1 1,2 1,3 1,1 2,2 2,3 1,3 3,5 4,8 1,3 2,6 3,9 0,0 0,0 0,1 5,15 8,31 9,48 0,0 0,1 0,1zm955 -62l-57 9c-15,3 -26,13 -30,27 -10,31 -24,60 -42,87 -7,12 -8,27 -2,39l22 41 -61 56 -39 -25c-12,-8 -27,-9 -39,-2 -29,15 -60,26 -91,33 -15,3 -26,13 -30,27l-15 56 -80 -4 -10 -57c-2,-14 -13,-26 -26,-30 -32,-9 -61,-23 -88,-41 -12,-8 -27,-9 -39,-2l-41 21 -56 -61 26 -39c4,-6 6,-12 6,-19 0,-7 -1,-14 -5,-20 -15,-28 -26,-59 -32,-91 -3,-14 -14,-25 -28,-29l-56 -15 4 -81 57 -10c0,0 0,0 0,0l0 0c1,0 1,0 2,0 0,0 1,0 2,-1 13,-3 23,-13 26,-25 0,0 1,-1 1,-1 0,0 0,0 0,0 0,-1 0,-1 0,-2l1 -2c0,0 0,0 0,0 9,-29 23,-57 40,-83 7,-11 8,-26 2,-39l-22 -41 61 -55 39 25c12,8 27,8 39,2 29,-16 59,-27 91,-33 14,-3 26,-13 30,-27l15 -57 80 4 10 58c2,14 13,26 26,30 31,9 61,23 88,41 12,8 27,9 39,2l41 -22 56 62 -26 39c-7,11 -8,26 -1,38 15,29 26,60 32,92 3,14 14,25 28,29l56 15 -4 81zm-280 52c0,0 0,0 0,0 -1,2 -3,3 -5,5 0,0 0,1 -1,1 -2,2 -4,4 -6,6 -2,2 -4,4 -6,5 -1,1 -1,1 -1,1 -2,2 -4,3 -6,5 0,0 0,0 0,0 -64,47 -152,42 -211,-10 0,0 0,0 0,0 -2,-2 -4,-4 -6,-5 0,-1 0,-1 -1,-1 -2,-2 -4,-4 -6,-6 -3,-5 -7,-9 -10,-13 -22,-29 -33,-64 -33,-100 0,-3 0,-5 0,-8 2,-34 13,-65 33,-92 6,-8 14,-17 22,-24 28,-26 62,-40 97,-43 5,0 10,-1 15,-1 46,0 91,19 124,55 2,2 4,4 6,7 0,0 1,0 1,1 1,2 3,3 4,5 0,0 0,1 0,1 47,63 43,152 -10,211z"/>
 </g>
</svg>
