<?xml version="1.0" encoding="UTF-8"?>
<!DOCTYPE svg PUBLIC "-//W3C//DTD SVG 1.1//EN" "http://www.w3.org/Graphics/SVG/1.1/DTD/svg11.dtd">
<!-- Creator: CorelDRAW X6 -->
<svg xmlns="http://www.w3.org/2000/svg" xml:space="preserve" width="300px" height="306px" version="1.1" style="shape-rendering:geometricPrecision; text-rendering:geometricPrecision; image-rendering:optimizeQuality; fill-rule:evenodd; clip-rule:evenodd"
viewBox="0 0 4993 5088"
 xmlns:xlink="http://www.w3.org/1999/xlink">
 <defs>
  <style type="text/css">
   <![CDATA[
    .fil0 {fill:url(#id0)}
   ]]>
  </style>
  <linearGradient id="id0" gradientUnits="userSpaceOnUse" x1="2496.46" y1="4223.09" x2="2496.46" y2="864.969">
   <stop offset="0" style="stop-color:#C5221B"/>
   <stop offset="1" style="stop-color:#FCB825"/>
  </linearGradient>
 </defs>
 <g id="Слой_x0020_1">
  <metadata id="CorelCorpID_0Corel-Layer"/>
  <path class="fil0" d="M4549 0l-4105 0c-245,0 -444,172 -444,384l0 4608c0,53 50,96 111,96l4771 0c61,0 111,-43 111,-96l0 -4608c0,-212 -199,-384 -444,-384zm-2036 2111c-452,0 -820,368 -820,820 0,53 43,96 96,96 53,0 96,-43 96,-96 0,-346 281,-628 628,-628 53,0 96,-43 96,-96 0,-53 -43,-96 -96,-96zm-148 -1726l-185 0c-53,0 -96,43 -96,96 0,53 43,96 96,96l185 0c53,0 96,-43 96,-96 0,-53 -43,-96 -96,-96zm-568 0l-864 0c-53,0 -96,43 -96,96 0,53 43,96 96,96l864 0c53,0 96,-43 96,-96 0,-53 -43,-96 -96,-96zm1536 -95c-105,0 -191,86 -191,191 0,105 86,191 191,191 106,0 191,-86 191,-191 0,-105 -85,-191 -191,-191zm763 191c0,-105 -86,-191 -191,-191 -105,0 -191,86 -191,191 0,105 86,191 191,191 105,0 191,-86 191,-191zm-1583 863c-876,0 -1588,712 -1588,1587 0,875 712,1587 1588,1587 875,0 1587,-712 1587,-1587 0,-875 -712,-1587 -1587,-1587zm0 2982c-770,0 -1396,-626 -1396,-1395 0,-770 626,-1396 1396,-1396 584,0 1085,361 1293,872l-88 0c-41,0 -80,7 -117,19 -195,-420 -620,-695 -1088,-695 -662,0 -1200,538 -1200,1200 0,661 538,1199 1200,1199 468,0 893,-275 1088,-694 37,12 76,19 117,19l88 0c-208,510 -709,871 -1293,871zm1098 -1096c-2,-1 -4,-3 -5,-4 -48,-35 -80,-91 -80,-155l0 -280c0,-64 32,-120 80,-155 1,-2 3,-3 5,-4 31,-21 68,-33 107,-33l150 0c26,106 40,218 40,332 0,114 -14,225 -40,332l-150 0c-39,0 -76,-12 -107,-33zm-174 102c-159,365 -522,606 -924,606 -556,0 -1008,-452 -1008,-1007 0,-556 452,-1008 1008,-1008 402,0 765,242 924,607 -64,68 -103,160 -103,261l0 280c0,101 39,192 103,261zm-3215 1564l0 -3936 3775 0c61,0 111,-43 111,-96 0,-53 -50,-96 -111,-96l-3775 0 0 -384c0,-106 99,-192 222,-192l4105 0c122,0 222,86 222,192l0 384 -329 0c-62,0 -111,43 -111,96 0,53 49,96 111,96l329 0 0 3936 -4549 0z"/>
 </g>
</svg>
