<?xml version="1.0" encoding="UTF-8"?>
<!DOCTYPE svg PUBLIC "-//W3C//DTD SVG 1.1//EN" "http://www.w3.org/Graphics/SVG/1.1/DTD/svg11.dtd">
<!-- Creator: CorelDRAW X6 -->
<svg xmlns="http://www.w3.org/2000/svg" xml:space="preserve" width="300px" height="258px" version="1.1" style="shape-rendering:geometricPrecision; text-rendering:geometricPrecision; image-rendering:optimizeQuality; fill-rule:evenodd; clip-rule:evenodd"
viewBox="0 0 2903 2501"
 xmlns:xlink="http://www.w3.org/1999/xlink">
 <defs>
  <style type="text/css">
   <![CDATA[
    .fil0 {fill:url(#id0)}
   ]]>
  </style>
  <linearGradient id="id0" gradientUnits="userSpaceOnUse" x1="1451.35" y1="2150.03" x2="1451.35" y2="344.245">
   <stop offset="0" style="stop-color:#C5221B"/>
   <stop offset="1" style="stop-color:#FCB825"/>
  </linearGradient>
 </defs>
 <g id="Слой_x0020_1">
  <metadata id="CorelCorpID_0Corel-Layer"/>
  <path class="fil0" d="M2900 1069l-335 -1030c-9,-30 -41,-46 -71,-36l-2455 797c-30,10 -46,42 -36,72l158 487c0,1 0,2 0,3l0 1082c0,32 25,57 57,57l2581 0c31,0 57,-25 57,-57l0 -1082c0,-31 -26,-57 -57,-57l-444 0 509 -165c29,-10 46,-42 36,-71zm-1383 719l-544 0c-32,0 -57,26 -57,57 0,31 25,57 57,57l544 0c31,0 56,-26 56,-57 0,-31 -25,-57 -56,-57zm709 378l-93 0c-32,0 -57,25 -57,56 0,32 25,57 57,57l93 0c31,0 56,-25 56,-57 0,-31 -25,-56 -56,-56zm301 0l-93 0c-32,0 -57,25 -57,56 0,32 25,57 57,57l93 0c31,0 57,-25 57,-57 0,-31 -26,-56 -57,-56zm0 -378l-294 0c-32,0 -57,26 -57,57 0,31 25,57 57,57l294 0c31,0 57,-26 57,-57 0,-31 -26,-57 -57,-57zm-1611 -160c0,32 25,57 57,57l1554 0c31,0 56,-25 56,-57 0,-31 -25,-56 -56,-56l-1554 0c-32,0 -57,25 -57,56zm-271 554c-31,0 -57,26 -57,57l0 22c0,32 26,57 57,57 31,0 57,-25 57,-57l0 -22c0,-31 -26,-57 -57,-57zm779 -1324l-518 168c-29,10 -46,42 -36,72 8,24 30,39 54,39 6,0 12,-1 17,-3l518 -168c30,-9 46,-41 36,-71 -10,-30 -41,-46 -71,-37zm791 140l-89 29c-29,10 -46,42 -36,71 8,24 30,40 54,40 6,0 12,-1 17,-3l89 -29c30,-10 46,-42 36,-71 -9,-30 -41,-47 -71,-37zm161 7c8,24 30,39 54,39 6,0 12,0 18,-2l88 -29c30,-10 46,-42 37,-72 -10,-29 -42,-46 -72,-36l-88 29c-30,10 -46,42 -37,71zm-236 -260l280 -91c29,-10 46,-42 36,-71 -10,-30 -42,-47 -71,-37l-280 91c-30,10 -46,42 -37,71 8,24 30,40 54,40 6,0 12,-1 18,-3zm249 -368c-10,-30 -42,-46 -71,-37l-1479 481c-29,9 -46,41 -36,71 8,24 30,39 54,39 6,0 12,-1 18,-3l1478 -480c29,-10 46,-42 36,-71zm353 1042l0 969 -2468 0 0 -969 314 0 0 631c0,32 26,57 57,57 31,0 57,-25 57,-57l0 -631 1295 0 745 0zm-754 -114l-1725 0 -135 -414 299 -97 114 347c8,24 30,39 54,39 6,0 12,-1 18,-3 30,-10 46,-42 36,-71l-114 -347 1940 -631 300 922 -787 255z"/>
 </g>
</svg>
