<?xml version="1.0" encoding="UTF-8"?>
<!DOCTYPE svg PUBLIC "-//W3C//DTD SVG 1.1//EN" "http://www.w3.org/Graphics/SVG/1.1/DTD/svg11.dtd">
<!-- Creator: CorelDRAW X6 -->
<svg xmlns="http://www.w3.org/2000/svg" xml:space="preserve" width="300px" height="300px" version="1.1" style="shape-rendering:geometricPrecision; text-rendering:geometricPrecision; image-rendering:optimizeQuality; fill-rule:evenodd; clip-rule:evenodd"
viewBox="0 0 1300 1300"
 xmlns:xlink="http://www.w3.org/1999/xlink">
 <defs>
  <style type="text/css">
   <![CDATA[
    .fil0 {fill:#55ACEE}
    .fil1 {fill:white}
   ]]>
  </style>
 </defs>
 <g id="Слой_x0020_1">
  <metadata id="CorelCorpID_0Corel-Layer"/>
  <circle class="fil0" cx="650" cy="650" r="650"/>
  <path id="Fill-122" class="fil1" d="M993 437c-25,11 -52,19 -81,22 30,-17 52,-45 62,-78 -27,16 -57,28 -89,34 -26,-27 -62,-44 -103,-44 -78,0 -141,63 -141,141 0,11 1,22 4,32 -117,-6 -221,-62 -290,-147 -13,20 -20,45 -20,70 0,49 25,92 63,118 -23,-1 -45,-7 -64,-18l0 2c0,68 49,125 113,138 -11,3 -24,5 -37,5 -9,0 -18,-1 -26,-3 18,56 70,97 131,98 -48,38 -109,61 -175,61 -11,0 -22,-1 -33,-2 62,40 136,63 215,63 260,0 402,-214 402,-401 0,-6 -1,-12 -1,-18 28,-20 51,-45 70,-73z"/>
 </g>
</svg>
