<?xml version="1.0" encoding="UTF-8"?>
<!DOCTYPE svg PUBLIC "-//W3C//DTD SVG 1.1//EN" "http://www.w3.org/Graphics/SVG/1.1/DTD/svg11.dtd">
<!-- Creator: CorelDRAW X6 -->
<svg xmlns="http://www.w3.org/2000/svg" xml:space="preserve" width="300px" height="300px" version="1.1" style="shape-rendering:geometricPrecision; text-rendering:geometricPrecision; image-rendering:optimizeQuality; fill-rule:evenodd; clip-rule:evenodd"
viewBox="0 0 1300 1300"
 xmlns:xlink="http://www.w3.org/1999/xlink">
 <defs>
  <style type="text/css">
   <![CDATA[
    .fil1 {fill:#C5221B}
    .fil2 {fill:#C5221B;fill-rule:nonzero}
   ]]>
  </style>
 </defs>
 <g id="Слой_x0020_1">
  <metadata id="CorelCorpID_0Corel-Layer"/>
  <path class="fil0" d="M1205 650c0,307 -248,555 -555,555 -306,0 -555,-248 -555,-555 0,-306 249,-555 555,-555 307,0 555,249 555,555z"/>
  <path id="Fill-122" class="fil1" d="M994 437c-25,11 -52,19 -81,22 29,-17 52,-45 62,-78 -27,16 -57,28 -89,34 -26,-27 -63,-45 -104,-45 -77,0 -141,64 -141,142 0,11 2,22 4,32 -117,-6 -221,-62 -291,-148 -12,21 -19,45 -19,71 0,49 25,92 63,118 -23,-1 -45,-7 -64,-18l0 2c0,68 49,125 113,138 -12,4 -24,5 -37,5 -9,0 -18,-1 -27,-2 18,56 71,97 132,98 -48,38 -109,60 -175,60 -11,0 -23,0 -34,-2 63,41 137,64 216,64 260,0 402,-215 402,-402 0,-6 0,-12 0,-18 27,-20 51,-45 70,-73z"/>
  <path class="fil2" d="M650 96c-153,0 -291,62 -392,162 -100,101 -162,239 -162,392 0,153 62,292 162,392 101,100 239,162 392,162 153,0 292,-62 392,-162 100,-100 162,-239 162,-392 0,-153 -62,-291 -162,-392 -100,-100 -239,-162 -392,-162zm-460 94c118,-117 281,-190 460,-190 180,0 342,73 460,190 118,118 190,281 190,460 0,180 -72,342 -190,460 -118,118 -280,190 -460,190 -179,0 -342,-72 -460,-190 -117,-118 -190,-280 -190,-460 0,-179 73,-342 190,-460z"/>
 </g>
</svg>
