<?xml version="1.0" encoding="UTF-8"?>
<!DOCTYPE svg PUBLIC "-//W3C//DTD SVG 1.1//EN" "http://www.w3.org/Graphics/SVG/1.1/DTD/svg11.dtd">
<!-- Creator: CorelDRAW X6 -->
<svg xmlns="http://www.w3.org/2000/svg" xml:space="preserve" width="300px" height="300px" version="1.1" style="shape-rendering:geometricPrecision; text-rendering:geometricPrecision; image-rendering:optimizeQuality; fill-rule:evenodd; clip-rule:evenodd"
viewBox="0 0 2852 2852"
 xmlns:xlink="http://www.w3.org/1999/xlink">
 <defs>
  <style type="text/css">
   <![CDATA[
    .fil0 {fill:url(#id0)}
   ]]>
  </style>
  <linearGradient id="id0" gradientUnits="userSpaceOnUse" x1="1425.84" y1="2766.13" x2="1425.84" y2="85.5507">
   <stop offset="0" style="stop-color:#C5221B"/>
   <stop offset="1" style="stop-color:#FCB825"/>
  </linearGradient>
 </defs>
 <g id="Слой_x0020_1">
  <metadata id="CorelCorpID_0Corel-Layer"/>
  <path class="fil0" d="M969 1860l-613 0c-30,0 -55,25 -55,56 0,31 25,56 55,56l613 0c31,0 56,-25 56,-56 0,-31 -25,-56 -56,-56zm1395 -490c-31,0 -56,25 -56,56 0,31 25,56 56,56l0 0c31,0 56,-25 56,-56 0,-31 -25,-56 -56,-56zm-226 0c-30,0 -55,25 -55,56 0,31 25,56 55,56l1 0c31,0 55,-25 55,-56 0,-31 -25,-56 -56,-56zm-225 0c-31,0 -56,25 -56,56 0,31 25,56 56,56l1 0c30,0 55,-25 55,-56 0,-31 -25,-56 -56,-56zm561 -289c-191,-191 -502,-191 -693,0 -191,191 -191,502 0,693 96,96 221,143 347,143 125,0 251,-47 346,-143 191,-191 191,-502 0,-693zm-79 614c-147,148 -388,148 -535,0 -148,-147 -148,-388 0,-535 74,-74 171,-111 268,-111 97,0 194,37 267,111 148,147 148,388 0,535zm245 244c136,-136 212,-318 212,-512 0,-193 -76,-375 -212,-512 -137,-136 -319,-212 -512,-212 -4,0 -8,0 -12,1l0 -142c0,-14 -5,-28 -16,-39l-507 -507c-10,-10 -24,-16 -39,-16l-1498 0c-31,0 -56,25 -56,56l0 2740c0,31 25,56 56,56l2025 0c31,0 56,-25 56,-56 0,-31 -25,-56 -56,-56l-84 0 0 -199 262 0 0 255c0,31 25,56 55,56 31,0 56,-25 56,-56l0 -496c0,-15 -6,-29 -16,-40 -5,-5 -11,-9 -18,-12 0,0 0,0 0,0 -1,0 -3,-1 -4,-1 -1,0 -1,-1 -1,-1 -2,0 -3,0 -4,-1 -1,0 -1,0 -2,0 -1,0 -3,-1 -4,-1 -1,0 -1,0 -1,0 -2,0 -4,0 -6,0l0 0 -131 0 0 -95c173,-13 333,-86 457,-210zm-1030 -1749l316 317 -316 0 0 -317zm331 2054l0 0c-31,0 -56,25 -56,56l0 440 -1774 0 0 -2629 1387 0 0 452c0,30 25,55 56,55l451 0 0 96c-147,25 -282,94 -389,201 -137,137 -212,319 -212,512 0,194 75,376 212,512 123,124 284,197 456,210l0 95 -131 0zm318 111l0 74 -262 0 0 -74 262 0zm-131 -315c-164,0 -318,-64 -434,-179 -115,-116 -179,-270 -179,-434 0,-163 64,-317 179,-433 116,-115 270,-179 434,-179 163,0 317,64 433,179 116,116 179,270 179,433 0,164 -63,318 -179,434 -116,115 -270,179 -433,179zm-950 -1739l-707 0c-94,0 -170,76 -170,170l0 707c0,90 70,163 158,169 2,1 4,1 7,1 0,0 716,0 717,0 2,0 4,0 7,-1 88,-6 158,-79 158,-169l0 -707c0,-94 -76,-170 -170,-170zm-645 935c16,-32 46,-56 84,-63l76 -14 49 77 -209 0zm196 -415c61,0 119,-21 165,-59l60 35 0 47c0,72 -58,130 -130,130 -71,0 -130,-58 -130,-130l0 -23 35 0zm-34 -112c5,-66 61,-119 129,-119 50,0 93,28 115,69l-25 -15c-23,-14 -53,-8 -71,12 -28,34 -70,53 -114,53l-34 0zm129 449l-38 -61c3,-4 5,-9 8,-14 10,2 20,2 30,2 11,0 21,0 31,-2 2,5 5,10 7,15l-38 60zm83 78l49 -77 76 14c37,7 68,31 84,63l-209 0zm329 -58c0,13 -4,24 -10,34 -27,-76 -92,-134 -174,-149l-84 -15c-1,-1 -2,-1 -3,-1 -1,-1 -2,-2 -4,-3 0,0 0,0 -1,-1 0,0 0,0 0,0 64,-43 106,-116 106,-199l0 -79 0 -36 0 -9c0,-133 -109,-241 -242,-241 -133,0 -241,108 -241,241l0 9 0 36 0 79c0,83 42,156 105,199 0,0 0,0 0,0 0,1 0,1 -1,1 -1,1 -2,2 -4,3 -1,0 -2,0 -3,1l-84 15c-82,15 -147,73 -173,149 -7,-10 -11,-21 -11,-34l0 -707c0,-33 26,-59 59,-59l707 0c32,0 58,26 58,59l0 707zm-6 454c-11,-11 -25,-17 -40,-17 -14,0 -29,6 -39,17 -10,10 -16,24 -16,39 0,15 6,29 16,39 10,11 25,17 39,17 15,0 29,-6 40,-17 10,-10 16,-24 16,-39 0,-15 -6,-29 -16,-39zm-346 -17l-528 0c-30,0 -55,25 -55,56 0,31 25,56 55,56l528 0c31,0 56,-25 56,-56 0,-31 -25,-56 -56,-56zm491 507c-10,-11 -25,-17 -39,-17 -15,0 -29,6 -40,17 -10,10 -16,24 -16,39 0,15 6,29 16,39 11,11 25,17 40,17 15,0 29,-6 39,-17 11,-10 17,-24 17,-39 0,-15 -6,-29 -17,-39zm-39 228l-980 0c-30,0 -55,25 -55,56 0,31 25,56 55,56l980 0c31,0 56,-25 56,-56 0,-31 -25,-56 -56,-56zm-206 -245l-774 0c-30,0 -55,25 -55,56 0,31 25,56 55,56l774 0c31,0 56,-25 56,-56 0,-31 -25,-56 -56,-56zm218 -245l-158 0c-30,0 -55,25 -55,56 0,31 25,56 55,56l158 0c31,0 56,-25 56,-56 0,-31 -25,-56 -56,-56z"/>
 </g>
</svg>
