<?xml version="1.0" encoding="UTF-8"?>
<!DOCTYPE svg PUBLIC "-//W3C//DTD SVG 1.1//EN" "http://www.w3.org/Graphics/SVG/1.1/DTD/svg11.dtd">
<!-- Creator: CorelDRAW X6 -->
<svg xmlns="http://www.w3.org/2000/svg" xml:space="preserve" width="300px" height="300px" version="1.1" style="shape-rendering:geometricPrecision; text-rendering:geometricPrecision; image-rendering:optimizeQuality; fill-rule:evenodd; clip-rule:evenodd"
viewBox="0 0 1451 1451"
 xmlns:xlink="http://www.w3.org/1999/xlink">
 <defs>
  <style type="text/css">
   <![CDATA[
    .fil0 {fill:#4C75A3}
    .fil1 {fill:white}
   ]]>
  </style>
 </defs>
 <g id="Слой_x0020_1">
  <metadata id="CorelCorpID_0Corel-Layer"/>
  <circle class="fil0" cx="726" cy="726" r="726"/>
  <path id="Fill-128" class="fil1" d="M716 968l52 0c0,0 15,-2 23,-10 7,-8 7,-23 7,-23 0,0 -1,-69 31,-79 31,-10 72,67 114,96 33,22 57,17 57,17l115 -1c0,0 59,-4 31,-51 -2,-4 -17,-35 -85,-98 -72,-67 -62,-56 24,-171 53,-70 74,-113 67,-131 -6,-18 -45,-13 -45,-13l-128 1c0,0 -10,-2 -17,2 -7,5 -11,14 -11,14 0,0 -21,55 -48,101 -57,97 -80,102 -90,96 -21,-14 -16,-57 -16,-87 0,-94 14,-133 -28,-144 -14,-3 -24,-5 -60,-6 -46,0 -85,1 -107,11 -14,8 -26,24 -19,24 9,2 28,6 38,20 13,17 13,58 13,58 0,0 8,111 -18,125 -17,9 -41,-10 -92,-99 -26,-45 -46,-95 -46,-95 0,0 -4,-9 -10,-14 -9,-6 -20,-8 -20,-8l-123 1c0,0 -18,0 -25,8 -6,7 0,22 0,22 0,0 96,224 204,337 99,104 212,97 212,97z"/>
 </g>
</svg>
