<?xml version="1.0" encoding="UTF-8"?>
<!DOCTYPE svg PUBLIC "-//W3C//DTD SVG 1.1//EN" "http://www.w3.org/Graphics/SVG/1.1/DTD/svg11.dtd">
<!-- Creator: CorelDRAW X6 -->
<svg xmlns="http://www.w3.org/2000/svg" xml:space="preserve" width="300px" height="300px" version="1.1" style="shape-rendering:geometricPrecision; text-rendering:geometricPrecision; image-rendering:optimizeQuality; fill-rule:evenodd; clip-rule:evenodd"
viewBox="0 0 1449 1449"
 xmlns:xlink="http://www.w3.org/1999/xlink">
 <defs>
  <style type="text/css">
   <![CDATA[
    .fil0 {fill:#C5221B}
    .fil1 {fill:#C5221B;fill-rule:nonzero}
   ]]>
  </style>
 </defs>
 <g id="Слой_x0020_1">
  <metadata id="CorelCorpID_0Corel-Layer"/>
  <path id="Fill-128" class="fil0" d="M715 967l52 0c0,0 15,-2 23,-10 7,-8 7,-23 7,-23 0,0 -1,-69 31,-79 31,-10 72,67 114,96 33,22 57,17 57,17l115 -1c0,0 59,-4 31,-51 -2,-4 -16,-35 -85,-98 -72,-67 -62,-56 24,-171 53,-70 74,-113 67,-131 -6,-18 -45,-13 -45,-13l-128 0c0,0 -10,-1 -17,3 -7,5 -11,14 -11,14 0,0 -21,55 -48,101 -57,97 -80,102 -89,96 -22,-14 -17,-57 -17,-87 0,-94 14,-133 -28,-144 -14,-3 -24,-5 -60,-6 -46,0 -85,1 -107,11 -14,8 -26,24 -19,24 9,2 28,6 38,20 13,17 13,58 13,58 0,0 8,111 -18,125 -17,9 -41,-10 -92,-99 -26,-45 -46,-95 -46,-95 0,0 -4,-9 -11,-14 -8,-6 -19,-8 -19,-8l-123 1c0,0 -18,0 -25,8 -6,7 0,22 0,22 0,0 96,224 204,337 99,104 212,97 212,97z"/>
  <path class="fil1" d="M725 107c-171,0 -325,69 -437,181 -112,112 -181,266 -181,437 0,170 69,324 181,436 112,112 266,181 437,181 170,0 324,-69 436,-181 112,-112 181,-266 181,-436 0,-171 -69,-325 -181,-437 -112,-112 -266,-181 -436,-181zm-513 105c131,-131 312,-212 513,-212 200,0 381,81 512,212 131,131 212,313 212,513 0,200 -81,381 -212,512 -131,131 -312,212 -512,212 -201,0 -382,-81 -513,-212 -131,-131 -212,-312 -212,-512 0,-200 81,-382 212,-513z"/>
 </g>
</svg>
