<svg width="204" height="50" viewBox="0 0 204 50" fill="none" xmlns="http://www.w3.org/2000/svg">
<g clip-path="url(#clip0)">
<path d="M15.3457 0.150572C15.8251 0.1069 16.3037 0.0418381 16.7858 0.0222302C17.4125 -0.00807282 18.0339 0.161268 18.6606 0.0828363C19.282 0.0498594 20.0132 -0.0856129 20.5238 0.365367C21.147 0.928647 21.8362 1.43667 22.3192 2.1372C22.7451 2.71653 23.0709 3.36358 23.3486 4.0249C23.1629 3.99727 22.9763 3.97678 22.7897 3.95984C22.6031 3.86893 22.4719 3.70048 22.3147 3.56947C20.6747 2.11849 18.6874 1.07749 16.5867 0.470537C16.1769 0.347542 15.7546 0.272676 15.3457 0.150572Z" fill="#008D46"/>
<path d="M23.0801 0.522949C24.371 0.889259 25.7004 1.2012 26.8806 1.86074C25.8289 2.45254 24.9567 3.31618 24.28 4.30905C24.1487 4.25646 24.0166 4.20744 23.8836 4.16199C23.8282 2.92045 23.7059 1.62545 23.0801 0.522949Z" fill="#008D46"/>
<path d="M9.38044 1.96249C10.3768 1.59885 11.4356 1.45001 12.4891 1.37425C14.9773 1.19332 17.4601 1.7976 19.742 2.75304C20.5991 3.11133 21.424 3.54359 22.2186 4.02487C22.0017 4.09796 21.8088 4.23878 21.7285 4.45892C20.5357 4.155 19.3465 3.8288 18.1359 3.6042C15.3594 3.14252 12.4391 3.24056 9.78397 4.23076C8.3966 4.76106 6.9985 5.29225 5.71826 6.05429C4.93083 6.52131 4.2291 7.12291 3.60862 7.79315C2.36944 9.11757 1.34096 10.647 0.650844 12.3261C0.408008 12.8832 0.280341 13.4794 0.142853 14.0685L0.09375 14.0587C0.387474 12.8128 0.631203 11.5543 0.957067 10.3163C1.74003 7.50527 3.65326 5.0632 6.12179 3.52131C7.14135 2.87603 8.2475 2.37425 9.38044 1.96249Z" fill="#008D46"/>
<path d="M24.7715 4.55062C26.1124 3.80285 27.6061 3.37326 29.1122 3.11212C29.3166 3.06577 29.5264 3.11301 29.6907 3.24225C30.5969 3.84831 31.3638 4.63173 32.1735 5.35455C30.4665 4.6754 28.6104 4.34296 26.7749 4.5016C26.2035 4.54082 25.6402 4.64777 25.0768 4.74759C24.9768 4.67897 24.8742 4.61301 24.7715 4.55062Z" fill="#008D46"/>
<path d="M11.2779 6.61423C13.1741 5.68643 15.2266 5.05808 17.3354 4.88072C18.821 4.76307 20.3173 4.75238 21.8037 4.86111C21.9519 5.11869 22.1626 5.33438 22.3965 5.5153C22.0814 5.60532 21.7653 5.6891 21.4457 5.7604C19.3834 6.22386 17.3479 6.8727 15.482 7.87716C14.0633 8.64899 12.7777 9.66771 11.7171 10.8861C10.3405 12.4752 9.2218 14.2827 8.38616 16.2105C7.70319 17.8085 7.18805 19.4868 6.9595 21.2132C6.71666 22.9235 6.74077 24.6641 6.97021 26.3745C7.31036 28.8629 7.78175 31.3353 8.42098 33.7649C8.90933 35.665 9.47803 37.5438 10.0253 39.428C10.1083 39.6588 10.1137 39.9672 10.3574 40.0973C10.8913 40.4155 11.4895 40.6053 12.0876 40.764C12.284 39.7782 12.4108 38.78 12.5706 37.788C13.2179 33.6053 13.8169 29.4137 14.6169 25.2559C15.4034 21.141 16.3506 17.0233 17.9916 13.1534C18.8745 11.0438 20.0137 9.02867 21.4913 7.27555C21.9252 6.74792 22.451 6.31031 22.9626 5.86111C23.2956 6.02867 23.6482 6.15791 24.0107 6.24525C24.7669 9.79427 25.4481 13.3834 25.5543 17.0189C25.6034 19.8121 25.3507 22.6597 24.3517 25.2898C23.2947 28.1445 21.6716 30.7408 20.0637 33.3112C18.7576 35.3789 17.38 37.4173 15.7239 39.2239C15.0954 39.9262 14.3276 40.4814 13.5348 40.9832C13.8214 41.0126 14.1098 41.0376 14.3955 41.0848C14.3535 41.3281 14.2955 41.6107 14.0598 41.7426C13.5295 42.075 12.8706 41.9895 12.2814 41.9155C11.5323 41.805 10.7351 41.624 10.1637 41.0964C9.72533 40.7087 9.92174 40.059 9.60391 39.6062C8.76381 38.1998 7.87638 36.821 7.03806 35.4137C6.39794 34.3896 5.88013 33.2987 5.3034 32.2399C4.77755 31.2203 4.20528 30.2248 3.69818 29.1944C2.9286 27.6125 2.2742 25.9645 1.88584 24.2444C1.31892 21.7283 1.25018 19.0474 2.05279 16.5723C2.84647 14.0358 4.49364 11.8575 6.3783 10.0207C7.81568 8.63384 9.47892 7.48143 11.2779 6.61423Z" fill="#008D46"/>
<path d="M25.5684 5.19824C26.2353 5.31054 26.9165 5.28648 27.5878 5.36847C30.0082 5.57436 32.3526 6.4273 34.3944 7.72944C34.93 8.15903 35.2398 8.78826 35.6032 9.356C36.2353 10.3676 36.6906 11.4977 36.8709 12.6786C36.6004 12.2277 36.3612 11.7562 36.0442 11.3346C35.0086 9.91482 33.5391 8.8756 31.9848 8.08862C30.0323 7.06277 27.8985 6.47543 25.8201 5.77222C25.7871 5.56188 25.7041 5.36224 25.5684 5.19824Z" fill="#008D46"/>
<path d="M40.7237 18.4649C40.8781 18.2956 41.1263 18.3 41.3361 18.292C45.3849 18.2956 49.4336 18.2884 53.4815 18.2956C53.8109 18.2617 54.1662 18.4827 54.1448 18.8446C54.1537 25.456 54.1457 32.0683 54.1484 38.6806C54.7921 38.6859 55.4358 38.6708 56.0794 38.6851C56.366 38.6708 56.624 38.9212 56.5999 39.2109C56.6053 41.8883 56.6053 44.5656 56.5999 47.243C56.6169 47.5282 56.35 47.7599 56.0723 47.7466C55.2965 47.7537 54.5189 47.7483 53.743 47.7492C53.4797 47.7688 53.1958 47.5915 53.1797 47.3125C52.961 45.4079 52.7297 43.5041 52.5101 41.5995C48.5426 41.6004 44.576 41.5986 40.6094 41.6004C40.3898 43.5041 40.1585 45.407 39.9398 47.3116C39.9193 47.5915 39.6398 47.7715 39.3738 47.7492C38.598 47.7483 37.8212 47.7546 37.0454 47.7466C36.7704 47.759 36.5044 47.53 36.5196 47.2474C36.5106 44.6574 36.5196 42.0674 36.5151 39.4774C36.5008 39.2519 36.5928 38.9845 36.832 38.9168C37.1883 38.8285 37.5668 38.9346 37.923 38.833C38.2319 38.718 38.4283 38.4248 38.5578 38.136C38.8336 37.4943 38.9006 36.7902 38.956 36.1013C39.472 30.4293 39.9934 24.7572 40.5094 19.0843C40.5353 18.8669 40.5558 18.6244 40.7237 18.4649ZM44.3341 21.2341C43.91 26.3045 43.4761 31.3749 43.0511 36.4453C42.9806 37.2394 42.6958 38.0068 42.2744 38.6806C44.8635 38.6797 47.4525 38.6806 50.0416 38.6806C50.0389 32.8642 50.0469 27.0478 50.0371 21.2314C48.1364 21.2376 46.2348 21.2323 44.3341 21.2341Z" fill="#008D46"/>
<path d="M82.1081 24.4073C83.7919 24.2104 85.5265 24.4778 87.0559 25.2139C87.5005 25.4323 87.9522 25.6649 88.3129 26.0125C88.5209 26.2113 88.4486 26.5286 88.3013 26.7389C88.0638 27.0999 87.8308 27.4644 87.5871 27.8209C87.4326 28.0508 87.105 27.9956 86.8755 27.943C86.2675 27.7549 85.6935 27.4644 85.0748 27.3093C83.9633 27.0045 82.7062 26.9635 81.6662 27.5214C80.71 28.0357 80.1208 29.0277 79.8208 30.041C79.3762 31.5713 79.3423 33.1952 79.503 34.7719C79.6538 36.0348 79.9993 37.3637 80.9207 38.2942C81.7153 39.0963 82.9107 39.3583 84.0052 39.2327C84.981 39.1444 85.8836 38.7407 86.7996 38.4243C87.0478 38.3441 87.3898 38.2656 87.5719 38.5125C87.829 38.8788 88.0745 39.2558 88.3129 39.6355C88.4665 39.8699 88.4459 40.2033 88.2388 40.3993C87.6005 41.0838 86.6809 41.41 85.8015 41.6605C84.2017 42.0642 82.5054 42.1168 80.8877 41.7853C79.4217 41.4867 78.0343 40.6943 77.1505 39.4733C76.0381 37.9662 75.6435 36.0633 75.5372 34.2282C75.448 32.4225 75.539 30.5722 76.1309 28.8494C76.563 27.582 77.3478 26.41 78.4611 25.6426C79.5306 24.8993 80.8216 24.5321 82.1081 24.4073Z" fill="#008D46"/>
<path d="M114.065 24.406C115.953 24.2518 117.953 24.3801 119.648 25.299C120.913 25.9693 121.863 27.1413 122.383 28.4612C123.123 30.3115 123.2 32.3436 123.118 34.3097C123.007 36.1609 122.609 38.0967 121.427 39.5807C120.45 40.8329 118.937 41.5646 117.392 41.8258C115.798 42.0905 114.144 42.0717 112.571 41.6894C111.11 41.3391 109.74 40.496 108.899 39.234C107.795 37.6136 107.501 35.602 107.448 33.6832C107.421 31.7856 107.574 29.8231 108.382 28.0789C108.943 26.8507 109.911 25.8061 111.125 25.2028C112.037 24.7393 113.051 24.5067 114.065 24.406ZM114.588 27.332C113.815 27.4381 113.06 27.7946 112.556 28.3997C111.901 29.1671 111.626 30.1734 111.484 31.1511C111.326 32.316 111.319 33.4978 111.418 34.668C111.502 35.5922 111.68 36.5299 112.127 37.3534C112.451 37.955 112.965 38.4586 113.593 38.7375C114.31 39.0557 115.117 39.1118 115.891 39.0316C116.698 38.947 117.499 38.5976 118.034 37.9755C118.574 37.3516 118.863 36.553 119.022 35.7536C119.245 34.6662 119.247 33.5512 119.225 32.447C119.177 31.4184 119.057 30.3712 118.655 29.4131C118.374 28.742 117.913 28.1225 117.271 27.7589C116.468 27.2892 115.493 27.2161 114.588 27.332Z" fill="#008D46"/>
<path d="M58.5696 25.1332C58.6222 24.8979 58.8669 24.7642 59.0972 24.7802C59.9909 24.7731 60.8845 24.7802 61.7782 24.7766C62.0103 24.7659 62.2987 24.8203 62.3853 25.0708C62.4942 25.4068 62.4389 25.7668 62.4505 26.1135C62.4585 29.1251 62.4344 32.1376 62.463 35.1492C63.0335 34.3693 63.5013 33.5182 64.0262 32.7062C65.6056 30.1831 67.1867 27.6599 68.7642 25.134C68.899 24.8854 69.1829 24.7668 69.4579 24.7775C70.3248 24.7784 71.1908 24.774 72.0577 24.7802C72.2826 24.7668 72.5273 24.905 72.5808 25.134C72.6228 25.3684 72.6031 25.6082 72.6067 25.8453C72.6049 30.8961 72.6058 35.946 72.6067 40.9968C72.6433 41.2838 72.4424 41.5975 72.1326 41.5948C71.2131 41.61 70.2926 41.5939 69.3722 41.602C69.1686 41.6064 68.9195 41.5841 68.8044 41.3907C68.6517 41.1046 68.7097 40.7686 68.699 40.4585C68.6972 37.3898 68.7079 34.3203 68.6928 31.2517C68.5124 31.405 68.4053 31.6189 68.2821 31.8168C66.3805 34.8471 64.4762 37.8756 62.5764 40.9068C62.429 41.134 62.3005 41.4032 62.0416 41.5235C61.8505 41.6225 61.6282 41.5975 61.422 41.6028C60.6488 41.5957 59.8748 41.6046 59.1026 41.5993C58.9035 41.6046 58.6785 41.5262 58.5981 41.3301C58.5356 41.1688 58.5285 40.9941 58.5223 40.8248C58.5214 35.9228 58.5231 31.0209 58.5214 26.118C58.5267 25.79 58.4964 25.4558 58.5696 25.1332Z" fill="#008D46"/>
<path d="M91.3569 25.3025C91.3426 25.0253 91.5765 24.774 91.8578 24.7811C92.7845 24.7704 93.7121 24.7776 94.6388 24.7776C94.9459 24.7428 95.2432 24.995 95.2128 25.3132C95.2191 27.5753 95.2155 29.8382 95.2137 32.1011C96.9359 29.9933 98.6045 27.84 100.305 25.7143C100.619 25.3177 100.935 24.7954 101.505 24.7829C102.756 24.7767 104.009 24.7615 105.26 24.7909C105.542 24.807 105.483 25.1394 105.324 25.2794C103.171 27.8204 101.016 30.3596 98.8607 32.8997C101.032 35.5031 103.194 38.1136 105.365 40.7179C105.56 40.9647 105.838 41.1938 105.83 41.5396C105.467 41.6332 105.091 41.594 104.722 41.5993C103.617 41.5966 102.512 41.6047 101.409 41.5966C100.975 41.6011 100.635 41.2883 100.404 40.9532C98.6768 38.7357 96.9573 36.512 95.2218 34.3016C95.2057 36.561 95.2244 38.8204 95.2119 41.0797C95.228 41.3542 94.9986 41.602 94.7227 41.5958C93.8612 41.6073 92.9987 41.5922 92.1381 41.602C91.9212 41.5975 91.6676 41.6261 91.5024 41.4567C91.3534 41.3168 91.3516 41.0993 91.3516 40.9113C91.3587 35.7081 91.348 30.5048 91.3569 25.3025Z" fill="#008D46"/>
<path d="M126.198 24.9161C126.376 24.7486 126.637 24.7798 126.864 24.7744C127.731 24.786 128.599 24.7646 129.465 24.7842C129.739 24.7869 129.955 25.0391 129.941 25.3083C129.945 27.3787 129.948 29.4491 129.939 31.5195C131.763 31.5391 133.587 31.5231 135.412 31.5284C135.411 29.4856 135.413 27.4438 135.411 25.4019C135.408 25.2281 135.425 25.0311 135.572 24.9143C135.718 24.7557 135.953 24.7842 136.151 24.7753C137.045 24.786 137.941 24.7619 138.835 24.786C139.165 24.7824 139.332 25.1184 139.316 25.4099C139.321 30.5766 139.316 35.7432 139.319 40.9108C139.329 41.1924 139.224 41.557 138.892 41.5873C138.009 41.6202 137.125 41.5873 136.242 41.6024C136.017 41.5944 135.761 41.6327 135.576 41.4794C135.412 41.3368 135.408 41.1042 135.41 40.9054C135.417 38.6951 135.407 36.4839 135.415 34.2735C133.592 34.2628 131.769 34.2726 129.946 34.2691C129.942 36.5124 129.944 38.7566 129.945 41.0008C129.975 41.2914 129.763 41.606 129.451 41.5944C128.47 41.6024 127.488 41.6069 126.508 41.5926C126.199 41.589 126.012 41.2735 126.041 40.9901C126.034 35.8226 126.041 30.655 126.037 25.4874C126.041 25.2896 126.048 25.0641 126.198 24.9161Z" fill="#008D46"/>
<path d="M141.387 24.9268C141.53 24.7726 141.754 24.7762 141.951 24.7744C145.643 24.7824 149.336 24.7708 153.028 24.7807C153.277 24.7682 153.524 24.9553 153.546 25.2102C153.577 25.7183 153.548 26.229 153.561 26.7379C153.553 26.9536 153.579 27.2174 153.396 27.3725C153.216 27.5159 152.972 27.5115 152.755 27.5186C151.624 27.5177 150.493 27.5177 149.363 27.5177C149.363 31.9536 149.362 36.3894 149.364 40.8243C149.35 41.0391 149.36 41.2887 149.201 41.4571C149.032 41.63 148.773 41.5962 148.557 41.6024C147.666 41.589 146.774 41.6167 145.884 41.5899C145.546 41.5685 145.42 41.2049 145.438 40.9161C145.43 36.45 145.437 31.9839 145.434 27.5177C144.244 27.5133 143.054 27.5258 141.865 27.5133C141.606 27.5159 141.295 27.3974 141.258 27.1095C141.211 26.63 141.252 26.147 141.236 25.6666C141.246 25.4188 141.194 25.1211 141.387 24.9268Z" fill="#008D46"/>
<path d="M7.76528 43.3781C8.03758 42.7096 8.74555 42.2524 9.46603 42.2649C10.1383 42.2622 10.7909 42.4467 11.4417 42.5947C12.1578 42.7792 12.8916 42.9316 13.5657 43.2453C14.3638 43.6223 14.8522 44.5804 14.6102 45.4423C14.3174 46.5661 14.0326 47.6927 13.7246 48.813C13.4951 49.5287 12.7506 49.9663 12.0238 50.0002H11.9837C10.9641 49.928 9.9758 49.6401 8.99018 49.3888C8.43487 49.2221 7.84295 49.0706 7.40549 48.6669C6.92428 48.2382 6.71537 47.5483 6.8475 46.9218C7.03499 45.9868 7.3305 45.0777 7.5528 44.1508C7.61797 43.8915 7.66886 43.6276 7.76528 43.3781ZM9.24819 42.838C9.00267 42.8888 8.73305 42.9351 8.55003 43.1223C8.31166 43.3531 8.25095 43.7275 8.36344 44.0341C8.47772 44.3986 8.76966 44.6669 9.06249 44.8941C9.97402 45.5635 11.1105 45.8719 12.2292 45.9244C12.7827 45.9173 13.4157 45.8603 13.8237 45.4396C14.1513 45.1143 14.1433 44.543 13.8281 44.2114C13.1675 43.4868 12.1944 43.1597 11.2569 42.9717C10.5972 42.8514 9.91777 42.6945 9.24819 42.838ZM8.92143 45.5644C9.71422 46.1713 10.707 46.4797 11.6926 46.5733C12.6684 46.6642 13.7674 46.3291 14.3058 45.4601C13.563 46.2756 12.3908 46.5626 11.3275 46.3603C10.2793 46.1588 9.19373 45.7578 8.48754 44.9218C8.16078 44.5448 8.03311 44.0519 7.97151 43.5697C7.94919 44.338 8.30631 45.1 8.92143 45.5644Z" fill="#008D46"/>
<path d="M22.2167 4.02512C22.4033 3.98056 22.5961 3.95828 22.7881 3.96006C22.9747 3.97699 23.1613 3.99749 23.347 4.02512C23.5282 4.05543 23.7059 4.10534 23.8817 4.16238C24.0148 4.20783 24.1469 4.25685 24.2781 4.30944C24.4469 4.37895 24.612 4.45649 24.7692 4.55097C24.8718 4.61336 24.9745 4.67931 25.0745 4.74794C25.2575 4.87539 25.42 5.03047 25.5673 5.19892C25.703 5.36291 25.786 5.56255 25.8191 5.77289C25.7914 6.00195 25.6191 6.18822 25.4021 6.25507C25.1825 6.31924 24.954 6.34687 24.7263 6.35311C24.4852 6.33261 24.2442 6.30052 24.0085 6.24526C23.646 6.15792 23.2934 6.02869 22.9604 5.86113C22.7631 5.75952 22.5738 5.64544 22.3944 5.51532C22.1605 5.33439 21.9498 5.1187 21.8016 4.86113C21.7462 4.73457 21.7283 4.59642 21.7266 4.45917C21.8069 4.23903 21.9998 4.09821 22.2167 4.02512Z" fill="white"/>
<path d="M8.91965 45.564C8.30453 45.0997 7.94742 44.3376 7.96974 43.5693C8.03134 44.0515 8.15901 44.5444 8.48576 44.9214C9.19195 45.7574 10.2776 46.1585 11.3257 46.3599C12.389 46.5622 13.5612 46.2752 14.304 45.4597C13.7657 46.3287 12.6666 46.6638 11.6908 46.5729C10.7052 46.4793 9.71244 46.171 8.91965 45.564Z" fill="white"/>
<path d="M24.7269 6.35292C24.9546 6.34668 25.1831 6.31905 25.4027 6.25488C26.899 7.33421 28.3284 8.50355 29.772 9.6515C31.8924 11.3645 33.7949 13.4394 34.9073 15.9527C36.1188 18.6952 36.4357 21.8173 35.8608 24.754C34.8073 26.6827 33.6217 28.574 32.0548 30.1337C29.5399 32.6034 26.5651 34.5472 23.5234 36.3012C23.7047 36.0731 23.968 35.9367 24.1975 35.7647C26.0688 34.451 27.7856 32.8797 29.0792 30.9848C30.3603 29.1319 31.1871 26.983 31.5433 24.7638C31.829 22.9741 31.8888 21.1319 31.5317 19.3476C31.1192 17.1408 30.1639 15.082 29.098 13.1212C27.8168 10.7602 26.4919 8.39392 24.7269 6.35292Z" fill="#DD0707"/>
<path d="M154.274 18.546C154.412 18.2973 154.736 18.2964 154.985 18.292C159.449 18.2938 163.914 18.292 168.379 18.2929C168.604 18.3036 168.885 18.3098 169.018 18.5273C169.158 18.7724 169.102 19.0718 169.116 19.3419C169.095 19.8419 169.152 20.3464 169.085 20.8419C169.036 21.1253 168.729 21.2492 168.47 21.2341C166.886 21.2332 165.302 21.2367 163.718 21.2323C163.707 27.5531 163.716 33.8749 163.713 40.1966C163.703 40.5496 163.746 40.9096 163.663 41.2572C163.61 41.5023 163.342 41.6129 163.113 41.6004C162.102 41.5959 161.09 41.6075 160.08 41.5941C159.769 41.5941 159.567 41.2804 159.606 40.9916C159.607 34.4061 159.606 27.8196 159.606 21.2341C158.007 21.2323 156.407 21.2367 154.807 21.2323C154.558 21.2465 154.27 21.1191 154.219 20.8544C154.142 20.3847 154.2 19.9061 154.182 19.4328C154.193 19.1378 154.137 18.8196 154.274 18.546Z" fill="#DD0707"/>
<path d="M195.238 24.5017C196.852 24.2379 198.577 24.2655 200.092 24.9428C201.252 25.4518 202.197 26.3867 202.786 27.5008C203.583 28.9883 203.853 30.6924 203.924 32.36C203.977 34.1505 203.865 35.9794 203.27 37.6835C202.835 38.9232 202.086 40.0854 200.999 40.8493C199.681 41.7931 197.997 42.0774 196.406 41.9821C195.162 41.917 193.89 41.5543 192.929 40.7343C192.535 40.4241 192.236 40.0195 191.933 39.6264C191.913 42.4339 191.934 45.2423 191.924 48.0507C191.918 48.2735 191.875 48.54 191.655 48.6505C191.35 48.7753 191.012 48.7174 190.694 48.7307C189.949 48.7138 189.201 48.761 188.459 48.7076C188.072 48.6871 187.981 48.2619 187.998 47.95C187.995 40.4928 187.998 33.0346 187.997 25.5774C188.011 25.3555 187.991 25.0935 188.164 24.9241C188.332 24.7423 188.601 24.7842 188.826 24.7744C189.362 24.7842 189.9 24.7655 190.437 24.7824C190.673 24.7789 190.849 24.9812 190.891 25.2004C191.027 25.7334 191.145 26.2717 191.277 26.8065C192.24 25.5641 193.694 24.7575 195.238 24.5017ZM195.39 27.1674C194.597 27.294 193.831 27.6568 193.282 28.2494C192.755 28.8216 192.424 29.5471 192.232 30.2949C191.907 31.5445 191.885 32.8502 191.95 34.1327C192.043 35.3956 192.279 36.7156 193.042 37.7601C193.595 38.5329 194.484 39.0284 195.416 39.1764C196.242 39.3083 197.118 39.3136 197.908 39.0088C198.557 38.7548 199.046 38.2067 199.337 37.5854C199.744 36.7022 199.885 35.7263 199.968 34.7664C200.061 33.4758 200.054 32.1764 199.908 30.8912C199.791 30.0008 199.607 29.0863 199.111 28.3216C198.761 27.7726 198.193 27.3796 197.563 27.2218C196.854 27.048 196.108 27.0596 195.39 27.1674Z" fill="#DD0707"/>
<path d="M169.785 25.2438C169.657 25.0361 169.822 24.7652 170.067 24.783C171.141 24.7688 172.216 24.7786 173.291 24.7777C173.652 24.7527 173.966 25.0147 174.058 25.3543C175.373 29.463 176.654 33.5825 177.984 37.6859C179.289 33.6021 180.595 29.5192 181.903 25.4363C181.997 25.0958 182.284 24.7839 182.658 24.7812C183.64 24.7696 184.624 24.7803 185.607 24.7759C185.793 24.7634 186.048 24.8285 186.072 25.0522C186.049 25.3142 185.916 25.5486 185.828 25.7928C182.985 33.0825 180.143 40.373 177.302 47.6636C177.178 47.9684 177.085 48.3115 176.823 48.5326C176.611 48.7108 176.321 48.734 176.056 48.7313C175.133 48.7251 174.21 48.7358 173.288 48.7269C173.088 48.7286 172.81 48.6431 172.839 48.3944C172.877 48.0887 173.06 47.8285 173.17 47.5468C174.098 45.4773 175.026 43.4087 175.954 41.34C173.898 35.9737 171.841 30.6083 169.785 25.2438Z" fill="#DD0707"/>
</g>
<defs>
<clipPath id="clip0">
<rect width="204" height="50" fill="white"/>
</clipPath>
</defs>
</svg>
