<svg width="20" height="24" version="1.1" viewBox="0 0 20 24" xmlns="http://www.w3.org/2000/svg">
 <path d="m10 0c-5.511 0-10 4.489-10 10 0 3.9286 2.4391 7.3485 4.7734 9.8125s4.6719 4.0195 4.6719 4.0195a1.0001 1.0001 0 0 0 1.1094 0s2.3375-1.5555 4.6719-4.0195c2.3343-2.464 4.7734-5.8839 4.7734-9.8125 0-5.511-4.489-10-10-10zm0 2c4.4302 0 8 3.5699 8 8 0 3.0714-2.0609 6.1515-4.2266 8.4375-1.888 1.9929-3.3209 2.9376-3.7734 3.252-0.45258-0.3143-1.8854-1.2591-3.7734-3.252-2.1657-2.286-4.2266-5.3661-4.2266-8.4375 0-4.4301 3.5699-8 8-8z" clip-rule="evenodd" color="#000000" color-rendering="auto" dominant-baseline="auto"  fill-rule="evenodd" image-rendering="auto" shape-rendering="auto" solid-color="#000000" style="font-feature-settings:normal;font-variant-alternates:normal;font-variant-caps:normal;font-variant-ligatures:normal;font-variant-numeric:normal;font-variant-position:normal;isolation:auto;mix-blend-mode:normal;shape-padding:0;text-decoration-color:#000000;text-decoration-line:none;text-decoration-style:solid;text-indent:0;text-orientation:mixed;text-transform:none;white-space:normal"/>
 <path d="m10 6c-2.1973 0-4 1.8027-4 4 0 2.1973 1.8027 4 4 4 2.1973 0 4-1.8027 4-4 0-2.1973-1.8027-4-4-4zm0 2c1.1165 0 2 0.88357 2 2 0 1.1165-0.88351 2-2 2-1.1164 0-2-0.88353-2-2 0-1.1164 0.88359-2 2-2z" clip-rule="evenodd" color="#000000" color-rendering="auto" dominant-baseline="auto"  fill-rule="evenodd" image-rendering="auto" shape-rendering="auto" solid-color="#000000" style="font-feature-settings:normal;font-variant-alternates:normal;font-variant-caps:normal;font-variant-ligatures:normal;font-variant-numeric:normal;font-variant-position:normal;isolation:auto;mix-blend-mode:normal;shape-padding:0;text-decoration-color:#000000;text-decoration-line:none;text-decoration-style:solid;text-indent:0;text-orientation:mixed;text-transform:none;white-space:normal"/>
</svg>
