<svg xmlns="http://www.w3.org/2000/svg" width="15.344" height="15.5" viewBox="0 0 15.344 15.5">
  <metadata><?xpacket begin="﻿" id="W5M0MpCehiHzreSzNTczkc9d"?>
<x:xmpmeta xmlns:x="adobe:ns:meta/" x:xmptk="Adobe XMP Core 5.6-c138 79.159824, 2016/09/14-01:09:01        ">
   <rdf:RDF xmlns:rdf="http://www.w3.org/1999/02/22-rdf-syntax-ns#">
      <rdf:Description rdf:about=""/>
   </rdf:RDF>
</x:xmpmeta>
                                                                                                    
                                                                                                    
                                                                                                    
                                                                                                    
                                                                                                    
                                                                                                    
                                                                                                    
                                                                                                    
                                                                                                    
                                                                                                    
                                                                                                    
                                                                                                    
                                                                                                    
                                                                                                    
                                                                                                    
                                                                                                    
                                                                                                    
                                                                                                    
                                                                                                    
                                                                                                    
                           
<?xpacket end="w"?></metadata>
<defs>
    <style>
      .cls-1 {
        fill: #c40e26;
        fill-rule: evenodd;
      }
    </style>
  </defs>
  <path id="мои_объявления" data-name="мои объявления" class="cls-1" d="M203.674,311.217h-6.2a0.482,0.482,0,0,1-.48-0.484v-6.249a0.482,0.482,0,0,1,.48-0.484h6.2a0.482,0.482,0,0,1,.48.484v6.249A0.482,0.482,0,0,1,203.674,311.217Zm-5.719-.968h5.239v-5.281h-5.239v5.281Zm13.92,0.968h-6.2a0.481,0.481,0,0,1-.48-0.484v-6.249a0.481,0.481,0,0,1,.48-0.484h6.2a0.481,0.481,0,0,1,.48.484v6.249A0.481,0.481,0,0,1,211.875,311.217Zm-5.718-.968H211.4v-5.281h-5.238v5.281Zm-2.483,9.237h-6.2A0.482,0.482,0,0,1,197,319v-6.25a0.482,0.482,0,0,1,.48-0.484h6.2a0.482,0.482,0,0,1,.48.484V319A0.482,0.482,0,0,1,203.674,319.486Zm-5.719-.968h5.239v-5.282h-5.239v5.282Zm13.92,0.968h-6.2A0.482,0.482,0,0,1,205.2,319v-6.25a0.482,0.482,0,0,1,.48-0.484h6.2a0.482,0.482,0,0,1,.48.484V319A0.482,0.482,0,0,1,211.875,319.486Zm-5.718-.968H211.4v-5.282h-5.238v5.282Z" transform="translate(-197 -304)"/>
</svg>
