<svg xmlns="http://www.w3.org/2000/svg" width="10" height="10" viewBox="0 0 10 10">
  <metadata><?xpacket begin="﻿" id="W5M0MpCehiHzreSzNTczkc9d"?>
<x:xmpmeta xmlns:x="adobe:ns:meta/" x:xmptk="Adobe XMP Core 5.6-c138 79.159824, 2016/09/14-01:09:01        ">
   <rdf:RDF xmlns:rdf="http://www.w3.org/1999/02/22-rdf-syntax-ns#">
      <rdf:Description rdf:about=""/>
   </rdf:RDF>
</x:xmpmeta>
                                                                                                    
                                                                                                    
                                                                                                    
                                                                                                    
                                                                                                    
                                                                                                    
                                                                                                    
                                                                                                    
                                                                                                    
                                                                                                    
                                                                                                    
                                                                                                    
                                                                                                    
                                                                                                    
                                                                                                    
                                                                                                    
                                                                                                    
                                                                                                    
                                                                                                    
                                                                                                    
                           
<?xpacket end="w"?></metadata>
<defs>
    <style>
      .cls-1 {
        fill: #786e76;
        fill-rule: evenodd;
      }
    </style>
  </defs>
  <path class="cls-1" d="M743.305,262.005a0.313,0.313,0,0,1-.221-0.534L747.541,257l-4.457-4.473a0.313,0.313,0,1,1,.441-0.443l4.678,4.695a0.313,0.313,0,0,1,0,.442l-4.678,4.694A0.307,0.307,0,0,1,743.305,262.005Zm9.365,0a0.3,0.3,0,0,1-.22-0.092l-4.678-4.694a0.313,0.313,0,0,1,0-.442l4.678-4.695a0.313,0.313,0,0,1,.441.443L748.434,257l4.457,4.473A0.313,0.313,0,0,1,752.67,262.005Z" transform="translate(-743 -252)"/>
</svg>
