<svg xmlns="http://www.w3.org/2000/svg" width="15.344" height="14.531" viewBox="0 0 15.344 14.531">
  <metadata><?xpacket begin="﻿" id="W5M0MpCehiHzreSzNTczkc9d"?>
<x:xmpmeta xmlns:x="adobe:ns:meta/" x:xmptk="Adobe XMP Core 5.6-c138 79.159824, 2016/09/14-01:09:01        ">
   <rdf:RDF xmlns:rdf="http://www.w3.org/1999/02/22-rdf-syntax-ns#">
      <rdf:Description rdf:about=""/>
   </rdf:RDF>
</x:xmpmeta>
                                                                                                    
                                                                                                    
                                                                                                    
                                                                                                    
                                                                                                    
                                                                                                    
                                                                                                    
                                                                                                    
                                                                                                    
                                                                                                    
                                                                                                    
                                                                                                    
                                                                                                    
                                                                                                    
                                                                                                    
                                                                                                    
                                                                                                    
                                                                                                    
                                                                                                    
                                                                                                    
                           
<?xpacket end="w"?></metadata>
<defs>
    <style>
      .cls-1 {
        fill: #c40e26;
        fill-rule: evenodd;
      }
    </style>
  </defs>
  <path class="cls-1" d="M204.681,393.9a0.476,0.476,0,0,1-.357-0.161c-1.468-1.652-6.262-7.051-6.324-7.126a4.466,4.466,0,0,1,6.675-5.912,4.5,4.5,0,0,1,7.68,3.116,4.412,4.412,0,0,1-.987,2.774l-6.328,7.148a0.482,0.482,0,0,1-.358.161h0Zm-3.2-13.549a3.5,3.5,0,0,0-3.527,3.466,3.4,3.4,0,0,0,.771,2.162c0.116,0.135,3.758,4.238,5.955,6.712l5.957-6.729a3.378,3.378,0,0,0,.757-2.145,3.539,3.539,0,0,0-6.34-2.089,0.5,0.5,0,0,1-.759,0A3.524,3.524,0,0,0,201.482,380.348Z" transform="translate(-197 -379.375)"/>
</svg>
