<svg xmlns="http://www.w3.org/2000/svg" width="15" height="12" viewBox="0 0 15 12">
  <metadata><?xpacket begin="﻿" id="W5M0MpCehiHzreSzNTczkc9d"?>
<x:xmpmeta xmlns:x="adobe:ns:meta/" x:xmptk="Adobe XMP Core 5.6-c138 79.159824, 2016/09/14-01:09:01        ">
   <rdf:RDF xmlns:rdf="http://www.w3.org/1999/02/22-rdf-syntax-ns#">
      <rdf:Description rdf:about=""/>
   </rdf:RDF>
</x:xmpmeta>
                                                                                                    
                                                                                                    
                                                                                                    
                                                                                                    
                                                                                                    
                                                                                                    
                                                                                                    
                                                                                                    
                                                                                                    
                                                                                                    
                                                                                                    
                                                                                                    
                                                                                                    
                                                                                                    
                                                                                                    
                                                                                                    
                                                                                                    
                                                                                                    
                                                                                                    
                                                                                                    
                           
<?xpacket end="w"?></metadata>
<defs>
    <style>
      .cls-1 {
        fill: #c40e26;
        fill-rule: evenodd;
      }
    </style>
  </defs>
  <path id="сообщения" class="cls-1" d="M204.489,350.392a0.4,0.4,0,0,1-.266-0.106l-7.009-6.18a0.711,0.711,0,0,1-.119-0.834,0.409,0.409,0,0,1,.651-0.153l6.743,5.945,6.743-5.945a0.41,0.41,0,0,1,.652.153,0.712,0.712,0,0,1-.12.834l-7.009,6.18A0.4,0.4,0,0,1,204.489,350.392Zm7.047,4.614H197.48a0.546,0.546,0,0,1-.468-0.6V343.613a0.546,0.546,0,0,1,.468-0.6h14.056a0.546,0.546,0,0,1,.469.6v10.793A0.547,0.547,0,0,1,211.536,355.006Zm-13.587-1.2h13.119v-9.594H197.949v9.594Z" transform="translate(-197 -343)"/>
</svg>
