<svg xmlns="http://www.w3.org/2000/svg" width="15.375" height="15.5" viewBox="0 0 15.375 15.5">
  <metadata><?xpacket begin="﻿" id="W5M0MpCehiHzreSzNTczkc9d"?>
<x:xmpmeta xmlns:x="adobe:ns:meta/" x:xmptk="Adobe XMP Core 5.6-c138 79.159824, 2016/09/14-01:09:01        ">
   <rdf:RDF xmlns:rdf="http://www.w3.org/1999/02/22-rdf-syntax-ns#">
      <rdf:Description rdf:about=""/>
   </rdf:RDF>
</x:xmpmeta>
                                                                                                    
                                                                                                    
                                                                                                    
                                                                                                    
                                                                                                    
                                                                                                    
                                                                                                    
                                                                                                    
                                                                                                    
                                                                                                    
                                                                                                    
                                                                                                    
                                                                                                    
                                                                                                    
                                                                                                    
                                                                                                    
                                                                                                    
                                                                                                    
                                                                                                    
                                                                                                    
                           
<?xpacket end="w"?></metadata>
<defs>
    <style>
      .cls-1 {
        fill: #c40e26;
        fill-rule: evenodd;
      }
    </style>
  </defs>
  <path id="настройки" class="cls-1" d="M205.187,471h-1.794a0.482,0.482,0,0,1-.477-0.431l-0.128-1.169a6.221,6.221,0,0,1-1.723-.725l-0.88.707a0.476,0.476,0,0,1-.638-0.035l-1.268-1.275a0.487,0.487,0,0,1-.036-0.646l0.7-.88a6.282,6.282,0,0,1-.735-1.779l-1.15-.127a0.482,0.482,0,0,1-.427-0.481v-1.8a0.482,0.482,0,0,1,.427-0.481l1.147-.128a6.274,6.274,0,0,1,.74-1.794l-0.708-.888a0.486,0.486,0,0,1,.035-0.646l1.269-1.275a0.476,0.476,0,0,1,.638-0.035l0.889,0.715a6.191,6.191,0,0,1,1.719-.723l0.127-1.156a0.482,0.482,0,0,1,.477-0.431h1.794a0.482,0.482,0,0,1,.477.431l0.125,1.132a6.231,6.231,0,0,1,1.8.736l0.875-.7a0.477,0.477,0,0,1,.638.035l1.269,1.275a0.486,0.486,0,0,1,.035.646l-0.691.866a6.278,6.278,0,0,1,.755,1.823l1.095,0.121a0.482,0.482,0,0,1,.428.481v1.8a0.482,0.482,0,0,1-.428.481l-1.1.121a6.287,6.287,0,0,1-.757,1.817l0.7,0.871a0.486,0.486,0,0,1-.035.646L209.1,469.37a0.478,0.478,0,0,1-.638.036l-0.883-.712a6.221,6.221,0,0,1-1.792.73l-0.125,1.145A0.481,0.481,0,0,1,205.187,471Zm-1.364-.968h0.934l0.116-1.064a0.483,0.483,0,0,1,.4-0.424,5.255,5.255,0,0,0,2.074-.845,0.477,0.477,0,0,1,.569.022l0.817,0.658,0.66-.662-0.645-.807a0.488,0.488,0,0,1-.019-0.582,5.337,5.337,0,0,0,.875-2.1,0.481,0.481,0,0,1,.42-0.393l1.014-.112V462.79l-1.013-.112a0.482,0.482,0,0,1-.419-0.394,5.316,5.316,0,0,0-.873-2.105,0.486,0.486,0,0,1,.02-0.58l0.64-.8-0.66-.662-0.808.651a0.476,0.476,0,0,1-.57.022,5.27,5.27,0,0,0-2.082-.851,0.48,0.48,0,0,1-.4-0.423l-0.116-1.052h-0.934l-0.118,1.07a0.481,0.481,0,0,1-.386.421,5.279,5.279,0,0,0-2.008.846,0.479,0.479,0,0,1-.571-0.022l-0.823-.662-0.66.663,0.656,0.822a0.486,0.486,0,0,1,.02.579,5.343,5.343,0,0,0-.857,2.079,0.482,0.482,0,0,1-.42.393l-1.063.118v0.936l1.066,0.118a0.483,0.483,0,0,1,.419.393,5.327,5.327,0,0,0,.854,2.064,0.488,0.488,0,0,1-.021.579l-0.649.815,0.659,0.662,0.814-.655a0.477,0.477,0,0,1,.572-0.021,5.28,5.28,0,0,0,2.011.848,0.482,0.482,0,0,1,.387.422Zm0.49-4.843a1.932,1.932,0,1,1,1.921-1.932A1.929,1.929,0,0,1,204.313,465.189Zm0-2.9a0.964,0.964,0,1,0,.961.964A0.964,0.964,0,0,0,204.313,462.293Z" transform="translate(-196.625 -455.5)"/>
</svg>
