<svg xmlns="http://www.w3.org/2000/svg" width="10.25" height="15.531" viewBox="0 0 10.25 15.531">
  <metadata><?xpacket begin="﻿" id="W5M0MpCehiHzreSzNTczkc9d"?>
<x:xmpmeta xmlns:x="adobe:ns:meta/" x:xmptk="Adobe XMP Core 5.6-c138 79.159824, 2016/09/14-01:09:01        ">
   <rdf:RDF xmlns:rdf="http://www.w3.org/1999/02/22-rdf-syntax-ns#">
      <rdf:Description rdf:about=""/>
   </rdf:RDF>
</x:xmpmeta>
                                                                                                    
                                                                                                    
                                                                                                    
                                                                                                    
                                                                                                    
                                                                                                    
                                                                                                    
                                                                                                    
                                                                                                    
                                                                                                    
                                                                                                    
                                                                                                    
                                                                                                    
                                                                                                    
                                                                                                    
                                                                                                    
                                                                                                    
                                                                                                    
                                                                                                    
                                                                                                    
                           
<?xpacket end="w"?></metadata>
<defs>
    <style>
      .cls-1 {
        fill: #786e76;
        fill-rule: evenodd;
      }
    </style>
  </defs>
  <path class="cls-1" d="M462.171,265.012a0.463,0.463,0,0,1-.388-0.216l-4.273-6.674-4.273,6.674a0.458,0.458,0,0,1-.523.195,0.483,0.483,0,0,1-.331-0.465V249.969a0.476,0.476,0,0,1,.466-0.486h9.322a0.476,0.476,0,0,1,.466.486v14.557a0.485,0.485,0,0,1-.331.465A0.452,0.452,0,0,1,462.171,265.012Zm-4.661-8.25a0.462,0.462,0,0,1,.388.216l3.807,5.946v-12.47h-8.39v12.47l3.807-5.946A0.462,0.462,0,0,1,457.51,256.762Z" transform="translate(-452.375 -249.469)"/>
</svg>
