<svg xmlns="http://www.w3.org/2000/svg" width="10.25" height="15.531" viewBox="0 0 10.25 15.531">
  <metadata><?xpacket begin="﻿" id="W5M0MpCehiHzreSzNTczkc9d"?>
<x:xmpmeta xmlns:x="adobe:ns:meta/" x:xmptk="Adobe XMP Core 5.6-c138 79.159824, 2016/09/14-01:09:01        ">
   <rdf:RDF xmlns:rdf="http://www.w3.org/1999/02/22-rdf-syntax-ns#">
      <rdf:Description rdf:about=""/>
   </rdf:RDF>
</x:xmpmeta>
                                                                                                    
                                                                                                    
                                                                                                    
                                                                                                    
                                                                                                    
                                                                                                    
                                                                                                    
                                                                                                    
                                                                                                    
                                                                                                    
                                                                                                    
                                                                                                    
                                                                                                    
                                                                                                    
                                                                                                    
                                                                                                    
                                                                                                    
                                                                                                    
                                                                                                    
                                                                                                    
                           
<?xpacket end="w"?></metadata>
<defs>
    <style>
      .cls-1 {
        fill: #fcb825;
        fill-rule: evenodd;
      }
    </style>
  </defs>
  <path id="Shape_61_копия" data-name="Shape 61 копия" class="cls-1" d="M1059.17,315.012a0.473,0.473,0,0,1-.39-0.216l-4.27-6.674-4.27,6.674a0.469,0.469,0,0,1-.53.195,0.492,0.492,0,0,1-.33-0.465V299.969a0.478,0.478,0,0,1,.47-0.486h9.32a0.478,0.478,0,0,1,.47.486v14.557a0.492,0.492,0,0,1-.33.465A0.485,0.485,0,0,1,1059.17,315.012Zm-4.66-8.25a0.464,0.464,0,0,1,.39.216l3.8,5.946v-12.47h-8.38v12.47l3.8-5.946A0.464,0.464,0,0,1,1054.51,306.762Z" transform="translate(-1049.38 -299.469)"/>
</svg>
