<svg xmlns="http://www.w3.org/2000/svg" width="14.81" height="14.594" viewBox="0 0 14.81 14.594">
  <metadata><?xpacket begin="﻿" id="W5M0MpCehiHzreSzNTczkc9d"?>
<x:xmpmeta xmlns:x="adobe:ns:meta/" x:xmptk="Adobe XMP Core 5.6-c138 79.159824, 2016/09/14-01:09:01        ">
   <rdf:RDF xmlns:rdf="http://www.w3.org/1999/02/22-rdf-syntax-ns#">
      <rdf:Description rdf:about=""/>
   </rdf:RDF>
</x:xmpmeta>
                                                                                                    
                                                                                                    
                                                                                                    
                                                                                                    
                                                                                                    
                                                                                                    
                                                                                                    
                                                                                                    
                                                                                                    
                                                                                                    
                                                                                                    
                                                                                                    
                                                                                                    
                                                                                                    
                                                                                                    
                                                                                                    
                                                                                                    
                                                                                                    
                                                                                                    
                                                                                                    
                           
<?xpacket end="w"?></metadata>
<defs>
    <style>
      .cls-1 {
        fill: #fcb825;
        fill-rule: evenodd;
      }
    </style>
  </defs>
  <path id="Shape_22_копия" data-name="Shape 22 копия" class="cls-1" d="M1082.69,313.562a0.417,0.417,0,0,1-.23-0.068l-4.07-2.526-4.06,2.526a0.444,0.444,0,0,1-.51-0.026,0.507,0.507,0,0,1-.18-0.5l1.08-4.737-3.59-3.182a0.5,0.5,0,0,1-.14-0.518,0.477,0.477,0,0,1,.41-0.336l4.73-.408,1.84-4.491a0.457,0.457,0,0,1,.42-0.294h0a0.462,0.462,0,0,1,.43.294l1.84,4.491,4.73,0.408a0.477,0.477,0,0,1,.41.336,0.5,0.5,0,0,1-.15.518l-3.59,3.182,1.09,4.737a0.507,0.507,0,0,1-.18.5A0.452,0.452,0,0,1,1082.69,313.562Zm-10.1-8.5,2.95,2.617a0.507,0.507,0,0,1,.15.483l-0.89,3.911,3.36-2.088a0.439,0.439,0,0,1,.47,0l3.36,2.087-0.89-3.91a0.465,0.465,0,0,1,.15-0.483l2.95-2.617-3.9-.336a0.448,0.448,0,0,1-.38-0.293l-1.53-3.718-1.52,3.718a0.474,0.474,0,0,1-.39.293Z" transform="translate(-1071 -299)"/>
</svg>
