<svg xmlns="http://www.w3.org/2000/svg" width="15.344" height="15.469" viewBox="0 0 15.344 15.469">
  <metadata><?xpacket begin="﻿" id="W5M0MpCehiHzreSzNTczkc9d"?>
<x:xmpmeta xmlns:x="adobe:ns:meta/" x:xmptk="Adobe XMP Core 5.6-c138 79.159824, 2016/09/14-01:09:01        ">
   <rdf:RDF xmlns:rdf="http://www.w3.org/1999/02/22-rdf-syntax-ns#">
      <rdf:Description rdf:about=""/>
   </rdf:RDF>
</x:xmpmeta>
                                                                                                    
                                                                                                    
                                                                                                    
                                                                                                    
                                                                                                    
                                                                                                    
                                                                                                    
                                                                                                    
                                                                                                    
                                                                                                    
                                                                                                    
                                                                                                    
                                                                                                    
                                                                                                    
                                                                                                    
                                                                                                    
                                                                                                    
                                                                                                    
                                                                                                    
                                                                                                    
                           
<?xpacket end="w"?></metadata>
<defs>
    <style>
      .cls-1 {
        fill: #c40e26;
        fill-rule: evenodd;
      }
    </style>
  </defs>
  <path id="мои_подписки" data-name="мои подписки" class="cls-1" d="M208,432.752H197.468a0.482,0.482,0,0,1-.48-0.484V421.645a0.482,0.482,0,0,1,.48-0.484h1.809a0.484,0.484,0,0,1,0,.968h-1.329v9.655h9.576v-1.338a0.48,0.48,0,1,1,.96,0v1.822A0.482,0.482,0,0,1,208,432.752Zm3.864-3.895H201.331a0.482,0.482,0,0,1-.48-0.484V417.75a0.482,0.482,0,0,1,.48-0.484h10.537a0.482,0.482,0,0,1,.48.484v10.623A0.482,0.482,0,0,1,211.868,428.857Zm-10.057-.968h9.577v-9.655h-9.577v9.655Z" transform="translate(-197 -417.281)"/>
</svg>
