<svg xmlns="http://www.w3.org/2000/svg" width="13.969" height="15.532" viewBox="0 0 13.969 15.532">
  <metadata><?xpacket begin="﻿" id="W5M0MpCehiHzreSzNTczkc9d"?>
<x:xmpmeta xmlns:x="adobe:ns:meta/" x:xmptk="Adobe XMP Core 5.6-c138 79.159824, 2016/09/14-01:09:01        ">
   <rdf:RDF xmlns:rdf="http://www.w3.org/1999/02/22-rdf-syntax-ns#">
      <rdf:Description rdf:about=""/>
   </rdf:RDF>
</x:xmpmeta>
                                                                                                    
                                                                                                    
                                                                                                    
                                                                                                    
                                                                                                    
                                                                                                    
                                                                                                    
                                                                                                    
                                                                                                    
                                                                                                    
                                                                                                    
                                                                                                    
                                                                                                    
                                                                                                    
                                                                                                    
                                                                                                    
                                                                                                    
                                                                                                    
                                                                                                    
                                                                                                    
                           
<?xpacket end="w"?></metadata>
<defs>
    <style>
      .cls-1 {
        fill: #c40e26;
        fill-rule: evenodd;
      }
    </style>
  </defs>
  <path class="cls-1" d="M649.534,265.053h-13.05a0.475,0.475,0,0,1-.466-0.485v-2.976a0.466,0.466,0,1,1,.932,0v2.491h12.118v-2.491a0.466,0.466,0,1,1,.932,0v2.976A0.475,0.475,0,0,1,649.534,265.053Zm-2.759-10.788a0.453,0.453,0,0,1-.323-0.136l-3.423-3.441-3.422,3.441a0.452,0.452,0,0,1-.659-0.012,0.5,0.5,0,0,1,.012-0.686l3.746-3.767a0.453,0.453,0,0,1,.647,0l3.746,3.767a0.5,0.5,0,0,1,.011.686A0.453,0.453,0,0,1,646.775,254.265Zm-3.746,7.812a0.476,0.476,0,0,1-.466-0.485V250.013a0.466,0.466,0,1,1,.932,0v11.579A0.475,0.475,0,0,1,643.029,262.077Z" transform="translate(-636.031 -249.531)"/>
</svg>
