<svg xmlns="http://www.w3.org/2000/svg" width="14.813" height="14.594" viewBox="0 0 14.813 14.594">
  <metadata><?xpacket begin="﻿" id="W5M0MpCehiHzreSzNTczkc9d"?>
<x:xmpmeta xmlns:x="adobe:ns:meta/" x:xmptk="Adobe XMP Core 5.6-c138 79.159824, 2016/09/14-01:09:01        ">
   <rdf:RDF xmlns:rdf="http://www.w3.org/1999/02/22-rdf-syntax-ns#">
      <rdf:Description rdf:about=""/>
   </rdf:RDF>
</x:xmpmeta>
                                                                                                    
                                                                                                    
                                                                                                    
                                                                                                    
                                                                                                    
                                                                                                    
                                                                                                    
                                                                                                    
                                                                                                    
                                                                                                    
                                                                                                    
                                                                                                    
                                                                                                    
                                                                                                    
                                                                                                    
                                                                                                    
                                                                                                    
                                                                                                    
                                                                                                    
                                                                                                    
                           
<?xpacket end="w"?></metadata>
<defs>
    <style>
      .cls-1 {
        fill: #786e76;
        fill-rule: evenodd;
      }
    </style>
  </defs>
  <path class="cls-1" d="M572.694,263.563a0.449,0.449,0,0,1-.237-0.069l-4.063-2.526-4.066,2.526a0.447,0.447,0,0,1-.512-0.026,0.5,0.5,0,0,1-.176-0.5l1.081-4.737-3.588-3.182a0.5,0.5,0,0,1-.142-0.518,0.47,0.47,0,0,1,.4-0.336l4.732-.408,1.84-4.491a0.463,0.463,0,0,1,.427-0.294h0a0.463,0.463,0,0,1,.426.294l1.839,4.491,4.732,0.408a0.469,0.469,0,0,1,.4.336,0.5,0.5,0,0,1-.142.518l-3.589,3.182,1.082,4.737a0.5,0.5,0,0,1-.177.5A0.448,0.448,0,0,1,572.694,263.563Zm-10.106-8.5,2.951,2.617a0.5,0.5,0,0,1,.151.483l-0.893,3.911,3.36-2.088a0.446,0.446,0,0,1,.474,0l3.357,2.087-0.892-3.91a0.5,0.5,0,0,1,.151-0.483l2.952-2.617-3.895-.337a0.463,0.463,0,0,1-.388-0.292l-1.522-3.718-1.524,3.718a0.465,0.465,0,0,1-.388.292Z" transform="translate(-561 -249)"/>
</svg>
