<svg xmlns="http://www.w3.org/2000/svg" width="24" height="18" viewBox="0 0 24 18">
  <defs>
    <style>
      .cls-1 {
        fill: #b6b6b6;
        fill-rule: evenodd;
      }
    </style>
  </defs>
  <path id="Forma_1" data-name="Forma 1" class="cls-1" d="M338.62,1539H315.38a0.37,0.37,0,0,0-.38.36v17.28a0.37,0.37,0,0,0,.38.36h23.24a0.37,0.37,0,0,0,.38-0.36v-17.28A0.37,0.37,0,0,0,338.62,1539Zm-1.9,15.12-5.229-5.15a0.161,0.161,0,0,0-.215-0.01l-3.627,3.04-4.636-5.43a0.152,0.152,0,0,0-.124-0.06,0.181,0.181,0,0,0-.122.06l-5.484,7v-12.4h19.437v12.95h0Zm-5.743-7.73a1.777,1.777,0,1,0-1.865-1.77A1.818,1.818,0,0,0,330.975,1546.39Z" transform="translate(-315 -1539)"/>
</svg>
