<svg width="24" height="24" viewBox="0 0 24 24" fill="none" xmlns="http://www.w3.org/2000/svg">
<path d="M12 24C18.6274 24 24 18.6274 24 12C24 5.37258 18.6274 0 12 0C5.37258 0 0 5.37258 0 12C0 18.6274 5.37258 24 12 24Z" fill="#6DA544"/>
<path d="M11.9999 4.69531L21.913 11.9997L11.9999 19.304L2.08691 11.9997L11.9999 4.69531Z" fill="#FFDA44"/>
<path d="M11.9999 16.174C14.3051 16.174 16.1738 14.3052 16.1738 12.0001C16.1738 9.69489 14.3051 7.82617 11.9999 7.82617C9.69476 7.82617 7.82605 9.69489 7.82605 12.0001C7.82605 14.3052 9.69476 16.174 11.9999 16.174Z" fill="#F0F0F0"/>
<path d="M9.913 11.7393C9.18719 11.7393 8.48674 11.8496 7.82739 12.0545C7.8566 14.3345 9.71303 16.1741 12 16.1741C13.4141 16.1741 14.663 15.4701 15.418 14.3943C14.1263 12.7773 12.1388 11.7393 9.913 11.7393Z" fill="#0052B4"/>
<path d="M16.0965 12.7997C16.1468 12.5408 16.1739 12.2737 16.1739 12.0001C16.1739 9.69484 14.3052 7.82617 12 7.82617C10.28 7.82617 8.80343 8.86684 8.16443 10.3527C8.72927 10.2356 9.31408 10.174 9.9131 10.174C12.3373 10.174 14.5304 11.1817 16.0965 12.7997Z" fill="#0052B4"/>
</svg>
