<svg width="24" height="24" viewBox="0 0 24 24" fill="none" xmlns="http://www.w3.org/2000/svg">
<g clip-path="url(#clip0)">
<path d="M8.78906e-05 2.08691H0V21.913H8.78906e-05V12V2.08691Z" fill="#FF9811"/>
<path d="M12 24.0009C18.6273 24.0009 23.9999 18.6283 23.9999 12.0009C23.9999 5.37354 18.6273 0.000976562 12 0.000976562C5.37256 0.000976562 0 5.37354 0 12.0009C0 18.6283 5.37256 24.0009 12 24.0009Z" fill="#F0F0F0"/>
<path d="M12.0001 0C8.07418 0 4.58883 1.88545 2.39954 4.8H21.6005C19.4113 1.88541 15.9259 0 12.0001 0Z" fill="#0052B4"/>
<path d="M12.0002 24.0002C15.9261 24.0002 19.4114 22.1147 21.6007 19.2002H2.39966C4.58891 22.1148 8.0743 24.0002 12.0002 24.0002Z" fill="#0052B4"/>
<path d="M0.00012207 11.9996C0.00012207 12.8216 0.0829971 13.6242 0.24045 14.3996H23.7598C23.9173 13.6242 24.0001 12.8216 24.0001 11.9996C24.0001 11.1777 23.9172 10.3751 23.7598 9.59961H0.24045C0.0829971 10.3751 0.00012207 11.1777 0.00012207 11.9996Z" fill="#0052B4"/>
<path d="M3.51492 3.51465C-1.17131 8.20088 -1.17131 15.7989 3.51492 20.4852C5.45147 18.5487 7.31391 16.6862 12.0002 12L3.51492 3.51465Z" fill="#D80027"/>
<path d="M4.85682 8.87012L5.63373 11.2614H8.14839L6.11415 12.7395L6.89106 15.1309L4.85682 13.6529L2.8225 15.1309L3.59959 12.7395L1.56531 11.2614H4.07978L4.85682 8.87012Z" fill="#F0F0F0"/>
</g>
<defs>
<clipPath id="clip0">
<rect width="24" height="24" fill="white"/>
</clipPath>
</defs>
</svg>
