<svg width="24" height="24" viewBox="0 0 24 24" fill="none" xmlns="http://www.w3.org/2000/svg">
<path d="M12 24C18.6274 24 24 18.6274 24 12C24 5.37258 18.6274 0 12 0C5.37258 0 0 5.37258 0 12C0 18.6274 5.37258 24 12 24Z" fill="#F0F0F0"/>
<path d="M12 0C7.24243 0 3.13167 2.76867 1.19067 6.78263H22.8092C20.8682 2.76867 16.7574 0 12 0Z" fill="#FF9811"/>
<path d="M12 24.0004C16.7574 24.0004 20.8682 21.2317 22.8092 17.2178H1.19067C3.13167 21.2317 7.24243 24.0004 12 24.0004Z" fill="#6DA544"/>
<path d="M11.9999 16.174C14.3051 16.174 16.1738 14.3052 16.1738 12.0001C16.1738 9.69489 14.3051 7.82617 11.9999 7.82617C9.69476 7.82617 7.82605 9.69489 7.82605 12.0001C7.82605 14.3052 9.69476 16.174 11.9999 16.174Z" fill="#0052B4"/>
<path d="M12 14.609C13.4408 14.609 14.6087 13.441 14.6087 12.0003C14.6087 10.5595 13.4408 9.3916 12 9.3916C10.5593 9.3916 9.39136 10.5595 9.39136 12.0003C9.39136 13.441 10.5593 14.609 12 14.609Z" fill="#F0F0F0"/>
<path d="M12 8.78125L12.8048 10.6065L14.7878 10.3908L13.6095 12.0003L14.7878 13.6099L12.8048 13.3942L12 15.2194L11.1952 13.3942L9.21216 13.6098L10.3904 12.0003L9.21216 10.3908L11.1952 10.6065L12 8.78125Z" fill="#0052B4"/>
</svg>
