<svg width="24" height="24" viewBox="0 0 24 24" fill="none" xmlns="http://www.w3.org/2000/svg">
<path d="M12 24C18.6274 24 24 18.6274 24 12C24 5.37258 18.6274 0 12 0C5.37258 0 0 5.37258 0 12C0 18.6274 5.37258 24 12 24Z" fill="#F0F0F0"/>
<path d="M16.5184 9.39091H13.5061L12 6.78223L10.4939 9.39091H7.48157L8.98785 11.9996L7.48157 14.6083H10.4939L12 17.217L13.5061 14.6083H16.5184L15.0121 11.9996L16.5184 9.39091ZM13.8504 11.9996L12.9253 13.6022H11.0749L10.1496 11.9996L11.0748 10.397H12.9252L13.8504 11.9996ZM12 8.79443L12.3443 9.39087H11.6557L12 8.79443ZM9.22433 10.397H9.91302L9.56868 10.9935L9.22433 10.397ZM9.22433 13.6022L9.56872 13.0057L9.91307 13.6022H9.22433ZM12 15.2047L11.6557 14.6083H12.3443L12 15.2047ZM14.7756 13.6022H14.087L14.4314 13.0057L14.7756 13.6022ZM14.087 10.397H14.7756L14.4313 10.9935L14.087 10.397Z" fill="#0052B4"/>
<path d="M19.4698 2.6084H4.53009C3.43495 3.48065 2.49576 4.54012 1.76123 5.73885H22.2387C21.5041 4.54016 20.5649 3.48065 19.4698 2.6084Z" fill="#0052B4"/>
<path d="M4.53009 21.3912H19.4698C20.5649 20.5189 21.5041 19.4595 22.2386 18.2607H1.76123C2.49581 19.4594 3.435 20.5189 4.53009 21.3912Z" fill="#0052B4"/>
</svg>
