<svg width="24" height="24" viewBox="0 0 24 24" fill="none" xmlns="http://www.w3.org/2000/svg">
<g clip-path="url(#clip0)">
<path d="M0 11.9996C0 13.4674 0.264047 14.8735 0.746391 16.1735L12 17.217L23.2536 16.1735C23.736 14.8735 24 13.4674 24 11.9996C24 10.5318 23.736 9.1257 23.2536 7.82571L12 6.78223L0.746391 7.82571C0.264047 9.1257 0 10.5318 0 11.9996Z" fill="#FFDA44"/>
<path d="M23.2537 7.82611C21.5582 3.25655 17.1596 0 12.0001 0C6.84049 0 2.44198 3.25655 0.74646 7.82611H23.2537Z" fill="#D80027"/>
<path d="M0.74646 16.1738C2.44198 20.7434 6.84049 23.9999 12.0001 23.9999C17.1596 23.9999 21.5582 20.7434 23.2537 16.1738H0.74646Z" fill="#D80027"/>
</g>
<defs>
<clipPath id="clip0">
<rect width="24" height="24" fill="white"/>
</clipPath>
</defs>
</svg>
