<svg width="24" height="24" viewBox="0 0 24 24" fill="none" xmlns="http://www.w3.org/2000/svg">
<path d="M12 24C18.6274 24 24 18.6274 24 12C24 5.37258 18.6274 0 12 0C5.37258 0 0 5.37258 0 12C0 18.6274 5.37258 24 12 24Z" fill="#D80027"/>
<path d="M11.5086 9.80566L12.4932 11.1625L14.0877 10.6454L13.1016 12.0011L14.0861 13.3578L12.4921 12.8388L11.506 14.1944L11.507 12.5181L9.91296 11.9991L11.5076 11.4821L11.5086 9.80566Z" fill="#F0F0F0"/>
<path d="M8.82149 15.3914C6.94856 15.3914 5.43018 13.873 5.43018 12.0001C5.43018 10.1272 6.94856 8.6088 8.82149 8.6088C9.40546 8.6088 9.95493 8.7565 10.4346 9.01642C9.68207 8.28039 8.65284 7.82617 7.51715 7.82617C5.21193 7.82617 3.34326 9.69489 3.34326 12.0001C3.34326 14.3052 5.21198 16.174 7.51715 16.174C8.65293 16.174 9.68212 15.7197 10.4346 14.9837C9.95493 15.2437 9.40546 15.3914 8.82149 15.3914Z" fill="#F0F0F0"/>
</svg>
