<?xml version="1.0" encoding="UTF-8" standalone="no"?>
<svg
   xmlns:dc="http://purl.org/dc/elements/1.1/"
   xmlns:cc="http://creativecommons.org/ns#"
   xmlns:rdf="http://www.w3.org/1999/02/22-rdf-syntax-ns#"
   xmlns:svg="http://www.w3.org/2000/svg"
   xmlns="http://www.w3.org/2000/svg"
   viewBox="0 0 64 59.734669"
   height="59.734669"
   width="64"
   xml:space="preserve"
   id="svg2"
   version="1.1"><metadata
     id="metadata8"><rdf:RDF><cc:Work
         rdf:about=""><dc:format>image/svg+xml</dc:format><dc:type
           rdf:resource="http://purl.org/dc/dcmitype/StillImage" /><dc:title></dc:title></cc:Work></rdf:RDF></metadata><defs
     id="defs6"><clipPath
       id="clipPath18"
       clipPathUnits="userSpaceOnUse"><path
         id="path16"
         d="M 0,44.801 H 48 V 0 H 0 Z" /></clipPath></defs><g
     transform="matrix(1.3333333,0,0,-1.3333333,0,59.734667)"
     id="g10"><g
       id="g12"><g
         clip-path="url(#clipPath18)"
         id="g14"><g
           transform="translate(43.1992,44.801)"
           id="g20"><path
             id="path22"
             style="fill:#ffffff;fill-opacity:1;fill-rule:nonzero;stroke:none"
             d="M 0,0 H -38.398 C -41,0 -43.199,-2.199 -43.199,-4.801 v -26.398 c 0,-2.602 2.199,-4.801 4.801,-4.801 h 22.843 l 7.766,-8.539 c 0.152,-0.168 0.367,-0.262 0.59,-0.262 0.097,0 0.195,0.02 0.289,0.055 0.308,0.117 0.512,0.414 0.512,0.746 v 8 H 0 c 2.602,0 4.801,2.199 4.801,4.801 V -4.801 C 4.801,-2.199 2.602,0 0,0" /></g></g></g></g></svg>